<svg width="42" height="42" viewBox="0 0 42 42" fill="none" xmlns="http://www.w3.org/2000/svg">
<path d="M42 17.699C41.9998 17.5993 41.9734 17.5013 41.9234 17.415C41.8734 17.3287 41.8016 17.2571 41.7151 17.2074L38.8298 15.5503L41.7163 13.8842C41.8921 13.7826 42.0004 13.5949 42 13.3919C41.9996 13.1888 41.891 13.0015 41.7151 12.9004C36.7964 10.0767 31.8782 7.25205 26.9606 4.42659C26.8744 4.37701 26.7767 4.35097 26.6773 4.35107C26.5778 4.35118 26.4802 4.37741 26.3941 4.42716L0.284157 19.502C0.19782 19.5519 0.12615 19.6237 0.0763594 19.7101C0.0265691 19.7965 0.000415977 19.8945 0.000532401 19.9942C0.000648825 20.0939 0.0270307 20.1918 0.0770225 20.2781C0.127014 20.3644 0.198852 20.436 0.285305 20.4857C1.24688 21.0382 2.20869 21.5901 3.17034 22.1426L0.283747 23.809C0.19735 23.8588 0.125621 23.9305 0.0758018 24.0169C0.0259823 24.1033 -0.000164486 24.2013 7.78594e-07 24.301C0.00017378 24.4008 0.0265915 24.4987 0.0765997 24.585C0.126608 24.6713 0.198446 24.7429 0.284895 24.7926L3.1701 26.4497L0.283747 28.1158C0.197359 28.1657 0.125643 28.2374 0.0758269 28.3238C0.026011 28.4102 -0.000143252 28.5083 7.78594e-07 28.608C0.00017378 28.7077 0.0265915 28.8057 0.0765997 28.892C0.126608 28.9783 0.198446 29.0499 0.284895 29.0996L15.0394 37.5734C15.1257 37.6229 15.2233 37.6489 15.3228 37.6488C15.4222 37.6487 15.5198 37.6224 15.6059 37.5727L41.7162 22.498C41.8026 22.4482 41.8743 22.3764 41.9242 22.29C41.974 22.2036 42.0001 22.1056 41.9999 22.0058C41.9997 21.9061 41.9733 21.8082 41.9233 21.7219C41.8733 21.6357 41.8015 21.5641 41.715 21.5143L38.8298 19.8574L41.7162 18.191C41.8026 18.1412 41.8743 18.0695 41.9242 17.9831C41.974 17.8967 42.0002 17.7987 42 17.699ZM26.6786 5.57371C31.2169 8.18113 35.7556 10.7878 40.2947 13.3938L30.4671 19.0663C29.9225 18.7566 29.3785 18.4457 28.8351 18.1337L34.422 14.9099C34.4884 14.8716 34.5464 14.8201 34.5924 14.7588C34.6384 14.6974 34.6714 14.6273 34.6896 14.5528C34.7077 14.4783 34.7106 14.4009 34.698 14.3253C34.6855 14.2496 34.6577 14.1773 34.6164 14.1127C34.4963 13.9246 34.32 13.5504 34.4907 13.1586C34.5463 13.0305 34.5528 12.8864 34.5089 12.7539C34.465 12.6213 34.3738 12.5096 34.2527 12.4401L28.2127 8.96866C28.1403 8.92713 28.0597 8.90206 27.9765 8.89522C27.8934 8.88839 27.8097 8.89996 27.7316 8.92912C26.9556 9.21885 25.8966 9.17299 25.0345 8.81288C24.9539 8.77933 24.8667 8.76479 24.7795 8.7704C24.6924 8.776 24.6077 8.8016 24.532 8.8452L18.6199 12.2591L18.0005 11.9025L16.8559 11.2436L26.6786 5.57371ZM33.4012 14.1883L27.6962 17.4802C25.049 15.9594 22.4026 14.4373 19.757 12.9138L24.8658 9.96337C25.8431 10.3049 26.9483 10.3478 27.867 10.0794L33.3069 13.2058C33.2588 13.5289 33.291 13.8633 33.4012 14.1883ZM11.522 14.3228C12.0703 14.6378 12.6187 14.9524 13.1671 15.2674L7.5897 18.4894C7.52329 18.5277 7.46535 18.5791 7.41937 18.6404C7.37339 18.7018 7.34033 18.7718 7.32219 18.8463C7.30396 18.9208 7.30104 18.9982 7.31362 19.0738C7.32619 19.1495 7.35401 19.2218 7.39536 19.2864C7.51546 19.4745 7.69174 19.8486 7.52136 20.2401C7.46575 20.3681 7.45928 20.5122 7.50318 20.6448C7.54707 20.7773 7.63827 20.889 7.75934 20.9586L13.7975 24.4246C13.8698 24.4661 13.9505 24.4912 14.0336 24.4981C14.1168 24.5049 14.2004 24.4933 14.2786 24.4641C15.0538 24.1746 16.1128 24.2201 16.976 24.5798C17.0566 24.6135 17.1438 24.6281 17.2309 24.6225C17.318 24.6169 17.4026 24.5912 17.4782 24.5475L18.4086 24.0102C20.0683 23.0516 21.7278 22.0932 23.3878 21.1358L25.1398 22.1415L15.3212 27.8121C10.7818 25.2065 6.24303 22.5998 1.70477 19.9922L11.522 14.3228ZM8.61066 19.2105L14.305 15.9209C16.7068 17.3002 19.1087 18.6796 21.5106 20.0584L22.2495 20.4825C20.7797 21.3304 19.3103 22.1786 17.8411 23.0272L17.1445 23.4295C16.1665 23.088 15.062 23.046 14.143 23.314L8.70532 20.1927C8.75298 19.8699 8.72083 19.5354 8.61066 19.2105ZM4.30828 22.7962C7.885 24.8511 11.4621 26.9055 15.0394 28.9593C15.1257 29.0088 15.2233 29.0348 15.3228 29.0346C15.4222 29.0345 15.5198 29.0083 15.6059 28.9585L25.7113 23.1222L25.7185 26.1167L15.3214 32.1193L1.70494 24.2991L4.30828 22.7962ZM15.3214 36.4263L1.70494 28.6062L4.30853 27.1035L15.0394 33.2665C15.1257 33.316 15.2233 33.342 15.3228 33.3418C15.4222 33.3417 15.5198 33.3155 15.6059 33.2657L25.7217 27.4254L25.729 30.4178L15.3214 36.4263ZM26.8626 29.7633L26.8442 22.1383C26.844 22.0386 26.8176 21.9408 26.7676 21.8546C26.7176 21.7684 26.6457 21.697 26.5593 21.6474C26.5593 21.6474 15.7969 15.4697 12.6583 13.6665L15.7201 11.8995C15.7201 11.8995 28.9607 19.5228 29.9059 20.0383L29.9218 27.9968L26.8626 29.7633ZM40.2951 22.0078L31.0556 27.3424L31.0496 24.3493L37.6933 20.5137L40.2951 22.0078ZM31.0469 23.0402L31.041 20.046L37.6929 16.2064L40.2951 17.7008L31.0469 23.0402ZM13.6708 21.0909C13.6335 21.0264 13.6093 20.9551 13.5995 20.8812C13.5898 20.8073 13.5947 20.7323 13.614 20.6603C13.6333 20.5883 13.6666 20.5208 13.7119 20.4617C13.7573 20.4026 13.8139 20.353 13.8785 20.3157L16.3649 18.88C16.4294 18.8427 16.5007 18.8184 16.5746 18.8086C16.6485 18.7989 16.7236 18.8038 16.7956 18.8231C16.8676 18.8424 16.9351 18.8757 16.9942 18.9211C17.0533 18.9665 17.1029 19.0231 17.1401 19.0877C17.1774 19.1522 17.2016 19.2235 17.2113 19.2974C17.2211 19.3713 17.2162 19.4463 17.1969 19.5183C17.1776 19.5903 17.1443 19.6578 17.0989 19.7169C17.0535 19.776 16.997 19.8257 16.9324 19.8629L14.446 21.2986C14.3814 21.3359 14.3102 21.3602 14.2363 21.37C14.1624 21.3797 14.0873 21.3748 14.0153 21.3555C13.9433 21.3362 13.8758 21.3029 13.8167 21.2575C13.7575 21.2121 13.708 21.1555 13.6708 21.0909ZM28.657 12.4377C28.6942 12.5022 28.7184 12.5735 28.7282 12.6473C28.7379 12.7212 28.733 12.7963 28.7137 12.8683C28.6944 12.9403 28.6611 13.0078 28.6158 13.0669C28.5704 13.126 28.5138 13.1756 28.4493 13.2129L26.2625 14.4755C26.1764 14.5255 26.0786 14.5517 25.979 14.5516C25.8794 14.5517 25.7814 14.5256 25.6951 14.4758C25.6087 14.4259 25.5371 14.3542 25.4873 14.2679C25.45 14.2033 25.4258 14.1321 25.4161 14.0582C25.4063 13.9843 25.4112 13.9092 25.4305 13.8372C25.4498 13.7653 25.4831 13.6978 25.5285 13.6386C25.5738 13.5795 25.6304 13.5299 25.695 13.4927L27.8818 12.2301C27.9463 12.1927 28.0175 12.1685 28.0914 12.1587C28.1653 12.1489 28.2404 12.1538 28.3124 12.1731C28.3844 12.1924 28.4519 12.2257 28.511 12.2711C28.5702 12.3165 28.6197 12.3731 28.657 12.4377Z" fill="#2F87CC"/>
</svg>
