<svg width="42" height="42" viewBox="0 0 42 42" fill="none" xmlns="http://www.w3.org/2000/svg">
<path d="M38.4371 9.16954H35.5357V3.09861C35.5357 2.94944 35.4764 2.80637 35.3709 2.70088C35.2654 2.59539 35.1224 2.53613 34.9732 2.53613H6.87926C4.73785 2.53851 3.00245 4.27383 3 6.41532V29.5019C3.00238 31.6434 4.7377 33.3787 6.87911 33.3812H7.17704C9.46692 38.5456 15.5098 40.8759 20.6742 38.586C22.9949 37.557 24.85 35.7019 25.879 33.3812H38.4372C38.5864 33.3812 38.7295 33.3219 38.8349 33.2164C38.9404 33.111 38.9997 32.9679 38.9997 32.8187V9.73202C38.9997 9.58283 38.9404 9.43976 38.8349 9.33428C38.7294 9.2288 38.5863 9.16954 38.4371 9.16954ZM6.87926 3.6611H34.4107V9.16954H6.87926C5.35815 9.16932 4.12518 7.93606 4.1254 6.41496C4.12554 4.89407 5.35844 3.66124 6.87926 3.6611ZM16.528 38.3389C11.4993 38.3389 7.42263 34.2623 7.42263 29.2335C7.42263 24.2047 11.4992 20.1281 16.528 20.1281C21.5568 20.1281 25.6335 24.2047 25.6335 29.2335C25.6277 34.2599 21.5544 38.3331 16.528 38.3389ZM26.3026 32.2561C26.6055 31.2772 26.7592 30.2582 26.7584 29.2335C26.7584 23.5925 22.1691 19.0031 16.528 19.0031C10.887 19.0031 6.29767 23.5925 6.29767 29.2335C6.29695 30.2571 6.4503 31.2749 6.75257 32.2528C5.28309 32.1836 4.12677 30.973 4.12504 29.5019V9.14452C4.48504 9.50912 4.91391 9.79854 5.38672 9.99597C5.85954 10.1934 6.36688 10.2949 6.87926 10.2946H37.8747V16.8722H31.2597C28.8279 16.8625 26.8488 18.826 26.8391 21.2577C26.8294 23.6895 28.7929 25.6687 31.2247 25.6783H37.8747V32.2562L26.3026 32.2561ZM37.8747 17.9971V24.5534H31.2597C29.4493 24.5618 27.9747 23.101 27.9664 21.2905C27.9579 19.4801 29.4188 18.0056 31.2292 17.9972H31.2597L37.8747 17.9971ZM29.8675 21.2752C29.8675 22.2728 30.6762 23.0815 31.6739 23.0815C32.6715 23.0815 33.4802 22.2728 33.4802 21.2752C33.4802 20.2776 32.6715 19.4688 31.6739 19.4688C30.6767 19.4701 29.8687 20.2781 29.8675 21.2752ZM31.6738 20.5939C31.8086 20.5939 31.9403 20.6338 32.0523 20.7087C32.1644 20.7836 32.2517 20.89 32.3033 21.0145C32.3548 21.139 32.3683 21.2759 32.342 21.4081C32.3157 21.5403 32.2508 21.6617 32.1556 21.7569C32.0603 21.8522 31.9389 21.9171 31.8067 21.9434C31.6746 21.9697 31.5376 21.9562 31.4131 21.9046C31.2886 21.8531 31.1822 21.7657 31.1073 21.6537C31.0325 21.5417 30.9925 21.4099 30.9925 21.2752C30.9927 21.0946 31.0645 20.9214 31.1923 20.7936C31.32 20.6659 31.4932 20.5941 31.6738 20.5939ZM20.6413 24.5145L13.335 34.6839C13.245 34.8011 13.1138 34.8797 12.9679 34.9036C12.8221 34.9275 12.6726 34.8949 12.5499 34.8125C12.4899 34.7694 12.439 34.715 12.4001 34.6522C12.3611 34.5894 12.335 34.5196 12.323 34.4467C12.3111 34.3738 12.3136 34.2992 12.3305 34.2273C12.3473 34.1554 12.3782 34.0875 12.4213 34.0275L19.7272 23.8581C19.7703 23.7981 19.8248 23.7471 19.8876 23.7082C19.9504 23.6692 20.0202 23.643 20.0931 23.6311C20.1661 23.6191 20.2406 23.6216 20.3126 23.6385C20.3845 23.6553 20.4524 23.6862 20.5124 23.7293C20.5724 23.7724 20.6234 23.8269 20.6623 23.8897C20.7013 23.9525 20.7275 24.0223 20.7395 24.0952C20.7514 24.1681 20.7489 24.2427 20.7321 24.3146C20.7152 24.3866 20.6844 24.4545 20.6413 24.5145ZM15.9229 25.7571C15.9229 24.4884 14.8945 23.46 13.6259 23.46C12.3572 23.46 11.3288 24.4884 11.3288 25.7571C11.3288 27.0258 12.3572 28.0542 13.6259 28.0542C14.8938 28.0525 15.9211 27.025 15.9226 25.7571H15.9229ZM12.4537 25.7571C12.4537 25.1097 12.9785 24.585 13.6259 24.585C14.2732 24.585 14.798 25.1097 14.798 25.7571C14.798 26.4044 14.2732 26.9292 13.6259 26.9292C12.9787 26.9286 12.4542 26.4043 12.4534 25.7571H12.4537ZM19.4309 30.413C18.1622 30.413 17.1338 31.4414 17.1338 32.7101C17.1338 33.9787 18.1622 35.0071 19.4309 35.0071C20.6995 35.0071 21.7279 33.9787 21.7279 32.7101V32.71C21.7265 31.4418 20.6987 30.4142 19.4305 30.413H19.4309ZM19.4309 33.8821C18.7835 33.8821 18.2587 33.3573 18.2587 32.71C18.2587 32.0626 18.7835 31.5379 19.4309 31.5379C20.0782 31.5379 20.603 32.0626 20.603 32.71C20.6023 33.3572 20.0777 33.8816 19.4305 33.8821H19.4309Z" fill="#2F87CC"/>
</svg>
