<svg width="42" height="42" viewBox="0 0 42 42" fill="none" xmlns="http://www.w3.org/2000/svg">
<path d="M10.0361 3.08907C9.81096 2.86425 9.50578 2.73798 9.1876 2.73798C8.86941 2.73798 8.56423 2.86425 8.33907 3.08907C7.86034 3.54569 7.22417 3.80044 6.5626 3.80044C5.90102 3.80044 5.26485 3.54569 4.78613 3.08907C4.55948 2.87195 4.25679 2.75224 3.94294 2.75561C3.62909 2.75899 3.32904 2.88516 3.1071 3.1071C2.88516 3.32904 2.75899 3.62909 2.75561 3.94294C2.75224 4.25679 2.87195 4.55948 3.08907 4.78613C3.5601 5.25734 3.82471 5.89633 3.82471 6.5626C3.82471 7.22887 3.5601 7.86786 3.08907 8.33907C2.86425 8.56423 2.73798 8.86941 2.73798 9.1876C2.73798 9.50578 2.86425 9.81096 3.08907 10.0361C3.5601 10.5073 3.82471 11.1463 3.82471 11.8126C3.82471 12.4789 3.5601 13.1179 3.08907 13.5891C2.86425 13.8142 2.73798 14.1194 2.73798 14.4376C2.73798 14.7558 2.86425 15.061 3.08907 15.2861C3.5601 15.7573 3.82471 16.3963 3.82471 17.0626C3.82471 17.7289 3.5601 18.3679 3.08907 18.8391C2.86425 19.0642 2.73798 19.3694 2.73798 19.6876C2.73798 20.0058 2.86425 20.311 3.08907 20.5361C3.5601 21.0073 3.82471 21.6463 3.82471 22.3126C3.82471 22.9789 3.5601 23.6179 3.08907 24.0891C2.86425 24.3142 2.73798 24.6194 2.73798 24.9376C2.73798 25.2558 2.86425 25.561 3.08907 25.7861C3.5601 26.2573 3.82471 26.8963 3.82471 27.5626C3.82471 28.2289 3.5601 28.8679 3.08907 29.3391C2.87195 29.5657 2.75224 29.8684 2.75561 30.1823C2.75899 30.4961 2.88516 30.7962 3.1071 31.0181C3.32904 31.24 3.62909 31.3662 3.94294 31.3696C4.25679 31.373 4.55948 31.2533 4.78613 31.0361C5.20097 30.6218 5.74776 30.3657 6.33165 30.3124C6.91553 30.2591 7.49967 30.4118 7.98272 30.7441C8.05469 30.7925 8.11635 30.8547 8.16412 30.9271C8.2119 30.9995 8.24486 31.0806 8.26108 31.1658C8.2773 31.2511 8.27648 31.3386 8.25864 31.4235C8.24081 31.5084 8.20633 31.5889 8.15719 31.6604C8.10805 31.7319 8.04523 31.7929 7.97236 31.8399C7.89949 31.887 7.81802 31.9191 7.73265 31.9345C7.64729 31.9498 7.55972 31.9481 7.47502 31.9294C7.39032 31.9107 7.31017 31.8755 7.23919 31.8256C7.00886 31.6668 6.7302 31.5937 6.45159 31.619C6.17298 31.6443 5.91203 31.7664 5.71407 31.9641C5.48078 32.1974 5.20382 32.3824 4.89902 32.5087C4.59421 32.6349 4.26752 32.6999 3.9376 32.6999C3.27129 32.6999 2.63228 32.4352 2.16113 31.9641C1.68998 31.4929 1.42529 30.8539 1.42529 30.1876C1.42529 29.5213 1.68998 28.8823 2.16113 28.4111C2.38595 28.186 2.51222 27.8808 2.51222 27.5626C2.51222 27.2444 2.38595 26.9392 2.16113 26.7141C1.69058 26.2426 1.4263 25.6037 1.4263 24.9376C1.4263 24.2715 1.69058 23.6326 2.16113 23.1611C2.38595 22.936 2.51222 22.6308 2.51222 22.3126C2.51222 21.9944 2.38595 21.6892 2.16113 21.4641C1.69058 20.9926 1.4263 20.3537 1.4263 19.6876C1.4263 19.0215 1.69058 18.3826 2.16113 17.9111C2.38595 17.686 2.51222 17.3808 2.51222 17.0626C2.51222 16.7444 2.38595 16.4392 2.16113 16.2141C1.69058 15.7426 1.4263 15.1037 1.4263 14.4376C1.4263 13.7715 1.69058 13.1326 2.16113 12.6611C2.38595 12.436 2.51222 12.1308 2.51222 11.8126C2.51222 11.4944 2.38595 11.1892 2.16113 10.9641C1.69058 10.4926 1.4263 9.8537 1.4263 9.1876C1.4263 8.52149 1.69058 7.8826 2.16113 7.41113C2.38595 7.18596 2.51222 6.88078 2.51222 6.5626C2.51222 6.24441 2.38595 5.93923 2.16113 5.71407C1.68998 5.24292 1.42529 4.6039 1.42529 3.9376C1.42529 3.27129 1.68998 2.63228 2.16113 2.16113C2.63228 1.68998 3.27129 1.42529 3.9376 1.42529C4.6039 1.42529 5.24292 1.68998 5.71407 2.16113C5.94255 2.37959 6.24648 2.50151 6.5626 2.50151C6.87871 2.50151 7.18265 2.37959 7.41113 2.16113C7.88268 1.69074 8.52154 1.42657 9.1876 1.42657C9.85365 1.42657 10.4925 1.69074 10.9641 2.16113C11.1925 2.37959 11.4965 2.50151 11.8126 2.50151C12.1287 2.50151 12.4326 2.37959 12.6611 2.16113C13.1327 1.69074 13.7715 1.42657 14.4376 1.42657C15.1037 1.42657 15.7425 1.69074 16.2141 2.16113C16.4425 2.37959 16.7465 2.50151 17.0626 2.50151C17.3787 2.50151 17.6826 2.37959 17.9111 2.16113C18.3827 1.69074 19.0215 1.42657 19.6876 1.42657C20.3537 1.42657 20.9925 1.69074 21.4641 2.16113C21.6925 2.37959 21.9965 2.50151 22.3126 2.50151C22.6287 2.50151 22.9326 2.37959 23.1611 2.16113C23.6327 1.69074 24.2715 1.42657 24.9376 1.42657C25.6037 1.42657 26.2425 1.69074 26.7141 2.16113C26.9425 2.37959 27.2465 2.50151 27.5626 2.50151C27.8787 2.50151 28.1826 2.37959 28.4111 2.16113C28.8823 1.68998 29.5213 1.42529 30.1876 1.42529C30.8539 1.42529 31.4929 1.68998 31.9641 2.16113C32.4352 2.63228 32.6999 3.27129 32.6999 3.9376C32.6999 4.6039 32.4352 5.24292 31.9641 5.71407C31.7668 5.91191 31.6448 6.17244 31.6191 6.45066C31.5935 6.72888 31.6658 7.00732 31.8236 7.23788C31.9194 7.38152 31.9548 7.55712 31.922 7.72664C31.8892 7.89615 31.7909 8.04592 31.6485 8.14348C31.506 8.24103 31.3309 8.27852 31.161 8.24782C30.9911 8.21711 30.8401 8.12069 30.7408 7.97944C30.4099 7.49627 30.2583 6.91263 30.3122 6.3295C30.3662 5.74636 30.6222 5.20042 31.0361 4.78613C31.1515 4.67559 31.2437 4.54313 31.3072 4.3965C31.3707 4.24988 31.4043 4.09204 31.406 3.93226C31.4078 3.77248 31.3775 3.61396 31.3172 3.466C31.2568 3.31805 31.1675 3.18363 31.0546 3.07064C30.9416 2.95765 30.8071 2.86836 30.6592 2.80801C30.5112 2.74765 30.3527 2.71744 30.1929 2.71916C30.0332 2.72088 29.8753 2.75448 29.7287 2.818C29.5821 2.88152 29.4496 2.97368 29.3391 3.08907C28.8603 3.54569 28.2242 3.80044 27.5626 3.80044C26.901 3.80044 26.2649 3.54569 25.7861 3.08907C25.561 2.86425 25.2558 2.73798 24.9376 2.73798C24.6194 2.73798 24.3142 2.86425 24.0891 3.08907C23.6103 3.54569 22.9742 3.80044 22.3126 3.80044C21.651 3.80044 21.0149 3.54569 20.5361 3.08907C20.311 2.86425 20.0058 2.73798 19.6876 2.73798C19.3694 2.73798 19.0642 2.86425 18.8391 3.08907C18.3603 3.54569 17.7242 3.80044 17.0626 3.80044C16.401 3.80044 15.7649 3.54569 15.2861 3.08907C15.061 2.86425 14.7558 2.73798 14.4376 2.73798C14.1194 2.73798 13.8142 2.86425 13.5891 3.08907C13.1103 3.54569 12.4742 3.80044 11.8126 3.80044C11.151 3.80044 10.5149 3.54569 10.0361 3.08907ZM39.8391 18.8391C39.6143 19.0642 39.488 19.3694 39.488 19.6876C39.488 20.0058 39.6143 20.311 39.8391 20.5361C40.3096 21.0076 40.5739 21.6465 40.5739 22.3126C40.5739 22.9787 40.3096 23.6176 39.8391 24.0891C39.6143 24.3142 39.488 24.6194 39.488 24.9376C39.488 25.2558 39.6143 25.561 39.8391 25.7861C40.3096 26.2576 40.5739 26.8965 40.5739 27.5626C40.5739 28.2287 40.3096 28.8676 39.8391 29.3391C39.6143 29.5642 39.488 29.8694 39.488 30.1876C39.488 30.5058 39.6143 30.811 39.8391 31.0361C40.3096 31.5076 40.5739 32.1465 40.5739 32.8126C40.5739 33.4787 40.3096 34.1176 39.8391 34.5891C39.6143 34.8142 39.488 35.1194 39.488 35.4376C39.488 35.7558 39.6143 36.061 39.8391 36.2861C40.3102 36.7573 40.5749 37.3963 40.5749 38.0626C40.5749 38.7289 40.3102 39.3679 39.8391 39.8391C39.3679 40.3102 38.7289 40.5749 38.0626 40.5749C37.3963 40.5749 36.7573 40.3102 36.2861 39.8391C36.0576 39.6206 35.7537 39.4987 35.4376 39.4987C35.1215 39.4987 34.8175 39.6206 34.5891 39.8391C34.1175 40.3095 33.4786 40.5736 32.8126 40.5736C32.1465 40.5736 31.5077 40.3095 31.0361 39.8391C30.8076 39.6206 30.5037 39.4987 30.1876 39.4987C29.8715 39.4987 29.5675 39.6206 29.3391 39.8391C28.8675 40.3095 28.2287 40.5736 27.5626 40.5736C26.8965 40.5736 26.2577 40.3095 25.7861 39.8391C25.5576 39.6206 25.2537 39.4987 24.9376 39.4987C24.6215 39.4987 24.3175 39.6206 24.0891 39.8391C23.6175 40.3095 22.9787 40.5736 22.3126 40.5736C21.6465 40.5736 21.0077 40.3095 20.5361 39.8391C20.3076 39.6206 20.0037 39.4987 19.6876 39.4987C19.3715 39.4987 19.0675 39.6206 18.8391 39.8391C18.3675 40.3095 17.7287 40.5736 17.0626 40.5736C16.3965 40.5736 15.7577 40.3095 15.2861 39.8391C15.0576 39.6206 14.7537 39.4987 14.4376 39.4987C14.1215 39.4987 13.8175 39.6206 13.5891 39.8391C13.1179 40.3102 12.4789 40.5749 11.8126 40.5749C11.1463 40.5749 10.5073 40.3102 10.0361 39.8391C9.56498 39.3679 9.30029 38.7289 9.30029 38.0626C9.30029 37.3963 9.56498 36.7573 10.0361 36.2861C10.2609 36.061 10.3872 35.7558 10.3872 35.4376C10.3872 35.1194 10.2609 34.8142 10.0361 34.5891C9.56558 34.1176 9.3013 33.4787 9.3013 32.8126C9.3013 32.1465 9.56558 31.5076 10.0361 31.0361C10.2609 30.811 10.3872 30.5058 10.3872 30.1876C10.3872 29.8694 10.2609 29.5642 10.0361 29.3391C9.56558 28.8676 9.3013 28.2287 9.3013 27.5626C9.3013 26.8965 9.56558 26.2576 10.0361 25.7861C10.2609 25.561 10.3872 25.2558 10.3872 24.9376C10.3872 24.6194 10.2609 24.3142 10.0361 24.0891C9.56558 23.6176 9.3013 22.9787 9.3013 22.3126C9.3013 21.6465 9.56558 21.0076 10.0361 20.5361C10.2609 20.311 10.3872 20.0058 10.3872 19.6876C10.3872 19.3694 10.2609 19.0642 10.0361 18.8391C9.56558 18.3676 9.3013 17.7287 9.3013 17.0626C9.3013 16.3965 9.56558 15.7576 10.0361 15.2861C10.2609 15.061 10.3872 14.7558 10.3872 14.4376C10.3872 14.1194 10.2609 13.8142 10.0361 13.5891C9.56498 13.1179 9.30029 12.4789 9.30029 11.8126C9.30029 11.4827 9.36528 11.156 9.49153 10.8512C9.61779 10.5464 9.80284 10.2694 10.0361 10.0361C10.2694 9.80284 10.5464 9.61779 10.8512 9.49153C11.156 9.36528 11.4827 9.30029 11.8126 9.30029C12.4789 9.30029 13.1179 9.56498 13.5891 10.0361C13.8175 10.2546 14.1215 10.3765 14.4376 10.3765C14.7537 10.3765 15.0576 10.2546 15.2861 10.0361C15.7577 9.56574 16.3965 9.30157 17.0626 9.30157C17.7287 9.30157 18.3675 9.56574 18.8391 10.0361C19.0675 10.2546 19.3715 10.3765 19.6876 10.3765C20.0037 10.3765 20.3076 10.2546 20.5361 10.0361C21.0077 9.56574 21.6465 9.30157 22.3126 9.30157C22.9787 9.30157 23.6175 9.56574 24.0891 10.0361C24.3175 10.2546 24.6215 10.3765 24.9376 10.3765C25.2537 10.3765 25.5576 10.2546 25.7861 10.0361C26.2577 9.56574 26.8965 9.30157 27.5626 9.30157C28.2287 9.30157 28.8675 9.56574 29.3391 10.0361C29.5675 10.2546 29.8715 10.3765 30.1876 10.3765C30.5037 10.3765 30.8076 10.2546 31.0361 10.0361C31.5077 9.56574 32.1465 9.30157 32.8126 9.30157C33.4786 9.30157 34.1175 9.56574 34.5891 10.0361C34.8175 10.2546 35.1215 10.3765 35.4376 10.3765C35.7537 10.3765 36.0576 10.2546 36.2861 10.0361C36.7573 9.56498 37.3963 9.30029 38.0626 9.30029C38.7289 9.30029 39.3679 9.56498 39.8391 10.0361C40.3102 10.5073 40.5749 11.1463 40.5749 11.8126C40.5749 12.4789 40.3102 13.1179 39.8391 13.5891C39.6143 13.8142 39.488 14.1194 39.488 14.4376C39.488 14.7558 39.6143 15.061 39.8391 15.2861C40.3096 15.7576 40.5739 16.3965 40.5739 17.0626C40.5739 17.7287 40.3096 18.3676 39.8391 18.8391ZM13.7492 38.3021L11.5882 36.1411C11.4741 36.5457 11.2594 36.9149 10.9641 37.2141C10.7469 37.4407 10.6272 37.7434 10.6306 38.0573C10.634 38.3711 10.7602 38.6712 10.9821 38.8931C11.204 39.115 11.5041 39.2412 11.8179 39.2446C12.1318 39.248 12.4345 39.1283 12.6611 38.9111C12.9641 38.6162 13.3393 38.4061 13.7492 38.3021ZM18.9992 38.3021L11.5882 30.8911C11.4741 31.2957 11.2594 31.6649 10.9641 31.9641C10.7393 32.1892 10.613 32.4944 10.613 32.8126C10.613 33.1308 10.7393 33.436 10.9641 33.6611L16.2141 38.9111C16.4392 39.1359 16.7444 39.2622 17.0626 39.2622C17.3808 39.2622 17.686 39.1359 17.9111 38.9111C18.2141 38.6162 18.5893 38.4061 18.9992 38.3021ZM24.2492 38.3021L11.5882 25.6411C11.4741 26.0457 11.2594 26.4149 10.9641 26.7141C10.7393 26.9392 10.613 27.2444 10.613 27.5626C10.613 27.8808 10.7393 28.186 10.9641 28.4111L21.4641 38.9111C21.6892 39.1359 21.9944 39.2622 22.3126 39.2622C22.6308 39.2622 22.936 39.1359 23.1611 38.9111C23.4641 38.6162 23.8393 38.4061 24.2492 38.3021ZM29.4992 38.3021L11.5882 20.3911C11.4741 20.7957 11.2594 21.1649 10.9641 21.4641C10.7393 21.6892 10.613 21.9944 10.613 22.3126C10.613 22.6308 10.7393 22.936 10.9641 23.1611L26.7141 38.9111C26.9392 39.1359 27.2444 39.2622 27.5626 39.2622C27.8808 39.2622 28.186 39.1359 28.4111 38.9111C28.7141 38.6162 29.0893 38.4061 29.4992 38.3021ZM34.7341 38.287L11.5882 15.1411C11.4743 15.5457 11.2598 15.9148 10.9647 16.2141C10.7399 16.4392 10.6136 16.7444 10.6136 17.0626C10.6136 17.3808 10.7399 17.686 10.9647 17.9111L31.9647 38.9111C32.1899 39.1357 32.4949 39.2619 32.8129 39.2619C33.1309 39.2619 33.436 39.1357 33.6611 38.9111C33.9604 38.616 34.3295 38.4009 34.7341 38.287ZM38.9111 37.2141L12.6611 10.9641C12.4345 10.7469 12.1318 10.6272 11.8179 10.6306C11.5041 10.634 11.204 10.7602 10.9821 10.9821C10.7602 11.204 10.634 11.5041 10.6306 11.8179C10.6272 12.1318 10.7469 12.4345 10.9641 12.6611L37.2141 38.9111C37.4407 39.1283 37.7434 39.248 38.0573 39.2446C38.3711 39.2412 38.6712 39.115 38.8931 38.8931C39.115 38.6712 39.2412 38.3711 39.2446 38.0573C39.248 37.7434 39.1283 37.4407 38.9111 37.2141ZM38.9111 31.9641L17.9111 10.9641C17.686 10.7393 17.3808 10.613 17.0626 10.613C16.7444 10.613 16.4392 10.7393 16.2141 10.9641C15.9111 11.259 15.5359 11.4691 15.126 11.5731L38.287 34.7341C38.4011 34.3295 38.6158 33.9603 38.9111 33.6611C39.1359 33.436 39.2622 33.1308 39.2622 32.8126C39.2622 32.4944 39.1359 32.1892 38.9111 31.9641ZM38.9111 26.7141L23.1611 10.9641C22.936 10.7393 22.6308 10.613 22.3126 10.613C21.9944 10.613 21.6892 10.7393 21.4641 10.9641C21.1611 11.259 20.7859 11.4691 20.376 11.5731L38.287 29.4841C38.4011 29.0795 38.6158 28.7103 38.9111 28.4111C39.1359 28.186 39.2622 27.8808 39.2622 27.5626C39.2622 27.2444 39.1359 26.9392 38.9111 26.7141ZM38.9111 21.4641L28.4111 10.9641C28.186 10.7393 27.8808 10.613 27.5626 10.613C27.2444 10.613 26.9392 10.7393 26.7141 10.9641C26.4111 11.259 26.0359 11.4691 25.626 11.5731L38.287 24.2341C38.4011 23.8295 38.6158 23.4603 38.9111 23.1611C39.1359 22.936 39.2622 22.6308 39.2622 22.3126C39.2622 21.9944 39.1359 21.6892 38.9111 21.4641ZM38.9111 16.2141L33.6611 10.9641C33.436 10.7393 33.1308 10.613 32.8126 10.613C32.4944 10.613 32.1892 10.7393 31.9641 10.9641C31.6611 11.259 31.2859 11.4691 30.876 11.5731L38.287 18.9841C38.4011 18.5795 38.6158 18.2103 38.9111 17.9111C39.1359 17.686 39.2622 17.3808 39.2622 17.0626C39.2622 16.7444 39.1359 16.4392 38.9111 16.2141ZM38.9111 10.9641C38.686 10.7393 38.3808 10.613 38.0626 10.613C37.7444 10.613 37.4392 10.7393 37.2141 10.9641C36.9111 11.259 36.5359 11.4691 36.126 11.5731L38.287 13.7341C38.4011 13.3295 38.6158 12.9603 38.9111 12.6611C39.1359 12.436 39.2622 12.1308 39.2622 11.8126C39.2622 11.4944 39.1359 11.1892 38.9111 10.9641ZM6.5626 5.90635C6.4328 5.90635 6.30593 5.94484 6.19801 6.01695C6.09009 6.08906 6.00597 6.19155 5.9563 6.31146C5.90663 6.43138 5.89364 6.56333 5.91896 6.69063C5.94428 6.81793 6.00678 6.93486 6.09856 7.02664C6.19034 7.11842 6.30727 7.18092 6.43457 7.20624C6.56187 7.23156 6.69382 7.21856 6.81374 7.16889C6.93365 7.11922 7.03614 7.03511 7.10825 6.92719C7.18036 6.81927 7.21885 6.69239 7.21885 6.5626C7.21885 6.38855 7.14971 6.22163 7.02664 6.09856C6.90357 5.97549 6.73665 5.90635 6.5626 5.90635ZM6.5626 11.1563C6.4328 11.1563 6.30593 11.1948 6.19801 11.2669C6.09009 11.3391 6.00597 11.4415 5.9563 11.5615C5.90663 11.6814 5.89364 11.8133 5.91896 11.9406C5.94428 12.0679 6.00678 12.1849 6.09856 12.2766C6.19034 12.3684 6.30727 12.4309 6.43457 12.4562C6.56187 12.4816 6.69382 12.4686 6.81374 12.4189C6.93365 12.3692 7.03614 12.2851 7.10825 12.1772C7.18036 12.0693 7.21885 11.9424 7.21885 11.8126C7.21885 11.6385 7.14971 11.4716 7.02664 11.3486C6.90357 11.2255 6.73665 11.1563 6.5626 11.1563ZM6.5626 16.4063C6.4328 16.4063 6.30593 16.4448 6.19801 16.5169C6.09009 16.5891 6.00597 16.6915 5.9563 16.8115C5.90663 16.9314 5.89364 17.0633 5.91896 17.1906C5.94428 17.3179 6.00678 17.4349 6.09856 17.5266C6.19034 17.6184 6.30727 17.6809 6.43457 17.7062C6.56187 17.7316 6.69382 17.7186 6.81374 17.6689C6.93365 17.6192 7.03614 17.5351 7.10825 17.4272C7.18036 17.3193 7.21885 17.1924 7.21885 17.0626C7.21885 16.8885 7.14971 16.7216 7.02664 16.5986C6.90357 16.4755 6.73665 16.4063 6.5626 16.4063ZM6.5626 21.6563C6.4328 21.6563 6.30593 21.6948 6.19801 21.7669C6.09009 21.8391 6.00597 21.9415 5.9563 22.0615C5.90663 22.1814 5.89364 22.3133 5.91896 22.4406C5.94428 22.5679 6.00678 22.6849 6.09856 22.7766C6.19034 22.8684 6.30727 22.9309 6.43457 22.9562C6.56187 22.9816 6.69382 22.9686 6.81374 22.9189C6.93365 22.8692 7.03614 22.7851 7.10825 22.6772C7.18036 22.5693 7.21885 22.4424 7.21885 22.3126C7.21885 22.1385 7.14971 21.9716 7.02664 21.8486C6.90357 21.7255 6.73665 21.6563 6.5626 21.6563ZM6.5626 26.9063C6.4328 26.9063 6.30593 26.9448 6.19801 27.0169C6.09009 27.0891 6.00597 27.1915 5.9563 27.3115C5.90663 27.4314 5.89364 27.5633 5.91896 27.6906C5.94428 27.8179 6.00678 27.9349 6.09856 28.0266C6.19034 28.1184 6.30727 28.1809 6.43457 28.2062C6.56187 28.2316 6.69382 28.2186 6.81374 28.1689C6.93365 28.1192 7.03614 28.0351 7.10825 27.9272C7.18036 27.8193 7.21885 27.6924 7.21885 27.5626C7.21885 27.3885 7.14971 27.2216 7.02664 27.0986C6.90357 26.9755 6.73665 26.9063 6.5626 26.9063ZM11.1563 6.5626C11.1563 6.69239 11.1948 6.81927 11.2669 6.92719C11.3391 7.03511 11.4415 7.11922 11.5615 7.16889C11.6814 7.21856 11.8133 7.23156 11.9406 7.20624C12.0679 7.18092 12.1849 7.11842 12.2766 7.02664C12.3684 6.93486 12.4309 6.81793 12.4562 6.69063C12.4816 6.56333 12.4686 6.43138 12.4189 6.31146C12.3692 6.19155 12.2851 6.08906 12.1772 6.01695C12.0693 5.94484 11.9424 5.90635 11.8126 5.90635C11.6385 5.90635 11.4716 5.97549 11.3486 6.09856C11.2255 6.22163 11.1563 6.38855 11.1563 6.5626ZM16.4063 6.5626C16.4063 6.69239 16.4448 6.81927 16.5169 6.92719C16.5891 7.03511 16.6915 7.11922 16.8115 7.16889C16.9314 7.21856 17.0633 7.23156 17.1906 7.20624C17.3179 7.18092 17.4349 7.11842 17.5266 7.02664C17.6184 6.93486 17.6809 6.81793 17.7062 6.69063C17.7316 6.56333 17.7186 6.43138 17.6689 6.31146C17.6192 6.19155 17.5351 6.08906 17.4272 6.01695C17.3193 5.94484 17.1924 5.90635 17.0626 5.90635C16.8885 5.90635 16.7216 5.97549 16.5986 6.09856C16.4755 6.22163 16.4063 6.38855 16.4063 6.5626ZM21.6563 6.5626C21.6563 6.69239 21.6948 6.81927 21.7669 6.92719C21.8391 7.03511 21.9415 7.11922 22.0615 7.16889C22.1814 7.21856 22.3133 7.23156 22.4406 7.20624C22.5679 7.18092 22.6849 7.11842 22.7766 7.02664C22.8684 6.93486 22.9309 6.81793 22.9562 6.69063C22.9816 6.56333 22.9686 6.43138 22.9189 6.31146C22.8692 6.19155 22.7851 6.08906 22.6772 6.01695C22.5693 5.94484 22.4424 5.90635 22.3126 5.90635C22.1385 5.90635 21.9716 5.97549 21.8486 6.09856C21.7255 6.22163 21.6563 6.38855 21.6563 6.5626ZM26.9063 6.5626C26.9063 6.69239 26.9448 6.81927 27.0169 6.92719C27.0891 7.03511 27.1915 7.11922 27.3115 7.16889C27.4314 7.21856 27.5633 7.23156 27.6906 7.20624C27.8179 7.18092 27.9349 7.11842 28.0266 7.02664C28.1184 6.93486 28.1809 6.81793 28.2062 6.69063C28.2316 6.56333 28.2186 6.43138 28.1689 6.31146C28.1192 6.19155 28.0351 6.08906 27.9272 6.01695C27.8193 5.94484 27.6924 5.90635 27.5626 5.90635C27.3885 5.90635 27.2216 5.97549 27.0986 6.09856C26.9755 6.22163 26.9063 6.38855 26.9063 6.5626Z" fill="#2F87CC"/>
</svg>
