<svg width="42" height="42" viewBox="0 0 42 42" fill="none" xmlns="http://www.w3.org/2000/svg">
<path d="M41.3457 39.7288H39.0188C39.2481 39.3523 39.3818 38.916 39.3818 38.4497V25.5348C39.3818 24.1285 38.1862 22.9841 36.7165 22.9841H30.142C30.3725 22.6076 30.509 22.1723 30.509 21.7051V8.79008C30.509 7.38374 29.3134 6.2394 27.8437 6.2394H27.8226C27.5012 2.74575 24.5657 0 21 0C17.4346 0 14.4991 2.74566 14.1778 6.2394H14.1567C12.687 6.2394 11.4914 7.38374 11.4914 8.79008V21.7051C11.4914 22.1724 11.6281 22.6076 11.8588 22.9841H5.28379C3.81414 22.9841 2.61851 24.1285 2.61851 25.5348V38.4497C2.61851 38.916 2.7522 39.3523 2.98157 39.7288H0.654375C0.303169 39.7288 0.0185547 40.0134 0.0185547 40.3646C0.0185547 40.7158 0.303169 41.0004 0.654375 41.0004H41.3458C41.4293 41.0004 41.512 40.984 41.5891 40.952C41.6662 40.92 41.7363 40.8732 41.7954 40.8142C41.8544 40.7551 41.9012 40.685 41.9332 40.6079C41.9651 40.5307 41.9816 40.448 41.9816 40.3645C41.9816 40.2811 41.9651 40.1984 41.9332 40.1212C41.9012 40.0441 41.8544 39.974 41.7953 39.915C41.7363 39.8559 41.6662 39.8091 41.589 39.7772C41.5119 39.7452 41.4292 39.7288 41.3457 39.7288ZM31.6328 24.2558V28.7083L30.2611 27.6575C30.1501 27.5727 30.0143 27.5267 29.8746 27.5267C29.735 27.5267 29.5991 27.5726 29.4881 27.6573L28.1133 28.7093V24.2558H31.6328ZM21 1.27164C24.0785 1.27164 26.583 3.78549 26.583 6.8753C26.583 9.96511 24.0785 12.4787 21 12.4787C17.9216 12.4787 15.4173 9.96511 15.4173 6.8753C15.4173 3.78549 17.9216 1.27164 21 1.27164ZM12.763 8.79008C12.763 8.08472 13.3882 7.51104 14.1567 7.51104H14.1778C14.4991 11.0045 17.4346 13.7503 21 13.7503C24.5657 13.7503 27.5012 11.0045 27.8225 7.51104H27.8436C28.6121 7.51104 29.2373 8.08472 29.2373 8.79008V21.7051C29.2373 22.4104 28.6121 22.9841 27.8436 22.9841H14.1566C13.3881 22.9841 12.7629 22.4104 12.7629 21.7051L12.763 8.79008ZM10.3675 24.2558H13.887V28.7083L12.5153 27.6575C12.4044 27.5727 12.2685 27.5267 12.1289 27.5267C11.9892 27.5267 11.8533 27.5726 11.7423 27.6573L10.3674 28.7094V24.2558H10.3675ZM20.3642 38.4497C20.3642 39.1551 19.7392 39.7288 18.9707 39.7288H5.28379C4.51529 39.7288 3.89006 39.1551 3.89006 38.4497V25.5348C3.89006 24.8294 4.51529 24.2558 5.28379 24.2558H9.09594V29.9962C9.09602 30.1148 9.12924 30.231 9.19185 30.3317C9.25447 30.4324 9.34398 30.5136 9.45029 30.5661C9.5566 30.6186 9.67547 30.6404 9.79349 30.6289C9.91151 30.6174 10.024 30.5732 10.1182 30.5012L12.1287 28.963L14.1363 30.501C14.2306 30.5729 14.343 30.617 14.461 30.6286C14.579 30.6402 14.6979 30.6186 14.8044 30.5665C14.9107 30.5139 15.0002 30.4327 15.0628 30.3319C15.1255 30.2312 15.1587 30.1149 15.1587 29.9963V24.2558H18.9708C19.7393 24.2558 20.3643 24.8295 20.3643 25.5349L20.3642 38.4497ZM38.1102 38.4497C38.1102 39.1551 37.485 39.7288 36.7165 39.7288H23.0296C22.2611 39.7288 21.6359 39.1551 21.6359 38.4497V25.5348C21.6359 24.8294 22.2611 24.2558 23.0296 24.2558H26.8417V29.9962C26.8418 30.1148 26.875 30.231 26.9377 30.3317C27.0003 30.4324 27.0898 30.5136 27.1961 30.5661C27.3024 30.6186 27.4213 30.6404 27.5393 30.6289C27.6573 30.6174 27.7698 30.5732 27.864 30.5012L29.8744 28.963L31.8821 30.501C31.9764 30.5729 32.0888 30.6171 32.2068 30.6286C32.3248 30.6402 32.4437 30.6187 32.5502 30.5665C32.6565 30.5139 32.746 30.4327 32.8086 30.3319C32.8713 30.2312 32.9044 30.1149 32.9045 29.9963V24.2558H36.7166C37.4851 24.2558 38.1103 24.8295 38.1103 25.5349V38.4497H38.1102Z" fill="#2F87CC"/>
<path d="M19.4783 9.20206C19.5374 9.2613 19.6076 9.30831 19.6848 9.34038C19.7621 9.37245 19.845 9.38896 19.9286 9.38896C20.0123 9.38896 20.0951 9.37245 20.1724 9.34038C20.2497 9.30831 20.3199 9.2613 20.379 9.20206L24.1216 5.44709C24.2406 5.32763 24.3073 5.1658 24.3071 4.99717C24.3068 4.82854 24.2396 4.66691 24.1201 4.54784C23.8712 4.30014 23.4686 4.30031 23.2209 4.54927L19.9287 7.85247L18.78 6.69981C18.5323 6.45127 18.1297 6.45059 17.8808 6.69838C17.7613 6.81745 17.6941 6.97908 17.6938 7.14771C17.6936 7.31634 17.7603 7.47817 17.8793 7.59763L19.4783 9.20206Z" fill="#2F87CC"/>
</svg>
