<svg width="42" height="42" viewBox="0 0 42 42" fill="none" xmlns="http://www.w3.org/2000/svg">
<g clip-path="url(#clip0_2246_397)">
<path d="M16.2661 6.19583C16.2661 6.02178 16.3352 5.85486 16.4583 5.73179C16.5813 5.60872 16.7483 5.53958 16.9223 5.53958H27.4344C27.6084 5.53958 27.7753 5.60872 27.8984 5.73179C28.0215 5.85486 28.0906 6.02178 28.0906 6.19583C28.0906 6.36988 28.0215 6.5368 27.8984 6.65987C27.7753 6.78294 27.6084 6.85208 27.4344 6.85208H16.9223C16.7483 6.85208 16.5813 6.78294 16.4583 6.65987C16.3352 6.5368 16.2661 6.36988 16.2661 6.19583ZM27.4344 8.08493H21.8199C21.6459 8.08493 21.4789 8.15407 21.3559 8.27714C21.2328 8.40021 21.1637 8.56713 21.1637 8.74118C21.1637 8.91522 21.2328 9.08214 21.3559 9.20521C21.4789 9.32829 21.6459 9.39743 21.8199 9.39743H27.4344C27.6084 9.39743 27.7753 9.32829 27.8984 9.20521C28.0215 9.08214 28.0906 8.91522 28.0906 8.74118C28.0906 8.56713 28.0215 8.40021 27.8984 8.27714C27.7753 8.15407 27.6084 8.08493 27.4344 8.08493ZM42.0007 28.431C42.0007 33.3161 38.0264 37.2903 33.1413 37.2903C32.955 37.2903 32.7703 37.2839 32.5868 37.2725C31.3729 39.0274 29.4091 40.063 27.2551 40.063V40.0629H6.48646C2.90933 40.0629 -0.000976562 37.1526 -0.000976562 33.5755V31.7495C-0.000976562 31.5755 0.0681639 31.4086 0.191235 31.2855C0.314305 31.1624 0.481225 31.0933 0.655273 31.0933H5.27757V2.59326C5.27757 2.41921 5.34671 2.25229 5.46978 2.12922C5.59285 2.00615 5.75977 1.93701 5.93382 1.93701H33.0862C33.2603 1.93701 33.4272 2.00615 33.5503 2.12922C33.6734 2.25229 33.7425 2.41921 33.7425 2.59326V19.5924C38.3482 19.9026 42.0007 23.748 42.0007 28.431ZM23.3467 38.7504C21.7809 37.565 20.7675 35.6863 20.7675 33.5755V32.4058H1.31152V33.5755C1.31152 36.4289 3.63301 38.7504 6.48646 38.7504H23.3467ZM31.0922 37.0507C27.1919 36.1235 24.2819 32.6109 24.2819 28.431C24.2819 28.2841 24.2857 28.1383 24.2928 27.9932H11.5138C10.6587 27.9932 9.96311 27.2975 9.96311 26.4424V13.5642C9.96311 12.7091 10.6587 12.0135 11.5138 12.0135H26.5399C27.395 12.0135 28.0906 12.7091 28.0906 13.5642V21.1566C29.3414 20.2856 30.826 19.7283 32.4299 19.6002V3.24951H6.59007V31.0933H21.4238C21.5978 31.0933 21.7648 31.1624 21.8878 31.2855C22.0109 31.4086 22.08 31.5755 22.08 31.7495V33.5755C22.08 36.4289 24.4015 38.7504 27.2551 38.7504L27.2563 38.7505C28.746 38.7501 30.1216 38.1286 31.0922 37.0507ZM26.7781 22.2733V20.6596H16.1109V23.0139H26.1361C26.3364 22.7555 26.5507 22.5082 26.7781 22.2733ZM26.7781 16.9927H16.1109V19.347H26.7781V16.9927ZM26.7781 13.5642C26.7781 13.4351 26.669 13.326 26.5399 13.326H16.1109V15.6803H26.7781V13.5642ZM14.7984 13.3259H11.5138C11.3847 13.3259 11.2756 13.435 11.2756 13.5641V15.6802H14.7984V13.3259ZM11.2756 19.3471H14.7984V16.9928H11.2756V19.3471ZM11.2756 23.0139H14.7984V20.6596H11.2756V23.0139ZM11.2756 26.4424C11.2756 26.5716 11.3847 26.6807 11.5138 26.6807H14.7984V24.3264H11.2756V26.4424ZM16.1109 26.6807H24.4558C24.6211 25.8601 24.9026 25.0673 25.292 24.3264H16.1109V26.6807ZM40.6882 28.431C40.6882 24.2696 37.3027 20.8841 33.1413 20.8841C28.9799 20.8841 25.5944 24.2696 25.5944 28.431C25.5944 32.5923 28.9799 35.9778 33.1413 35.9778C37.3027 35.9778 40.6882 32.5923 40.6882 28.431ZM37.2982 29.9774C37.7153 30.3941 37.945 30.9484 37.9453 31.538C37.9455 32.1276 37.7161 32.6821 37.2994 33.0991C36.8826 33.5162 36.3283 33.7459 35.7386 33.7461H35.7378C35.1485 33.7461 34.5945 33.5167 34.1776 33.1002C33.7605 32.6835 33.5308 32.1292 33.5305 31.5396C33.5302 30.3224 34.5201 29.3319 35.7371 29.3314H35.738C36.3273 29.3314 36.8813 29.5608 37.2982 29.9774ZM36.6327 31.5386C36.633 31.421 36.6099 31.3046 36.5649 31.196C36.5199 31.0874 36.4538 30.9887 36.3704 30.9059C36.2876 30.8226 36.189 30.7566 36.0804 30.7116C35.9718 30.6667 35.8554 30.6437 35.7379 30.644H35.7376C35.2442 30.6442 34.8429 31.0458 34.843 31.5393C34.8428 31.6568 34.8658 31.7733 34.9108 31.8819C34.9558 31.9905 35.0219 32.089 35.1053 32.1719C35.1882 32.2552 35.2868 32.3212 35.3954 32.3661C35.5039 32.411 35.6203 32.434 35.7378 32.4337H35.7382C35.8557 32.434 35.9722 32.411 36.0808 32.3659C36.1894 32.3209 36.288 32.2548 36.3709 32.1714C36.4542 32.0885 36.5202 31.9898 36.5652 31.8812C36.6101 31.7726 36.6331 31.6561 36.6327 31.5386ZM30.5446 27.5304C29.3278 27.5304 28.3378 26.5409 28.3373 25.324C28.337 24.1068 29.3268 23.1162 30.5439 23.1158H30.5448C31.1341 23.1158 31.6881 23.3451 32.105 23.7618C32.522 24.1785 32.7519 24.7328 32.7521 25.3223C32.7523 25.912 32.5229 26.4663 32.1061 26.8834C31.6893 27.3004 31.1351 27.5303 30.5455 27.5304H30.5446ZM30.5447 26.2179H30.545C30.784 26.2179 31.0087 26.1247 31.1777 25.9557C31.3467 25.7866 31.4396 25.5618 31.4396 25.3227C31.4398 25.2052 31.4168 25.0887 31.3717 24.9801C31.3267 24.8716 31.2606 24.773 31.1772 24.6901C31.0943 24.6068 30.9957 24.5408 30.8872 24.4958C30.7786 24.4509 30.6622 24.4279 30.5447 24.4283H30.5443C30.0509 24.4284 29.6496 24.83 29.6498 25.3235C29.65 25.8168 30.0514 26.2179 30.5447 26.2179ZM36.4779 23.8215C36.4079 23.7712 36.3287 23.7352 36.2448 23.7155C36.1609 23.6959 36.0739 23.6929 35.9889 23.7069C35.9038 23.7208 35.8224 23.7514 35.7491 23.7969C35.6759 23.8423 35.6124 23.9017 35.5621 23.9718L29.7489 32.068C29.6474 32.2094 29.6062 32.3853 29.6344 32.557C29.6626 32.7288 29.7578 32.8823 29.8992 32.9838C30.0105 33.064 30.1442 33.1071 30.2814 33.1071C30.3856 33.1072 30.4885 33.0825 30.5813 33.0349C30.6741 32.9873 30.7542 32.9183 30.815 32.8335L36.6282 24.7373C36.7297 24.5959 36.7709 24.42 36.7427 24.2482C36.7145 24.0765 36.6193 23.923 36.4779 23.8215Z" fill="#2F87CC"/>
</g>
<defs>
<clipPath id="clip0_2246_397">
<rect width="42" height="42" fill="white"/>
</clipPath>
</defs>
</svg>
