<svg width="42" height="42" viewBox="0 0 42 42" fill="none" xmlns="http://www.w3.org/2000/svg">
<g clip-path="url(#clip0_2246_403)">
<path d="M21 39.7031C20.826 39.7031 20.659 39.634 20.536 39.5109C20.4129 39.3878 20.3438 39.2209 20.3438 39.0469V20.6568C20.3449 20.6186 20.3493 20.5806 20.3569 20.5432C20.382 20.4153 20.4449 20.2978 20.5373 20.2059C20.5603 20.1832 20.5849 20.1622 20.6108 20.1429C20.6595 20.1071 20.7129 20.0784 20.7697 20.0576L37.1628 13.4997C37.29 13.449 37.43 13.4394 37.5629 13.4723C37.6959 13.5051 37.8153 13.5787 37.9043 13.6828L41.8418 18.2766C41.908 18.3537 41.9553 18.4451 41.9801 18.5436C42.005 18.6422 42.0065 18.7451 41.9848 18.8444C41.963 18.9436 41.9185 19.0365 41.8548 19.1156C41.791 19.1947 41.7098 19.2579 41.6174 19.3003L38.0625 20.9291V31.1719C38.0625 31.2955 38.0275 31.4165 37.9617 31.5211C37.8958 31.6257 37.8018 31.7096 37.6904 31.7632L21.2842 39.6382C21.1956 39.6811 21.0984 39.7033 21 39.7031ZM21.6562 22.4175V38.0034L36.75 30.7584V21.5316L25.872 26.5191C25.7434 26.5779 25.5992 26.5938 25.4609 26.5642C25.3226 26.5346 25.1975 26.4613 25.1042 26.355L21.6562 22.4175ZM22.1045 20.9363L25.7696 25.1212L37.126 19.9152L37.1392 19.9087L40.2793 18.4695L37.214 14.8929L22.1045 20.9363Z" fill="#2F87CC"/>
<path d="M20.9993 39.7033C20.9011 39.7034 20.8042 39.6812 20.7158 39.6384L4.30959 31.7634C4.19819 31.7099 4.10416 31.626 4.03833 31.5214C3.9725 31.4168 3.93755 31.2957 3.9375 31.1721V20.5015C3.9375 20.3274 4.00664 20.1605 4.12971 20.0374C4.25278 19.9144 4.4197 19.8452 4.59375 19.8452C4.7678 19.8452 4.93472 19.9144 5.05779 20.0374C5.18086 20.1605 5.25 20.3274 5.25 20.5015V30.7593L21.2842 38.4565C21.4181 38.521 21.5262 38.629 21.5907 38.763C21.6552 38.897 21.6723 39.0489 21.6393 39.1938C21.6062 39.3388 21.5248 39.4682 21.4086 39.5609C21.2923 39.6536 21.148 39.7034 20.9993 39.7033Z" fill="#2F87CC"/>
<path d="M16.4063 26.5785C16.3119 26.5787 16.2185 26.5586 16.1326 26.5194L0.382626 19.2915C0.290364 19.2489 0.209237 19.1855 0.145625 19.1062C0.0820133 19.027 0.0376504 18.9341 0.0160253 18.8348C-0.00559987 18.7355 -0.00389765 18.6326 0.0209981 18.5341C0.0458938 18.4355 0.0933042 18.3441 0.159501 18.2671L4.1075 13.6818C4.1967 13.578 4.31615 13.5046 4.44912 13.472C4.5821 13.4394 4.72194 13.4492 4.84906 13.5001L21.2442 20.0626C21.3415 20.1016 21.4281 20.1634 21.4966 20.2428C21.5651 20.3222 21.6137 20.4168 21.6381 20.5188C21.6625 20.6208 21.6621 20.7272 21.637 20.829C21.6118 20.9308 21.5626 21.0251 21.4935 21.104L16.8998 26.354C16.8383 26.4244 16.7624 26.4809 16.6773 26.5196C16.5922 26.5583 16.4998 26.5784 16.4063 26.5785ZM1.72269 18.4626L16.235 25.1216L19.8956 20.9367L4.79722 14.8933L1.72269 18.4626Z" fill="#2F87CC"/>
<path d="M4.60712 14.7655C4.4566 14.7655 4.31067 14.7137 4.1938 14.6188C4.07693 14.5239 3.99624 14.3917 3.96524 14.2444C3.93424 14.0971 3.95482 13.9436 4.02354 13.8097C4.09225 13.6758 4.20492 13.5695 4.34266 13.5088L8.27359 11.7763C8.43187 11.7119 8.60905 11.7117 8.76745 11.7759C8.92584 11.84 9.05297 11.9634 9.12178 12.1199C9.19059 12.2763 9.19567 12.4534 9.13593 12.6135C9.07618 12.7736 8.95634 12.9041 8.80187 12.9773L4.87094 14.7098C4.78804 14.7464 4.69776 14.7654 4.60712 14.7655ZM37.4058 14.7655C37.3148 14.7654 37.2247 14.7464 37.1414 14.7098C36.3775 14.3716 35.6123 14.0347 34.8458 13.6991C34.0793 13.3631 33.3133 13.0263 32.5476 12.6885C32.4688 12.6537 32.3975 12.6037 32.338 12.5413C32.2785 12.479 32.2318 12.4055 32.2007 12.3252C32.1378 12.1628 32.142 11.9822 32.2123 11.8229C32.2826 11.6637 32.4133 11.5389 32.5756 11.476C32.656 11.4448 32.7417 11.4298 32.8279 11.4318C32.9141 11.4338 32.999 11.4527 33.0779 11.4876C33.8418 11.8258 34.6069 12.1624 35.3734 12.4975C36.1399 12.834 36.906 13.1708 37.6716 13.5082C37.8098 13.5687 37.9229 13.675 37.9919 13.8091C38.0609 13.9433 38.0816 14.0971 38.0505 14.2447C38.0194 14.3923 37.9383 14.5247 37.821 14.6195C37.7038 14.7144 37.5567 14.766 37.4058 14.7655Z" fill="#2F87CC"/>
<path d="M19.0312 20.5442C18.8572 20.5442 18.6903 20.475 18.5672 20.3519C18.4441 20.2289 18.375 20.0619 18.375 19.8879V12.1409C18.375 12.0032 18.4184 11.869 18.4989 11.7573C18.5795 11.6456 18.6932 11.5622 18.8239 11.5187L32.6051 6.92499C32.7037 6.892 32.8088 6.88293 32.9116 6.89854C33.0144 6.91415 33.112 6.95399 33.1964 7.01476C33.2807 7.07554 33.3494 7.15551 33.3968 7.24807C33.4441 7.34064 33.4688 7.44314 33.4688 7.54712V15.9471C33.4688 16.1212 33.3996 16.2881 33.2765 16.4112C33.1535 16.5342 32.9865 16.6034 32.8125 16.6034C32.6385 16.6034 32.4715 16.5342 32.3485 16.4112C32.2254 16.2881 32.1562 16.1212 32.1562 15.9471V8.45799L19.6875 12.6134V19.8872C19.6875 20.0613 19.6184 20.2282 19.4953 20.3513C19.3722 20.4744 19.2053 20.5442 19.0312 20.5442Z" fill="#2F87CC"/>
<path d="M8.54044 16.3447C8.3665 16.3447 8.19968 16.2757 8.07663 16.1527C7.95358 16.0298 7.88436 15.8631 7.88419 15.6891L7.875 7.54768C7.87495 7.43869 7.90204 7.3314 7.95384 7.2355C8.00563 7.1396 8.0805 7.05811 8.17167 6.99839C8.26285 6.93867 8.36746 6.9026 8.47607 6.89344C8.58468 6.88427 8.69386 6.9023 8.79375 6.9459L19.2937 11.5397C19.4479 11.6127 19.5675 11.7428 19.6273 11.9026C19.6872 12.0623 19.6824 12.239 19.6142 12.3953C19.5459 12.5516 19.4195 12.6752 19.2617 12.7399C19.1039 12.8046 18.9271 12.8053 18.7688 12.7419L9.18881 8.55043L9.19669 15.6878C9.19677 15.774 9.17986 15.8594 9.14692 15.9391C9.11398 16.0188 9.06566 16.0913 9.00471 16.1523C8.94376 16.2133 8.87139 16.2617 8.79173 16.2947C8.71206 16.3277 8.62667 16.3447 8.54044 16.3447Z" fill="#2F87CC"/>
<path d="M32.8125 8.20323C32.7388 8.20321 32.6656 8.19079 32.5959 8.16648L19.7072 3.65542L8.78063 8.15467C8.70092 8.18742 8.61553 8.20414 8.52935 8.20389C8.44317 8.20364 8.35788 8.18642 8.27836 8.15321C8.19883 8.12 8.12663 8.07145 8.06587 8.01033C8.0051 7.94922 7.95698 7.87673 7.92423 7.79701C7.85809 7.63602 7.85861 7.45534 7.92569 7.29474C7.99276 7.13413 8.12089 7.00675 8.28188 6.94061L19.4381 2.34686C19.5866 2.28573 19.7524 2.28107 19.9041 2.33373L33.0291 6.92748C33.1754 6.97863 33.2989 7.07992 33.3777 7.21342C33.4565 7.34691 33.4855 7.50399 33.4595 7.65681C33.4336 7.80964 33.3544 7.94835 33.236 8.04836C33.1175 8.14838 32.9675 8.20324 32.8125 8.20323ZM22.9688 35.7657C22.8177 35.7657 22.6712 35.7135 22.5541 35.618C22.437 35.5225 22.3565 35.3895 22.3261 35.2415C22.2957 35.0934 22.3173 34.9395 22.3873 34.8056C22.4573 34.6716 22.5713 34.566 22.7102 34.5064L27.3039 32.5376C27.4634 32.472 27.6423 32.4717 27.8019 32.5368C27.9615 32.602 28.0891 32.7274 28.1571 32.8858C28.225 33.0443 28.2279 33.2232 28.165 33.3837C28.1021 33.5443 27.9786 33.6736 27.8211 33.7438L23.2273 35.7126C23.1457 35.7479 23.0577 35.766 22.9688 35.7657ZM22.9688 33.1407C22.8177 33.1407 22.6712 33.0885 22.5541 32.993C22.437 32.8975 22.3565 32.7645 22.3261 32.6165C22.2957 32.4684 22.3173 32.3145 22.3873 32.1806C22.4573 32.0466 22.5713 31.941 22.7102 31.8814L27.3039 29.9126C27.4634 29.847 27.6423 29.8467 27.8019 29.9118C27.9615 29.977 28.0891 30.1024 28.1571 30.2608C28.225 30.4193 28.2279 30.5982 28.165 30.7587C28.1021 30.9193 27.9786 31.0486 27.8211 31.1188L23.2273 33.0876C23.1457 33.1229 23.0577 33.141 22.9688 33.1407ZM18.375 34.4532C18.2916 34.4534 18.209 34.4376 18.1315 34.4066L14.8503 33.0941C14.7284 33.0454 14.6239 32.9613 14.5503 32.8527C14.4768 32.744 14.4375 32.6157 14.4375 32.4845V29.2032C14.4375 29.096 14.4637 28.9904 14.5139 28.8956C14.5642 28.8009 14.6369 28.7199 14.7256 28.6597C14.8144 28.5996 14.9166 28.5621 15.0232 28.5505C15.1298 28.539 15.2376 28.5538 15.3372 28.5936L18.6185 29.9061C18.7404 29.9548 18.8448 30.0389 18.9184 30.1476C18.992 30.2562 19.0313 30.3845 19.0313 30.5157V33.797C19.0313 33.971 18.9621 34.138 18.839 34.261C18.716 34.3841 18.5491 34.4532 18.375 34.4532ZM15.75 32.0402L17.7188 32.8277V30.96L15.75 30.1725V32.0402Z" fill="#2F87CC"/>
<path d="M24.9373 19.761C24.7633 19.761 24.5964 19.6919 24.4733 19.5688C24.3502 19.4458 24.2811 19.2788 24.2811 19.1048V10.6011L13.6321 5.9391C13.5532 5.9045 13.4818 5.85469 13.4221 5.79251C13.3624 5.73033 13.3156 5.65701 13.2842 5.57672C13.2529 5.49644 13.2376 5.41076 13.2394 5.32459C13.2412 5.23842 13.2599 5.15343 13.2945 5.07449C13.3291 4.99555 13.3789 4.9242 13.4411 4.86451C13.5032 4.80482 13.5766 4.75796 13.6568 4.7266C13.7371 4.69525 13.8228 4.68002 13.909 4.68178C13.9952 4.68354 14.0801 4.70225 14.1591 4.73685L25.2005 9.57079C25.3173 9.62194 25.4168 9.70604 25.4866 9.8128C25.5564 9.91956 25.5936 10.0444 25.5936 10.1719V19.1048C25.5936 19.2788 25.5244 19.4458 25.4014 19.5688C25.2783 19.6919 25.1114 19.761 24.9373 19.761Z" fill="#2F87CC"/>
</g>
<defs>
<clipPath id="clip0_2246_403">
<rect width="42" height="42" fill="white"/>
</clipPath>
</defs>
</svg>
