<svg width="42" height="42" viewBox="0 0 42 42" fill="none" xmlns="http://www.w3.org/2000/svg">
<path d="M27.0783 4.8866H30.3075V41.1797H7.36328V4.8866H10.4731" stroke="#2F87CC" stroke-width="1.5" stroke-miterlimit="10" stroke-linecap="round" stroke-linejoin="round"/>
<path d="M26.8711 12.2933V17.9902H10.7997V12.2933L26.8711 12.2933Z" stroke="#2F87CC" stroke-width="1.5" stroke-miterlimit="10" stroke-linecap="round" stroke-linejoin="round"/>
<path d="M15.1181 5.45943H22.555M23.7369 21.5175H26.8722V24.6533H23.7369V21.5175ZM17.2689 21.5175H20.4041V24.6533H17.2689V21.5175ZM10.8008 21.5175H13.936V24.6533H10.8008V21.5175ZM23.7369 27.8334H26.8722V30.9691H23.7369V27.8334ZM17.2689 27.8334H20.4041V30.9691H17.2689V27.8334ZM10.8008 27.8334H13.936V30.9691H10.8008V27.8334ZM23.7369 34.1492H26.8722V37.2849H23.7369V34.1492ZM17.2689 34.1492H20.4041V37.2849H17.2689V34.1492ZM10.8008 34.1492H13.936V37.2849H10.8008V34.1492ZM30.3086 12.9668H34.6382V28.0976H30.3086V12.9668ZM24.9883 1.80231L22.9372 0.820312L20.8865 1.80231L18.8358 0.820312L16.7851 1.80231L14.7345 0.820312L12.6841 1.80231L10.8008 0.900375V8.86676H26.8723V0.900293L24.9883 1.80231Z" stroke="#2F87CC" stroke-width="1.5" stroke-miterlimit="10" stroke-linecap="round" stroke-linejoin="round"/>
</svg>
