<svg width="42" height="42" viewBox="0 0 42 42" fill="none" xmlns="http://www.w3.org/2000/svg">
<path d="M9.46875 37.0614V38.7087C9.46875 40.0734 10.575 41.1797 11.9397 41.1797H34.1785C35.5431 41.1797 36.6495 40.0734 36.6495 38.7087V7.40974C36.6495 6.04507 35.5431 4.93872 34.1785 4.93872H32.5312" stroke="#2F87CC" stroke-width="1.5" stroke-miterlimit="10" stroke-linecap="round" stroke-linejoin="round"/>
<path d="M25.9436 11.9397C25.9436 15.8063 22.8091 18.9408 18.9425 18.9408C15.0759 18.9408 11.9414 15.8063 11.9414 11.9397C11.9414 8.07308 15.0759 4.93859 18.9425 4.93859C22.8091 4.93859 25.9436 8.07308 25.9436 11.9397Z" stroke="#2F87CC" stroke-width="1.5" stroke-miterlimit="10" stroke-linecap="round" stroke-linejoin="round"/>
<path d="M15.3594 11.6412L17.7274 14.0093L21.8663 9.8704" stroke="#2F87CC" stroke-width="1.5" stroke-miterlimit="10" stroke-linecap="round" stroke-linejoin="round"/>
<path d="M9.46875 24.7065H20.1763" stroke="#2F87CC" stroke-width="1.5" stroke-miterlimit="10" stroke-linecap="round" stroke-linejoin="round"/>
<path d="M9.46875 28.8248H28.4128" stroke="#2F87CC" stroke-width="1.5" stroke-miterlimit="10" stroke-linecap="round" stroke-linejoin="round"/>
<path d="M9.46875 32.9431H28.4128" stroke="#2F87CC" stroke-width="1.5" stroke-miterlimit="10" stroke-linecap="round" stroke-linejoin="round"/>
<path d="M30.0614 0.820429H7.8225C6.45792 0.820429 5.35156 1.9267 5.35156 3.29145V34.5904C5.35156 35.9551 6.45792 37.0614 7.8225 37.0614H30.0614C31.426 37.0614 32.5323 35.9551 32.5323 34.5904V3.29145C32.5323 1.9267 31.426 0.820429 30.0614 0.820429Z" stroke="#2F87CC" stroke-width="1.5" stroke-miterlimit="10" stroke-linecap="round" stroke-linejoin="round"/>
</svg>
