<svg width="42" height="42" viewBox="0 0 42 42" fill="none" xmlns="http://www.w3.org/2000/svg">
<path d="M12.7598 18.8613C12.4395 18.541 11.92 18.541 11.5996 18.8613L8.8985 21.5625L7.83792 20.502C7.51758 20.1816 6.99816 20.1816 6.67775 20.502C6.35742 20.8223 6.35742 21.3417 6.67775 21.6621L8.31837 23.3028C8.63862 23.623 9.15813 23.6231 9.47854 23.3028L12.7598 20.0215C13.0801 19.7011 13.0801 19.1817 12.7598 18.8613Z" fill="#2F87CC"/>
<path d="M38.6367 13.2891H34.5352V4.51172C34.5352 2.02396 32.5112 0 30.0234 0H13.6172C11.1294 0 9.10547 2.02396 9.10547 4.51172V13.7451C5.41923 14.1544 2.54297 17.2884 2.54297 21.082C2.54297 24.8756 5.41923 28.0097 9.10547 28.419V37.4883C9.10547 39.976 11.1294 42 13.6172 42H30.0234C32.5112 42 34.5352 39.976 34.5352 37.4883V26.4141H38.6367C39.0898 26.4141 39.457 26.0468 39.457 25.5938V14.1094C39.457 13.6563 39.0898 13.2891 38.6367 13.2891ZM37.8164 16.5703H22.6406V14.9297H37.8164V16.5703ZM14.0273 27.1289C17.8544 24.2645 17.8584 17.9038 14.0273 15.0351V8.20312H29.6133V13.2891H22.6406V12.4688C22.6406 12.0157 22.2734 11.6484 21.8203 11.6484C21.3673 11.6484 21 12.0157 21 12.4688V27.2344C21 27.6874 21.3673 28.0547 21.8203 28.0547C22.2734 28.0547 22.6406 27.6874 22.6406 27.2344V26.4141H29.6133V32.1562H14.0273V27.1289ZM27.1523 1.64062V3.28125H16.4883V1.64062H27.1523ZM13.6172 1.64062H14.8477V4.10156C14.8477 4.55462 15.2149 4.92188 15.668 4.92188H27.9727C28.4257 4.92188 28.793 4.55462 28.793 4.10156V1.64062H30.0234C31.6066 1.64062 32.8945 2.9286 32.8945 4.51172V13.2891H31.2539V7.38281C31.2539 6.92975 30.8867 6.5625 30.4336 6.5625H13.207C12.754 6.5625 12.3867 6.92975 12.3867 7.38281V14.1392C11.8636 13.9431 11.313 13.8114 10.7461 13.7466V4.51172C10.7461 2.9286 12.0341 1.64062 13.6172 1.64062ZM4.18359 21.082C4.18359 17.9158 6.75954 15.3398 9.92578 15.3398C13.1026 15.3398 15.2578 17.9196 15.2578 21.082C15.2578 24.2122 13.1322 26.8242 9.92578 26.8242C6.75954 26.8242 4.18359 24.2483 4.18359 21.082ZM30.0234 40.3594H13.6172C12.0341 40.3594 10.7461 39.0714 10.7461 37.4883V37.0781H32.8945V37.4883C32.8945 39.0714 31.6066 40.3594 30.0234 40.3594ZM32.8945 35.4375H10.7461V28.4174C11.3129 28.3526 11.8635 28.2209 12.3867 28.0247V32.9766C12.3867 33.4296 12.754 33.7969 13.207 33.7969H30.4336C30.8867 33.7969 31.2539 33.4296 31.2539 32.9766V26.4141H32.8945V35.4375ZM22.6406 24.7734V18.2109H37.8164V24.7734H22.6406Z" fill="#2F87CC"/>
<path d="M35.3555 21.4922C34.9097 21.4922 34.5352 21.8671 34.5352 22.3124C34.5352 22.7419 34.9126 23.1327 35.3555 23.1328C35.8001 23.1328 36.1758 22.7564 36.1758 22.3126C36.1758 21.8675 35.7993 21.4922 35.3555 21.4922ZM32.0742 21.4922C31.6446 21.4922 31.2539 21.8693 31.2539 22.3124C31.2539 22.7561 31.6319 23.1327 32.0742 23.1328C32.5212 23.1328 32.8945 22.7594 32.8945 22.3126C32.8945 21.879 32.5225 21.4923 32.0742 21.4922ZM28.793 21.4922C28.3572 21.4922 27.9727 21.8624 27.9727 22.3125C27.9727 22.7551 28.3513 23.1328 28.793 23.1328C29.2404 23.1328 29.6133 22.7596 29.6133 22.3126C29.6133 21.869 29.2353 21.4922 28.793 21.4922ZM25.5117 21.4922C25.0645 21.4922 24.6914 21.8654 24.6914 22.3125C24.6914 22.7594 25.0647 23.1328 25.5117 23.1328C25.9586 23.1328 26.332 22.7594 26.332 22.3126C26.332 21.8748 25.9478 21.4922 25.5117 21.4922Z" fill="#2F87CC"/>
</svg>
