<svg width="42" height="42" viewBox="0 0 42 42" fill="none" xmlns="http://www.w3.org/2000/svg">
<mask id="mask0_2634_3347" style="mask-type:luminance" maskUnits="userSpaceOnUse" x="0" y="0" width="42" height="42">
<path d="M41.25 41.25V0.75H0.75V41.25H41.25Z" fill="white" stroke="white" stroke-width="1.5"/>
</mask>
<g mask="url(#mask0_2634_3347)">
<path d="M20.9179 32.4844H0.820312V2.95321H33.6327V25.5117" stroke="#2F87CC" stroke-width="1.5" stroke-miterlimit="22.926" stroke-linecap="round" stroke-linejoin="round"/>
</g>
<path d="M21.3281 3.36319V12.7968L17.2266 11.0071L13.125 12.7968V3.36319" stroke="#2F87CC" stroke-width="1.5" stroke-miterlimit="22.926" stroke-linecap="round" stroke-linejoin="round"/>
<mask id="mask1_2634_3347" style="mask-type:luminance" maskUnits="userSpaceOnUse" x="0" y="0" width="42" height="42">
<path d="M41.25 41.25V0.75H0.75V41.25H41.25Z" fill="white" stroke="white" stroke-width="1.5"/>
</mask>
<g mask="url(#mask1_2634_3347)">
<path d="M1.23047 22.6406H13.9452V29.2031H1.23047" stroke="#2F87CC" stroke-width="1.5" stroke-miterlimit="22.926" stroke-linecap="round" stroke-linejoin="round"/>
</g>
<path d="M4.10156 25.9219H10.664" stroke="#2F87CC" stroke-width="1.5" stroke-miterlimit="22.926" stroke-linecap="round" stroke-linejoin="round"/>
<mask id="mask2_2634_3347" style="mask-type:luminance" maskUnits="userSpaceOnUse" x="0" y="0" width="42" height="42">
<path d="M41.25 41.25V0.75H0.75V41.25H41.25Z" fill="white" stroke="white" stroke-width="1.5"/>
</mask>
<g mask="url(#mask2_2634_3347)">
<path d="M22.9687 25.9219H39.5391C40.4415 25.9219 41.1797 26.6602 41.1797 27.5625V37.4063C41.1797 38.3086 40.4415 39.0469 39.5391 39.0469H22.9687C22.0664 39.0469 21.3281 38.3086 21.3281 37.4063V27.5625C21.3281 26.6602 22.0664 25.9219 22.9687 25.9219Z" stroke="#2F87CC" stroke-width="1.5" stroke-miterlimit="22.926" stroke-linecap="round" stroke-linejoin="round"/>
<path d="M21.7383 29.2031H40.7696" stroke="#2F87CC" stroke-width="1.5" stroke-miterlimit="22.926" stroke-linecap="round" stroke-linejoin="round"/>
<path d="M21.7383 32.4844H40.7696" stroke="#2F87CC" stroke-width="1.5" stroke-miterlimit="22.926" stroke-linecap="round" stroke-linejoin="round"/>
</g>
</svg>
