<svg width="42" height="42" viewBox="0 0 42 42" fill="none" xmlns="http://www.w3.org/2000/svg">
<path d="M22.518 26.5924H18.6264C17.995 26.5924 17.4818 27.1057 17.4818 27.7371V31.6287C17.4818 32.2601 17.995 32.7734 18.6264 32.7734H22.518C23.1494 32.7734 23.6627 32.2601 23.6627 31.6287V27.7371C23.6627 27.1057 23.1494 26.5924 22.518 26.5924ZM22.1011 31.2125H19.0426V28.154H22.1011V31.2125ZM12.8097 26.5924H8.91807C8.28669 26.5924 7.77343 27.1057 7.77343 27.7371V31.6287C7.77343 32.2601 8.28669 32.7734 8.91807 32.7734H12.8097C13.4411 32.7734 13.9543 32.2601 13.9543 31.6287V27.7371C13.9543 27.1057 13.4411 26.5924 12.8097 26.5924ZM12.3935 31.2125H9.33501V28.154H12.3935V31.2125ZM8.84776 23.9242H12.7394C13.3708 23.9242 13.884 23.4109 13.884 22.7796V18.8879C13.884 18.2565 13.3708 17.7433 12.7394 17.7433H8.84776C8.21638 17.7433 7.70312 18.2565 7.70312 18.8879V22.7796C7.70312 23.4109 8.21638 23.9242 8.84776 23.9242ZM9.264 19.3049H12.3225V22.3633H9.264V19.3049ZM28.263 23.9242H32.1547C32.786 23.9242 33.2993 23.4109 33.2993 22.7796V18.8879C33.2993 18.2565 32.786 17.7433 32.1547 17.7433H28.263C27.6317 17.7433 27.1184 18.2565 27.1184 18.8879V22.7796C27.1184 23.4109 27.6317 23.9242 28.263 23.9242ZM28.68 19.3049H31.7384V22.3633H28.68V19.3049ZM18.5554 23.9242H22.447C23.0784 23.9242 23.5917 23.4109 23.5917 22.7796V18.8879C23.5917 18.2565 23.0784 17.7433 22.447 17.7433H18.5554C17.924 17.7433 17.4108 18.2565 17.4108 18.8879V22.7796C17.4108 23.4109 17.924 23.9242 18.5554 23.9242ZM18.9716 19.3049H22.0301V22.3633H18.9716V19.3049Z" fill="#2F87CC"/>
<path d="M38.8403 30.4334V10.4318C38.8403 8.73028 37.4559 7.34588 35.7544 7.34588H33.283V6.40022C33.283 4.81755 31.9949 3.52948 30.4123 3.52948H30.1739C28.5913 3.52948 27.3032 4.81755 27.3032 6.40022V7.34588H23.9101V6.19984C23.9101 4.61717 22.622 3.3291 21.0393 3.3291H20.801C19.2183 3.3291 17.9302 4.61717 17.9302 6.19984V7.34588H14.5371V6.33343C14.5371 4.75076 13.249 3.46269 11.6664 3.46269H11.428C9.84534 3.46269 8.55726 4.75076 8.55726 6.33343V7.34588H6.08588C4.38439 7.34588 3 8.73028 3 10.4318V33.7211C3 35.4226 4.38439 36.807 6.08588 36.807C6.08588 36.807 27.4923 36.8021 27.5401 36.7929C28.7579 37.9565 30.4067 38.6716 32.2199 38.6716C35.9576 38.6716 38.9992 35.6307 38.9992 31.8923C38.9992 31.3917 38.9443 30.9038 38.841 30.4334H38.8403ZM28.8641 6.40022C28.8641 5.67814 29.4511 5.09106 30.1732 5.09106H30.4116C31.1337 5.09106 31.7207 5.67814 31.7207 6.40022V7.34588H28.8634V6.40022H28.8641ZM19.4911 6.19914C19.4911 5.47706 20.0782 4.88997 20.8003 4.88997H21.0386C21.7607 4.88997 22.3478 5.47706 22.3478 6.19914V7.34518H19.4904V6.19914H19.4911ZM10.1181 6.33343C10.1181 5.61135 10.7052 5.02426 11.4273 5.02426H11.6656C12.3877 5.02426 12.9748 5.61135 12.9748 6.33343V7.34588H10.1174V6.33343H10.1181ZM6.08588 8.90746H12.9755V9.51845C12.9755 10.2405 12.3884 10.8276 11.6664 10.8276C11.2354 10.8276 10.8859 11.1771 10.8859 11.608C10.8859 12.039 11.2354 12.3885 11.6664 12.3885C13.249 12.3885 14.5371 11.1004 14.5371 9.51775V8.90676H22.3485V9.38345C22.3485 10.1055 21.7614 10.6926 21.0393 10.6926C20.6083 10.6926 20.2589 11.0421 20.2589 11.4731C20.2589 11.9041 20.6083 12.2535 21.0393 12.2535C22.622 12.2535 23.9101 10.9654 23.9101 9.38275V8.90605H31.7214V9.58384C31.7214 10.3059 31.1344 10.893 30.4123 10.893C29.9813 10.893 29.6318 11.2424 29.6318 11.6734C29.6318 12.1044 29.9813 12.4539 30.4123 12.4539C31.9949 12.4539 33.283 11.1658 33.283 9.58313V8.90535H35.7544C36.5946 8.90535 37.2787 9.58946 37.2787 10.4297V13.7321H4.56157V10.4297C4.56157 9.58946 5.24569 8.90535 6.08588 8.90535V8.90746ZM4.56157 33.7211V15.2951H37.2787V27.3848C36.0363 25.992 34.2287 25.1124 32.2199 25.1124C28.4823 25.1124 25.4407 28.1533 25.4407 31.8916C25.4407 33.1108 25.7641 34.2554 26.3301 35.2447H6.08588C5.24569 35.2447 4.56157 34.5606 4.56157 33.7204V33.7211ZM32.2192 37.11C29.3422 37.11 27.0016 34.7694 27.0016 31.8923C27.0016 29.0153 29.3422 26.6747 32.2192 26.6747C34.6681 26.6747 36.7268 28.3705 37.2857 30.6493C37.2921 30.6992 37.3033 30.7477 37.3195 30.7941C37.3972 31.155 37.4366 31.5231 37.4369 31.8923C37.4369 34.7694 35.0963 37.11 32.2192 37.11Z" fill="#2F87CC"/>
<path d="M35.3059 31.1113H32.9984V28.8037C32.9984 28.3728 32.6489 28.0233 32.2179 28.0233C31.7869 28.0233 31.4375 28.3728 31.4375 28.8037V31.8917C31.4375 32.3227 31.7869 32.6722 32.2179 32.6722H35.3059C35.7369 32.6722 36.0864 32.3227 36.0864 31.8917C36.0864 31.4607 35.7369 31.1113 35.3059 31.1113Z" fill="#2F87CC"/>
</svg>
