<svg width="42" height="42" viewBox="0 0 42 42" fill="none" xmlns="http://www.w3.org/2000/svg">
<g clip-path="url(#clip0_2634_4342)">
<path d="M11.6222 30.5999H10.9974C10.8231 30.6028 10.6568 30.6741 10.5345 30.7984C10.4123 30.9228 10.3438 31.0902 10.3438 31.2645C10.3438 31.4389 10.4123 31.6063 10.5345 31.7307C10.6568 31.855 10.8231 31.9263 10.9974 31.9292H11.6222C11.7966 31.9263 11.9628 31.855 12.0851 31.7307C12.2074 31.6063 12.2759 31.4389 12.2759 31.2645C12.2759 31.0902 12.2074 30.9228 12.0851 30.7984C11.9628 30.6741 11.7966 30.6028 11.6222 30.5999ZM33.6153 30.5999H33.2596C33.0853 30.6028 32.919 30.6741 32.7968 30.7984C32.6745 30.9228 32.606 31.0902 32.606 31.2645C32.606 31.4389 32.6745 31.6063 32.7968 31.7307C32.919 31.855 33.0853 31.9263 33.2596 31.9292H33.6153C33.7897 31.9263 33.9559 31.855 34.0782 31.7307C34.2005 31.6063 34.269 31.4389 34.269 31.2645C34.269 31.0902 34.2005 30.9228 34.0782 30.7984C33.9559 30.6741 33.7897 30.6028 33.6153 30.5999Z" fill="#2F87CC"/>
<path d="M38.4817 13.0598C37.9929 12.1219 37.0307 11.5393 35.9697 11.5393H27.6967V9.17919C27.6967 7.63922 26.4439 6.38647 24.9042 6.38647H2.78881C1.24884 6.38647 -0.00390625 7.63922 -0.00390625 9.17919V29.4254C-0.00390625 30.806 1.12261 31.9293 2.50744 31.9293H6.9285C7.25024 34.0122 9.04992 35.6136 11.2215 35.6136C13.3974 35.6136 15.2005 34.0122 15.5227 31.9293H29.1414C29.4631 34.0122 31.2626 35.6136 33.4341 35.6136C35.61 35.6136 37.4134 34.0122 37.7357 31.9293H39.1464C40.7198 31.9293 41.9998 30.6493 41.9998 29.0758V20.5107C41.9998 20.055 41.8895 19.6039 41.6818 19.2083L38.4817 13.0598ZM2.78881 7.71577H24.9043C25.7112 7.71577 26.3674 8.37237 26.3674 9.17919V23.9405H1.32539V9.17919C1.32539 8.37237 1.98199 7.71577 2.78881 7.71577ZM1.32539 29.4254V25.2699H26.3674V30.5999H15.5321C15.2136 28.5222 13.4054 26.9491 11.285 26.9185C11.2671 26.9183 11.2502 26.9137 11.2322 26.9137C11.2231 26.9137 11.2147 26.9161 11.2057 26.9161C9.08424 26.9239 7.24754 28.4969 6.92441 30.5998H2.50744C1.85567 30.5999 1.32539 30.0731 1.32539 29.4254ZM11.2215 34.2842C9.55807 34.2842 8.20515 32.9324 8.20208 31.27C8.20208 31.2681 8.20319 31.2665 8.20319 31.2646C8.20319 29.5891 9.57379 28.2447 11.2215 28.2447C12.8913 28.2447 14.2498 29.5994 14.2498 31.2646C14.2498 32.9295 12.8913 34.2842 11.2215 34.2842ZM33.4341 34.2842C31.7728 34.2842 30.4216 32.9352 30.4156 31.2753C30.4157 31.2715 30.4178 31.2684 30.4178 31.2646C30.4178 29.594 31.7834 28.2447 33.4341 28.2447C35.1367 28.2447 36.4602 29.6671 36.4602 31.2646C36.4602 31.2677 36.4619 31.2701 36.462 31.2731C36.4571 32.934 35.1012 34.2842 33.4341 34.2842ZM40.6705 29.0758C40.6705 29.916 39.9866 30.5999 39.1464 30.5999H37.7389C37.4149 28.5085 35.6154 26.9513 33.5011 26.9187C33.4825 26.9184 33.4652 26.9137 33.4465 26.9137C33.4381 26.9137 33.4303 26.9159 33.422 26.9159C31.2889 26.9219 29.4668 28.4948 29.1392 30.5999H27.6969V12.8686H35.9699C36.5333 12.8686 37.0442 13.1772 37.3028 13.6735L40.5038 19.824C40.6128 20.032 40.6706 20.2692 40.6706 20.5107V29.0758H40.6705Z" fill="#2F87CC"/>
<path d="M36.4737 14.9691C36.3535 14.7374 36.1719 14.5432 35.9487 14.4078C35.7255 14.2724 35.4693 14.201 35.2083 14.2015H30.454C29.6673 14.2015 29.0273 14.8416 29.0273 15.6282V19.8846C29.0273 20.6714 29.6674 21.3113 30.454 21.3113H38.6744C39.0415 21.3113 39.3391 21.001 39.3391 20.634C39.3392 20.5271 39.3134 20.4217 39.2639 20.3269L36.4737 14.9691ZM30.454 19.982C30.4282 19.982 30.4035 19.9717 30.3852 19.9534C30.367 19.9352 30.3567 19.9105 30.3566 19.8846V15.6282C30.3567 15.6024 30.367 15.5777 30.3852 15.5594C30.4035 15.5412 30.4282 15.5309 30.454 15.5308H35.2083C35.2446 15.5308 35.2778 15.5509 35.2946 15.5831L37.5856 19.982H30.454ZM31.3378 22.6089H30.5148C30.3404 22.6118 30.1742 22.6831 30.0519 22.8075C29.9296 22.9318 29.8611 23.0992 29.8611 23.2736C29.8611 23.448 29.9296 23.6154 30.0519 23.7397C30.1742 23.8641 30.3404 23.9354 30.5148 23.9383H31.3378C31.5121 23.9354 31.6784 23.8641 31.8006 23.7397C31.9229 23.6154 31.9914 23.448 31.9914 23.2736C31.9914 23.0992 31.9229 22.9318 31.8006 22.8075C31.6784 22.6831 31.5121 22.6118 31.3378 22.6089Z" fill="#2F87CC"/>
</g>
<defs>
<clipPath id="clip0_2634_4342">
<rect width="42" height="42" fill="white"/>
</clipPath>
</defs>
</svg>
