<svg width="42" height="42" viewBox="0 0 42 42" fill="none" xmlns="http://www.w3.org/2000/svg">
<path d="M35.1013 24.0498V11.818C35.1018 11.7024 35.0717 11.5888 35.0141 11.4886C34.9565 11.3884 34.8735 11.3052 34.7734 11.2474L18.8688 2.06541C18.7691 2.00784 18.656 1.97754 18.5409 1.97754C18.4258 1.97754 18.3127 2.00784 18.213 2.06541L2.3084 11.2474C2.20832 11.3052 2.12528 11.3884 2.06769 11.4886C2.0101 11.5888 1.98002 11.7024 1.98047 11.818V30.182C1.98002 30.2976 2.0101 30.4113 2.06769 30.5115C2.12528 30.6117 2.20832 30.6949 2.3084 30.7526L18.213 39.9347C18.3127 39.9922 18.4258 40.0225 18.5409 40.0225C18.656 40.0225 18.7691 39.9922 18.8688 39.9347L24.8437 36.4848C25.5884 37.5283 26.5633 38.3863 27.6927 38.9926C28.8222 39.599 30.0761 39.9373 31.3573 39.9813C32.6384 40.0254 33.9126 39.7742 35.0811 39.2469C36.2496 38.7197 37.2811 37.9307 38.0958 36.941C38.9105 35.9512 39.4866 34.7873 39.7794 33.5392C40.0722 32.2912 40.074 30.9925 39.7845 29.7437C39.495 28.4949 38.922 27.3294 38.1099 26.3375C37.2978 25.3456 36.2684 24.5539 35.1013 24.0235V24.0498ZM18.5409 3.39024L33.1337 11.818L25.8144 16.0417L12.2643 7.01714L18.5409 3.39024ZM18.5409 20.2458L3.94805 11.818L10.9985 7.74514L24.542 16.7763L18.5409 20.2458ZM3.29219 12.9527L17.885 21.3804V38.2294L3.29219 29.8016V12.9527ZM19.1968 38.2294V21.3804L25.0995 17.9503V23.0594C25.0995 23.2334 25.1686 23.4002 25.2916 23.5232C25.4146 23.6462 25.5814 23.7153 25.7553 23.7153C25.9293 23.7153 26.0961 23.6462 26.2191 23.5232C26.3421 23.4002 26.4112 23.2334 26.4112 23.0594V17.1961L33.7568 12.9527V23.5841C33.0621 23.3943 32.3454 23.2972 31.6253 23.2955C30.206 23.2992 28.811 23.6645 27.5722 24.3572C26.3334 25.0498 25.2916 26.0468 24.5452 27.254C23.7988 28.4612 23.3725 29.8388 23.3065 31.2565C23.2406 32.6743 23.5371 34.0855 24.1682 35.3568L19.1968 38.2294ZM31.6581 38.7082C30.2636 38.7082 28.9005 38.2947 27.741 37.52C26.5816 36.7453 25.6779 35.6441 25.1443 34.3558C24.6106 33.0675 24.471 31.6499 24.7431 30.2822C25.0151 28.9146 25.6866 27.6583 26.6726 26.6723C27.6586 25.6863 28.9149 25.0148 30.2826 24.7427C31.6502 24.4707 33.0678 24.6103 34.3562 25.1439C35.6445 25.6776 36.7456 26.5812 37.5203 27.7407C38.295 28.9001 38.7085 30.2633 38.7085 31.6577C38.7068 33.5271 37.9634 35.3194 36.6416 36.6412C35.3197 37.9631 33.5274 38.7065 31.6581 38.7082Z" fill="#2F87CC"/>
<path d="M34.7737 28.2538L30.7074 33.6187L28.5758 31.1133C28.4636 30.9785 28.3025 30.8938 28.1278 30.8778C27.9532 30.8618 27.7793 30.9158 27.6445 31.028C27.5097 31.1402 27.425 31.3014 27.409 31.476C27.393 31.6507 27.4471 31.8245 27.5593 31.9594L30.1827 35.0944C30.2443 35.1663 30.3207 35.2241 30.4068 35.2638C30.4928 35.3034 30.5864 35.3239 30.6811 35.3239C30.7796 35.3209 30.8762 35.2958 30.9636 35.2504C31.051 35.2049 31.1271 35.1404 31.1862 35.0616L35.7444 29.0473C35.8298 28.9905 35.9007 28.9144 35.9514 28.8251C36.002 28.7359 36.0311 28.636 36.0361 28.5335C36.0411 28.431 36.0221 28.3288 35.9804 28.235C35.9387 28.1412 35.8756 28.0585 35.7962 27.9936C35.7167 27.9286 35.6231 27.8832 35.5229 27.861C35.4227 27.8388 35.3187 27.8404 35.2193 27.8657C35.1198 27.891 35.0277 27.9393 34.9503 28.0067C34.8729 28.0741 34.8124 28.1587 34.7737 28.2538Z" fill="#2F87CC"/>
</svg>
