<svg width="42" height="42" viewBox="0 0 42 42" fill="none" xmlns="http://www.w3.org/2000/svg">
<g clip-path="url(#clip0_2695_9952)">
<path d="M0.664062 5.84033H41.3437V7.15185H0.664062V5.84033Z" fill="#2F87CC"/>
<path fill-rule="evenodd" clip-rule="evenodd" d="M3.90606 2.93872C4.07368 2.93898 4.23435 3.00568 4.35288 3.1242C4.4714 3.24273 4.5381 3.4034 4.53836 3.57102C4.53836 3.92441 4.25945 4.21283 3.90606 4.21283C3.55267 4.21283 3.27344 3.92441 3.27344 3.57102C3.2737 3.40335 3.34044 3.24262 3.45904 3.12409C3.57763 3.00556 3.73839 2.93889 3.90606 2.93872ZM9.44875 2.93872C9.61637 2.93898 9.77704 3.00568 9.89556 3.1242C10.0141 3.24273 10.0808 3.4034 10.081 3.57102C10.081 3.92441 9.80214 4.21283 9.44875 4.21283C9.27864 4.21248 9.11559 4.14475 8.9953 4.02446C8.87501 3.90418 8.80728 3.74113 8.80694 3.57102C8.80727 3.22714 9.09536 2.93872 9.44875 2.93872ZM6.67741 2.93872C6.84502 2.93898 7.0057 3.00568 7.12422 3.1242C7.24274 3.24273 7.30944 3.4034 7.3097 3.57102C7.3097 3.92441 7.0308 4.21283 6.67741 4.21283C6.32402 4.21283 6.03559 3.92441 6.03559 3.57102C6.03559 3.22714 6.32402 2.93872 6.67741 2.93872Z" fill="#2F87CC"/>
<path d="M37.2696 2.92004C37.6322 2.92004 37.9206 3.20847 37.9206 3.57104C37.9206 3.93362 37.6322 4.23156 37.2696 4.23156H14.9401C14.7651 4.23087 14.5975 4.16106 14.4738 4.03734C14.3501 3.91361 14.2802 3.74601 14.2795 3.57104C14.2795 3.20847 14.5772 2.92004 14.9401 2.92004H37.2696ZM27.0768 20.5814C27.0768 19.3352 27.6536 18.5352 28.4073 18.1634C28.7068 18.0226 29.0338 17.9495 29.3648 17.9495C29.6998 17.9495 30.025 18.024 30.3229 18.1726C31.0855 18.5444 31.681 19.3539 31.681 20.5814V26.9148C31.8483 26.9519 32.1551 27.0264 32.4429 27.1006C33.569 27.3611 34.5078 27.5845 36.0054 28.1145C36.5816 28.3192 37.1308 28.7471 37.5305 29.2682C37.9206 29.7886 38.172 30.4025 38.172 31.0072V39.6189C38.172 40.9212 37.0934 42.0001 35.7816 42.0001H29.4576C28.3604 42.0001 27.1696 41.3025 26.4815 40.4562L21.8133 34.7459C21.0409 33.8347 20.8831 32.867 21.1062 32.0956C21.2082 31.7422 21.4038 31.4259 21.6548 31.1746C21.9058 30.9232 22.2317 30.7375 22.5942 30.6443C23.5146 30.4028 24.4629 30.8212 25.1326 31.4538L27.0764 33.1463L27.0768 20.5814ZM28.9743 19.3447C28.6488 19.512 28.3886 19.912 28.3886 20.5817V34.5976C28.3886 34.7462 28.3328 34.9047 28.2206 35.0254C27.9886 35.2952 27.5696 35.323 27.3002 35.0904L24.2772 32.4401C23.8214 32.0776 23.1146 31.5749 22.5755 32.1051C22.0545 32.6167 22.4174 33.435 22.817 33.9L27.4577 39.5916C27.7186 39.9358 28.5556 40.6892 29.4573 40.6892H35.7813C36.065 40.6892 36.337 40.5765 36.5376 40.3759C36.7382 40.1753 36.8509 39.9032 36.8509 39.6195V31.0072C36.8509 30.6909 36.7118 30.3562 36.4884 30.0583C36.237 29.7328 35.9027 29.4722 35.5673 29.3518C34.1541 28.8495 33.2334 28.6355 32.1361 28.375C31.9504 28.3284 31.7637 28.2821 31.2991 28.1702C31.0332 28.1091 30.7966 27.9579 30.6294 27.7424C30.46 27.5278 30.3681 27.2623 30.3685 26.989V20.5814C30.3685 19.9304 30.0994 19.5212 29.7552 19.3539C29.6341 19.2925 29.5002 19.2606 29.3644 19.2607C29.23 19.2617 29.0972 19.2903 28.9743 19.3447ZM9.56439 10.2395H17.9719C18.3998 10.2395 18.7995 10.4164 19.0787 10.7045C19.2261 10.8486 19.3432 11.0208 19.423 11.2109C19.5029 11.4009 19.5439 11.6051 19.5437 11.8112V23.9017C19.5438 24.1078 19.5028 24.3119 19.4229 24.502C19.3431 24.6921 19.226 24.8642 19.0787 25.0084V25.0176C18.7841 25.3093 18.3865 25.4732 17.9719 25.4737H5.36997C4.95268 25.4734 4.55211 25.3096 4.25402 25.0176V25.0084C4.10667 24.8642 3.98964 24.6921 3.90979 24.502C3.82994 24.3119 3.7889 24.1078 3.78906 23.9017V11.8112C3.78906 11.3834 3.96592 10.9837 4.25402 10.7045C4.39994 10.5569 4.57374 10.4398 4.76532 10.36C4.9569 10.2802 5.16243 10.2392 5.36997 10.2395H9.56439ZM13.266 22.2092C12.9034 22.2092 12.6058 21.9116 12.6058 21.5487C12.6058 21.1858 12.9034 20.8977 13.266 20.8977H15.7679C16.1305 20.8977 16.4189 21.1858 16.4189 21.5487C16.4189 21.9116 16.1305 22.2092 15.7679 22.2092H13.266ZM14.4285 11.551V16.0244C14.4292 16.2178 14.3732 16.4072 14.2674 16.5691C14.1616 16.7311 14.0107 16.8585 13.8333 16.9356C13.6557 17.0138 13.4592 17.0388 13.2677 17.0075C13.0761 16.9761 12.8978 16.8898 12.7544 16.759L11.6942 15.8104L10.5688 16.7961C10.4218 16.921 10.2421 17.0014 10.051 17.0277C9.85989 17.054 9.66523 17.0253 9.48991 16.9448C9.31305 16.8703 9.17359 16.7403 9.06203 16.5822C8.95936 16.4176 8.9046 16.2276 8.90388 16.0336V11.551H5.36997C5.33557 11.5505 5.3014 11.5568 5.26946 11.5696C5.23751 11.5824 5.20844 11.6014 5.18392 11.6255C5.15978 11.65 5.14076 11.6791 5.12797 11.7111C5.11519 11.743 5.10888 11.7772 5.10944 11.8116V23.902C5.10888 23.9364 5.11519 23.9706 5.12797 24.0025C5.14076 24.0345 5.15978 24.0635 5.18392 24.088C5.20844 24.1122 5.23751 24.1312 5.26946 24.144C5.3014 24.1568 5.33557 24.1631 5.36997 24.1625H17.9719C18.0063 24.1631 18.0405 24.1568 18.0724 24.144C18.1044 24.1312 18.1335 24.1122 18.158 24.088C18.1821 24.0635 18.201 24.0344 18.2138 24.0025C18.2266 23.9705 18.2329 23.9364 18.2325 23.902V11.8112C18.233 11.7768 18.2267 11.7427 18.2139 11.7107C18.2011 11.6788 18.1821 11.6497 18.158 11.6252C18.1335 11.6011 18.1044 11.582 18.0724 11.5693C18.0405 11.5565 18.0063 11.5502 17.9719 11.5507L14.4285 11.551ZM13.1173 11.551H10.2157V15.3547L11.0433 14.6387C11.2201 14.4805 11.4803 14.3969 11.713 14.3969C11.9453 14.3969 12.1871 14.4805 12.3731 14.6482L13.1173 15.3271V11.551Z" fill="#2F87CC"/>
<path d="M27.2749 21.3068C27.6375 21.3068 27.9357 21.5952 27.9357 21.9578C27.935 22.1328 27.8652 22.3005 27.7414 22.4242C27.6176 22.5479 27.4499 22.6177 27.2749 22.6183H24.5285C24.0009 22.6178 23.495 22.4079 23.1219 22.0347C22.7489 21.6615 22.5391 21.1556 22.5388 20.6279V17.2239C22.5388 16.1263 23.4405 15.2335 24.5285 15.2335H35.968C37.056 15.2335 37.9488 16.1263 37.9488 17.2239V20.6279C37.9488 21.7255 37.056 22.6183 35.968 22.6183H31.344C31.169 22.6176 31.0015 22.5478 30.8778 22.4241C30.7541 22.3003 30.6844 22.1327 30.6838 21.9578C30.6838 21.5952 30.9811 21.3068 31.344 21.3068H35.968C36.3397 21.3068 36.6377 21 36.6377 20.6279V17.2239C36.6377 16.8518 36.3397 16.545 35.968 16.545H24.5285C24.3488 16.5461 24.1768 16.6179 24.0497 16.745C23.9227 16.8721 23.8509 17.0442 23.85 17.2239V20.6279C23.8509 20.8076 23.9227 20.9797 24.0497 21.1068C24.1768 21.2339 24.3488 21.3058 24.5285 21.3068H27.2749ZM4.44925 31.4908C4.08667 31.4908 3.78906 31.1932 3.78906 30.8303C3.78906 30.4674 4.08667 30.1793 4.44925 30.1793H7.5835C7.94608 30.1793 8.24402 30.4677 8.24402 30.8303C8.24402 31.1929 7.94641 31.4908 7.5835 31.4908H4.44925ZM4.44925 28.7191C4.08667 28.7191 3.78906 28.4215 3.78906 28.0681C3.78967 27.8932 3.85941 27.7256 3.98308 27.6019C4.10674 27.4781 4.27431 27.4083 4.44925 27.4076H12.9405C13.303 27.4076 13.5915 27.7052 13.5915 28.0681C13.591 28.2406 13.5222 28.4059 13.4002 28.5279C13.2782 28.6499 13.113 28.7186 12.9405 28.7191H4.44925Z" fill="#2F87CC"/>
<path d="M22.0306 33.6203C22.384 33.6203 22.6816 33.918 22.6816 34.2809C22.6816 34.6438 22.384 34.9319 22.0306 34.9319H1.86933C1.61747 34.9335 1.36807 34.8822 1.13733 34.7812C0.90658 34.6803 0.699636 34.5319 0.529922 34.3458C0.195234 33.9924 0 33.4996 0 32.9785V1.92511C0 0.874125 0.874125 0 1.92511 0H40.065C41.1259 0 42 0.874125 42 1.92511V32.9785C42 33.5088 41.9206 34.0177 41.5488 34.3711C40.9746 35.1504 38.6754 34.9319 38.1445 34.9319C37.782 34.9319 37.4843 34.6434 37.4843 34.2809C37.4843 33.9183 37.7816 33.6203 38.1445 33.6203C38.3214 33.6203 40.1953 33.7969 40.4841 33.4156C40.6045 33.2948 40.6885 33.1367 40.6885 32.9785V1.92511C40.6885 1.59042 40.4089 1.31119 40.065 1.31119H1.92511C1.76274 1.31264 1.60743 1.37779 1.49261 1.49261C1.37779 1.60743 1.31264 1.76274 1.31119 1.92511V32.9785C1.31119 33.1646 1.37616 33.3411 1.48805 33.453C1.59042 33.5554 1.72036 33.6203 1.86933 33.6203H22.0306Z" fill="#2F87CC"/>
</g>
<defs>
<clipPath id="clip0_2695_9952">
<rect width="42" height="42" fill="white"/>
</clipPath>
</defs>
</svg>
