<svg width="42" height="42" viewBox="0 0 42 42" fill="none" xmlns="http://www.w3.org/2000/svg">
<g clip-path="url(#clip0_2695_9966)">
<path d="M41.4144 27.4459C40.7113 26.3244 39.1611 25.5529 37.4182 26.5095C36.2926 27.1274 35.2896 27.7006 34.3195 28.2549C33.1559 28.9198 32.0502 29.5511 30.8473 30.1951C29.8492 29.6169 28.7253 29.085 27.5547 28.602H30.8734C32.4952 28.602 33.8148 27.2825 33.8148 25.6606V12.5265C33.8148 12.3525 33.7457 12.1856 33.6226 12.0625C33.4995 11.9394 33.3326 11.8703 33.1585 11.8703H19.0809L29.1663 7.69285C29.309 7.63416 29.4387 7.54775 29.5478 7.43861C29.657 7.32947 29.7434 7.19978 29.8021 7.05702C29.8615 6.91458 29.8921 6.76178 29.8921 6.60745C29.8921 6.45312 29.8615 6.30031 29.8021 6.15788L28.6639 3.40991C28.6052 3.26716 28.5188 3.13746 28.4097 3.02832C28.3005 2.91918 28.1708 2.83277 28.0281 2.77409C27.8856 2.71461 27.7328 2.68399 27.5785 2.68399C27.4242 2.68399 27.2713 2.71461 27.1289 2.77409L24.6585 3.79735C24.6393 2.59649 24.205 1.1963 22.6754 0.857427C21.7147 0.644392 19.9719 0.799677 18.8077 4.05574C18.3388 4.01782 17.8676 4.09208 17.4332 4.27239C17.0502 4.43077 16.7047 4.66768 16.4189 4.96785C13.3567 3.5524 12.0344 4.66072 11.5112 5.48177C10.6693 6.80297 11.3523 8.10013 12.1878 8.96285L9.51771 10.0689C8.9193 10.3168 8.63416 11.0054 8.88197 11.6038L10.0202 14.3518C10.0788 14.4946 10.1652 14.6243 10.2744 14.7335C10.3835 14.8426 10.5133 14.929 10.6561 14.9876C10.801 15.0477 10.9533 15.0777 11.1055 15.0777C11.2578 15.0777 11.4103 15.0477 11.5551 14.9876L13.4477 14.2037V25.5915C13.2908 25.6294 13.1353 25.6733 12.9817 25.723C12.9633 25.729 12.9452 25.7358 12.9274 25.7434L7.96806 27.8578L7.86405 27.6638C7.46242 26.9151 6.52653 26.6326 5.77774 27.0341L3.7921 28.0989C3.42927 28.2934 3.16398 28.6175 3.04504 29.0116C2.92609 29.4057 2.96776 29.8225 3.16234 30.1852L3.16251 30.1856L1.25667 31.1573C1.25044 31.1605 1.24421 31.1638 1.23789 31.1672C0.210366 31.7337 -0.174688 33.0358 0.376315 34.0634L3.50909 40.0694C3.78299 40.5803 4.24007 40.9523 4.796 41.1166C4.9952 41.1758 5.20188 41.2059 5.40967 41.2061C5.76421 41.2061 6.11522 41.1174 6.43539 40.9431L8.41899 39.9329C8.61324 40.1774 8.87773 40.3566 9.17687 40.4463C9.32412 40.4907 9.47457 40.5128 9.62419 40.5128C9.87488 40.5128 10.1233 40.451 10.3505 40.3291L12.3362 39.2643C12.9943 38.9114 13.2917 38.1457 13.0816 37.4571C14.5862 36.949 16.0616 37.1299 20.705 39.1081C22.0169 39.667 23.3582 39.9467 24.7465 39.9466C26.3809 39.9466 28.0802 39.5587 29.8707 38.7822C32.6954 37.5571 35.3034 35.5845 37.8256 33.677C38.6847 33.0272 39.4961 32.4135 40.2973 31.844C42.1386 30.5351 42.1671 28.6469 41.4144 27.4464V27.4459ZM26.6066 13.1828H32.5023V25.6606C32.5023 26.5587 31.7716 27.2895 30.8734 27.2895H26.6066V13.1827V13.1828ZM21.9683 13.1828H25.2941V27.2895H23.947C23.2906 27.0777 22.631 26.8761 21.9683 26.6849V13.1828ZM20.6558 13.1828V26.319C19.9171 26.1203 19.1756 25.9323 18.4314 25.7551C17.4227 25.5152 16.0952 25.304 14.7602 25.3939V13.66L15.9123 13.1828H20.6558ZM22.3915 2.13884C23.409 2.36426 23.3844 3.71983 23.3149 4.35385L21.0105 5.30836C20.7609 4.95494 20.4372 4.66031 20.0618 4.44506C20.5252 3.16398 21.2753 1.8916 22.3915 2.13884ZM17.9354 5.48497C18.5708 5.22174 19.2775 5.3817 19.7415 5.83394L16.905 7.00887C16.9132 6.36107 17.2999 5.74821 17.9354 5.48497ZM12.618 6.18716C13.2076 5.26234 14.5486 5.56578 15.7422 6.10021C15.5901 6.56243 15.5536 7.05493 15.636 7.53453L13.5314 8.40627C13.0332 8.00653 12.0581 7.06572 12.618 6.18716ZM11.18 13.7223L10.1471 11.2288L27.5038 4.03942L28.5367 6.53292L11.18 13.7223ZM5.83107 39.7779C5.82475 39.7812 5.81843 39.7845 5.81212 39.7879C5.71488 39.8419 5.60782 39.8759 5.49725 39.8879C5.38668 39.8999 5.27482 39.8897 5.16825 39.8579C4.9512 39.7937 4.77286 39.6485 4.66934 39.4557L1.53657 33.4497C1.32156 33.0487 1.4684 32.5445 1.86354 32.3211L3.78291 31.3425L7.77537 38.7876L5.83107 39.7779ZM11.716 38.1073L9.73026 39.1722C9.70384 39.1864 9.67488 39.1952 9.64504 39.1982C9.61519 39.2012 9.58505 39.1983 9.55635 39.1896C9.52759 39.1809 9.50083 39.1667 9.4776 39.1477C9.45437 39.1287 9.43513 39.1052 9.421 39.0787L4.31907 29.5648C4.30483 29.5383 4.29597 29.5094 4.29298 29.4795C4.29 29.4496 4.29295 29.4195 4.30167 29.3908C4.31032 29.362 4.32457 29.3352 4.3436 29.312C4.36264 29.2888 4.38608 29.2695 4.41258 29.2554L6.39831 28.1906C6.45174 28.162 6.5143 28.1559 6.57229 28.1734C6.63027 28.1909 6.67895 28.2307 6.70765 28.284L11.8095 37.7979C11.8381 37.8513 11.8443 37.9139 11.8268 37.9719C11.8093 38.0299 11.7694 38.0786 11.7161 38.1072L11.716 38.1073ZM39.5369 30.7738C38.7199 31.3545 37.9009 31.9739 37.0338 32.6298C32.2736 36.2301 26.8782 40.3111 21.2195 37.9003C16.2374 35.7778 14.4936 35.5457 12.4831 36.2772L8.59084 29.019L13.4146 26.9624C14.6331 26.5741 16.3051 26.5986 18.1277 27.032C21.1507 27.751 26.723 29.2709 30.3503 31.4247C30.2929 31.688 29.9796 32.2611 29.4694 32.6016C28.0829 33.5269 23.2446 32.5235 20.5205 31.6736C20.3543 31.6217 20.1744 31.638 20.0202 31.7188C19.8661 31.7996 19.7503 31.9383 19.6984 32.1044C19.6466 32.2706 19.6628 32.4505 19.7436 32.6047C19.8244 32.7589 19.9631 32.8746 20.1293 32.9265C20.2058 32.9504 22.0265 33.5159 24.1468 33.9109C25.4812 34.1596 26.6128 34.2841 27.5517 34.2841C28.7317 34.2841 29.6074 34.0874 30.1979 33.6933C31.0408 33.1308 31.6882 32.0834 31.6716 31.3088C31.6711 31.2873 31.6681 31.2666 31.6666 31.2453C32.8079 30.6304 33.8628 30.0277 34.9707 29.3945C35.936 28.8429 36.9341 28.2725 38.0497 27.6601C39.0519 27.1099 39.9032 27.5063 40.3024 28.1431C40.7528 28.8615 40.6907 29.9535 39.5369 30.7737V30.7738Z" fill="#2F87CC"/>
</g>
<defs>
<clipPath id="clip0_2695_9966">
<rect width="42" height="42" fill="white"/>
</clipPath>
</defs>
</svg>
