<svg width="42" height="42" viewBox="0 0 42 42" fill="none" xmlns="http://www.w3.org/2000/svg">
<path d="M35.783 30.8687C35.7802 30.8618 35.7773 30.8549 35.7743 30.8481C35.1184 29.3512 33.58 28.798 31.7594 29.4044L26.7942 30.7434C26.5072 29.8956 25.7911 29.1742 24.7787 28.8078C24.7724 28.8055 24.7661 28.8034 24.7598 28.8013L19.302 26.9948C18.8477 26.4221 17.4248 24.9569 14.7606 24.9569C12.8987 24.9569 11.2516 26.2025 10.3093 27.5602H3.71268C3.31907 27.5602 3 27.8714 3 28.2553V37.0178C3 37.4017 3.31907 37.7129 3.71268 37.7129H7.95009C8.3437 37.7129 8.66277 37.4017 8.66277 37.0178V36.4178H10.6499C11.0436 36.4178 11.3626 36.1066 11.3626 35.7227V35.5227C12.521 35.6213 12.902 35.8355 13.9659 36.4338C14.7841 36.8939 16.0207 37.5893 18.2475 38.5657C18.2578 38.5702 18.2683 38.5745 18.2788 38.5786C18.7062 38.7425 19.5417 39.0001 20.5717 39.0001C21.2887 39.0001 22.1001 38.8752 22.9329 38.5071L33.9076 34.675C33.9271 34.6682 33.9464 34.6605 33.9652 34.6521C35.014 34.1815 36.577 32.8552 35.783 30.8687ZM7.2374 36.3228H4.42537V28.9502H7.2374V36.3228ZM9.93726 35.0277H8.66277V28.9502H9.93726V35.0277ZM33.3957 33.3772L22.4259 37.2075C22.4053 37.2148 22.385 37.2229 22.365 37.2317C20.8373 37.9164 19.385 37.5065 18.8159 37.2907C16.6649 36.3468 15.5168 35.7012 14.678 35.2295C13.5117 34.5737 12.9498 34.2576 11.3626 34.1298V28.5319C12.0382 27.4522 13.3482 26.3469 14.7606 26.3469C17.1828 26.3469 18.2091 27.8832 18.2494 27.9452C18.3365 28.0832 18.4702 28.1873 18.6275 28.2393L24.2916 30.1141C25.1962 30.4452 25.6742 31.2007 25.4545 31.9541C25.4051 32.1253 25.3214 32.2853 25.2081 32.4248C25.0949 32.5643 24.9544 32.6805 24.7948 32.7666C24.4763 32.9407 24.1 32.9847 23.7484 32.8888L17.3632 30.9155C16.9878 30.7995 16.5874 31.0022 16.4685 31.3681C16.3496 31.734 16.5574 32.1246 16.9326 32.2406L23.3289 34.2173C23.3356 34.2194 23.3424 34.2214 23.3493 34.2233C23.6009 34.2934 23.8613 34.329 24.123 34.3292C24.5961 34.3292 25.064 34.2116 25.4886 33.9809C26.1452 33.6241 26.62 33.0393 26.8255 32.3343C26.8419 32.278 26.8564 32.2217 26.8691 32.1654L32.2201 30.7197C32.9929 30.4623 34.0074 30.3695 34.4591 31.384C34.9267 32.5751 33.7115 33.2303 33.3957 33.3772Z" fill="#2F87CC"/>
<path d="M38.2951 5.42397H34.1037C33.7143 5.42397 33.3987 5.74439 33.3987 6.13968V6.75763H31.4332C31.0438 6.75763 30.7282 7.07806 30.7282 7.47335V7.67933C29.5824 7.57777 29.2055 7.35718 28.1533 6.7411C27.344 6.26729 26.1209 5.55122 23.9181 4.54571C23.9079 4.54101 23.8976 4.53659 23.8871 4.53247C23.1701 4.24604 21.2909 3.68249 19.2839 4.60598L16.4472 5.63718L14.0561 3.20962C13.7808 2.93013 13.3345 2.93013 13.0592 3.20962L5.20911 11.1796C4.95518 11.4375 4.90647 11.8846 5.20911 12.1918L18.6232 25.811C18.8379 26.029 19.3405 26.0949 19.6202 25.811L26.787 18.5347C26.9733 18.551 27.1667 18.5598 27.3671 18.5598C29.2089 18.5598 30.838 17.2771 31.77 15.8791H38.2951C38.6844 15.8791 39 15.5586 39 15.1633V6.13968C39 5.74439 38.6844 5.42397 38.2951 5.42397ZM13.5576 4.72786L15.1643 6.35912C14.6867 6.659 14.1345 6.81947 13.5576 6.81947C12.9806 6.81947 12.4285 6.65908 11.9509 6.35912L13.5576 4.72786ZM8.31127 13.317L6.70457 11.6857L8.31127 10.0544C8.60664 10.5393 8.76469 11.0999 8.76469 11.6857C8.76469 12.2714 8.60671 12.832 8.31127 13.317ZM19.1218 24.2927L17.5153 22.6617C18.4961 22.0472 19.7473 22.0472 20.7281 22.6617L19.1218 24.2927ZM21.7438 21.6306C20.186 20.4833 18.0575 20.4833 16.4997 21.6306L9.32688 14.3481C9.87737 13.5794 10.1746 12.6561 10.1746 11.6857C10.1746 10.7152 9.87744 9.79198 9.32688 9.0233L10.9353 7.39032C11.6925 7.94922 12.6018 8.25097 13.5577 8.25097C14.5135 8.25097 15.4229 7.94922 16.18 7.39032L17.7047 8.93834C17.3714 8.98864 17.0498 9.1 16.7557 9.267C16.2504 9.55286 15.8539 9.98093 15.6071 10.4988C14.8081 10.6492 14.0728 11.042 13.4982 11.6254C11.9315 13.2162 11.9315 15.8044 13.4983 17.3952C14.2816 18.1905 15.3106 18.5882 16.3397 18.5882C17.3687 18.5882 18.3978 18.1905 19.1812 17.3952C19.6909 16.8777 20.0479 16.2417 20.2268 15.5486L22.6069 16.3688C22.339 17.629 22.6134 18.9548 23.3537 19.9961L21.7438 21.6306ZM17.4579 14.5942C17.4641 14.5965 17.4703 14.5988 17.4766 14.6009L18.8862 15.0867C18.7797 15.5745 18.5389 16.0229 18.1843 16.383C17.1672 17.4155 15.5123 17.4156 14.4953 16.383C13.4782 15.3504 13.4782 13.6703 14.4953 12.6377C14.7385 12.3906 15.0275 12.1948 15.3456 12.0617C15.4757 13.1611 16.2555 14.1412 17.4579 14.5942ZM24.3694 18.9648C24.0982 18.5151 23.9433 18.0031 23.919 17.4764C24.3027 17.7577 24.7205 17.9875 25.1623 18.1598L24.3694 18.9648ZM30.7281 14.878C30.06 15.9901 28.7642 17.1283 27.3671 17.1283C27.1057 17.1283 26.8608 17.1094 26.6317 17.0757L26.629 17.0753C25.1066 16.8508 24.2877 15.9723 24.0177 15.6245C24.0033 15.603 23.9421 15.5216 23.933 15.5081C23.8481 15.3536 23.7096 15.2367 23.5445 15.1801L17.9396 13.2487C17.0452 12.9079 16.5724 12.1303 16.7891 11.3547L16.7895 11.3532L16.79 11.3514C16.8391 11.1756 16.922 11.0114 17.0339 10.8682C17.1457 10.725 17.2844 10.6057 17.4419 10.5172C17.7569 10.3378 18.1291 10.2926 18.477 10.3915L24.7927 12.4234C25.164 12.543 25.5601 12.3342 25.6777 11.9574C25.7953 11.5805 25.5898 11.1783 25.2187 11.0589L20.1956 9.44278L20.1518 9.39826L20.1504 9.3969L17.5499 6.75663L19.7851 5.94401C19.7927 5.94121 19.802 5.93771 19.8094 5.93463L19.8168 5.93162C19.8264 5.92769 19.8359 5.92354 19.8452 5.91917C21.3564 5.21405 22.7928 5.6361 23.3558 5.85841C25.4835 6.83042 26.6192 7.49525 27.4489 7.981C28.6025 8.65642 29.1583 8.98186 30.7281 9.11348V14.878ZM33.3987 14.4475H32.1381V8.18906H33.3987V14.4475ZM37.5901 14.4475H34.8086V6.8554H37.5901V14.4475Z" fill="#2F87CC"/>
</svg>
