<svg width="70" height="70" viewBox="0 0 70 70" fill="none" xmlns="http://www.w3.org/2000/svg">
<path d="M66.1931 24.4168C66.0186 24.4169 65.8473 24.3699 65.6973 24.2807L35.083 6.10304L4.46865 24.2807C4.35885 24.3459 4.23728 24.3888 4.1109 24.407C3.98452 24.4252 3.85579 24.4183 3.73206 24.3867C3.48218 24.323 3.26785 24.1626 3.13622 23.9409C3.00458 23.7191 2.96643 23.4542 3.03016 23.2043C3.09388 22.9544 3.25426 22.7401 3.47601 22.6085L34.5871 4.13623C34.7373 4.04706 34.9088 4 35.0834 4C35.2581 4 35.4296 4.04706 35.5798 4.13623L66.6909 22.6085C66.8742 22.7172 67.0167 22.8832 67.0964 23.0809C67.1761 23.2786 67.1887 23.4971 67.1321 23.7026C67.0755 23.9081 66.953 24.0893 66.7833 24.2184C66.6136 24.3474 66.4063 24.4171 66.1931 24.4168Z" fill="#2F87CC"/>
<path d="M16.6107 65.2501H7.86073C7.60288 65.2501 7.35559 65.1477 7.17326 64.9654C6.99094 64.783 6.88851 64.5357 6.88851 64.2779V25.389C6.88851 25.1312 6.99094 24.8839 7.17326 24.7015C7.35559 24.5192 7.60288 24.4168 7.86073 24.4168C8.11858 24.4168 8.36587 24.5192 8.54819 24.7015C8.73052 24.8839 8.83295 25.1312 8.83295 25.389V63.3057H15.6385V32.1946C15.6385 31.9367 15.7409 31.6894 15.9233 31.5071C16.1056 31.3248 16.3529 31.2223 16.6107 31.2223H36.1385C36.3964 31.2223 36.6436 31.3248 36.826 31.5071C37.0083 31.6894 37.1107 31.9367 37.1107 32.1946C37.1107 32.4524 37.0083 32.6997 36.826 32.882C36.6436 33.0644 36.3964 33.1668 36.1385 33.1668H17.583V64.2779C17.583 64.5357 17.4805 64.783 17.2982 64.9654C17.1159 65.1477 16.8686 65.2501 16.6107 65.2501ZM56.4718 45.8057H37.0274C36.7695 45.8057 36.5223 45.7032 36.3399 45.5209C36.1576 45.3386 36.0552 45.0913 36.0552 44.8335V25.389C36.0552 25.1312 36.1576 24.8839 36.3399 24.7015C36.5223 24.5192 36.7695 24.4168 37.0274 24.4168H56.4718C56.7297 24.4168 56.977 24.5192 57.1593 24.7015C57.3416 24.8839 57.4441 25.1312 57.4441 25.389V44.8335C57.4441 45.0913 57.3416 45.3386 57.1593 45.5209C56.977 45.7032 56.7297 45.8057 56.4718 45.8057ZM37.9996 43.8612H55.4996V26.3612H37.9996V43.8612Z" fill="#2F87CC"/>
<path d="M46.7496 65.2501H27.3052C27.0473 65.2501 26.8 65.1477 26.6177 64.9654C26.4354 64.783 26.333 64.5357 26.333 64.2779V44.8335C26.333 44.5756 26.4354 44.3283 26.6177 44.146C26.8 43.9637 27.0473 43.8612 27.3052 43.8612H46.7496C47.0075 43.8612 47.2548 43.9637 47.4371 44.146C47.6194 44.3283 47.7218 44.5756 47.7218 44.8335V64.2779C47.7218 64.5357 47.6194 64.783 47.4371 64.9654C47.2548 65.1477 47.0075 65.2501 46.7496 65.2501ZM28.2774 63.3057H45.7774V45.8057H28.2774V63.3057Z" fill="#2F87CC"/>
<path d="M39.9441 52.6112H34.1107C33.8529 52.6112 33.6056 52.5088 33.4233 52.3265C33.2409 52.1441 33.1385 51.8969 33.1385 51.639V44.8335C33.1385 44.5756 33.2409 44.3283 33.4233 44.146C33.6056 43.9637 33.8529 43.8612 34.1107 43.8612H39.9441C40.2019 43.8612 40.4492 43.9637 40.6315 44.146C40.8139 44.3283 40.9163 44.5756 40.9163 44.8335V51.639C40.9163 51.8969 40.8139 52.1441 40.6315 52.3265C40.4492 52.5088 40.2019 52.6112 39.9441 52.6112ZM35.083 50.6668H38.9718V45.8057H35.083V50.6668ZM66.1941 65.2501H46.7496C46.4918 65.2501 46.2445 65.1477 46.0621 64.9654C45.8798 64.783 45.7774 64.5357 45.7774 64.2779V44.8335C45.7774 44.5756 45.8798 44.3283 46.0621 44.146C46.2445 43.9637 46.4918 43.8612 46.7496 43.8612H66.1941C66.4519 43.8612 66.6992 43.9637 66.8815 44.146C67.0639 44.3283 67.1663 44.5756 67.1663 44.8335V64.2779C67.1663 64.5357 67.0639 64.783 66.8815 64.9654C66.6992 65.1477 66.4519 65.2501 66.1941 65.2501ZM47.7218 63.3057H65.2218V45.8057H47.7218V63.3057Z" fill="#2F87CC"/>
<path d="M59.3885 52.6112H53.5552C53.2973 52.6112 53.05 52.5088 52.8677 52.3265C52.6854 52.1441 52.583 51.8969 52.583 51.639V44.8335C52.583 44.5756 52.6854 44.3283 52.8677 44.146C53.05 43.9637 53.2973 43.8612 53.5552 43.8612H59.3885C59.6464 43.8612 59.8937 43.9637 60.076 44.146C60.2583 44.3283 60.3607 44.5756 60.3607 44.8335V51.639C60.3607 51.8969 60.2583 52.1441 60.076 52.3265C59.8937 52.5088 59.6464 52.6112 59.3885 52.6112ZM54.5274 50.6668H58.4163V45.8057H54.5274V50.6668ZM49.6663 33.1668H43.833C43.5751 33.1668 43.3278 33.0644 43.1455 32.882C42.9632 32.6997 42.8607 32.4524 42.8607 32.1946V25.389C42.8607 25.1312 42.9632 24.8839 43.1455 24.7015C43.3278 24.5192 43.5751 24.4168 43.833 24.4168H49.6663C49.9241 24.4168 50.1714 24.5192 50.3538 24.7015C50.5361 24.8839 50.6385 25.1312 50.6385 25.389V32.1946C50.6385 32.4524 50.5361 32.6997 50.3538 32.882C50.1714 33.0644 49.9241 33.1668 49.6663 33.1668ZM44.8052 31.2223H48.6941V26.3612H44.8052V31.2223ZM62.3052 44.889C62.0473 44.889 61.8 44.7866 61.6177 44.6043C61.4354 44.4219 61.333 44.1746 61.333 43.9168V25.389C61.333 25.1312 61.4354 24.8839 61.6177 24.7015C61.8 24.5192 62.0473 24.4168 62.3052 24.4168C62.563 24.4168 62.8103 24.5192 62.9926 24.7015C63.175 24.8839 63.2774 25.1312 63.2774 25.389V43.9168C63.2774 44.1746 63.175 44.4219 62.9926 44.6043C62.8103 44.7866 62.563 44.889 62.3052 44.889ZM39.9441 20.5279H30.2218C28.6138 20.5279 27.3052 19.2193 27.3052 17.6112C27.3052 16.0032 28.6138 14.6946 30.2218 14.6946H39.9441C41.5521 14.6946 42.8607 16.0032 42.8607 17.6112C42.8607 19.2193 41.5521 20.5279 39.9441 20.5279ZM30.2218 16.639C29.9715 16.6502 29.7352 16.7575 29.562 16.9386C29.3888 17.1197 29.2921 17.3607 29.2921 17.6112C29.2921 17.8618 29.3888 18.1027 29.562 18.2838C29.7352 18.4649 29.9715 18.5723 30.2218 18.5835H39.9441C40.1944 18.5723 40.4308 18.4649 40.6039 18.2838C40.7771 18.1027 40.8738 17.8618 40.8738 17.6112C40.8738 17.3607 40.7771 17.1197 40.6039 16.9386C40.4308 16.7575 40.1944 16.6502 39.9441 16.639H30.2218Z" fill="#2F87CC"/>
<path d="M46.7496 65.2501H27.3052C27.0473 65.2501 26.8 65.1477 26.6177 64.9654C26.4354 64.783 26.333 64.5357 26.333 64.2779V44.8335C26.333 44.5756 26.4354 44.3283 26.6177 44.146C26.8 43.9637 27.0473 43.8612 27.3052 43.8612H46.7496M46.7496 65.2501C47.0075 65.2501 47.2548 65.1477 47.4371 64.9654C47.6194 64.783 47.7218 64.5357 47.7218 64.2779V44.8335C47.7218 44.5756 47.6194 44.3283 47.4371 44.146C47.2548 43.9637 47.0075 43.8612 46.7496 43.8612M46.7496 65.2501H66.1941C66.4519 65.2501 66.6992 65.1477 66.8815 64.9654C67.0639 64.783 67.1663 64.5357 67.1663 64.2779V44.8335C67.1663 44.5756 67.0639 44.3283 66.8815 44.146C66.6992 43.9637 66.4519 43.8612 66.1941 43.8612H46.7496M46.7496 65.2501C46.4918 65.2501 46.2445 65.1477 46.0621 64.9654C45.8798 64.783 45.7774 64.5357 45.7774 64.2779V44.8335C45.7774 44.5756 45.8798 44.3283 46.0621 44.146C46.2445 43.9637 46.4918 43.8612 46.7496 43.8612M66.1931 24.4168C66.0186 24.4169 65.8473 24.3699 65.6973 24.2807L35.083 6.10304L4.46865 24.2807C4.35885 24.3459 4.23728 24.3888 4.1109 24.407C3.98452 24.4252 3.85579 24.4183 3.73206 24.3867C3.48218 24.323 3.26785 24.1626 3.13622 23.9409C3.00458 23.7191 2.96643 23.4542 3.03016 23.2043C3.09388 22.9544 3.25426 22.7401 3.47601 22.6085L34.5871 4.13623C34.7373 4.04706 34.9088 4 35.0834 4C35.2581 4 35.4296 4.04706 35.5798 4.13623L66.6909 22.6085C66.8742 22.7172 67.0167 22.8832 67.0964 23.0809C67.1761 23.2786 67.1887 23.4971 67.1321 23.7026C67.0755 23.9081 66.953 24.0893 66.7833 24.2184C66.6136 24.3474 66.4063 24.4171 66.1931 24.4168ZM16.6107 65.2501H7.86073C7.60288 65.2501 7.35559 65.1477 7.17326 64.9654C6.99094 64.783 6.88851 64.5357 6.88851 64.2779V25.389C6.88851 25.1312 6.99094 24.8839 7.17326 24.7015C7.35559 24.5192 7.60288 24.4168 7.86073 24.4168C8.11858 24.4168 8.36587 24.5192 8.54819 24.7015C8.73052 24.8839 8.83295 25.1312 8.83295 25.389V63.3057H15.6385V32.1946C15.6385 31.9367 15.7409 31.6894 15.9233 31.5071C16.1056 31.3248 16.3529 31.2223 16.6107 31.2223H36.1385C36.3964 31.2223 36.6436 31.3248 36.826 31.5071C37.0083 31.6894 37.1107 31.9367 37.1107 32.1946C37.1107 32.4524 37.0083 32.6997 36.826 32.882C36.6436 33.0644 36.3964 33.1668 36.1385 33.1668H17.583V64.2779C17.583 64.5357 17.4805 64.783 17.2982 64.9654C17.1159 65.1477 16.8686 65.2501 16.6107 65.2501ZM56.4718 45.8057H37.0274C36.7695 45.8057 36.5223 45.7032 36.3399 45.5209C36.1576 45.3386 36.0552 45.0913 36.0552 44.8335V25.389C36.0552 25.1312 36.1576 24.8839 36.3399 24.7015C36.5223 24.5192 36.7695 24.4168 37.0274 24.4168H56.4718C56.7297 24.4168 56.977 24.5192 57.1593 24.7015C57.3416 24.8839 57.4441 25.1312 57.4441 25.389V44.8335C57.4441 45.0913 57.3416 45.3386 57.1593 45.5209C56.977 45.7032 56.7297 45.8057 56.4718 45.8057ZM37.9996 43.8612H55.4996V26.3612H37.9996V43.8612ZM28.2774 63.3057H45.7774V45.8057H28.2774V63.3057ZM39.9441 52.6112H34.1107C33.8529 52.6112 33.6056 52.5088 33.4233 52.3265C33.2409 52.1442 33.1385 51.8969 33.1385 51.639V44.8335C33.1385 44.5756 33.2409 44.3283 33.4233 44.146C33.6056 43.9637 33.8529 43.8612 34.1107 43.8612H39.9441C40.2019 43.8612 40.4492 43.9637 40.6315 44.146C40.8139 44.3283 40.9163 44.5756 40.9163 44.8335V51.639C40.9163 51.8969 40.8139 52.1442 40.6315 52.3265C40.4492 52.5088 40.2019 52.6112 39.9441 52.6112ZM35.083 50.6668H38.9718V45.8057H35.083V50.6668ZM47.7218 63.3057H65.2218V45.8057H47.7218V63.3057ZM59.3885 52.6112H53.5552C53.2973 52.6112 53.05 52.5088 52.8677 52.3265C52.6854 52.1442 52.583 51.8969 52.583 51.639V44.8335C52.583 44.5756 52.6854 44.3283 52.8677 44.146C53.05 43.9637 53.2973 43.8612 53.5552 43.8612H59.3885C59.6464 43.8612 59.8937 43.9637 60.076 44.146C60.2583 44.3283 60.3607 44.5756 60.3607 44.8335V51.639C60.3607 51.8969 60.2583 52.1442 60.076 52.3265C59.8937 52.5088 59.6464 52.6112 59.3885 52.6112ZM54.5274 50.6668H58.4163V45.8057H54.5274V50.6668ZM49.6663 33.1668H43.833C43.5751 33.1668 43.3278 33.0644 43.1455 32.882C42.9632 32.6997 42.8607 32.4524 42.8607 32.1946V25.389C42.8607 25.1312 42.9632 24.8839 43.1455 24.7015C43.3278 24.5192 43.5751 24.4168 43.833 24.4168H49.6663C49.9241 24.4168 50.1714 24.5192 50.3538 24.7015C50.5361 24.8839 50.6385 25.1312 50.6385 25.389V32.1946C50.6385 32.4524 50.5361 32.6997 50.3538 32.882C50.1714 33.0644 49.9241 33.1668 49.6663 33.1668ZM44.8052 31.2223H48.6941V26.3612H44.8052V31.2223ZM62.3052 44.889C62.0473 44.889 61.8 44.7866 61.6177 44.6043C61.4354 44.4219 61.333 44.1746 61.333 43.9168V25.389C61.333 25.1312 61.4354 24.8839 61.6177 24.7015C61.8 24.5192 62.0473 24.4168 62.3052 24.4168C62.563 24.4168 62.8103 24.5192 62.9926 24.7015C63.175 24.8839 63.2774 25.1312 63.2774 25.389V43.9168C63.2774 44.1746 63.175 44.4219 62.9926 44.6043C62.8103 44.7866 62.563 44.889 62.3052 44.889ZM39.9441 20.5279H30.2218C28.6138 20.5279 27.3052 19.2193 27.3052 17.6112C27.3052 16.0032 28.6138 14.6946 30.2218 14.6946H39.9441C41.5521 14.6946 42.8607 16.0032 42.8607 17.6112C42.8607 19.2193 41.5521 20.5279 39.9441 20.5279ZM30.2218 16.639C29.9715 16.6502 29.7352 16.7575 29.562 16.9386C29.3888 17.1197 29.2921 17.3607 29.2921 17.6112C29.2921 17.8618 29.3888 18.1027 29.562 18.2838C29.7352 18.4649 29.9715 18.5723 30.2218 18.5835H39.9441C40.1944 18.5723 40.4308 18.4649 40.6039 18.2838C40.7771 18.1027 40.8738 17.8618 40.8738 17.6112C40.8738 17.3607 40.7771 17.1197 40.6039 16.9386C40.4308 16.7575 40.1944 16.6502 39.9441 16.639H30.2218Z" stroke="#2F87CC" stroke-width="0.5"/>
</svg>
