<svg width="70" height="70" viewBox="0 0 70 70" fill="none" xmlns="http://www.w3.org/2000/svg">
<g clip-path="url(#clip0_2836_5673)">
<path d="M66.2314 11.5232H46.2006C45.4468 8.29242 43.4006 6.56934 40.7083 6.13857C38.3391 1.5078 34.2468 0.538574 29.4006 0.538574C27.4621 0.538574 20.8929 0.861651 17.1237 5.70781C14.3237 9.26165 13.5698 14.3232 14.9698 20.8924C13.3544 21.754 13.2468 23.5847 13.7852 25.3078C14.1083 26.9232 15.1852 31.877 17.8775 32.4155C18.2006 33.6001 18.8468 35.754 20.2468 37.9078V43.2924L6.67752 48.5693C4.87149 49.2652 3.31846 50.4916 2.22278 52.0871C1.12709 53.6825 0.54011 55.5723 0.539062 57.5078V68.3847C0.539062 69.0309 0.969832 69.4617 1.61599 69.4617H58.6929C59.3391 69.4617 59.7698 69.0309 59.7698 68.3847V61.9232H66.2314C68.0621 61.9232 69.4621 60.5232 69.4621 58.6924V14.754C69.4621 12.9232 67.9545 11.5232 66.2314 11.5232ZM19.2775 30.477C18.0929 29.7232 18.0929 32.3078 15.9391 24.7693C15.2929 22.5078 16.4775 22.7232 16.3698 22.7232C17.016 22.7232 17.5544 22.077 17.4468 21.4309C15.8314 15.077 16.3698 10.2309 18.8468 7.10781C21.4314 3.87704 26.2775 2.47704 30.0468 2.69242H30.1544C36.9391 2.36934 38.9852 7.32319 38.9852 7.43088C39.5237 8.83088 41.3544 7.32319 43.1852 9.80011C44.2621 11.3078 45.1237 14.5386 42.9698 21.2155C42.8621 21.5386 42.9698 21.8617 43.0775 22.1847C43.7237 23.0463 45.1237 21.9693 44.3698 24.6617C44.3698 24.7693 43.1852 30.2617 41.7852 30.2617C41.6775 30.2617 41.3545 30.154 40.9237 30.3693C40.7083 30.477 40.4929 30.8001 40.4929 31.1232C40.3852 31.554 38.4468 41.5693 30.0468 41.8924C21.6468 41.5693 19.7083 31.554 19.6006 31.1232C19.7083 30.9078 19.4929 30.6924 19.2775 30.477ZM34.5698 67.3078H25.8468L28.9698 58.154C29.2929 57.1847 28.4314 56.9693 26.2775 53.954L30.2621 52.877L34.1391 53.954C30.5852 59.7693 30.1544 53.8463 34.5698 67.3078ZM20.8929 45.3386L27.8929 51.2617L21.216 53.0924L18.416 46.3078L20.8929 45.3386ZM32.416 51.2617L39.3083 45.2309L41.6775 46.2001L38.7698 53.0924L32.416 51.2617ZM38.016 40.7078V43.6155L30.1544 50.4001L22.2929 43.8309V40.7078C26.7083 45.1232 33.2775 45.4463 38.016 40.7078ZM2.69291 57.5078C2.69291 54.4924 4.63137 51.6924 7.43137 50.6155L16.3698 47.1693L19.6006 54.8155C19.816 55.2463 20.1391 55.4617 20.5698 55.4617H20.8929L24.016 54.6001L26.7083 58.0463L23.4775 67.3078H2.69291V57.5078ZM57.616 67.3078H36.8314L33.6006 58.0463L36.2929 54.6001L39.0929 55.354H39.416C39.8468 55.354 40.2775 55.1386 40.3852 54.7078L43.616 46.954L52.7698 50.5078C55.5698 51.5847 57.5083 54.3847 57.5083 57.4001V67.3078H57.616ZM67.3083 58.6924C67.3083 59.3386 66.8775 59.7693 66.2314 59.7693H59.7698V57.4001C59.7698 53.5232 57.2929 49.8617 53.6314 48.4617L40.1698 43.2924V37.9078C41.4621 35.754 42.216 33.6001 42.5391 32.4155C45.1237 31.877 46.3083 26.9232 46.6314 25.3078C47.1698 23.5847 47.0621 21.8617 45.5544 20.8924C46.416 18.0924 46.7391 15.6155 46.7391 13.5693H66.4468C67.0929 13.5693 67.5237 14.0001 67.5237 14.6463V58.6924H67.3083Z" fill="#2F87CC"/>
<path d="M63.0012 18.6309H58.6935C58.0474 18.6309 57.6166 19.0616 57.6166 19.7078C57.6166 20.3539 58.0474 20.7847 58.6935 20.7847H63.0012C63.6474 20.7847 64.0781 20.3539 64.0781 19.7078C64.0781 19.0616 63.6474 18.6309 63.0012 18.6309ZM63.0012 27.2462H58.6935C58.0474 27.2462 57.6166 27.677 57.6166 28.3232C57.6166 28.9693 58.0474 29.4001 58.6935 29.4001H63.0012C63.6474 29.4001 64.0781 28.9693 64.0781 28.3232C64.0781 27.677 63.6474 27.2462 63.0012 27.2462ZM63.0012 35.8616H58.6935C58.0474 35.8616 57.6166 36.2924 57.6166 36.9386C57.6166 37.5847 58.0474 38.0155 58.6935 38.0155H63.0012C63.6474 38.0155 64.0781 37.5847 64.0781 36.9386C64.0781 36.2924 63.6474 35.8616 63.0012 35.8616ZM53.3089 18.6309H51.155C49.755 18.6309 49.755 20.7847 51.155 20.7847H53.3089C53.955 20.7847 54.3858 20.3539 54.3858 19.7078C54.3858 19.0616 53.955 18.6309 53.3089 18.6309ZM53.3089 27.2462C52.3397 27.3539 50.0781 26.7078 50.0781 28.3232C50.0781 28.9693 50.5089 29.4001 51.155 29.4001H53.3089C53.955 29.4001 54.3858 28.9693 54.3858 28.3232C54.3858 27.677 53.955 27.2462 53.3089 27.2462ZM53.3089 35.8616H51.155C50.5089 35.8616 50.0781 36.2924 50.0781 36.9386C50.0781 37.5847 50.5089 38.0155 51.155 38.0155H53.3089C53.955 38.0155 54.3858 37.5847 54.3858 36.9386C54.3858 36.2924 53.955 35.8616 53.3089 35.8616ZM63.0012 44.3693H58.6935C58.0474 44.3693 57.6166 44.8001 57.6166 45.4462C57.6166 46.0924 58.0474 46.5232 58.6935 46.5232H63.0012C63.6474 46.5232 64.0781 46.0924 64.0781 45.4462C64.0781 44.8001 63.6474 44.3693 63.0012 44.3693Z" fill="#2F87CC"/>
</g>
<defs>
<clipPath id="clip0_2836_5673">
<rect width="70" height="70" fill="white"/>
</clipPath>
</defs>
</svg>
