<svg width="70" height="70" viewBox="0 0 70 70" fill="none" xmlns="http://www.w3.org/2000/svg">
<path d="M66.8806 49.1094C66.5943 48.6117 66.2128 48.1754 65.7577 47.8252C65.3027 47.4751 64.7832 47.2181 64.2287 47.0689C63.6743 46.9197 63.096 46.8812 62.5267 46.9556C61.9574 47.03 61.4083 47.2159 60.9109 47.5027L50.2458 53.6594C49.6648 52.7862 48.787 52.1532 47.775 51.8777L31.4563 47.5027C30.2001 47.1658 28.8789 47.1545 27.6172 47.4698L21.875 48.9114V47.0312C21.875 46.7412 21.7598 46.463 21.5546 46.2579C21.3495 46.0527 21.0713 45.9375 20.7812 45.9375H12.0312C11.7412 45.9375 11.463 46.0527 11.2579 46.2579C11.0527 46.463 10.9375 46.7412 10.9375 47.0312V48.125H3.28125C2.99117 48.125 2.71297 48.2402 2.50785 48.4454C2.30273 48.6505 2.1875 48.9287 2.1875 49.2188V64.5312C2.1875 64.8213 2.30273 65.0995 2.50785 65.3046C2.71297 65.5098 2.99117 65.625 3.28125 65.625H10.9375V66.7188C10.9375 67.0088 11.0527 67.287 11.2579 67.4921C11.463 67.6973 11.7412 67.8125 12.0312 67.8125H20.7812C21.0713 67.8125 21.3495 67.6973 21.5546 67.4921C21.7598 67.287 21.875 67.0088 21.875 66.7188V65.2072L23.2816 65.9105C24.3449 66.4409 25.5167 66.7176 26.705 66.7188H43.0861C44.43 66.7181 45.7501 66.3643 46.9142 65.6928L65.2892 55.0834C66.2893 54.4994 67.0179 53.5435 67.3161 52.4244C67.6142 51.3052 67.4577 50.1136 66.8806 49.1094ZM4.375 63.4375V50.3125H10.9375V63.4375H4.375ZM19.6875 65.625H13.125V48.125H19.6875V65.625ZM64.1922 53.1934L45.8172 63.8028C44.9858 64.2828 44.0428 64.5356 43.0828 64.5356H26.705C25.8565 64.5343 25.0198 64.3367 24.2605 63.9581L21.875 62.7616V51.1678L28.1466 49.5994C29.0482 49.375 29.992 49.3829 30.8897 49.6223L47.2084 53.9973C47.4908 54.0672 47.7563 54.1926 47.9896 54.3662C48.2229 54.5399 48.4192 54.7584 48.5671 55.0088C48.7149 55.2592 48.8114 55.5367 48.8507 55.8248C48.8901 56.113 48.8716 56.4061 48.7963 56.687C48.7211 56.9679 48.5905 57.231 48.4124 57.4609C48.2342 57.6908 48.012 57.8828 47.7587 58.0258C47.5055 58.1688 47.2262 58.2598 46.9374 58.2936C46.6485 58.3274 46.3558 58.3032 46.0764 58.2225L33.0312 54.7247C32.7515 54.6512 32.4541 54.6915 32.2041 54.8368C31.954 54.9821 31.7716 55.2205 31.6969 55.4998C31.6221 55.7792 31.661 56.0768 31.8051 56.3275C31.9492 56.5783 32.1868 56.7618 32.4658 56.8378L45.5088 60.3378C45.8805 60.4375 46.2636 60.4882 46.6484 60.4888C47.2525 60.4933 47.8508 60.3712 48.4047 60.1304C48.9587 59.8895 49.456 59.5352 49.8646 59.0903C50.2733 58.6454 50.5841 58.1198 50.7771 57.5474C50.9701 56.975 51.041 56.3685 50.9852 55.767L62.0014 49.4069C62.5055 49.1289 63.0976 49.057 63.6536 49.2063C64.2095 49.3555 64.686 49.7144 64.983 50.2075C65.2708 50.7091 65.3492 51.3039 65.2012 51.863C65.0531 52.422 64.6906 52.9001 64.1922 53.1934ZM31.7188 33.9062H35.8236C35.8859 34.0637 35.9483 34.2158 36.0139 34.3634L33.1111 37.2673C32.906 37.4725 32.7909 37.7506 32.7909 38.0406C32.7909 38.3306 32.906 38.6088 33.1111 38.8139L37.7486 43.4514C37.9537 43.6565 38.2319 43.7716 38.5219 43.7716C38.8119 43.7716 39.09 43.6565 39.2952 43.4514L42.198 40.5486C42.3467 40.6131 42.4987 40.6766 42.6562 40.7389V44.8438C42.6562 45.1338 42.7715 45.412 42.9766 45.6171C43.1817 45.8223 43.4599 45.9375 43.75 45.9375H50.3125C50.6026 45.9375 50.8808 45.8223 51.0859 45.6171C51.291 45.412 51.4062 45.1338 51.4062 44.8438V40.7389C51.5638 40.6766 51.7158 40.6131 51.8645 40.5486L54.7673 43.4514C54.9763 43.649 55.253 43.7591 55.5406 43.7591C55.8282 43.7591 56.1049 43.649 56.3139 43.4514L60.9514 38.8139C61.1565 38.6088 61.2716 38.3306 61.2716 38.0406C61.2716 37.7506 61.1565 37.4725 60.9514 37.2673L58.0486 34.3634C58.1142 34.2158 58.1766 34.0637 58.2389 33.9062H62.3438C62.6338 33.9062 62.912 33.791 63.1171 33.5859C63.3223 33.3808 63.4375 33.1026 63.4375 32.8125V26.25C63.4375 25.9599 63.3223 25.6817 63.1171 25.4766C62.912 25.2715 62.6338 25.1562 62.3438 25.1562H58.2389C58.1784 25.0023 58.115 24.8495 58.0486 24.698L60.9514 21.7952C61.1565 21.59 61.2716 21.3119 61.2716 21.0219C61.2716 20.7319 61.1565 20.4537 60.9514 20.2486L56.3139 15.6111C56.1088 15.406 55.8306 15.2909 55.5406 15.2909C55.2506 15.2909 54.9725 15.406 54.7673 15.6111L51.8645 18.5139C51.7128 18.448 51.56 18.3845 51.4062 18.3236V14.2188C51.4062 13.9287 51.291 13.6505 51.0859 13.4454C50.8808 13.2402 50.6026 13.125 50.3125 13.125H43.75C43.4599 13.125 43.1817 13.2402 42.9766 13.4454C42.7715 13.6505 42.6562 13.9287 42.6562 14.2188V18.3236C42.4987 18.3859 42.3467 18.4494 42.198 18.5139L39.2952 15.6111C39.0862 15.4135 38.8095 15.3034 38.5219 15.3034C38.2343 15.3034 37.9576 15.4135 37.7486 15.6111L33.1111 20.2486C32.906 20.4537 32.7909 20.7319 32.7909 21.0219C32.7909 21.3119 32.906 21.59 33.1111 21.7952L36.0139 24.698C35.9483 24.8467 35.8859 24.9987 35.8236 25.1562H31.7188C31.4287 25.1562 31.1505 25.2715 30.9454 25.4766C30.7402 25.6817 30.625 25.9599 30.625 26.25V32.8125C30.625 33.1026 30.7402 33.3808 30.9454 33.5859C31.1505 33.791 31.4287 33.9062 31.7188 33.9062ZM32.8125 27.3438H36.5969C36.8284 27.3437 37.054 27.2702 37.2411 27.1338C37.4283 26.9974 37.5673 26.8051 37.6381 26.5847C37.8078 26.0376 38.0294 25.508 38.2998 25.0031C38.4133 24.7957 38.4566 24.5571 38.4231 24.323C38.3895 24.089 38.2811 23.8721 38.1139 23.7048L35.4375 21.0219L38.5273 17.9309L41.2103 20.6139C41.3776 20.7813 41.5947 20.8899 41.829 20.9235C42.0633 20.957 42.3021 20.9136 42.5097 20.7998C43.0143 20.5287 43.5439 20.3071 44.0913 20.1381C44.3105 20.0661 44.5013 19.9266 44.6365 19.7396C44.7716 19.5526 44.8442 19.3276 44.8438 19.0969V15.3125H49.2188V19.0969C49.2187 19.3283 49.292 19.5538 49.4282 19.7409C49.5644 19.928 49.7565 20.0671 49.9767 20.1381C50.524 20.3071 51.0537 20.5287 51.5583 20.7998C51.7658 20.9136 52.0047 20.957 52.239 20.9235C52.4733 20.8899 52.6903 20.7813 52.8577 20.6139L55.5406 17.9309L58.6305 21.0219L55.9486 23.7048C55.7814 23.8721 55.673 24.089 55.6394 24.323C55.6059 24.5571 55.6492 24.7957 55.7627 25.0031C56.0331 25.508 56.2547 26.0376 56.4244 26.5847C56.4952 26.8051 56.6342 26.9974 56.8214 27.1338C57.0085 27.2702 57.2341 27.3437 57.4656 27.3438H61.25V31.7188H57.4656C57.2341 31.7188 57.0085 31.7923 56.8214 31.9287C56.6342 32.0651 56.4952 32.2574 56.4244 32.4778C56.2547 33.0249 56.0331 33.5545 55.7627 34.0594C55.6492 34.2668 55.6059 34.5054 55.6394 34.7395C55.673 34.9735 55.7814 35.1904 55.9486 35.3577L58.6305 38.0406L55.5406 41.1316L52.8577 38.4486C52.6903 38.2812 52.4733 38.1726 52.239 38.139C52.0047 38.1055 51.7658 38.1489 51.5583 38.2627C51.0537 38.5338 50.524 38.7554 49.9767 38.9244C49.7565 38.9954 49.5644 39.1345 49.4282 39.3216C49.292 39.5087 49.2187 39.7342 49.2188 39.9656V43.75H44.8438V39.9656C44.8438 39.7342 44.7705 39.5087 44.6343 39.3216C44.4981 39.1345 44.306 38.9954 44.0858 38.9244C43.5385 38.7554 43.0088 38.5338 42.5042 38.2627C42.2967 38.1489 42.0578 38.1055 41.8235 38.139C41.5892 38.1726 41.3722 38.2812 41.2048 38.4486L38.5219 41.1316L35.4375 38.0406L38.1194 35.3577C38.2865 35.1904 38.395 34.9735 38.4285 34.7395C38.462 34.5054 38.4188 34.2668 38.3053 34.0594C38.0349 33.5545 37.8133 33.0249 37.6436 32.4778C37.5725 32.2565 37.4326 32.0635 37.2444 31.9271C37.0562 31.7906 36.8294 31.7176 36.5969 31.7188H32.8125V27.3438Z" fill="#2F87CC"/>
<path d="M47.0312 36.0938C45.7333 36.0938 44.4645 35.7089 43.3853 34.9878C42.3061 34.2667 41.465 33.2418 40.9683 32.0426C40.4716 30.8435 40.3416 29.524 40.5948 28.251C40.8481 26.978 41.4731 25.8086 42.3909 24.8909C43.3086 23.9731 44.478 23.3481 45.751 23.0948C47.024 22.8416 48.3435 22.9716 49.5426 23.4683C50.7417 23.965 51.7667 24.8061 52.4878 25.8853C53.2089 26.9645 53.5938 28.2333 53.5938 29.5312C53.592 31.2712 52.9001 32.9394 51.6697 34.1697C50.4394 35.4001 48.7712 36.092 47.0312 36.0938ZM47.0312 25.1562C46.166 25.1562 45.3201 25.4128 44.6006 25.8936C43.8812 26.3743 43.3204 27.0576 42.9893 27.857C42.6581 28.6564 42.5715 29.5361 42.7403 30.3848C42.9091 31.2334 43.3258 32.013 43.9377 32.6248C44.5495 33.2367 45.3291 33.6534 46.1777 33.8222C47.0264 33.991 47.9061 33.9044 48.7055 33.5732C49.5049 33.2421 50.1882 32.6813 50.6689 31.9619C51.1497 31.2424 51.4062 30.3965 51.4062 29.5312C51.4062 28.3709 50.9453 27.2581 50.1248 26.4377C49.3044 25.6172 48.1916 25.1562 47.0312 25.1562ZM19.6875 29.5312H15.3125C15.0224 29.5312 14.7442 29.416 14.5391 29.2109C14.334 29.0058 14.2188 28.7276 14.2188 28.4375V26.5169L12.8592 27.8764C12.6541 28.0815 12.376 28.1966 12.0859 28.1966C11.7959 28.1966 11.5178 28.0815 11.3127 27.8764L8.21734 24.7811C8.0123 24.576 7.89711 24.2978 7.89711 24.0078C7.89711 23.7178 8.0123 23.4396 8.21734 23.2345L9.57687 21.875H7.65625C7.36617 21.875 7.08797 21.7598 6.88285 21.5546C6.67773 21.3495 6.5625 21.0713 6.5625 20.7812V16.4062C6.5625 16.1162 6.67773 15.838 6.88285 15.6329C7.08797 15.4277 7.36617 15.3125 7.65625 15.3125H9.57687L8.21734 13.953C8.0123 13.7479 7.89711 13.4697 7.89711 13.1797C7.89711 12.8897 8.0123 12.6115 8.21734 12.4064L11.3127 9.31109C11.5178 9.10605 11.7959 8.99086 12.0859 8.99086C12.376 8.99086 12.6541 9.10605 12.8592 9.31109L14.2188 10.6706V8.75C14.2188 8.45992 14.334 8.18172 14.5391 7.9766C14.7442 7.77148 15.0224 7.65625 15.3125 7.65625H19.6875C19.9776 7.65625 20.2558 7.77148 20.4609 7.9766C20.666 8.18172 20.7812 8.45992 20.7812 8.75V10.6706L22.1408 9.31109C22.3459 9.10605 22.624 8.99086 22.9141 8.99086C23.2041 8.99086 23.4822 9.10605 23.6873 9.31109L26.7827 12.4064C26.9877 12.6115 27.1029 12.8897 27.1029 13.1797C27.1029 13.4697 26.9877 13.7479 26.7827 13.953L25.4231 15.3125H27.3438C27.6338 15.3125 27.912 15.4277 28.1171 15.6329C28.3223 15.838 28.4375 16.1162 28.4375 16.4062V20.7812C28.4375 21.0713 28.3223 21.3495 28.1171 21.5546C27.912 21.7598 27.6338 21.875 27.3438 21.875H25.4231L26.7827 23.2345C26.9877 23.4396 27.1029 23.7178 27.1029 24.0078C27.1029 24.2978 26.9877 24.576 26.7827 24.7811L23.6873 27.8764C23.4822 28.0815 23.2041 28.1966 22.9141 28.1966C22.624 28.1966 22.3459 28.0815 22.1408 27.8764L20.7812 26.5169V28.4375C20.7812 28.7276 20.666 29.0058 20.4609 29.2109C20.2558 29.416 19.9776 29.5312 19.6875 29.5312ZM16.4062 27.3438H18.5938V24.7734C18.5937 24.5381 18.6696 24.3091 18.8101 24.1203C18.9506 23.9316 19.1482 23.7932 19.3736 23.7256C19.5249 23.6783 19.6714 23.6167 19.8111 23.5419C20.0176 23.4338 20.2532 23.3945 20.4836 23.4297C20.714 23.4649 20.9271 23.5728 21.0919 23.7377L22.9108 25.5566L24.4595 24.0078L22.6406 22.1889C22.4758 22.0241 22.3679 21.811 22.3327 21.5806C22.2975 21.3502 22.3368 21.1146 22.4448 20.9081C22.5209 20.7665 22.5828 20.6178 22.6297 20.4641C22.6979 20.2389 22.8369 20.0418 23.0261 19.9019C23.2152 19.762 23.4444 19.6868 23.6797 19.6875H26.25V17.5H23.6797C23.445 17.5 23.2165 17.4245 23.028 17.2847C22.8395 17.1448 22.701 16.9481 22.633 16.7234C22.5861 16.5697 22.5242 16.421 22.4481 16.2794C22.34 16.0729 22.3007 15.8373 22.336 15.6069C22.3712 15.3765 22.4791 15.1634 22.6439 14.9986L24.4628 13.1797L22.9141 11.6309L21.0952 13.4531C20.9304 13.618 20.7173 13.7259 20.4869 13.7611C20.2565 13.7963 20.0209 13.757 19.8144 13.6489C19.6746 13.574 19.5282 13.5125 19.3769 13.4652C19.1503 13.3981 18.9516 13.2594 18.8104 13.0699C18.6693 12.8804 18.5932 12.6503 18.5938 12.4141V9.84375H16.4062V12.4141C16.4063 12.6494 16.3304 12.8784 16.1899 13.0672C16.0494 13.2559 15.8518 13.3943 15.6264 13.4619C15.4751 13.5092 15.3286 13.5708 15.1889 13.6456C14.9824 13.7537 14.7468 13.793 14.5164 13.7578C14.286 13.7226 14.0729 13.6147 13.9081 13.4498L12.0859 11.6309L10.5372 13.1797L12.3594 14.9986C12.5242 15.1634 12.6321 15.3765 12.6673 15.6069C12.7025 15.8373 12.6632 16.0729 12.5552 16.2794C12.4791 16.421 12.4172 16.5697 12.3703 16.7234C12.3023 16.9481 12.1637 17.1448 11.9753 17.2847C11.7868 17.4245 11.5583 17.5 11.3236 17.5H8.75V19.6875H11.3203C11.555 19.6875 11.7835 19.763 11.972 19.9028C12.1605 20.0427 12.299 20.2394 12.367 20.4641C12.4139 20.6178 12.4758 20.7665 12.5519 20.9081C12.66 21.1146 12.6993 21.3502 12.664 21.5806C12.6288 21.811 12.5209 22.0241 12.3561 22.1889L10.5372 24.0078L12.0859 25.5566L13.9048 23.7344C14.0696 23.5695 14.2827 23.4616 14.5131 23.4264C14.7435 23.3912 14.9791 23.4305 15.1856 23.5386C15.3254 23.6135 15.4718 23.675 15.6231 23.7223C15.8497 23.7894 16.0484 23.9281 16.1896 24.1176C16.3307 24.3071 16.4068 24.5372 16.4062 24.7734V27.3438Z" fill="#2F87CC"/>
<path d="M17.5 22.9688C16.6347 22.9688 15.7888 22.7122 15.0694 22.2314C14.3499 21.7507 13.7892 21.0674 13.458 20.268C13.1269 19.4686 13.0403 18.5889 13.2091 17.7402C13.3779 16.8916 13.7946 16.112 14.4064 15.5002C15.0183 14.8883 15.7978 14.4716 16.6465 14.3028C17.4951 14.134 18.3748 14.2206 19.1742 14.5518C19.9737 14.8829 20.657 15.4437 21.1377 16.1631C21.6184 16.8826 21.875 17.7285 21.875 18.5938C21.875 19.7541 21.4141 20.8669 20.5936 21.6873C19.7731 22.5078 18.6603 22.9688 17.5 22.9688ZM17.5 16.4063C17.0674 16.4063 16.6444 16.5345 16.2847 16.7749C15.925 17.0153 15.6446 17.3569 15.479 17.7566C15.3134 18.1563 15.2701 18.5962 15.3545 19.0205C15.4389 19.4448 15.6473 19.8346 15.9532 20.1405C16.2591 20.4465 16.6489 20.6548 17.0732 20.7392C17.4976 20.8236 17.9374 20.7803 18.3371 20.6147C18.7368 20.4492 19.0785 20.1688 19.3188 19.8091C19.5592 19.4493 19.6875 19.0264 19.6875 18.5938C19.6875 18.0136 19.457 17.4572 19.0468 17.047C18.6366 16.6367 18.0802 16.4063 17.5 16.4063Z" fill="#2F87CC"/>
</svg>
