<svg width="42" height="42" viewBox="0 0 42 42" fill="none" xmlns="http://www.w3.org/2000/svg">
<path fill-rule="evenodd" clip-rule="evenodd" d="M20.7529 33.753L21.2424 37.74C21.2631 37.9091 21.2176 38.0797 21.1153 38.2159L19.2944 40.641C19.233 40.7227 19.1535 40.7891 19.062 40.8348C18.9706 40.8805 18.8697 40.9043 18.7675 40.9043H1.23694C1.14548 40.9043 1.05501 40.8852 0.9713 40.8484C0.887593 40.8115 0.812481 40.7576 0.750751 40.6901C0.68902 40.6226 0.642024 40.543 0.612756 40.4564C0.583488 40.3697 0.572589 40.2779 0.580755 40.1868L2.27607 21.2154C2.29072 21.0515 2.3662 20.8989 2.48766 20.7879C2.60912 20.6768 2.76775 20.6152 2.93234 20.6152H5.76603V20.5341C5.76603 18.3865 7.52368 16.6288 9.67128 16.6288C11.819 16.6288 13.5749 18.3864 13.5749 20.5341V20.6152H18.5571C18.7179 20.6152 18.8732 20.674 18.9937 20.7806C19.1141 20.8872 19.1914 21.0341 19.2111 21.1937L20.5911 32.4353H32.7552C34.0401 32.4353 35.1199 31.5507 35.3713 30.2899L37.45 19.9022H14.4569C14.0932 19.9022 13.7981 19.607 13.7981 19.2434C13.7981 18.8798 14.0932 18.5845 14.4569 18.5845H39.7684C39.9555 18.5845 40.1075 18.43 40.1075 18.2429V16.5379C40.1073 16.448 40.0715 16.3619 40.0079 16.2984C39.9444 16.2348 39.8583 16.199 39.7684 16.1988H9.11318C8.74951 16.1988 8.45436 15.9035 8.45436 15.54C8.45436 15.1764 8.74951 14.8811 9.11318 14.8811H10.7564V8.96819C10.7564 7.90436 11.5846 7.03248 12.6309 6.96257V6.254C12.6309 5.4322 13.2578 4.75559 14.0592 4.67703V2.41347H11.4705C11.1068 2.41347 10.8116 2.11832 10.8116 1.75465C10.8116 1.39106 11.1068 1.09583 11.4705 1.09583H16.9122C17.2758 1.09583 17.571 1.39106 17.571 1.75465V4.67225C18.4004 4.72248 19.0587 5.41203 19.0587 6.254V6.95804H19.0725C19.1403 6.95804 19.2073 6.96141 19.2734 6.968C19.5975 5.90614 19.9939 4.97185 20.4443 4.20457C21.4045 2.56863 22.6395 1.67015 23.9202 1.67015C25.2011 1.67015 26.436 2.56863 27.3963 4.20457C27.866 5.00495 28.2772 5.98693 28.6086 7.10594C28.7936 6.73832 28.9909 6.39408 29.199 6.07587C28.7769 5.83071 28.4929 5.37373 28.4929 4.85095V3.3378C28.4929 2.5566 29.1271 1.92232 29.9083 1.92232H36.5515C37.3327 1.92232 37.9669 2.5566 37.9669 3.3378V4.85095C37.9669 5.37414 37.6824 5.83145 37.2598 6.07645C38.0212 7.24537 38.6384 8.76708 39.0383 10.5152C39.0458 10.5372 39.0522 10.5597 39.0573 10.5828C39.353 11.9042 39.5249 13.3559 39.5428 14.8811H39.7684C40.6801 14.8811 41.4252 15.6263 41.4252 16.5379V18.2429C41.4252 19.1541 40.6796 19.9022 39.7684 19.9022H38.7938L36.6635 30.5476C36.288 32.4311 34.6749 33.753 32.7552 33.753H20.7529ZM36.6492 3.3378C36.6492 3.28378 36.6054 3.23997 36.5515 3.23997H29.9083C29.8543 3.23997 29.8105 3.28378 29.8105 3.3378V4.85095C29.8105 4.9049 29.8543 4.94871 29.9083 4.94871H36.5515C36.6054 4.94871 36.6492 4.9049 36.6492 4.85095V3.3378ZM19.6777 14.8811H28.1629C28.1785 14.5163 28.1864 14.1464 28.1864 13.7722C28.1864 10.1211 27.4379 6.87848 26.2599 4.87154C25.5895 3.72931 24.8146 2.9878 23.9202 2.9878C23.026 2.9878 22.2511 3.72931 21.5807 4.87154C20.4026 6.87848 19.6542 10.1211 19.6542 13.7722C19.6542 14.1464 19.6621 14.5163 19.6777 14.8811ZM26.1299 9.56146C26.4897 9.50884 26.8244 9.7582 26.877 10.118C26.9297 10.4778 26.6803 10.8126 26.3205 10.8653C25.4702 10.9896 24.8647 11.0562 23.9202 11.0562C22.9924 11.0562 22.3825 11.0109 21.5451 10.8906C21.3722 10.8657 21.2162 10.7732 21.1115 10.6333C21.0068 10.4935 20.9619 10.3178 20.9866 10.1448C21.0115 9.97192 21.104 9.81596 21.2439 9.71124C21.3837 9.60651 21.5594 9.56158 21.7324 9.58633C22.5038 9.6971 23.0655 9.7386 23.9202 9.7386C24.7897 9.7386 25.347 9.67593 26.1299 9.56146ZM26.1299 13.0282C26.3027 13.003 26.4785 13.0475 26.6186 13.1518C26.7587 13.2562 26.8517 13.4119 26.877 13.5847C26.9022 13.7576 26.8578 13.9334 26.7534 14.0736C26.6491 14.2137 26.4934 14.3066 26.3205 14.332C25.4702 14.4564 24.8647 14.523 23.9202 14.523C22.9924 14.523 22.3825 14.4776 21.5451 14.3574C21.3722 14.3324 21.2162 14.2399 21.1115 14.1C21.0068 13.9602 20.9619 13.7845 20.9866 13.6116C21.0115 13.4387 21.104 13.2827 21.2439 13.178C21.3837 13.0732 21.5594 13.0283 21.7324 13.0531C22.5038 13.1638 23.0655 13.2053 23.9202 13.2053C24.7897 13.2053 25.347 13.1427 26.1299 13.0282ZM2.15403 37.385L1.95728 39.5866H18.0513L17.8669 37.385H2.15403ZM29.4817 14.8811H38.225C38.2097 13.6537 38.0887 12.4772 37.8786 11.3855H29.3985C29.4692 12.1791 29.5044 12.9754 29.504 13.7722C29.504 14.1461 29.4964 14.5161 29.4817 14.8811ZM13.9485 6.95804H17.7411V6.254C17.741 6.18319 17.7129 6.11529 17.6628 6.06523C17.6127 6.01517 17.5448 5.98704 17.474 5.98701H14.2155C14.1447 5.98706 14.0768 6.0152 14.0268 6.06526C13.9767 6.11532 13.9486 6.18321 13.9485 6.254V6.95804ZM19.2797 38.4661L19.9022 37.6371L17.9742 21.9328H17.8954L19.2797 38.4661ZM12.2572 20.6152V20.5341C12.2572 19.1112 11.0943 17.9465 9.67128 17.9465C8.24831 17.9465 7.08367 19.1111 7.08367 20.5341V20.6152H12.2572ZM12.0741 14.8811H18.3589C18.344 14.5117 18.3365 14.1419 18.3365 13.7722C18.3365 11.7884 18.5509 9.91871 18.9264 8.27568H12.7665C12.3844 8.27568 12.0741 8.58599 12.0741 8.96819V14.8811ZM15.3769 4.66937H16.2533V2.41347H15.3769V4.66937ZM29.1226 9.30394C29.1677 9.55788 29.2086 9.81255 29.2453 10.0678H37.5756C37.149 8.52431 36.5312 7.21547 35.7776 6.26636H30.6823C30.059 7.05291 29.5297 8.09113 29.1226 9.30394ZM5.76603 21.9328H3.53484L2.27179 36.0673H17.7566L16.5731 21.9328H13.5749V23.2507C13.996 23.4836 14.2823 23.932 14.2823 24.4457C14.2823 25.1984 13.6676 25.813 12.915 25.813C12.1623 25.813 11.5499 25.1984 11.5499 24.4457C11.5499 23.9313 11.8359 23.4824 12.2572 23.2498V21.9328H7.08367V23.2499C7.50433 23.4825 7.78977 23.9307 7.78977 24.4444C7.78977 25.1964 7.17797 25.8104 6.42592 25.8104C5.67396 25.8104 5.05993 25.1964 5.05993 24.4444C5.05993 23.9314 5.3457 23.4836 5.76603 23.2508V21.9328Z" fill="#2F87CC"/>
</svg>
