<svg width="42" height="42" viewBox="0 0 42 42" fill="none" xmlns="http://www.w3.org/2000/svg">
<g clip-path="url(#clip0_2836_5306)">
<path d="M1.40003 37.45H40.6001C41.3733 37.45 42.0001 36.8232 42.0001 36.0499V15.75C42 15.5727 41.9327 15.4021 41.8118 15.2726L32.0118 4.77256C31.9463 4.70235 31.8671 4.64635 31.7791 4.60805C31.6911 4.56975 31.5961 4.54997 31.5001 4.54993H10.5C10.404 4.54997 10.309 4.56975 10.221 4.60805C10.133 4.64635 10.0538 4.70235 9.98829 4.77256L0.188262 15.2726C0.0673495 15.4021 7.27976e-05 15.5727 0 15.75L0 36.05C0 36.8232 0.626801 37.45 1.40003 37.45ZM1.40003 33.25H21V36.0499H1.40003V33.25ZM1.40003 16.45H6.3V31.8499H1.40003V16.45ZM22.19 5.94995L13.6955 15.05H8.61L17.1045 5.94995H22.19ZM29.89 5.94995L21.3955 15.05H15.61L24.1045 5.94995H29.89ZM40.6 31.85H35.7V24.15C36.4732 24.15 37.1 23.5232 37.1 22.75V21.3499C37.1 20.5767 36.4732 19.9499 35.7 19.9499H28C27.2267 19.9499 26.5999 20.5767 26.5999 21.3499V22.75C26.5999 23.5232 27.2267 24.15 28 24.15V31.85H22.3999V16.45H40.6V31.85ZM28 22.75V21.3499H35.7V22.75H28ZM21 16.45V31.8499H14.7V16.45H21ZM13.3 16.45V31.8499H7.70003V16.45H13.3ZM22.4 33.25H28.0001V36.0499H22.4V33.25ZM29.4 36.05V24.15H34.3V36.05H29.4ZM40.6 36.05H35.7V33.25H40.6V36.05ZM39.69 15.05H23.31L31.5 6.27619L39.69 15.05ZM10.8045 5.94995H15.19L6.69547 15.05H2.31L10.8045 5.94995Z" fill="#2F87CC"/>
<path d="M32.9031 30.45C33.2897 30.45 33.6031 30.1366 33.6031 29.75C33.6031 29.3634 33.2897 29.05 32.9031 29.05C32.5165 29.05 32.2031 29.3634 32.2031 29.75C32.2031 30.1366 32.5165 30.45 32.9031 30.45Z" fill="#2F87CC"/>
</g>
<defs>
<clipPath id="clip0_2836_5306">
<rect width="42" height="42" fill="white"/>
</clipPath>
</defs>
</svg>
