<svg width="42" height="42" viewBox="0 0 42 42" fill="none" xmlns="http://www.w3.org/2000/svg">
<path d="M40.9271 23.5322C40.5869 22.9643 39.3177 21.4135 36.1663 22.7081V3.18225C36.1663 3.0082 36.0971 2.84128 35.9741 2.71821C35.851 2.59514 35.6841 2.526 35.51 2.526H12.2446C12.0705 2.526 11.9036 2.59514 11.7805 2.71821C11.6574 2.84128 11.5883 3.0082 11.5883 3.18225V4.89859C11.3476 4.7986 11.1016 4.71197 10.8513 4.63913L10.4905 3.70167C10.4428 3.57791 10.3588 3.47148 10.2495 3.39642C10.1402 3.32136 10.0107 3.28118 9.87804 3.28118H7.83595C7.70334 3.28118 7.57383 3.32136 7.4645 3.39642C7.35517 3.47148 7.27115 3.57791 7.22351 3.70167L6.86265 4.63913C6.36451 4.78409 5.88381 4.9834 5.42924 5.23344L4.51049 4.82534C4.38928 4.77151 4.25461 4.75567 4.12422 4.77991C3.99384 4.80415 3.87385 4.86732 3.78008 4.9611L2.33617 6.4051C2.24241 6.49886 2.17925 6.61884 2.15503 6.74921C2.13081 6.87958 2.14666 7.01423 2.20049 7.13542L2.60843 8.054C2.35835 8.50865 2.15905 8.98943 2.01411 9.48766L1.07674 9.84844C0.952985 9.89609 0.846566 9.98012 0.771504 10.0894C0.696443 10.1988 0.65626 10.3283 0.65625 10.4609V12.5029C0.656249 12.6355 0.696427 12.765 0.77149 12.8743C0.846553 12.9837 0.952979 13.0677 1.07674 13.1153L2.01395 13.476C2.15892 13.9743 2.35826 14.4552 2.60835 14.9099L2.20049 15.8282C2.14665 15.9494 2.1308 16.0841 2.15502 16.2144C2.17924 16.3448 2.2424 16.4648 2.33617 16.5586L3.78016 18.0026C3.87394 18.0964 3.99393 18.1595 4.12432 18.1838C4.25471 18.208 4.38937 18.1921 4.51057 18.1383L5.42932 17.7302C5.88389 17.9803 6.36459 18.1796 6.86273 18.3245L7.22351 19.2619C7.27115 19.3857 7.35517 19.4921 7.4645 19.5672C7.57383 19.6423 7.70334 19.6824 7.83595 19.6824H9.87804C10.0107 19.6824 10.1402 19.6422 10.2495 19.5672C10.3588 19.4921 10.4429 19.3856 10.4905 19.2619L10.8511 18.3248C11.1014 18.252 11.3475 18.1654 11.5882 18.0654V22.9331L6.55413 25.8477L6.03635 24.9329C5.80757 24.5285 5.43383 24.2373 4.98414 24.1126C4.53461 23.9879 4.06416 24.0453 3.65974 24.2742L1.58722 25.4472C0.750422 25.9207 0.454863 26.9868 0.928512 27.8237L7.02179 38.59C7.34221 39.1562 7.93382 39.4746 8.54233 39.4745C8.83304 39.4745 9.12778 39.4018 9.3984 39.2487L11.4708 38.0757C12.3076 37.6022 12.6032 36.5361 12.1296 35.6991L11.5018 34.5898L12.7535 33.8671L22.214 36.402C22.7484 36.5453 23.2729 36.6168 23.7863 36.6168C24.8095 36.6167 25.7878 36.3325 26.7085 35.7657L40.1135 27.5114C41.3359 26.7589 41.7237 24.8623 40.9271 23.5322ZM20.6387 3.8385H27.116V12.0182H20.6387V3.8385ZM19.3262 3.8385V12.6744C19.3262 12.8485 19.3953 13.0154 19.5184 13.1385C19.6414 13.2615 19.8084 13.3307 19.9824 13.3307H27.7723C27.9463 13.3307 28.1132 13.2615 28.2363 13.1385C28.3594 13.0154 28.4285 12.8485 28.4285 12.6744V3.8385H34.8538V23.3578C34.8235 23.3751 34.7936 23.3918 34.7631 23.4096L30.6739 25.7914H26.5071C26.2199 24.9899 25.56 24.3198 24.6682 24.0307C24.64 24.0216 24.6113 24.0143 24.5822 24.009C22.4592 23.6262 20.3638 22.8686 18.6802 22.2599C18.0954 22.0485 17.5431 21.8487 17.0732 21.6965C15.5455 21.2009 14.1362 21.6013 12.9008 22.2078V18.004L13.2034 18.1384C13.3246 18.1923 13.4593 18.2081 13.5897 18.1839C13.7201 18.1597 13.84 18.0965 13.9338 18.0028L15.3778 16.5588C15.4716 16.465 15.5347 16.345 15.559 16.2146C15.5832 16.0842 15.5673 15.9496 15.5135 15.8284L15.1054 14.9096C15.3555 14.455 15.5547 13.9743 15.6996 13.4762L16.6372 13.1154C16.7609 13.0678 16.8674 12.9838 16.9424 12.8744C17.0175 12.7651 17.0577 12.6356 17.0577 12.503V10.4609C17.0577 10.3283 17.0175 10.1988 16.9424 10.0894C16.8674 9.9801 16.7609 9.89608 16.6372 9.84844L15.7 9.48775C15.555 8.98946 15.3557 8.50862 15.1056 8.05392L15.5135 7.13558C15.5673 7.01438 15.5832 6.87971 15.5589 6.74932C15.5347 6.61893 15.4715 6.49895 15.3777 6.40518L13.9337 4.96118C13.8399 4.86745 13.7199 4.80432 13.5895 4.7801C13.4592 4.75588 13.3245 4.77171 13.2033 4.8255L12.9008 4.95987V3.8385H19.3262ZM26.5757 27.3815C26.6004 27.2891 26.6196 27.1965 26.6342 27.1039H28.4205L27.3765 27.712C27.0067 27.9272 26.6309 28.0794 26.2385 28.1703C26.3837 27.9371 26.4975 27.6733 26.5757 27.3815ZM10.2073 17.1379C10.1036 17.1625 10.0074 17.2121 9.92717 17.2823C9.84691 17.3525 9.78497 17.4412 9.74671 17.5407L9.42744 18.37H8.28663L7.9672 17.5403C7.92893 17.4409 7.867 17.3522 7.78678 17.2821C7.70655 17.2119 7.61044 17.1624 7.50676 17.1377C6.90855 16.9954 6.33691 16.7583 5.81347 16.4356C5.7227 16.3797 5.61969 16.3468 5.51334 16.3397C5.40698 16.3326 5.3005 16.3514 5.20308 16.3947L4.38966 16.7559L3.58296 15.9492L3.94398 15.1363C3.98724 15.0388 4.00611 14.9323 3.99896 14.826C3.99182 14.7196 3.95887 14.6166 3.90297 14.5259C3.58031 14.0022 3.34326 13.4304 3.20078 12.8321C3.17612 12.7284 3.12657 12.6323 3.05642 12.5521C2.98627 12.4718 2.89763 12.4099 2.79817 12.3716L1.96875 12.0523V10.9116L2.79841 10.5921C2.89789 10.5538 2.98654 10.4919 3.0567 10.4117C3.12687 10.3314 3.17643 10.2353 3.20111 10.1316C3.34334 9.53338 3.58031 8.96173 3.90305 8.43832C3.95895 8.34755 3.9919 8.24452 3.99904 8.13815C4.00619 8.03179 3.98732 7.92528 3.94406 7.82785L3.58288 7.0145L4.38957 6.20781L5.203 6.56908C5.30042 6.61239 5.40694 6.63129 5.51331 6.62414C5.61969 6.61699 5.72272 6.58401 5.81347 6.52806C6.33686 6.20539 6.90844 5.96843 7.5066 5.82612C7.61029 5.80144 7.70641 5.75188 7.78665 5.68172C7.86689 5.61155 7.92883 5.5229 7.96712 5.42343L8.28655 4.59368H9.42744L9.74687 5.42343C9.78516 5.5229 9.8471 5.61155 9.92734 5.68172C10.0076 5.75188 10.1037 5.80144 10.2074 5.82612C10.8056 5.96837 11.3772 6.20534 11.9005 6.52806C11.9913 6.58396 12.0943 6.6169 12.2007 6.62405C12.3071 6.63119 12.4136 6.61233 12.511 6.56908L13.3243 6.20781L14.1311 7.0145L13.77 7.82752C13.7268 7.92495 13.7079 8.03146 13.715 8.13783C13.7222 8.24419 13.7551 8.34722 13.811 8.43799C14.1338 8.96153 14.3708 9.53328 14.5132 10.1316C14.5379 10.2353 14.5874 10.3314 14.6575 10.4117C14.7277 10.4919 14.8163 10.5539 14.9158 10.5921L15.7452 10.9115V12.0523L14.9155 12.3717C14.816 12.41 14.7274 12.4719 14.6573 12.5522C14.5871 12.6324 14.5376 12.7285 14.5129 12.8322C14.3706 13.4304 14.1336 14.002 13.8109 14.5254C13.755 14.6161 13.722 14.7192 13.7149 14.8255C13.7077 14.9319 13.7266 15.0384 13.7698 15.1358L14.1311 15.9493L13.3244 16.756L12.5114 16.3949C12.414 16.3517 12.3075 16.3328 12.2011 16.34C12.0947 16.3471 11.9917 16.3801 11.9009 16.436C11.3774 16.7587 10.8057 16.9957 10.2073 17.1379ZM10.8244 36.9334L8.75191 38.1064C8.54831 38.2215 8.27917 38.1469 8.164 37.9436L2.07088 27.1774C1.95571 26.9739 2.03036 26.7046 2.23379 26.5895L4.30631 25.4165C4.37022 25.3803 4.44244 25.3612 4.5159 25.3613C4.55511 25.3613 4.59465 25.3666 4.6337 25.3774C4.68832 25.3922 4.73948 25.4177 4.7842 25.4523C4.82892 25.487 4.86632 25.5302 4.89423 25.5794L10.9873 36.3455C11.1025 36.5491 11.0279 36.8183 10.8244 36.9334ZM39.4254 26.3938L26.0204 34.6481C24.9574 35.3025 23.7912 35.4662 22.5537 35.1343L12.8306 32.529C12.7474 32.5067 12.6605 32.501 12.5751 32.5122C12.4896 32.5235 12.4073 32.5515 12.3327 32.5946L10.8553 33.4476L7.20062 26.9901L12.7066 23.8022C13.9384 23.0891 15.2709 22.4916 16.6683 22.9449C17.1174 23.0905 17.6348 23.2776 18.234 23.4943C19.9517 24.1153 22.0866 24.8871 24.3018 25.2921C25.0733 25.5617 25.5047 26.307 25.3079 27.0418C25.0488 28.0085 24.2432 28.1284 23.6027 28.055C22.5145 27.8312 21.4805 27.5363 20.3865 27.2238C19.8678 27.0757 19.3314 26.9224 18.78 26.7747C18.4302 26.6811 18.0701 26.8887 17.9762 27.2387C17.9539 27.322 17.9482 27.4088 17.9595 27.4942C17.9707 27.5797 17.9987 27.6621 18.0418 27.7367C18.0849 27.8114 18.1423 27.8768 18.2106 27.9292C18.279 27.9817 18.3571 28.0202 18.4403 28.0425C18.9813 28.1874 19.5124 28.3391 20.026 28.4858C21.1536 28.8078 22.2186 29.112 23.3654 29.3464C23.3696 29.3473 23.3739 29.3475 23.3782 29.3483C23.3827 29.3492 23.3869 29.3505 23.3915 29.3512L24.31 29.5006C25.684 29.7202 26.9031 29.5062 28.037 28.8461L35.4237 24.5437C37.5496 23.3054 39.186 23.1796 39.8012 24.2065C40.225 24.9145 40.0354 26.0183 39.4254 26.3938ZM4.90727 27.4952C4.92185 27.5916 4.91723 27.6899 4.89369 27.7845C4.87016 27.8791 4.82816 27.9681 4.77012 28.0464C4.71207 28.1247 4.63913 28.1908 4.55547 28.2408C4.47182 28.2909 4.37909 28.3239 4.28264 28.338C4.18618 28.3521 4.08789 28.347 3.9934 28.323C3.89892 28.299 3.81011 28.2566 3.73208 28.1982C3.65404 28.1397 3.58832 28.0665 3.53869 27.9826C3.48905 27.8987 3.45648 27.8058 3.44285 27.7093C3.4155 27.5156 3.46596 27.3189 3.58321 27.1623C3.70046 27.0057 3.87496 26.9019 4.06853 26.8736C4.26211 26.8453 4.45902 26.8948 4.6162 27.0113C4.77337 27.1277 4.87803 27.3017 4.90727 27.4952ZM8.857 7.26437C6.53141 7.26437 4.63952 9.15634 4.63952 11.4819C4.63952 13.8075 6.53141 15.6994 8.857 15.6994C11.1826 15.6994 13.0746 13.8075 13.0746 11.4819C13.0746 9.15634 11.1825 7.26437 8.857 7.26437ZM8.857 14.3869C7.25517 14.3869 5.95202 13.0838 5.95202 11.4819C5.95202 9.8801 7.25517 8.57687 8.857 8.57687C10.4588 8.57687 11.7621 9.8801 11.7621 11.4819C11.7621 13.0838 10.4588 14.3869 8.857 14.3869Z" fill="#2F87CC"/>
</svg>
