<svg width="42" height="42" viewBox="0 0 42 42" fill="none" xmlns="http://www.w3.org/2000/svg">
<g clip-path="url(#clip0_2836_5318)">
<path d="M2.24257 32.8103C1.90897 32.8135 1.58021 32.8905 1.27979 33.0355C0.979365 33.1806 0.714711 33.3903 0.504745 33.6495C0.294779 33.9088 0.144689 34.2112 0.0652073 34.5353C-0.0142747 34.8593 -0.0211856 35.1968 0.0449689 35.5238L0.575767 38.2274C0.856048 39.6487 2.09623 40.6879 3.53732 40.6879H33.2124C34.6535 40.6879 35.8937 39.6462 36.1739 38.2274L36.7072 35.5238C36.773 35.1967 36.7657 34.8591 36.6859 34.5351C36.6061 34.2111 36.4557 33.9087 36.2456 33.6495C36.0354 33.3903 35.7706 33.1807 35.4701 33.0356C35.1696 32.8906 34.8408 32.8136 34.5071 32.8103H22.3137C22.0656 32.8103 21.8374 32.9517 21.7283 33.1749L20.5948 35.437H16.1549L15.0239 33.1749C14.9695 33.0655 14.8856 32.9734 14.7818 32.909C14.678 32.8446 14.5582 32.8104 14.436 32.8103H2.24257ZM2.24257 34.1249H14.0342L15.1628 36.387C15.2744 36.6102 15.5001 36.7491 15.7482 36.7491H21.0016C21.2496 36.7491 21.4753 36.6077 21.5869 36.387L22.7205 34.1249H34.5071C35.0851 34.1249 35.539 34.6607 35.4174 35.2733L34.8891 37.9769C34.8163 38.3689 34.609 38.7231 34.3029 38.9785C33.9967 39.2339 33.6111 39.3744 33.2124 39.3758H3.53732C3.1383 39.3743 2.75234 39.2335 2.44618 38.9776C2.14001 38.7217 1.93288 38.3668 1.8606 37.9744L1.33228 35.2708C1.30295 35.134 1.3043 34.9924 1.33621 34.8562C1.36812 34.7199 1.4298 34.5925 1.51683 34.4829C1.60386 34.3734 1.71408 34.2844 1.83956 34.2225C1.96504 34.1606 2.10267 34.1273 2.24257 34.1249Z" fill="#2F87CC"/>
<path d="M5.90117 7.87769C3.37368 7.87769 1.3125 9.93887 1.3125 12.4688V33.4701H2.62461V12.4688C2.62331 12.0378 2.70711 11.6108 2.87122 11.2123C3.03533 10.8137 3.27651 10.4515 3.58093 10.1464C3.88535 9.84131 4.24701 9.59931 4.64518 9.43429C5.04334 9.26928 5.47017 9.18451 5.90117 9.18484H25.7143V7.87769H5.90117ZM34.2865 17.561V33.4701H35.6011V17.561H34.2865Z" fill="#2F87CC"/>
<path d="M14.4272 15.0931C12.6116 15.0931 11.0837 16.4895 10.92 18.2952L10.0816 27.5246C10.0453 27.9454 10.0966 28.3691 10.2322 28.7691C10.3679 29.169 10.5849 29.5365 10.8697 29.8483C11.1545 30.1602 11.5009 30.4096 11.8869 30.5809C12.273 30.7521 12.6903 30.8415 13.1127 30.8434H23.6368C25.4177 30.8434 26.8315 29.2981 26.6703 27.5246L25.827 18.2977C25.7478 17.4224 25.3445 16.6082 24.6961 16.0149C24.0478 15.4216 23.2011 15.092 22.3222 15.0906L14.4272 15.0931ZM14.4272 16.4076H22.3222C23.4707 16.4076 24.4181 17.2683 24.5223 18.4118L25.3607 27.6412C25.382 27.881 25.3532 28.1226 25.2762 28.3506C25.1992 28.5787 25.0756 28.7882 24.9132 28.9659C24.7509 29.1437 24.5534 29.2857 24.3332 29.383C24.1131 29.4803 23.8751 29.5308 23.6344 29.5313H13.1127C12.872 29.5309 12.6341 29.4804 12.4141 29.383C12.194 29.2857 11.9967 29.1436 11.8345 28.9658C11.6724 28.7881 11.549 28.5785 11.4723 28.3504C11.3955 28.1224 11.3671 27.8809 11.3888 27.6412L12.2272 18.4143C12.2745 17.8643 12.5271 17.3522 12.9348 16.98C13.3424 16.6077 13.8752 16.405 14.4272 16.4076Z" fill="#2F87CC"/>
<path d="M15.0973 19.0294C15.0108 19.029 14.925 19.0458 14.845 19.0787C14.7649 19.1116 14.6922 19.1599 14.6309 19.221C14.5696 19.2821 14.521 19.3546 14.4878 19.4346C14.4546 19.5145 14.4375 19.6001 14.4375 19.6867V20.3415C14.4375 22.5093 16.2085 24.2803 18.3763 24.2803C20.5442 24.2803 22.3151 22.5093 22.3151 20.3415V19.6867C22.3151 19.6001 22.2981 19.5145 22.2649 19.4346C22.2317 19.3546 22.183 19.2821 22.1217 19.221C22.0604 19.1599 21.9877 19.1116 21.9077 19.0787C21.8276 19.0458 21.7419 19.029 21.6554 19.0294C21.4819 19.0307 21.316 19.1005 21.1938 19.2236C21.0716 19.3468 21.003 19.5132 21.003 19.6867V20.3415C21.003 21.7999 19.8348 22.9682 18.3763 22.9682C18.031 22.9692 17.6889 22.9018 17.3698 22.77C17.0506 22.6381 16.7607 22.4444 16.5168 22.2C16.2728 21.9556 16.0797 21.6653 15.9484 21.3459C15.8172 21.0265 15.7505 20.6843 15.7521 20.339V19.6842C15.7521 19.5107 15.6835 19.3443 15.5613 19.2212C15.4391 19.098 15.2732 19.0282 15.0998 19.0269L15.0973 19.0294ZM18.3763 11.1567C16.2085 11.1567 14.4375 12.9277 14.4375 15.0955V15.7479H15.7521V15.0955C15.7521 13.6371 16.9179 12.4688 18.3763 12.4688C19.8348 12.4688 21.003 13.6371 21.003 15.0955V15.7479H22.3151V15.0955C22.3151 12.9277 20.5442 11.1567 18.3763 11.1567ZM33.4718 1.31461C28.7666 1.31461 24.9394 5.13934 24.9394 9.84459C24.9394 14.5498 28.7666 18.377 33.4718 18.377C38.1746 18.377 42.0043 14.5474 42.0043 9.84459C42.0043 5.14182 38.1746 1.31213 33.4693 1.31213L33.4718 1.31461ZM33.4718 2.62425C37.4652 2.62425 40.6897 5.84872 40.6897 9.8421C40.6897 13.838 37.4652 17.06 33.4718 17.06C29.4784 17.06 26.254 13.838 26.254 9.8421C26.254 5.84872 29.4784 2.62425 33.4718 2.62425Z" fill="#2F87CC"/>
<path d="M36.9722 7.38162L32.2446 11.5238L30.0445 8.77806C29.9905 8.71055 29.9237 8.65434 29.8479 8.61268C29.7722 8.57101 29.689 8.54471 29.603 8.53526C29.5171 8.52581 29.4301 8.53341 29.3471 8.55763C29.2641 8.58184 29.1867 8.62219 29.1193 8.67637C28.9844 8.78532 28.898 8.94317 28.879 9.11553C28.8599 9.2879 28.9098 9.4608 29.0176 9.59658L31.6443 12.8756C31.6996 12.9446 31.7681 13.0017 31.8459 13.0436C31.9237 13.0855 32.0092 13.1112 32.0972 13.1193C32.1851 13.1274 32.2739 13.1177 32.358 13.0908C32.4421 13.0638 32.52 13.0202 32.5869 12.9624L37.8403 8.36632C37.9705 8.25128 38.0498 8.08938 38.0609 7.91602C38.0721 7.74265 38.0142 7.57193 37.8998 7.44115C37.8428 7.37596 37.7734 7.32269 37.6957 7.2844C37.618 7.24611 37.5336 7.22355 37.4471 7.21802C37.3607 7.21248 37.274 7.22409 37.1921 7.25217C37.1101 7.28024 37.0346 7.32424 36.9697 7.38162H36.9722Z" fill="#2F87CC"/>
</g>
<defs>
<clipPath id="clip0_2836_5318">
<rect width="42" height="42" fill="white"/>
</clipPath>
</defs>
</svg>
