<svg width="42" height="42" viewBox="0 0 42 42" fill="none" xmlns="http://www.w3.org/2000/svg">
<path d="M36.75 24.2871C36.5326 24.2879 36.3242 24.3742 36.17 24.5275C36.0167 24.6816 35.9304 24.89 35.9297 25.1074C35.9297 25.3232 36.0175 25.5349 36.17 25.6874C36.3226 25.84 36.5343 25.9277 36.75 25.9277C36.9657 25.9277 37.1774 25.84 37.33 25.6874C37.4832 25.5332 37.5696 25.3248 37.5703 25.1074C37.5703 24.8915 37.4825 24.68 37.33 24.5275C37.1758 24.3742 36.9674 24.2879 36.75 24.2871Z" fill="#2F87CC"/>
<path d="M36.75 0H5.25C4.79694 0 4.42969 0.367254 4.42969 0.820312V39.5391C4.42969 40.8961 5.53358 42 6.89062 42H35.1094C36.4664 42 37.5703 40.8961 37.5703 39.5391V28.3828C37.5703 27.9298 37.2031 27.5625 36.75 27.5625C36.2969 27.5625 35.9297 27.9298 35.9297 28.3828V39.5391C35.9297 39.9915 35.5619 40.3594 35.1094 40.3594H8.87127L29.3028 19.9279C29.6229 19.6074 29.6229 19.0879 29.3028 18.7675C28.9824 18.4474 28.463 18.4474 28.1425 18.7675L6.60352 40.3065C6.29262 40.1899 6.07031 39.8902 6.07031 39.5391V1.64062H35.9297V21.9023C35.9297 22.3554 36.2969 22.7227 36.75 22.7227C37.2031 22.7227 37.5703 22.3554 37.5703 21.9023V0.820312C37.5703 0.367254 37.2031 0 36.75 0Z" fill="#2F87CC"/>
<path d="M25.0993 4.42969H16.8962C15.3585 4.42969 14.1072 5.68099 14.1072 7.21875C14.1072 8.75651 15.3585 10.0078 16.8962 10.0078H25.0993C26.6371 10.0078 27.8884 8.75651 27.8884 7.21875C27.8884 5.68099 26.6371 4.42969 25.0993 4.42969ZM25.0993 8.36719H16.8962C16.263 8.36719 15.7478 7.85195 15.7478 7.21875C15.7478 6.58555 16.263 6.07031 16.8962 6.07031H25.0993C25.7325 6.07031 26.2478 6.58555 26.2478 7.21875C26.2478 7.85195 25.7325 8.36719 25.0993 8.36719ZM26.3458 11.6484L12.7588 25.2355C12.4383 25.5559 12.4383 26.0754 12.7588 26.3958C12.8349 26.472 12.9253 26.5324 13.0249 26.5736C13.1244 26.6148 13.2311 26.6359 13.3388 26.6358C13.4465 26.6359 13.5532 26.6148 13.6527 26.5736C13.7522 26.5324 13.8426 26.472 13.9187 26.3958L27.5058 12.8088C27.8262 12.4883 27.8262 11.9689 27.5058 11.6484C27.1857 11.328 26.6663 11.328 26.3459 11.6484H26.3458ZM10.6388 27.3549C10.4854 27.5094 10.399 27.7181 10.3984 27.9358C10.3994 28.1532 10.4857 28.3615 10.6388 28.5158C10.793 28.669 11.0014 28.7554 11.2188 28.7561C11.4347 28.7561 11.6462 28.6684 11.7987 28.5158C11.9522 28.3617 12.0386 28.1533 12.0391 27.9358C12.0391 27.7193 11.9522 27.5074 11.7987 27.3549C11.6444 27.2019 11.436 27.1158 11.2188 27.1155C11.0031 27.1155 10.7914 27.2023 10.6388 27.3549Z" fill="#2F87CC"/>
</svg>
