<svg width="42" height="42" viewBox="0 0 42 42" fill="none" xmlns="http://www.w3.org/2000/svg">
<path d="M5.25 0.820312H36.75V41.1797H5.25V0.820312Z" stroke="#2F87CC" stroke-width="1.5" stroke-miterlimit="10" stroke-linecap="round" stroke-linejoin="round"/>
<path d="M26.1557 5.11584H15.8719C14.4368 5.11584 13.2734 6.27921 13.2734 7.71427C13.2734 9.14932 14.4368 10.3127 15.8719 10.3127H26.1557C27.5908 10.3127 28.7541 9.14932 28.7541 7.71427C28.7541 6.27921 27.5908 5.11584 26.1557 5.11584Z" stroke="#2F87CC" stroke-width="1.5" stroke-miterlimit="10" stroke-linecap="round" stroke-linejoin="round"/>
<g clip-path="url(#clip0_3019_12246)">
<path d="M31.0786 34H10.9163C10.2289 34 9.65612 33.6563 9.31244 33.0834C8.96877 32.5105 8.96877 31.8231 9.31244 31.2502L12.8638 24.9486C13.0929 24.4903 13.5511 24.1466 14.1239 24.032C14.6967 23.9175 15.1549 24.032 15.6132 24.3758L19.279 27.3547C19.3936 27.4693 19.5081 27.4693 19.6227 27.4693C19.7373 27.4693 19.8518 27.4693 19.9664 27.2401L23.9759 20.824C24.3196 20.2511 24.8924 19.9074 25.5797 20.022C26.2671 20.022 26.8399 20.3657 27.1836 20.9385L32.7969 31.2502C33.1406 31.8231 33.1406 32.5105 32.7969 33.0834C32.3387 33.6563 31.7659 34 31.0786 34ZM14.4676 25.4069C14.353 25.4069 14.1239 25.5215 14.0093 25.6361L10.458 31.9377C10.3435 32.1668 10.458 32.2814 10.458 32.396C10.458 32.5105 10.5726 32.6251 10.8017 32.6251H30.964C31.1931 32.6251 31.3077 32.5105 31.3077 32.396C31.3077 32.2814 31.4222 32.1668 31.3077 31.9377L25.6943 21.626C25.5798 21.3968 25.3506 21.3968 25.3506 21.3968C25.2361 21.3968 25.1215 21.3968 24.8924 21.626L20.8829 28.0421C20.6537 28.5004 20.1955 28.8442 19.6227 28.8442C19.1645 28.9587 18.5917 28.8442 18.1334 28.5004L14.4676 25.5215C14.6967 25.4069 14.5821 25.4069 14.4676 25.4069Z" fill="#2F87CC"/>
<path d="M18.0547 22C16.4393 22 15.0547 20.6154 15.0547 19C15.0547 17.3846 16.4393 16 18.0547 16C19.6701 16 21.0547 17.3846 21.0547 19C21.0547 20.6154 19.6701 22 18.0547 22ZM18.0547 17.3846C17.1316 17.3846 16.4393 18.0769 16.4393 19C16.4393 19.9231 17.1316 20.6154 18.0547 20.6154C18.9778 20.6154 19.6701 19.9231 19.6701 19C19.6701 18.0769 18.9778 17.3846 18.0547 17.3846Z" fill="#2F87CC"/>
</g>
<defs>
<clipPath id="clip0_3019_12246">
<rect width="24" height="24" fill="white" transform="translate(9 13)"/>
</clipPath>
</defs>
</svg>
