<svg width="42" height="42" viewBox="0 0 42 42" fill="none" xmlns="http://www.w3.org/2000/svg">
<path d="M6.975 14.43C7.22598 14.4303 7.46739 14.3337 7.64899 14.1605C7.8306 13.9873 7.93842 13.7507 7.95 13.5V9.315L16.35 17.715C16.533 17.898 16.7812 18.0008 17.04 18.0008C17.2988 18.0008 17.547 17.898 17.73 17.715C17.913 17.532 18.0158 17.2838 18.0158 17.025C18.0158 16.7662 17.913 16.518 17.73 16.335L9.315 7.95H13.5C13.628 7.95 13.7548 7.92478 13.8731 7.87578C13.9914 7.82678 14.0989 7.75497 14.1894 7.66443C14.28 7.57389 14.3518 7.46641 14.4008 7.34812C14.4498 7.22982 14.475 7.10304 14.475 6.975C14.475 6.84696 14.4498 6.72018 14.4008 6.60188C14.3518 6.48359 14.28 6.37611 14.1894 6.28557C14.0989 6.19503 13.9914 6.12322 13.8731 6.07422C13.7548 6.02522 13.628 6 13.5 6H6.975C6.71641 6 6.46842 6.10272 6.28557 6.28557C6.10272 6.46842 6 6.71641 6 6.975V13.5C6.01158 13.7507 6.1194 13.9873 6.30101 14.1605C6.48261 14.3337 6.72403 14.4303 6.975 14.43ZM27.57 6.975C27.5697 7.22598 27.6663 7.46739 27.8395 7.64899C28.0127 7.8306 28.2493 7.93842 28.5 7.95H32.64L24.24 16.35C24.057 16.533 23.9542 16.7812 23.9542 17.04C23.9542 17.2988 24.057 17.547 24.24 17.73C24.423 17.913 24.6712 18.0158 24.93 18.0158C25.1888 18.0158 25.437 17.913 25.62 17.73L34.02 9.33V13.5C34.02 13.7626 34.1243 14.0144 34.31 14.2C34.4956 14.3857 34.7474 14.49 35.01 14.49C35.2726 14.49 35.5244 14.3857 35.71 14.2C35.8957 14.0144 36 13.7626 36 13.5V6.975C36 6.71641 35.8973 6.46842 35.7144 6.28557C35.5316 6.10272 35.2836 6 35.025 6H28.5C28.2493 6.01158 28.0127 6.1194 27.8395 6.30101C27.6663 6.48261 27.5697 6.72403 27.57 6.975ZM35.025 27.57C34.7664 27.57 34.5184 27.6727 34.3356 27.8556C34.1527 28.0384 34.05 28.2864 34.05 28.545V32.685L25.65 24.285C25.467 24.102 25.2188 23.9992 24.96 23.9992C24.7012 23.9992 24.453 24.102 24.27 24.285C24.087 24.468 23.9842 24.7162 23.9842 24.975C23.9842 25.2338 24.087 25.482 24.27 25.665L32.67 34.065H28.5C28.2641 34.0944 28.0472 34.209 27.8898 34.3872C27.7325 34.5653 27.6457 34.7948 27.6457 35.0325C27.6457 35.2702 27.7325 35.4997 27.8898 35.6778C28.0472 35.856 28.2641 35.9706 28.5 36H34.98C35.2386 36 35.4866 35.8973 35.6694 35.7144C35.8523 35.5316 35.955 35.2836 35.955 35.025V28.5C35.944 28.2569 35.8425 28.0267 35.6704 27.8546C35.4983 27.6825 35.2681 27.581 35.025 27.57ZM14.43 35.025C14.4303 34.774 14.3337 34.5326 14.1605 34.351C13.9873 34.1694 13.7507 34.0616 13.5 34.05H9.315L17.715 25.65C17.8056 25.5594 17.8775 25.4518 17.9265 25.3334C17.9756 25.215 18.0008 25.0881 18.0008 24.96C18.0008 24.8319 17.9756 24.705 17.9265 24.5866C17.8775 24.4682 17.8056 24.3606 17.715 24.27C17.6244 24.1794 17.5168 24.1075 17.3984 24.0585C17.28 24.0094 17.1531 23.9842 17.025 23.9842C16.8969 23.9842 16.77 24.0094 16.6516 24.0585C16.5332 24.1075 16.4256 24.1794 16.335 24.27L7.935 32.67V28.5C7.90558 28.2641 7.79101 28.0472 7.61285 27.8898C7.43468 27.7325 7.20518 27.6457 6.9675 27.6457C6.72982 27.6457 6.50032 27.7325 6.32215 27.8898C6.14399 28.0472 6.02942 28.2641 6 28.5V34.98C6 35.2386 6.10272 35.4866 6.28557 35.6694C6.46842 35.8523 6.71641 35.955 6.975 35.955H13.5C13.7431 35.944 13.9733 35.8425 14.1454 35.6704C14.3175 35.4983 14.419 35.2681 14.43 35.025Z" fill="#2F87CC"/>
</svg>
