<svg width="42" height="42" viewBox="0 0 42 42" fill="none" xmlns="http://www.w3.org/2000/svg">
<g clip-path="url(#clip0_3019_12263)">
<path d="M30.9204 0.187012L28.5237 9.01505M16.0017 9.70367L15.3855 10.2186C14.0135 10.7124 12.2784 10.2999 11.0995 9.01505M11.0995 9.01505L18.2593 5.02729C18.8623 4.47357 19.8177 4.32241 20.6335 4.25586L23.5574 4.01761L24.7782 0.187094M11.0995 9.01505H7.03125V18.434M34.9637 35.6716V38.9192C34.9637 40.2805 33.8603 41.3838 32.499 41.3838H9.49587C8.13458 41.3838 7.03125 40.2805 7.03125 38.9192V16.5M26.5996 9.01505H34.9637V37" stroke="#2F87CC" stroke-width="1.5" stroke-miterlimit="10" stroke-linecap="round" stroke-linejoin="round"/>
<path d="M25.3673 12.6709H29.1981V16.5855C29.1981 17.9468 28.0948 19.0502 26.7335 19.0502H15.2615C13.9002 19.0502 12.7969 17.9468 12.7969 16.5855V12.6709H16.0017M25.3673 12.6709C26.0478 12.6709 26.5996 12.1191 26.5996 11.4386V9.42579C26.5996 8.74523 26.0478 8.19348 25.3673 8.19348C24.6867 8.19348 24.135 8.74523 24.135 9.42579V11.4386C24.135 12.1191 24.6867 12.6709 25.3673 12.6709Z" stroke="#2F87CC" stroke-width="1.5" stroke-miterlimit="10" stroke-linecap="round" stroke-linejoin="round"/>
<path d="M21.4253 9.54903C21.4253 8.80035 22.0322 8.19348 22.7809 8.19348C23.5295 8.19348 24.1364 8.80035 24.1364 9.54903V12.6709C24.1364 13.4196 23.5295 14.0264 22.7809 14.0264C22.0322 14.0264 21.4253 13.4195 21.4253 12.6709M21.4253 9.54903V12.6709M21.4253 9.54903C21.4253 8.80035 20.8185 8.19348 20.0698 8.19348C19.3211 8.19348 18.7142 8.80035 18.7142 9.54903M21.4253 12.6709C21.4253 13.4196 20.8185 14.0264 20.0698 14.0264C19.3211 14.0264 18.7142 13.4195 18.7142 12.6709M18.7142 9.54903V12.6709M18.7142 9.54903C18.7142 8.80035 18.1074 8.19348 17.3587 8.19348C16.61 8.19348 16.0032 8.80035 16.0032 9.54903V12.6709C16.0032 13.4195 16.61 14.0264 17.3587 14.0264C18.1074 14.0264 18.7142 13.4196 18.7142 12.6709M9.98479 26.6371C9.98479 26.6371 9.79731 35.4042 17.427 38.1387M31.3928 20.8863C31.3928 20.8863 32.0198 28.9057 25.5937 32.3879M19.1505 28.9057H20.3828M19.7666 28.9057H22.8474" stroke="#2F87CC" stroke-width="1.5" stroke-miterlimit="10" stroke-linecap="round" stroke-linejoin="round"/>
</g>
<defs>
<clipPath id="clip0_3019_12263">
<rect width="42" height="42" fill="white"/>
</clipPath>
</defs>
</svg>
