<svg width="112" height="112" viewBox="0 0 112 112" fill="none" xmlns="http://www.w3.org/2000/svg">
<path d="M50.8518 2.77562C53.1927 -0.925204 58.8073 -0.92521 61.1482 2.77562L66.874 11.8277C68.4193 14.2708 71.6049 15.2604 74.357 14.1525L84.5538 10.0472C88.7227 8.3688 93.265 11.5243 92.8838 15.834L91.9515 26.3752C91.6998 29.2202 93.6686 31.8112 96.5762 32.4616L107.349 34.8712C111.754 35.8563 113.489 40.962 110.531 44.2343L103.297 52.2384C101.344 54.3987 101.344 57.6013 103.297 59.7616L110.531 67.7656C113.489 71.038 111.754 76.1437 107.349 77.1288L96.5762 79.5384C93.6686 80.1887 91.6998 82.7798 91.9515 85.6248L92.8838 96.166C93.265 100.476 88.7227 103.631 84.5538 101.953L74.357 97.8475C71.6049 96.7395 68.4193 97.7292 66.874 100.172L61.1482 109.224C58.8073 112.925 53.1927 112.925 50.8518 109.224L45.126 100.172C43.5807 97.7292 40.3951 96.7395 37.643 97.8475L27.4462 101.953C23.2773 103.631 18.735 100.476 19.1162 96.166L20.0485 85.6248C20.3002 82.7798 18.3314 80.1887 15.4238 79.5384L4.6507 77.1288C0.246253 76.1437 -1.48875 71.038 1.46893 67.7656L8.70328 59.7616C10.6558 57.6013 10.6558 54.3987 8.70328 52.2384L1.46894 44.2344C-1.48874 40.962 0.246248 35.8563 4.6507 34.8712L15.4238 32.4616C18.3314 31.8112 20.3002 29.2202 20.0485 26.3752L19.1162 15.834C18.735 11.5243 23.2773 8.36879 27.4461 10.0472L37.643 14.1525C40.3951 15.2604 43.5807 14.2708 45.126 11.8277L50.8518 2.77562Z" fill="#F3E6FE"/>
<path d="M69.9276 76.4286C69.7535 76.4286 69.583 76.3797 69.4354 76.2874L54.5783 67.0017C54.4291 66.9083 54.3095 66.7744 54.2335 66.6156C54.1576 66.4568 54.1283 66.2797 54.1491 66.1049C54.1699 65.9301 54.24 65.7648 54.3512 65.6283C54.4623 65.4918 54.61 65.3898 54.777 65.334L77.0627 57.9054C77.2334 57.8486 77.417 57.8426 77.5911 57.8882C77.7652 57.9338 77.9222 58.0289 78.0432 58.1621C78.1642 58.2953 78.2439 58.4608 78.2726 58.6384C78.3013 58.816 78.2778 58.9982 78.2049 59.1627L70.7763 75.877C70.7028 76.0408 70.5836 76.1799 70.4331 76.2777C70.2826 76.3755 70.1071 76.4279 69.9276 76.4286ZM57.234 66.4724L69.5134 74.1461L75.6531 60.3327L57.234 66.4724Z" fill="#9669D8"/>
<path d="M62.5008 78.2857C62.2546 78.2857 62.0184 78.1879 61.8442 78.0137C61.6701 77.8396 61.5723 77.6034 61.5723 77.3571V70.3928C61.5722 70.2518 61.6043 70.1126 61.6661 69.9858C61.7279 69.859 61.8177 69.748 61.9288 69.6611L76.786 58.054C76.98 57.9023 77.2264 57.8339 77.4709 57.8638C77.7154 57.8938 77.938 58.0196 78.0897 58.2137C78.2414 58.4078 78.3098 58.6541 78.2798 58.8986C78.2499 59.1431 78.124 59.3657 77.93 59.5174L63.4294 70.846V75.2028L65.9124 72.8573C66.0914 72.6881 66.3304 72.5969 66.5766 72.6039C66.8228 72.6109 67.0562 72.7154 67.2254 72.8944C67.3946 73.0735 67.4857 73.3124 67.4788 73.5586C67.4718 73.8048 67.3673 74.0382 67.1883 74.2074L63.1397 78.0331C62.9665 78.1952 62.7381 78.2855 62.5008 78.2857Z" fill="#9669D8"/>
<path d="M56.0006 78.2858C43.7118 78.2858 33.7148 68.2888 33.7148 56.0001C33.7148 43.7114 43.7118 33.7144 56.0006 33.7144C67.1657 33.7144 76.6631 42.0548 78.0931 53.1141C78.1088 53.235 78.1004 53.3579 78.0686 53.4756C78.0367 53.5934 77.982 53.7037 77.9074 53.8003C77.8329 53.8969 77.7401 53.9778 77.6343 54.0385C77.5285 54.0992 77.4118 54.1385 77.2908 54.1541C77.0471 54.1827 76.8018 54.1147 76.6074 53.9648C76.413 53.8149 76.2851 53.5949 76.2508 53.3518C74.9416 43.2155 66.2353 35.5715 56.0006 35.5715C44.737 35.5715 35.572 44.7365 35.572 56.0001C35.572 67.2636 44.737 76.4286 56.0006 76.4286C56.2468 76.4286 56.483 76.5265 56.6572 76.7006C56.8313 76.8748 56.9291 77.1109 56.9291 77.3572C56.9291 77.6035 56.8313 77.8397 56.6572 78.0138C56.483 78.188 56.2468 78.2858 56.0006 78.2858Z" fill="#9669D8"/>
<path d="M56.0003 78.2858C49.7529 78.2858 44.8574 68.4968 44.8574 56.0001C44.8574 43.5034 49.7529 33.7144 56.0003 33.7144C62.2477 33.7144 67.1431 43.5034 67.1431 56.0001C67.1431 56.2304 67.1431 56.4829 67.1209 56.7132C67.1118 56.8353 67.0784 56.9543 67.0225 57.0633C66.9667 57.1722 66.8895 57.2688 66.7957 57.3474C66.7019 57.4261 66.5932 57.485 66.4762 57.5209C66.3591 57.5568 66.2361 57.5689 66.1143 57.5564C65.869 57.5347 65.6424 57.4164 65.4843 57.2277C65.3262 57.0389 65.2495 56.7951 65.2711 56.5498C65.286 56.3715 65.286 56.1784 65.286 56.0001C65.286 44.9278 61.0331 35.5715 56.0003 35.5715C50.9674 35.5715 46.7146 44.9278 46.7146 56.0001C46.7146 67.0724 50.9674 76.4286 56.0003 76.4286C56.2466 76.4286 56.4827 76.5265 56.6569 76.7006C56.831 76.8748 56.9289 77.1109 56.9289 77.3572C56.9289 77.6035 56.831 77.8397 56.6569 78.0138C56.4827 78.188 56.2466 78.2858 56.0003 78.2858Z" fill="#9669D8"/>
<path d="M56.0008 78.2858C55.7546 78.2858 55.5184 78.188 55.3442 78.0138C55.1701 77.8397 55.0723 77.6035 55.0723 77.3572V73.3644C55.0723 73.1181 55.1701 72.8819 55.3442 72.7078C55.5184 72.5336 55.7546 72.4358 56.0008 72.4358C56.2471 72.4358 56.4833 72.5336 56.6574 72.7078C56.8316 72.8819 56.9294 73.1181 56.9294 73.3644V77.3572C56.9294 77.6035 56.8316 77.8397 56.6574 78.0138C56.4833 78.188 56.2471 78.2858 56.0008 78.2858ZM56.0008 60.9586C55.7546 60.9586 55.5184 60.8608 55.3442 60.6867C55.1701 60.5125 55.0723 60.2763 55.0723 60.0301V34.6429C55.0723 34.3967 55.1701 34.1605 55.3442 33.9863C55.5184 33.8122 55.7546 33.7144 56.0008 33.7144C56.2471 33.7144 56.4833 33.8122 56.6574 33.9863C56.8316 34.1605 56.9294 34.3967 56.9294 34.6429V60.0301C56.9294 60.2763 56.8316 60.5125 56.6574 60.6867C56.4833 60.8608 56.2471 60.9586 56.0008 60.9586Z" fill="#9669D8"/>
<path d="M74.572 46.7146H37.4291C37.1829 46.7146 36.9467 46.6167 36.7725 46.4426C36.5984 46.2685 36.5006 46.0323 36.5006 45.786C36.5006 45.5397 36.5984 45.3035 36.7725 45.1294C36.9467 44.9553 37.1829 44.8574 37.4291 44.8574H74.572C74.8183 44.8574 75.0544 44.9553 75.2286 45.1294C75.4027 45.3035 75.5006 45.5397 75.5006 45.786C75.5006 46.0323 75.4027 46.2685 75.2286 46.4426C75.0544 46.6167 74.8183 46.7146 74.572 46.7146ZM68.072 56.9289H34.6434C34.3971 56.9289 34.161 56.831 33.9868 56.6569C33.8127 56.4827 33.7148 56.2466 33.7148 56.0003C33.7148 55.754 33.8127 55.5178 33.9868 55.3437C34.161 55.1695 34.3971 55.0717 34.6434 55.0717H68.072C68.3183 55.0717 68.5544 55.1695 68.7286 55.3437C68.9027 55.5178 69.0006 55.754 69.0006 56.0003C69.0006 56.2466 68.9027 56.4827 68.7286 56.6569C68.5544 56.831 68.3183 56.9289 68.072 56.9289Z" fill="#9669D8"/>
</svg>
