<svg width="112" height="112" viewBox="0 0 112 112" fill="none" xmlns="http://www.w3.org/2000/svg">
<path d="M50.8518 2.77562C53.1927 -0.925204 58.8073 -0.92521 61.1482 2.77562L66.874 11.8277C68.4193 14.2708 71.6049 15.2604 74.357 14.1525L84.5538 10.0472C88.7227 8.3688 93.265 11.5243 92.8838 15.834L91.9515 26.3752C91.6998 29.2202 93.6686 31.8112 96.5762 32.4616L107.349 34.8712C111.754 35.8563 113.489 40.962 110.531 44.2343L103.297 52.2384C101.344 54.3987 101.344 57.6013 103.297 59.7616L110.531 67.7656C113.489 71.038 111.754 76.1437 107.349 77.1288L96.5762 79.5384C93.6686 80.1887 91.6998 82.7798 91.9515 85.6248L92.8838 96.166C93.265 100.476 88.7227 103.631 84.5538 101.953L74.357 97.8475C71.6049 96.7395 68.4193 97.7292 66.874 100.172L61.1482 109.224C58.8073 112.925 53.1927 112.925 50.8518 109.224L45.126 100.172C43.5807 97.7292 40.3951 96.7395 37.643 97.8475L27.4462 101.953C23.2773 103.631 18.735 100.476 19.1162 96.166L20.0485 85.6248C20.3002 82.7798 18.3314 80.1887 15.4238 79.5384L4.6507 77.1288C0.246253 76.1437 -1.48875 71.038 1.46893 67.7656L8.70328 59.7616C10.6558 57.6013 10.6558 54.3987 8.70328 52.2384L1.46894 44.2344C-1.48874 40.962 0.246248 35.8563 4.6507 34.8712L15.4238 32.4616C18.3314 31.8112 20.3002 29.2202 20.0485 26.3752L19.1162 15.834C18.735 11.5243 23.2773 8.36879 27.4461 10.0472L37.643 14.1525C40.3951 15.2604 43.5807 14.2708 45.126 11.8277L50.8518 2.77562Z" fill="#E4FDD7"/>
<g clip-path="url(#clip0_2950_2826)">
<path d="M81.2745 63.9809C80.404 62.5924 78.4847 61.6371 76.3268 62.8216C74.9333 63.5865 73.6914 64.2962 72.4904 64.9825C71.0497 65.8058 69.6808 66.5874 68.1915 67.3847C66.9557 66.6688 65.5641 66.0103 64.1148 65.4122H68.2237C70.2317 65.4122 71.8655 63.7786 71.8655 61.7705V45.5093C71.8655 45.2938 71.7799 45.0872 71.6275 44.9348C71.4751 44.7824 71.2685 44.6968 71.053 44.6968H53.6235L66.1101 39.5247C66.2869 39.4521 66.4475 39.3451 66.5826 39.21C66.7177 39.0749 66.8247 38.9143 66.8973 38.7375C66.9709 38.5612 67.0088 38.372 67.0088 38.1809C67.0088 37.9898 66.9709 37.8007 66.8973 37.6243L65.4882 34.2221C65.4155 34.0453 65.3085 33.8847 65.1734 33.7496C65.0383 33.6145 64.8777 33.5075 64.701 33.4349C64.5246 33.3612 64.3354 33.3233 64.1443 33.3233C63.9532 33.3233 63.7641 33.3612 63.5877 33.4349L60.5291 34.7017C60.5053 33.215 59.9676 31.4814 58.0739 31.0618C56.8844 30.7981 54.7267 30.9903 53.2852 35.0217C52.7047 34.9747 52.1214 35.0667 51.5834 35.2899C51.1093 35.486 50.6815 35.7793 50.3277 36.1509C46.5364 34.3985 44.8992 35.7707 44.2515 36.7872C43.2091 38.423 44.0547 40.029 45.0892 41.0971L41.7834 42.4665C41.0425 42.7734 40.6894 43.626 40.9963 44.3669L42.4054 47.7692C42.4781 47.946 42.5851 48.1066 42.7202 48.2417C42.8554 48.3768 43.016 48.4838 43.1928 48.5564C43.3722 48.6307 43.5607 48.6679 43.7492 48.6679C43.9377 48.6679 44.1265 48.6307 44.3059 48.5564L46.649 47.5859V61.685C46.4548 61.732 46.2623 61.7863 46.0722 61.8478C46.0494 61.8552 46.0269 61.8636 46.0049 61.8731L39.8648 64.4908L39.736 64.2507C39.2387 63.3238 38.08 62.9739 37.1529 63.4711L34.6945 64.7894C34.2453 65.0302 33.9168 65.4315 33.7696 65.9194C33.6223 66.4073 33.6739 66.9234 33.9148 67.3725L33.915 67.3729L31.5554 68.576C31.5477 68.5799 31.54 68.584 31.5322 68.5883C30.26 69.2896 29.7833 70.9018 30.4654 72.1739L34.3441 79.6099C34.6832 80.2426 35.2491 80.7031 35.9374 80.9066C36.1841 80.9798 36.44 81.0171 36.6972 81.0173C37.1362 81.0173 37.5708 80.9075 37.9672 80.6918L40.423 79.4409C40.6636 79.7437 40.991 79.9655 41.3614 80.0766C41.5437 80.1317 41.7299 80.159 41.9152 80.159C42.2256 80.159 42.5331 80.0824 42.8144 79.9316L45.273 78.6132C46.0877 78.1763 46.456 77.2283 46.1959 76.3757C48.0586 75.7467 49.8853 75.9707 55.6343 78.4198C57.2586 79.1118 58.9192 79.4581 60.638 79.458C62.6616 79.458 64.7655 78.9777 66.9823 78.0163C70.4796 76.4995 73.7085 74.0573 76.8312 71.6956C77.8949 70.8911 78.8995 70.1312 79.8914 69.4262C82.1711 67.8056 82.2065 65.4679 81.2745 63.9815V63.9809ZM62.9411 46.3218H70.2405V61.7705C70.2405 62.8825 69.3358 63.7872 68.2237 63.7872H62.9411V46.3217V46.3218ZM57.1984 46.3218H61.3161V63.7873H59.6482C58.8356 63.525 58.0189 63.2755 57.1984 63.0387V46.3218ZM55.5734 46.3218V62.5857C54.6588 62.3396 53.7407 62.1069 52.8194 61.8876C51.5704 61.5905 49.927 61.329 48.274 61.4403V46.9127L49.7005 46.3218H55.5734ZM57.7223 32.6484C58.9821 32.9274 58.9517 34.6058 58.8656 35.3907L56.0126 36.5725C55.7036 36.135 55.3027 35.7702 54.838 35.5037C55.4116 33.9176 56.3403 32.3422 57.7223 32.6484ZM52.2052 36.7912C52.9919 36.4653 53.867 36.6633 54.4414 37.2232L50.9296 38.6779C50.9397 37.8759 51.4184 37.1171 52.2052 36.7912ZM45.6218 37.6606C46.3519 36.5155 48.0121 36.8912 49.4899 37.5529C49.3015 38.1252 49.2563 38.7349 49.3584 39.3287L46.7527 40.408C46.1358 39.9131 44.9287 38.7483 45.6218 37.6606ZM43.8414 46.9898L42.5626 43.9026L64.0519 35.0015L65.3307 38.0886L43.8414 46.9898ZM37.2189 79.2491C37.2111 79.2532 37.2033 79.2572 37.1955 79.2615C37.0751 79.3283 36.9426 79.3704 36.8057 79.3853C36.6688 79.4002 36.5303 79.3875 36.3983 79.3481C36.1296 79.2687 35.9088 79.0889 35.7806 78.8502L31.9019 71.4142C31.6358 70.9177 31.8176 70.2934 32.3068 70.0169L34.6831 68.8052L39.6262 78.023L37.2189 79.2491ZM44.505 77.1808L42.0465 78.4992C42.0138 78.5168 41.978 78.5277 41.941 78.5314C41.9041 78.5351 41.8667 78.5315 41.8312 78.5207C41.7956 78.51 41.7625 78.4924 41.7337 78.4688C41.7049 78.4453 41.6811 78.4163 41.6636 78.3835L35.3469 66.6043C35.3293 66.5715 35.3184 66.5357 35.3147 66.4987C35.311 66.4617 35.3146 66.4244 35.3254 66.3888C35.3361 66.3532 35.3538 66.3201 35.3773 66.2913C35.4009 66.2626 35.4299 66.2388 35.4627 66.2213L37.9213 64.9029C37.9874 64.8676 38.0649 64.8599 38.1367 64.8816C38.2084 64.9033 38.2687 64.9525 38.3042 65.0186L44.6208 76.7977C44.6562 76.8638 44.6639 76.9413 44.6422 77.0131C44.6205 77.0849 44.5712 77.1452 44.5051 77.1807L44.505 77.1808ZM78.95 68.1012C77.9385 68.8201 76.9245 69.587 75.8509 70.399C69.9573 74.8566 63.2772 79.9092 56.2713 76.9244C50.103 74.2966 47.9441 74.0093 45.4549 74.9149L40.6358 65.9286L46.6081 63.3823C48.1167 62.9016 50.1869 62.9319 52.4434 63.4685C56.1862 64.3587 63.0852 66.2405 67.5761 68.9071C67.505 69.233 67.1171 69.9426 66.4854 70.3642C64.7689 71.5097 58.7785 70.2675 55.4058 69.2152C55.2002 69.151 54.9774 69.1711 54.7865 69.2711C54.5956 69.3712 54.4523 69.5429 54.3881 69.7486C54.3239 69.9543 54.344 70.1771 54.444 70.368C54.544 70.5588 54.7158 70.7022 54.9215 70.7664C55.0163 70.7959 57.2704 71.4961 59.8955 71.9852C61.5477 72.2931 62.9487 72.4472 64.1112 72.4472C65.5722 72.4472 66.6563 72.2037 67.3874 71.7158C68.431 71.0194 69.2326 69.7226 69.2119 68.7636C69.2113 68.7369 69.2077 68.7113 69.2059 68.685C70.6188 67.9237 71.9249 67.1774 73.2966 66.3935C74.4917 65.7105 75.7275 65.0043 77.1087 64.2461C78.3495 63.5649 79.4034 64.0557 79.8977 64.8441C80.4553 65.7336 80.3785 67.0856 78.95 68.1011V68.1012Z" fill="#55C27D"/>
</g>
<defs>
<clipPath id="clip0_2950_2826">
<rect width="52" height="52" fill="white" transform="translate(30 30)"/>
</clipPath>
</defs>
</svg>
