<svg width="112" height="112" viewBox="0 0 112 112" fill="none" xmlns="http://www.w3.org/2000/svg">
<path d="M50.8518 2.77562C53.1927 -0.925204 58.8073 -0.92521 61.1482 2.77562L66.874 11.8277C68.4193 14.2708 71.6049 15.2604 74.357 14.1525L84.5538 10.0472C88.7227 8.3688 93.265 11.5243 92.8838 15.834L91.9515 26.3752C91.6998 29.2202 93.6686 31.8112 96.5762 32.4616L107.349 34.8712C111.754 35.8563 113.489 40.962 110.531 44.2343L103.297 52.2384C101.344 54.3987 101.344 57.6013 103.297 59.7616L110.531 67.7656C113.489 71.038 111.754 76.1437 107.349 77.1288L96.5762 79.5384C93.6686 80.1887 91.6998 82.7798 91.9515 85.6248L92.8838 96.166C93.265 100.476 88.7227 103.631 84.5538 101.953L74.357 97.8475C71.6049 96.7395 68.4193 97.7292 66.874 100.172L61.1482 109.224C58.8073 112.925 53.1927 112.925 50.8518 109.224L45.126 100.172C43.5807 97.7292 40.3951 96.7395 37.643 97.8475L27.4462 101.953C23.2773 103.631 18.735 100.476 19.1162 96.166L20.0485 85.6248C20.3002 82.7798 18.3314 80.1887 15.4238 79.5384L4.6507 77.1288C0.246253 76.1437 -1.48875 71.038 1.46893 67.7656L8.70328 59.7616C10.6558 57.6013 10.6558 54.3987 8.70328 52.2384L1.46894 44.2344C-1.48874 40.962 0.246248 35.8563 4.6507 34.8712L15.4238 32.4616C18.3314 31.8112 20.3002 29.2202 20.0485 26.3752L19.1162 15.834C18.735 11.5243 23.2773 8.36879 27.4461 10.0472L37.643 14.1525C40.3951 15.2604 43.5807 14.2708 45.126 11.8277L50.8518 2.77562Z" fill="#FDF3CC"/>
<g clip-path="url(#clip0_2950_2796)">
<path d="M30.8223 41.231H81.1875V42.8547H30.8223V41.231Z" fill="#E3B13C"/>
<path fill-rule="evenodd" clip-rule="evenodd" d="M34.836 37.6382C35.0435 37.6385 35.2424 37.7211 35.3892 37.8678C35.5359 38.0146 35.6185 38.2135 35.6188 38.421C35.6188 38.8586 35.2735 39.2157 34.836 39.2157C34.3985 39.2157 34.0527 38.8586 34.0527 38.421C34.0531 38.2134 34.1357 38.0144 34.2825 37.8677C34.4294 37.7209 34.6284 37.6384 34.836 37.6382ZM41.6984 37.6382C41.9059 37.6385 42.1048 37.7211 42.2516 37.8678C42.3983 38.0146 42.4809 38.2135 42.4812 38.421C42.4812 38.8586 42.1359 39.2157 41.6984 39.2157C41.4877 39.2152 41.2859 39.1314 41.1369 38.9824C40.988 38.8335 40.9042 38.6316 40.9037 38.421C40.9041 37.9953 41.2608 37.6382 41.6984 37.6382ZM38.2672 37.6382C38.4747 37.6385 38.6736 37.7211 38.8204 37.8678C38.9671 38.0146 39.0497 38.2135 39.05 38.421C39.05 38.8586 38.7047 39.2157 38.2672 39.2157C37.8296 39.2157 37.4725 38.8586 37.4725 38.421C37.4725 37.9953 37.8296 37.6382 38.2672 37.6382Z" fill="#E3B13C"/>
<path d="M76.1433 37.6152C76.5922 37.6152 76.9493 37.9723 76.9493 38.4212C76.9493 38.8701 76.5922 39.239 76.1433 39.239H48.4972C48.2805 39.2382 48.073 39.1517 47.9198 38.9985C47.7667 38.8454 47.6802 38.6379 47.6794 38.4212C47.6794 37.9723 48.0478 37.6152 48.4972 37.6152H76.1433ZM63.5235 59.4816C63.5235 57.9387 64.2377 56.9483 65.1709 56.488C65.5417 56.3136 65.9465 56.2232 66.3563 56.2231C66.7711 56.2231 67.1737 56.3153 67.5426 56.4994C68.4867 56.9596 69.224 57.9619 69.224 59.4816V67.3231C69.4312 67.369 69.8111 67.4612 70.1674 67.553C71.5616 67.8756 72.7239 68.1522 74.578 68.8083C75.2914 69.0618 75.9714 69.5916 76.4663 70.2367C76.9493 70.881 77.2605 71.6411 77.2605 72.3898V83.0519C77.2605 84.6643 75.9251 86 74.3009 86H66.4713C65.1128 86 63.6385 85.1363 62.7866 84.0886L57.0069 77.0186C56.0506 75.8905 55.8552 74.6925 56.1314 73.7374C56.2578 73.2998 56.4999 72.9082 56.8107 72.597C57.1214 72.2858 57.5249 72.0559 57.9738 71.9405C59.1133 71.6415 60.2874 72.1595 61.1165 72.9427L63.5231 75.0382L63.5235 59.4816ZM65.8729 57.9505C65.4699 58.1577 65.1477 58.6529 65.1477 59.482V76.835C65.1477 77.019 65.0787 77.2153 64.9397 77.3648C64.6525 77.6987 64.1337 77.7332 63.8002 77.4452L60.0574 74.1639C59.4931 73.715 58.6181 73.0926 57.9506 73.7491C57.3055 74.3825 57.7548 75.3957 58.2496 75.9713L63.9952 83.0181C64.3182 83.4443 65.3545 84.377 66.4709 84.377H74.3005C74.6518 84.377 74.9886 84.2375 75.237 83.9891C75.4854 83.7408 75.6249 83.4039 75.6249 83.0527V72.3898C75.6249 71.9982 75.4527 71.5838 75.176 71.215C74.8648 70.812 74.4509 70.4894 74.0357 70.3403C72.2859 69.7183 71.146 69.4534 69.7875 69.1309C69.5576 69.0732 69.3264 69.0159 68.7512 68.8774C68.422 68.8017 68.1291 68.6145 67.922 68.3476C67.7124 68.082 67.5986 67.7533 67.599 67.4149V59.4816C67.599 58.6756 67.2659 58.169 66.8398 57.9619C66.6898 57.8859 66.524 57.8464 66.3559 57.8465C66.1895 57.8478 66.0251 57.8832 65.8729 57.9505ZM41.8416 46.6775H52.2509C52.7807 46.6775 53.2755 46.8964 53.6212 47.2531C53.8037 47.4316 53.9486 47.6447 54.0475 47.8801C54.1464 48.1154 54.1971 48.3681 54.1968 48.6234V63.5925C54.1971 63.8477 54.1462 64.1004 54.0474 64.3357C53.9485 64.5711 53.8036 64.7842 53.6212 64.9628V64.9741C53.2565 65.3353 52.7642 65.5382 52.2509 65.5388H36.6485C36.1318 65.5384 35.6359 65.3357 35.2668 64.9741V64.9628C35.0844 64.7842 34.9395 64.5711 34.8406 64.3357C34.7418 64.1004 34.691 63.8477 34.6912 63.5925V48.6234C34.6912 48.0936 34.9101 47.5988 35.2668 47.2531C35.4475 47.0704 35.6627 46.9254 35.8999 46.8266C36.1371 46.7278 36.3915 46.6771 36.6485 46.6775H41.8416ZM46.4245 61.497C45.9756 61.497 45.6071 61.1286 45.6071 60.6793C45.6071 60.2299 45.9756 59.8733 46.4245 59.8733H49.5221C49.971 59.8733 50.3281 60.2299 50.3281 60.6793C50.3281 61.1286 49.971 61.497 49.5221 61.497H46.4245ZM47.8638 48.3012V53.8396C47.8647 54.0791 47.7953 54.3136 47.6644 54.5141C47.5334 54.7146 47.3465 54.8723 47.1269 54.9678C46.907 55.0647 46.6637 55.0956 46.4266 55.0568C46.1894 55.018 45.9687 54.9111 45.7911 54.7492L44.4785 53.5748L43.0851 54.7951C42.9031 54.9498 42.6807 55.0493 42.4441 55.0819C42.2074 55.1145 41.9664 55.0788 41.7493 54.9792C41.5304 54.887 41.3577 54.7261 41.2196 54.5303C41.0925 54.3264 41.0247 54.0912 41.0238 53.851V48.3012H36.6485C36.6059 48.3005 36.5636 48.3084 36.524 48.3242C36.4845 48.34 36.4485 48.3636 36.4181 48.3935C36.3882 48.4238 36.3647 48.4598 36.3489 48.4994C36.333 48.5389 36.3252 48.5812 36.3259 48.6238V63.5929C36.3252 63.6355 36.333 63.6778 36.3489 63.7173C36.3647 63.7569 36.3882 63.7929 36.4181 63.8232C36.4485 63.8531 36.4845 63.8767 36.524 63.8925C36.5636 63.9083 36.6059 63.9161 36.6485 63.9155H52.2509C52.2935 63.9161 52.3358 63.9083 52.3754 63.8925C52.4149 63.8767 52.4509 63.8531 52.4813 63.8232C52.5111 63.7928 52.5346 63.7568 52.5504 63.7173C52.5662 63.6777 52.5741 63.6355 52.5735 63.5929V48.6234C52.5742 48.5808 52.5664 48.5385 52.5505 48.4989C52.5347 48.4594 52.5111 48.4234 52.4813 48.393C52.4509 48.3632 52.4149 48.3396 52.3754 48.3238C52.3358 48.3079 52.2935 48.3001 52.2509 48.3008L47.8638 48.3012ZM46.2404 48.3012H42.648V53.0105L43.6725 52.124C43.8915 51.9282 44.2137 51.8246 44.5017 51.8246C44.7893 51.8246 45.0887 51.9282 45.3191 52.1358L46.2404 52.9764V48.3012Z" fill="#E3B13C"/>
<path d="M63.7688 60.3796C64.2178 60.3796 64.587 60.7367 64.587 61.1856C64.5862 61.4023 64.4997 61.6099 64.3464 61.7631C64.1932 61.9163 63.9855 62.0027 63.7688 62.0034H60.3686C59.7153 62.0028 59.0889 61.7429 58.6271 61.2809C58.1652 60.8188 57.9055 60.1924 57.9051 59.5391V55.3247C57.9051 53.9658 59.0215 52.8604 60.3686 52.8604H74.5317C75.8788 52.8604 76.9842 53.9658 76.9842 55.3247V59.5391C76.9842 60.898 75.8788 62.0034 74.5317 62.0034H68.8068C68.5902 62.0026 68.3827 61.9161 68.2296 61.7629C68.0765 61.6097 67.9901 61.4022 67.9894 61.1856C67.9894 60.7367 68.3574 60.3796 68.8068 60.3796H74.5317C74.992 60.3796 75.3609 59.9998 75.3609 59.5391V55.3247C75.3609 54.864 74.992 54.4841 74.5317 54.4841H60.3686C60.1461 54.4854 59.9331 54.5744 59.7758 54.7318C59.6185 54.8891 59.5296 55.1022 59.5285 55.3247V59.5391C59.5296 59.7616 59.6185 59.9746 59.7758 60.132C59.9331 60.2894 60.1461 60.3784 60.3686 60.3796H63.7688ZM35.5085 72.9884C35.0596 72.9884 34.6912 72.6199 34.6912 72.1706C34.6912 71.7213 35.0596 71.3646 35.5085 71.3646H39.389C39.8379 71.3646 40.2068 71.7217 40.2068 72.1706C40.2068 72.6195 39.8383 72.9884 39.389 72.9884H35.5085ZM35.5085 69.5568C35.0596 69.5568 34.6912 69.1884 34.6912 68.7508C34.6919 68.5342 34.7783 68.3267 34.9314 68.1735C35.0845 68.0203 35.2919 67.9339 35.5085 67.933H46.0215C46.4704 67.933 46.8275 68.3015 46.8275 68.7508C46.8268 68.9644 46.7417 69.169 46.5907 69.32C46.4397 69.4711 46.235 69.5562 46.0215 69.5568H35.5085Z" fill="#E3B13C"/>
<path d="M57.276 75.6252C57.7136 75.6252 58.082 75.9937 58.082 76.443C58.082 76.8923 57.7136 77.249 57.276 77.249H32.3144C32.0026 77.251 31.6938 77.1875 31.4081 77.0625C31.1224 76.9375 30.8662 76.7538 30.6561 76.5234C30.2417 76.0859 30 75.4757 30 74.8306V36.3835C30 35.0822 31.0822 34 32.3835 34H79.6043C80.9177 34 82 35.0822 82 36.3835V74.8306C82 75.4871 81.9017 76.1172 81.4414 76.5547C80.7305 77.5195 77.8839 77.249 77.2266 77.249C76.7777 77.249 76.4092 76.8919 76.4092 76.443C76.4092 75.9941 76.7772 75.6252 77.2266 75.6252C77.4455 75.6252 79.7656 75.8438 80.1231 75.3717C80.2722 75.2222 80.3762 75.0264 80.3762 74.8306V36.3835C80.3762 35.9691 80.0301 35.6234 79.6043 35.6234H32.3835C32.1824 35.6252 31.9901 35.7058 31.848 35.848C31.7058 35.9901 31.6252 36.1824 31.6234 36.3835V74.8306C31.6234 75.0609 31.7038 75.2795 31.8423 75.418C31.9691 75.5448 32.13 75.6252 32.3144 75.6252H57.276Z" fill="#E3B13C"/>
</g>
<defs>
<clipPath id="clip0_2950_2796">
<rect width="52" height="52" fill="white" transform="translate(30 34)"/>
</clipPath>
</defs>
</svg>
