<svg width="112" height="112" viewBox="0 0 112 112" fill="none" xmlns="http://www.w3.org/2000/svg">
<path d="M50.8518 2.77562C53.1927 -0.925204 58.8073 -0.92521 61.1482 2.77562L66.874 11.8277C68.4193 14.2708 71.6049 15.2604 74.357 14.1525L84.5538 10.0472C88.7227 8.3688 93.265 11.5243 92.8838 15.834L91.9515 26.3752C91.6998 29.2202 93.6686 31.8112 96.5762 32.4616L107.349 34.8712C111.754 35.8563 113.489 40.962 110.531 44.2343L103.297 52.2384C101.344 54.3987 101.344 57.6013 103.297 59.7616L110.531 67.7656C113.489 71.038 111.754 76.1437 107.349 77.1288L96.5762 79.5384C93.6686 80.1887 91.6998 82.7798 91.9515 85.6248L92.8838 96.166C93.265 100.476 88.7227 103.631 84.5538 101.953L74.357 97.8475C71.6049 96.7395 68.4193 97.7292 66.874 100.172L61.1482 109.224C58.8073 112.925 53.1927 112.925 50.8518 109.224L45.126 100.172C43.5807 97.7292 40.3951 96.7395 37.643 97.8475L27.4462 101.953C23.2773 103.631 18.735 100.476 19.1162 96.166L20.0485 85.6248C20.3002 82.7798 18.3314 80.1887 15.4238 79.5384L4.6507 77.1288C0.246253 76.1437 -1.48875 71.038 1.46893 67.7656L8.70328 59.7616C10.6558 57.6013 10.6558 54.3987 8.70328 52.2384L1.46894 44.2344C-1.48874 40.962 0.246248 35.8563 4.6507 34.8712L15.4238 32.4616C18.3314 31.8112 20.3002 29.2202 20.0485 26.3752L19.1162 15.834C18.735 11.5243 23.2773 8.36879 27.4461 10.0472L37.643 14.1525C40.3951 15.2604 43.5807 14.2708 45.126 11.8277L50.8518 2.77562Z" fill="#FFE9DD"/>
<path d="M42.179 77.8714C42.377 78.5216 42.7783 79.0912 43.324 79.4965C43.8696 79.9018 44.5309 80.1214 45.2106 80.123C45.5186 80.1232 45.825 80.0795 46.1206 79.993L66.723 73.7894L70.4306 73.3058C70.8429 73.2526 71.2406 73.1186 71.601 72.9115C71.9615 72.7044 72.2775 72.4282 72.5311 72.0988C72.7846 71.7694 72.9708 71.3932 73.0788 70.9918C73.1868 70.5904 73.2146 70.1716 73.1606 69.7594L71.2054 54.8354L77.3622 45.3922L78.8806 43.099L79.6086 41.9602C80.1196 41.1783 80.299 40.2253 80.1073 39.3111C79.9157 38.3969 79.3688 37.5962 78.5868 37.0852C77.8048 36.5743 76.8519 36.3949 75.9377 36.5865C75.0234 36.7781 74.2228 37.3251 73.7118 38.107L72.963 39.2562L71.4654 41.5442L69.7858 44.113L68.5326 34.571C68.4787 34.1592 68.3443 33.762 68.1369 33.4022C67.9295 33.0424 67.6533 32.7269 67.3239 32.4739C66.9946 32.2208 66.6186 32.0352 66.2175 31.9275C65.8164 31.8198 65.398 31.7922 64.9862 31.8462L43.1046 34.7218C42.3086 34.8246 41.5818 35.2273 41.0725 35.8477C40.5632 36.4681 40.3099 37.2594 40.3642 38.0602L34.0722 39.953C33.2697 40.1947 32.5961 40.745 32.1992 41.4832C31.8024 42.2213 31.7148 43.0868 31.9558 43.8894L42.179 77.8714ZM73.8418 40.759L75.485 41.8302L77.123 42.9014L76.4782 43.8894L73.197 41.747L73.8418 40.759ZM75.017 38.9546C75.3018 38.5188 75.748 38.214 76.2576 38.1072C76.7671 38.0004 77.2982 38.1004 77.734 38.3852C78.1698 38.67 78.4746 39.1163 78.5814 39.6258C78.6882 40.1353 78.5882 40.6664 78.3034 41.1022L77.981 41.5962L74.7206 39.4486L75.017 38.9546ZM72.3442 43.0522L73.9874 44.1234L75.6254 45.1946L65.6154 60.5242L63.9722 59.453L62.3342 58.3818L72.3442 43.0522ZM60.3842 64.0134L60.6962 63.015C61.2192 63.1503 61.6832 63.4535 62.017 63.8782L61.2266 64.5646C61.1413 64.6421 61.0328 64.6891 60.918 64.6982C60.8031 64.7073 60.6885 64.678 60.5921 64.6149C60.4958 64.5519 60.423 64.4586 60.3854 64.3497C60.3478 64.2408 60.3473 64.1226 60.3842 64.0134ZM63.1922 62.8538C62.6685 62.208 61.9557 61.7424 61.1538 61.5226L61.6738 59.8222L64.5286 61.689L63.1922 62.8538ZM42.2414 36.8798C42.3701 36.7126 42.5304 36.5723 42.7134 36.467C42.8963 36.3617 43.0981 36.2935 43.3074 36.2662L65.189 33.3958C65.26 33.3907 65.3312 33.3907 65.4022 33.3958C65.7858 33.4036 66.1539 33.5484 66.44 33.804C66.7261 34.0596 66.9114 34.4091 66.9622 34.7894L68.4806 46.1202L64.4974 52.2094L56.6662 53.2494C56.5638 53.2559 56.4636 53.2825 56.3715 53.3277C56.2793 53.3729 56.197 53.4358 56.1291 53.5128C55.9921 53.6684 55.9225 53.872 55.9356 54.0788C55.9487 54.2857 56.0434 54.4789 56.199 54.6159C56.3545 54.7529 56.5581 54.8225 56.765 54.8094H56.869L63.3742 53.9202L60.6026 58.1686C60.6017 58.1859 60.6017 58.2033 60.6026 58.2206C60.5827 58.2532 60.567 58.2881 60.5558 58.3246L60.0722 59.8846L48.9858 61.377C48.7789 61.3908 48.586 61.4862 48.4495 61.6423C48.313 61.7983 48.244 62.0022 48.2578 62.209C48.2716 62.4159 48.367 62.6088 48.523 62.7453C48.6791 62.8819 48.8829 62.9508 49.0898 62.937H49.1886L59.521 61.585L58.9074 63.5714C58.7738 64.0029 58.7842 64.466 58.9371 64.891C59.09 65.316 59.3771 65.6796 59.755 65.927C60.0931 66.1498 60.4889 66.2691 60.8938 66.2702C61.3958 66.267 61.8797 66.0823 62.2562 65.7502L66.3538 62.2038L66.3954 62.157C66.4271 62.1277 66.4551 62.0945 66.4786 62.0582L69.869 56.8582L71.6006 69.9622C71.6286 70.171 71.6149 70.3832 71.5605 70.5867C71.506 70.7902 71.4119 70.9809 71.2834 71.1478C71.159 71.3131 71.003 71.452 70.8245 71.5565C70.646 71.6609 70.4484 71.7288 70.2434 71.7562L48.341 74.6318C48.1324 74.6588 47.9205 74.6445 47.7174 74.5896C47.5143 74.5347 47.3241 74.4403 47.1575 74.3119C46.9909 74.1834 46.8512 74.0234 46.7465 73.841C46.6417 73.6585 46.5739 73.4573 46.547 73.2486L41.9242 38.0654C41.8689 37.6438 41.983 37.2175 42.2414 36.8798ZM34.5246 41.4402L40.5566 39.6254L44.9974 73.4514C45.0978 74.2093 45.469 74.9053 46.0425 75.4109C46.6159 75.9165 47.3529 76.1976 48.1174 76.2022C48.2566 76.2022 48.3957 76.1917 48.5334 76.171L57.103 75.0478L45.663 78.4902C45.2582 78.6116 44.8218 78.5676 44.4495 78.3678C44.0771 78.168 43.7992 77.8286 43.6766 77.4242L33.4482 43.4422C33.3874 43.2401 33.3669 43.028 33.3881 42.8179C33.4093 42.6079 33.4716 42.4041 33.5716 42.2182C33.6716 42.0323 33.8072 41.8679 33.9707 41.7344C34.1342 41.6009 34.3224 41.5009 34.5246 41.4402ZM50.2494 40.6082C50.2228 40.4035 50.2785 40.1966 50.4042 40.0328C50.53 39.869 50.7155 39.7618 50.9202 39.7346L63.4002 38.0914C63.6071 38.0645 63.8161 38.1209 63.9814 38.2482C64.1467 38.3754 64.2547 38.5632 64.2816 38.77C64.3085 38.9769 64.2521 39.186 64.1248 39.3513C63.9976 39.5166 63.8099 39.6245 63.603 39.6514L51.123 41.2894H51.0242C50.8346 41.2886 50.6516 41.2191 50.5092 41.0939C50.3668 40.9687 50.2745 40.7962 50.2494 40.6082ZM46.4742 48.2314C46.4611 48.1289 46.4686 48.0248 46.4961 47.9251C46.5237 47.8255 46.5708 47.7323 46.6346 47.651C46.6985 47.5697 46.7779 47.502 46.8682 47.4516C46.9585 47.4013 47.0579 47.3694 47.1606 47.3578L64.3206 45.0802C64.5275 45.0533 64.7365 45.1097 64.9018 45.237C65.0671 45.3642 65.1751 45.552 65.202 45.7588C65.2289 45.9657 65.1725 46.1748 65.0452 46.3401C64.918 46.5054 64.7303 46.6133 64.5234 46.6402L47.3478 48.9074H47.249C47.0601 48.9068 46.8779 48.8381 46.7355 48.7139C46.5932 48.5897 46.5005 48.4184 46.4742 48.2314ZM52.3034 54.5962C52.318 54.6984 52.3122 54.8025 52.2864 54.9024C52.2605 55.0023 52.215 55.0961 52.1526 55.1783C52.0902 55.2606 52.0121 55.3296 51.9229 55.3814C51.8336 55.4332 51.7349 55.4668 51.6326 55.4802L48.2682 55.9222H48.1694C47.9625 55.936 47.7586 55.8671 47.6026 55.7305C47.4466 55.594 47.3512 55.4011 47.3374 55.1942C47.3236 54.9874 47.3926 54.7835 47.5291 54.6275C47.6656 54.4714 47.8585 54.376 48.0654 54.3622L51.4298 53.9202C51.5316 53.9071 51.6349 53.9142 51.7339 53.9411C51.833 53.968 51.9257 54.0142 52.0069 54.0769C52.088 54.1397 52.156 54.2179 52.2069 54.307C52.2578 54.3962 52.2906 54.4944 52.3034 54.5962ZM49.2406 69.2602C49.214 69.0555 49.2697 68.8486 49.3954 68.6848C49.5212 68.521 49.7067 68.4138 49.9114 68.3866L55.8966 67.6014C55.999 67.5878 56.1031 67.5944 56.203 67.621C56.3029 67.6476 56.3965 67.6936 56.4786 67.7563C56.5607 67.8191 56.6296 67.8974 56.6814 67.9869C56.7332 68.0763 56.7669 68.175 56.7806 68.2774C56.7943 68.3799 56.7876 68.484 56.761 68.5838C56.7344 68.6837 56.6884 68.7773 56.6257 68.8594C56.5629 68.9415 56.4846 69.0104 56.3952 69.0623C56.3058 69.1141 56.207 69.1478 56.1046 69.1614L50.109 69.931H50.0102C49.8227 69.9304 49.6417 69.8622 49.5004 69.739C49.3591 69.6158 49.2668 69.4459 49.2406 69.2602Z" fill="#D57E5F"/>
</svg>
