<svg width="32" height="32" viewBox="-1 -1 32 32" fill="none" xmlns="http://www.w3.org/2000/svg">
<path d="M14.6347 24.6798C14.6347 26.5135 13.2556 28 11.5544 28C9.85314 28 8.47403 26.5135 8.47403 24.6798C8.47403 23.4564 9.08791 22.3876 10.0018 21.8116C9.9852 21.7642 8.66849 15.9797 6.05177 4.4582C6.03101 4.36658 5.98422 4.28423 5.91794 4.22266C5.85166 4.16108 5.76919 4.12335 5.68205 4.11474L1.98008 4.11285C1.43883 4.11279 1 3.63985 1 3.05639C1 2.49238 1.41002 2.03164 1.92632 2.00154L5.64368 2C6.71579 2 7.65223 2.77184 7.93717 3.87907L8.42186 6.01319L28.0199 6.01337C28.5612 6.01337 29 6.48637 29 7.06976C29 7.11178 28.9871 7.22188 28.9612 7.40013L26.5177 17.9639C26.4012 18.4675 25.9673 18.7958 25.5031 18.7627L11.3115 18.7665L11.8207 21.0133C11.8415 21.1049 11.8883 21.1873 11.9546 21.2488C12.0209 21.3104 12.1033 21.3481 12.1905 21.3568L23.5956 21.3596C25.2968 21.3596 26.6759 22.8461 26.6759 24.6798C26.6759 26.3983 25.4646 27.8119 23.912 27.9826C23.8069 27.9942 23.7013 28 23.5956 27.9999C21.8944 27.9999 20.5153 26.5135 20.5153 24.6798C20.5148 24.2664 20.5861 23.8566 20.7256 23.4716H14.4244C14.5638 23.8566 14.6352 24.2665 14.6347 24.6798ZM23.5957 23.4724C22.9771 23.4724 22.4756 24.013 22.4756 24.6798C22.4756 25.3465 22.9771 25.8871 23.5957 25.8871C24.2143 25.8871 24.7158 25.3465 24.7158 24.6798C24.7158 24.013 24.2143 23.4724 23.5957 23.4724ZM11.5543 23.4724C10.9357 23.4724 10.4342 24.013 10.4342 24.6798C10.4342 25.3465 10.9357 25.8871 11.5543 25.8871C12.1729 25.8871 12.6744 25.3465 12.6744 24.6798C12.6745 24.013 12.173 23.4724 11.5543 23.4724ZM26.7729 8.12598H8.90076L10.833 16.6543L24.8004 16.6537L26.7729 8.12598Z" fill="#2F87CC"/>
</svg>
