<svg width="24" height="24" viewBox="-3.5 -3.5 24 24" fill="none" xmlns="http://www.w3.org/2000/svg">
<g clip-path="url(#clip0_2564_11732)">
<path d="M16.3684 0H0.697266C0.330471 0 0.0332031 0.297268 0.0332031 0.664062C0.0332031 2.51331 0.825928 4.27879 2.20814 5.50744L5.1164 8.09237C5.36585 8.31427 5.56551 8.58645 5.70226 8.89102C5.83902 9.19558 5.90978 9.52564 5.90989 9.8595V16.3352C5.90989 16.8643 6.50134 17.1816 6.94218 16.8875L10.86 14.2758C10.951 14.2151 11.0255 14.133 11.0771 14.0366C11.1287 13.9402 11.1557 13.8326 11.1557 13.7233V9.8595C11.1558 9.52564 11.2266 9.19558 11.3634 8.89101C11.5001 8.58644 11.6998 8.31427 11.9492 8.09237L14.8574 5.50744C16.2396 4.27879 17.0323 2.51331 17.0323 0.664062C17.0323 0.297268 16.735 0 16.3684 0ZM13.975 4.51473L11.0669 7.09976C10.2793 7.79988 9.82759 8.8057 9.82759 9.85937V13.3679L7.23788 15.0943V9.85954C7.23769 9.33814 7.12717 8.82268 6.91358 8.34704C6.69999 7.8714 6.38817 7.44634 5.99861 7.09979L3.09048 4.51489C2.15847 3.68624 1.56354 2.55083 1.40426 1.32806H15.6613C15.502 2.55083 14.9072 3.68621 13.975 4.51473Z" fill="#2F87CC"/>
</g>
<defs>
<clipPath id="clip0_2564_11732">
<rect width="17" height="17" fill="white"/>
</clipPath>
</defs>
</svg>
