<svg width="24" height="24" viewBox="-3.5 -3.5 24 24" fill="none" xmlns="http://www.w3.org/2000/svg">
<g clip-path="url(#clip0_2564_11766)">
<path d="M0.456017 3.6179C0.456022 3.51245 0.487375 3.40938 0.546089 3.32178C0.604802 3.23418 0.688229 3.16601 0.785769 3.12593L8.29787 0.0398885C8.42736 -0.0132962 8.5726 -0.0132962 8.70209 0.0398885L16.2142 3.12593C16.3117 3.16601 16.3952 3.23417 16.4539 3.32177C16.5126 3.40937 16.5439 3.51245 16.5439 3.6179V13.3821C16.5439 13.4876 16.5126 13.5906 16.4539 13.6782C16.3952 13.7658 16.3117 13.834 16.2142 13.8741L8.70209 16.9601C8.57283 17.0133 8.42779 17.0133 8.29854 16.9601C8.29212 16.958 8.57654 17.0746 0.785769 13.8741C0.688223 13.834 0.604793 13.7658 0.546078 13.6782C0.487364 13.5906 0.456015 13.4876 0.456017 13.3821V3.6179ZM8.49998 6.17368L11.2679 5.0366L5.28612 2.42714L2.33308 3.64027L8.49998 6.17368ZM15.4802 4.45611L13.0921 5.43716V8.20495C13.0921 8.49867 12.854 8.73681 12.5603 8.73681C12.2666 8.73681 12.0284 8.49867 12.0284 8.20495V5.87415L9.03184 7.10517V15.6746L15.4802 13.0256V4.45611ZM8.49998 1.10683L6.65623 1.86426L12.638 4.47373L14.6669 3.64024L8.49998 1.10683ZM7.96812 7.10517L1.51973 4.45611V13.0256L7.96812 15.6746V7.10517Z" fill="#2F87CC"/>
</g>
<defs>
<clipPath id="clip0_2564_11766">
<rect width="17" height="17" fill="white" transform="matrix(-1 0 0 1 17 0)"/>
</clipPath>
</defs>
</svg>
