<svg width="24" height="24" viewBox="0 0 24 24" fill="none" xmlns="http://www.w3.org/2000/svg">
<path d="M6.6 23H17.4C19.3851 23 21 21.3552 21 19.3333V1.91667C21 1.41067 20.5968 1 20.1 1H3.9C3.4032 1 3 1.41067 3 1.91667V19.3333C3 21.3552 4.61494 23 6.6 23ZM4.8 2.83333H19.2V19.3333C19.2 20.3444 18.3927 21.1667 17.4 21.1667H6.6C5.6073 21.1667 4.8 20.3444 4.8 19.3333V2.83333Z" fill="#2F87CC"/>
<path d="M9.75 10H14.25C15.7666 10 17 8.87875 17 7.5C17 6.12125 15.7666 5 14.25 5H9.75C8.23337 5 7 6.12125 7 7.5C7 8.87875 8.23337 10 9.75 10ZM9.75 6.81818H14.25C14.6636 6.81818 15 7.12403 15 7.5C15 7.87597 14.6636 8.18182 14.25 8.18182H9.75C9.33644 8.18182 9 7.87597 9 7.5C9 7.12403 9.33644 6.81818 9.75 6.81818Z" fill="#2F87CC"/>
</svg>
