<svg width="24" height="24" viewBox="-1.5 -1.5 24 24" fill="none" xmlns="http://www.w3.org/2000/svg">
<path d="M19.9615 17.5004H6.03889C5.46507 17.5004 5 17.0527 5 16.5003C5 15.948 5.46507 15.5004 6.03889 15.5004H19.9611C20.5349 15.5004 21 15.948 21 16.5003C21 17.0527 20.5353 17.5004 19.9615 17.5004Z" fill="#2F87CC"/>
<path d="M19.9615 11.5H6.03889C5.46507 11.5 5 11.0523 5 10.5C5 9.94766 5.46507 9.5 6.03889 9.5H19.9611C20.5349 9.5 21 9.94766 21 10.5C21.0003 11.0523 20.5353 11.5 19.9615 11.5Z" fill="#2F87CC"/>
<path d="M19.9615 5.5H6.03889C5.46507 5.5 5 5.05234 5 4.5C5 3.94766 5.46507 3.5 6.03889 3.5H19.9611C20.5349 3.5 21 3.94766 21 4.5C21 5.05234 20.5353 5.5 19.9615 5.5Z" fill="#2F87CC"/>
<path d="M1.5 6.00037C2.32843 6.00037 3 5.32879 3 4.50037C3 3.67194 2.32843 3.00037 1.5 3.00037C0.671574 3.00037 0 3.67194 0 4.50037C0 5.32879 0.671574 6.00037 1.5 6.00037Z" fill="#2F87CC"/>
<path d="M1.5 12.0004C2.32843 12.0004 3 11.3288 3 10.5004C3 9.67195 2.32843 9.00037 1.5 9.00037C0.671574 9.00037 0 9.67195 0 10.5004C0 11.3288 0.671574 12.0004 1.5 12.0004Z" fill="#2F87CC"/>
<path d="M1.5 18.0004C2.32843 18.0004 3 17.3287 3 16.5003C3 15.6719 2.32843 15.0004 1.5 15.0004C0.671574 15.0004 0 15.6719 0 16.5003C0 17.3287 0.671574 18.0004 1.5 18.0004Z" fill="#2F87CC"/>
</svg>
