<svg width="93" height="86" viewBox="0 0 93 86" fill="none" xmlns="http://www.w3.org/2000/svg">
<path d="M75.1688 21.9006C74.1937 16.1363 71.3244 10.8757 66.9362 6.88358C62.0604 2.44376 55.7218 0 49.1207 0C44.0198 0 39.0502 1.45507 34.7932 4.1973C31.2489 6.47318 28.3046 9.5512 26.223 13.1702C25.3229 13.0023 24.3852 12.909 23.4476 12.909C15.4775 12.909 8.98885 19.3636 8.98885 27.2918C8.98885 28.3178 9.10137 29.3065 9.28891 30.2765C4.13178 34.0075 1 40.0143 1 46.4129C1 51.5802 2.93158 56.5983 6.45718 60.5718C10.0765 64.6385 14.8586 67.0449 19.9595 67.3247H36.2372C37.6437 67.3247 38.7689 66.2055 38.7689 64.8064C38.7689 63.4073 37.6437 62.288 36.2372 62.288H20.1845C12.5145 61.8216 6.06336 54.5649 6.06336 46.3942C6.06336 41.1149 8.91384 36.1901 13.5084 33.5225C14.5773 32.9069 15.0274 31.6197 14.6148 30.4631C14.2397 29.4557 14.0522 28.3924 14.0522 27.2545C14.0522 22.1058 18.2717 17.9085 23.4476 17.9085C24.554 17.9085 25.6417 18.095 26.6544 18.4681C27.8921 18.9158 29.261 18.3562 29.8236 17.181C33.3305 9.77505 40.9068 4.99945 49.1394 4.99945C60.2038 4.99945 69.3366 13.2448 70.3868 24.1765C70.4993 25.3144 71.3619 26.2285 72.4871 26.415C80.8323 27.8328 87.1334 35.4999 87.1334 44.2489C87.1334 53.5203 79.8009 61.5791 70.7618 62.2693H56.9407C55.5342 62.2693 54.4091 63.3886 54.4091 64.7877C54.4091 66.1868 55.5342 67.3061 56.9407 67.3061H71.0431C76.7629 66.8957 82.1075 64.284 86.0832 59.9188C90.0401 55.591 92.1967 50.0319 92.1967 44.2489C92.178 33.7836 84.9955 24.4749 75.1688 21.9006Z" fill="#2F87CC"/>
<path d="M61.3912 49.7267C62.3851 48.738 62.3851 47.1523 61.3912 46.1636L47.9827 32.8255C47.5139 32.3592 46.8575 32.0793 46.2011 32.0793C45.5448 32.0793 44.8884 32.3405 44.4196 32.8255L31.0111 46.1636C30.0171 47.1523 30.0171 48.738 31.0111 49.7267C31.4986 50.2117 32.155 50.4729 32.7926 50.4729C33.4302 50.4729 34.0866 50.2304 34.5742 49.7267L43.6695 40.6792V82.2604C43.6695 83.6595 44.7947 84.7788 46.2011 84.7788C47.6076 84.7788 48.7328 83.6595 48.7328 82.2604V40.6792L57.8281 49.7267C58.8033 50.7154 60.3973 50.7154 61.3912 49.7267Z" fill="#2F87CC"/>
</svg>
