<svg width="40" height="40" viewBox="0 0 40 40" fill="none" xmlns="http://www.w3.org/2000/svg">
<path d="M38.4262 15.004C38.4331 15.116 38.4231 15.2284 38.3966 15.3374L35.9293 25.2065C35.8688 25.4482 35.7296 25.6628 35.5336 25.8166C35.3376 25.9705 35.0961 26.0547 34.847 26.056L20.0432 26.1308H5.23364C4.98337 26.1307 4.7403 26.047 4.54311 25.8929C4.34593 25.7388 4.20596 25.5231 4.14549 25.2802L1.67821 15.3737C1.65084 15.2618 1.6409 15.1463 1.64875 15.0314C0.69428 14.7307 0 13.8375 0 12.785C0 11.4863 1.05645 10.4298 2.35514 10.4298C3.65383 10.4298 4.71028 11.4863 4.71028 12.785C4.71028 13.5163 4.37518 14.1707 3.85047 14.603L6.93951 17.7154C7.72022 18.5021 8.80359 18.9531 9.91193 18.9531C11.2224 18.9531 12.4719 18.3307 13.2588 17.288L18.3354 10.5614C18.1163 10.3432 17.9425 10.0838 17.824 9.7982C17.7055 9.51258 17.6446 9.20636 17.6449 8.89713C17.6449 7.59844 18.7013 6.54199 20 6.54199C21.2987 6.54199 22.3551 7.59844 22.3551 8.89713C22.3551 9.52696 22.1051 10.0986 21.7009 10.5217C21.7023 10.5234 21.7039 10.5249 21.7053 10.5269L26.7451 17.272C27.5317 18.3247 28.7856 18.9532 30.0999 18.9532C31.2184 18.9532 32.2702 18.5176 33.0611 17.7266L36.1696 14.6181C35.6338 14.186 35.2897 13.5253 35.2897 12.785C35.2897 11.4863 36.3462 10.4298 37.6449 10.4298C38.9436 10.4298 40 11.4863 40 12.785C40 13.8094 39.3413 14.6808 38.4262 15.004ZM35.6885 29.6448C35.6885 29.3474 35.5704 29.0621 35.36 28.8518C35.1497 28.6415 34.8645 28.5233 34.567 28.5233H5.55768C5.26024 28.5233 4.97499 28.6415 4.76467 28.8518C4.55434 29.0621 4.43619 29.3474 4.43619 29.6448V32.3364C4.43619 32.6338 4.55434 32.9191 4.76467 33.1294C4.97499 33.3397 5.26024 33.4579 5.55768 33.4579H34.567C34.8645 33.4579 35.1497 33.3397 35.36 33.1294C35.5704 32.9191 35.6885 32.6338 35.6885 32.3364V29.6448Z" fill="white"/>
</svg>
