<svg width="25" height="25" viewBox="0 0 25 25" fill="none" xmlns="http://www.w3.org/2000/svg">
<path d="M24.0164 9.34461C24.0207 9.41532 24.0144 9.48629 23.9979 9.55513L22.4558 15.7885C22.418 15.9411 22.331 16.0767 22.2085 16.1738C22.086 16.271 21.935 16.3242 21.7793 16.325L12.527 16.3722H3.27103C3.11461 16.3722 2.96269 16.3193 2.83944 16.222C2.7162 16.1246 2.62873 15.9884 2.59093 15.835L1.04888 9.57808C1.03177 9.5074 1.02556 9.43448 1.03047 9.36189C0.433925 9.17197 0 8.60785 0 7.94306C0 7.12281 0.66028 6.45556 1.47196 6.45556C2.28364 6.45556 2.94393 7.12281 2.94393 7.94306C2.94393 8.40498 2.73449 8.81827 2.40654 9.09131L4.3372 11.0571C4.82514 11.554 5.50224 11.8388 6.19495 11.8388C7.01402 11.8388 7.79495 11.4457 8.28673 10.7872L11.4596 6.53867C11.3227 6.40083 11.2141 6.23701 11.14 6.05661C11.066 5.87622 11.0279 5.68281 11.028 5.4875C11.028 4.66725 11.6883 4 12.5 4C13.3117 4 13.972 4.66725 13.972 5.4875C13.972 5.8853 13.8157 6.24636 13.5631 6.51354C13.5639 6.51468 13.565 6.51562 13.5658 6.51685L16.7157 10.7771C17.2073 11.4419 17.991 11.8389 18.8124 11.8389C19.5115 11.8389 20.1689 11.5638 20.6632 11.0642L22.606 9.10085C22.2711 8.82791 22.0561 8.41065 22.0561 7.94306C22.0561 7.12281 22.7164 6.45556 23.528 6.45556C24.3397 6.45556 25 7.12281 25 7.94306C25 8.59009 24.5883 9.14042 24.0164 9.34461ZM22.3053 18.5917C22.3053 18.4038 22.2315 18.2236 22.1 18.0908C21.9686 17.958 21.7903 17.8833 21.6044 17.8833H3.47355C3.28765 17.8833 3.10937 17.958 2.97792 18.0908C2.84647 18.2236 2.77262 18.4038 2.77262 18.5917V20.2917C2.77262 20.4795 2.84647 20.6597 2.97792 20.7925C3.10937 20.9254 3.28765 21 3.47355 21H21.6044C21.7903 21 21.9686 20.9254 22.1 20.7925C22.2315 20.6597 22.3053 20.4795 22.3053 20.2917V18.5917Z" fill="#2F87CC"/>
</svg>
