<svg width="36" height="36" viewBox="0 0 36 36" fill="none" xmlns="http://www.w3.org/2000/svg">
<path d="M15.6972 8.32624C16.0445 8.32624 16.326 8.04471 16.326 7.69742C16.326 7.35014 16.0445 7.0686 15.6972 7.0686C15.3499 7.0686 15.0684 7.35014 15.0684 7.69742C15.0684 8.04471 15.3499 8.32624 15.6972 8.32624Z" fill="#2F87CC"/>
<path d="M21.8007 8.32624C22.148 8.32624 22.4295 8.04471 22.4295 7.69742C22.4295 7.35014 22.148 7.0686 21.8007 7.0686C21.4534 7.0686 21.1719 7.35014 21.1719 7.69742C21.1719 8.04471 21.4534 8.32624 21.8007 8.32624Z" fill="#2F87CC"/>
<path d="M35.0462 17.4467C34.7048 17.2147 34.1143 16.8204 31.4412 18.3836L30.5797 11.8087C30.5681 11.5102 30.442 11.2276 30.2276 11.0195C30.0133 10.8115 29.727 10.6939 29.4283 10.6913H25.7786L25.2039 6.32976C25.1899 5.96696 25.0367 5.62349 24.7762 5.37059C24.5157 5.1177 24.1678 4.97479 23.8048 4.9715H23.2313C23.0588 3.90688 22.513 2.9384 21.6916 2.23943C20.8703 1.54046 19.8269 1.15662 18.7484 1.15662C17.6699 1.15662 16.6266 1.54046 15.8052 2.23943C14.9839 2.9384 14.4381 3.90688 14.2656 4.9715H13.6984C13.3433 4.97173 13.0017 5.10702 12.7428 5.34994C12.4839 5.59284 12.3271 5.92517 12.3043 6.27945L10.6932 18.5383C9.63601 18.7933 8.64225 19.2622 7.77326 19.916C6.90426 20.5699 6.17847 21.3949 5.64066 22.3402C5.42929 22.0869 5.12672 21.9271 4.7984 21.8952C4.47008 21.8633 4.1424 21.9619 3.88625 22.1698L0.95657 24.5423C0.828197 24.6462 0.721551 24.7744 0.642722 24.9195C0.563893 25.0647 0.514424 25.2239 0.49714 25.3882C0.479856 25.5524 0.495095 25.7185 0.541988 25.8769C0.588881 26.0352 0.666509 26.1828 0.770439 26.3112L7.30012 34.3745C7.40377 34.5034 7.53195 34.6103 7.67724 34.6892C7.82253 34.7681 7.98203 34.8174 8.14651 34.8342C8.191 34.839 8.23571 34.8413 8.28045 34.8411C8.56788 34.8416 8.84665 34.7427 9.06962 34.5613L11.9999 32.1881C12.246 31.9875 12.407 31.7011 12.4504 31.3865C12.4938 31.072 12.4164 30.7526 12.2338 30.4928C14.2934 29.7962 16.504 29.6742 18.6277 30.1401C19.3925 30.277 20.1664 30.3571 20.943 30.3796H20.9707C27.301 30.3796 34.3476 22.5194 35.3795 19.1684C35.6958 18.1434 35.3726 17.6655 35.0462 17.4454V17.4467ZM30.2684 19.1112C29.4258 19.6589 28.426 20.3594 27.2407 21.2441C27.1613 21.0277 27.0333 20.8323 26.8665 20.6732C26.266 20.0978 25.1291 19.8746 23.4866 20.011C23.015 20.05 22.3258 20.0613 21.5976 20.0437L22.654 11.9489H29.3321L30.2684 19.1112ZM18.7484 2.41598C19.4949 2.41147 20.2203 2.66253 20.8043 3.12743C21.3883 3.59233 21.7956 4.24307 21.9586 4.9715H15.5389C15.7018 4.24318 16.1091 3.59251 16.6929 3.12763C17.2768 2.66274 18.0021 2.41161 18.7484 2.41598ZM13.5563 6.39138C13.5552 6.35143 13.5693 6.31257 13.5956 6.28251C13.622 6.25245 13.6586 6.2334 13.6984 6.22915H23.8042C23.8784 6.22915 23.9425 6.30146 23.9513 6.44295L24.5097 10.6913H22.5591C22.2684 10.6908 21.9883 10.8006 21.7753 10.9986C21.5623 11.1965 21.4323 11.4678 21.4115 11.7577L20.3362 19.9827C19.7271 19.952 19.1223 19.8642 18.5296 19.7205C18.0661 19.5864 17.6129 19.4193 17.1732 19.2206C16.5629 18.9413 15.9214 18.7361 15.2622 18.6094C14.1884 18.3669 13.0856 18.2779 11.9867 18.3453L13.5563 6.39138ZM8.27793 33.5841L1.74826 25.5207L4.67856 23.1476L5.24324 23.8456L5.24764 23.8506L10.7335 30.6236L10.7354 30.6261L11.2089 31.2109L8.27793 33.5841ZM32.1687 22.0905C29.5748 25.3378 25.0895 29.1226 20.9719 29.1226H20.9468C20.2324 29.0986 19.5206 29.0231 18.817 28.8969C16.345 28.3631 13.7712 28.5586 11.4082 29.4597L6.48705 23.3828C8.31063 20.167 11.0976 19.0036 14.9994 19.8387C15.5756 19.9477 16.1363 20.1267 16.6689 20.372C17.1568 20.5927 17.6599 20.778 18.1743 20.9266C19.9564 21.2793 21.7776 21.3931 23.5897 21.2649C25.363 21.1146 25.8805 21.4699 25.9962 21.5812C26.0255 21.6064 26.0482 21.6383 26.0625 21.6742C26.0767 21.7102 26.082 21.749 26.078 21.7874C26.0616 22.1962 24.9411 23.2708 23.4853 23.8594C22.4711 24.27 20.8959 24.1222 19.3722 23.9808C17.9077 23.8437 16.5249 23.7135 15.4893 24.0462C15.4106 24.0713 15.3377 24.1118 15.2746 24.1651C15.2116 24.2185 15.1597 24.2838 15.1219 24.3572C15.0841 24.4306 15.0611 24.5108 15.0543 24.5931C15.0475 24.6754 15.0569 24.7582 15.0821 24.8369C15.1073 24.9156 15.1477 24.9885 15.2011 25.0515C15.2544 25.1145 15.3197 25.1664 15.3931 25.2043C15.4666 25.2421 15.5467 25.265 15.629 25.2719C15.7113 25.2787 15.7942 25.2693 15.8728 25.2441C16.6639 24.9925 17.9813 25.1139 19.2553 25.2327C20.0633 25.3082 20.8845 25.3849 21.6643 25.3849C22.4444 25.4113 23.2224 25.2892 23.957 25.0252C24.8626 24.6523 25.6944 24.1205 26.4131 23.4551C32.2014 18.9565 33.8728 18.5169 34.252 18.4874C34.2086 18.9194 33.6999 20.1733 32.1687 22.0905Z" fill="#2F87CC"/>
<path d="M25.9935 16.4299C24.4906 16.4299 23.2676 14.9497 23.2676 13.1311C23.2676 12.9644 23.3338 12.8044 23.4518 12.6865C23.5697 12.5686 23.7296 12.5023 23.8964 12.5023C24.0632 12.5023 24.2231 12.5686 24.341 12.6865C24.459 12.8044 24.5252 12.9644 24.5252 13.1311C24.5252 14.2379 25.1981 15.1723 25.9935 15.1723C26.7896 15.1723 27.4618 14.2379 27.4618 13.1311C27.4618 12.9644 27.5281 12.8044 27.646 12.6865C27.7639 12.5686 27.9239 12.5023 28.0906 12.5023C28.2574 12.5023 28.4174 12.5686 28.5353 12.6865C28.6532 12.8044 28.7195 12.9644 28.7195 13.1311C28.7195 14.9497 27.497 16.4299 25.9935 16.4299Z" fill="#2F87CC"/>
</svg>
