<svg width="37" height="38" viewBox="0 0 37 38" fill="none" xmlns="http://www.w3.org/2000/svg">
<g clip-path="url(#clip0_2564_4923)">
<path d="M35.8131 25.8494L29.9325 19.2779C29.8028 19.1322 29.6437 19.0156 29.4657 18.9357C29.2877 18.8559 29.0948 18.8146 28.8997 18.8145H23.6809C23.6486 18.8145 23.6182 18.8216 23.5866 18.8242V15.7608C23.5861 15.3935 23.4399 15.0413 23.1802 14.7816C22.9204 14.5218 22.5683 14.3757 22.2009 14.3752H17.6142C18.6076 12.2612 19.345 10.1174 19.345 8.39572C19.345 4.24784 16.1446 0.872925 12.2119 0.872925C8.27924 0.872925 5.07753 4.24849 5.07753 8.39637C5.07753 10.1181 5.81559 12.2612 6.80829 14.3758H2.22223C1.85478 14.3762 1.50246 14.5222 1.24258 14.782C0.982691 15.0418 0.836451 15.394 0.835938 15.7615V32.7802C0.836279 33.1478 0.982424 33.5003 1.24231 33.7603C1.5022 34.0203 1.8546 34.1666 2.22223 34.1671H4.56373C4.62852 34.9735 4.99461 35.7259 5.58911 36.2745C6.18361 36.8232 6.96292 37.1278 7.7719 37.1278C8.58088 37.1278 9.36019 36.8232 9.95469 36.2745C10.5492 35.7259 10.9153 34.9735 10.9801 34.1671H25.2824C25.3472 34.9735 25.7133 35.7259 26.3078 36.2745C26.9023 36.8232 27.6816 37.1278 28.4906 37.1278C29.2996 37.1278 30.0789 36.8232 30.6734 36.2745C31.2679 35.7259 31.634 34.9735 31.6988 34.1671H34.7796C35.1473 34.1666 35.4997 34.0203 35.7596 33.7603C36.0194 33.5003 36.1656 33.1478 36.1659 32.7802V26.7736C36.166 26.4326 36.0404 26.1035 35.8131 25.8494ZM33.7436 25.4745H28.8603C28.8355 25.4744 28.8117 25.4644 28.7942 25.4469C28.7767 25.4294 28.7667 25.4056 28.7666 25.3808V23.1608C28.7667 23.1361 28.7767 23.1124 28.7943 23.095C28.8118 23.0775 28.8355 23.0678 28.8603 23.0678H31.5896L33.7436 25.4745ZM12.2119 2.16679C15.4324 2.16679 18.0524 4.96134 18.0524 8.39701C18.0524 11.4733 15.0594 16.9009 12.2113 21.0268C9.36371 16.9009 6.3701 11.4733 6.3701 8.39701C6.3701 4.96134 8.9908 2.16679 12.2119 2.16679ZM7.7719 35.8345C7.38754 35.8345 7.0118 35.7206 6.69221 35.507C6.37263 35.2935 6.12354 34.99 5.97645 34.6348C5.82936 34.2797 5.79087 33.889 5.86586 33.512C5.94084 33.135 6.12593 32.7887 6.39772 32.517C6.66951 32.2452 7.01579 32.0601 7.39277 31.9851C7.76975 31.9101 8.1605 31.9486 8.5156 32.0957C8.87071 32.2428 9.17423 32.4919 9.38777 32.8115C9.60131 33.131 9.71529 33.5068 9.71529 33.8911C9.71478 34.4065 9.50977 34.9006 9.14529 35.265C8.78081 35.6293 8.28663 35.8342 7.77126 35.8345H7.7719ZM22.294 32.8745H10.8295C10.6195 32.2292 10.2107 31.6668 9.6616 31.268C9.11247 30.8692 8.45122 30.6544 7.77255 30.6544C7.09388 30.6544 6.43263 30.8692 5.8835 31.268C5.33438 31.6668 4.92556 32.2292 4.71561 32.8745H2.22223C2.20992 32.8745 2.19773 32.8721 2.18636 32.8674C2.17499 32.8627 2.16466 32.8558 2.15596 32.8471C2.14726 32.8384 2.14036 32.8281 2.13565 32.8167C2.13094 32.8053 2.12851 32.7931 2.12851 32.7808V15.7621C2.12851 15.7498 2.13094 15.7377 2.13566 15.7263C2.14038 15.715 2.14729 15.7047 2.156 15.6961C2.16471 15.6874 2.17505 15.6806 2.18641 15.6759C2.19778 15.6713 2.20995 15.669 2.22223 15.669H7.44423C8.59033 17.8385 9.86985 19.9347 11.2754 21.9458C11.3797 22.0978 11.5194 22.222 11.6824 22.3079C11.8455 22.3938 12.027 22.4387 12.2113 22.4387C12.3955 22.4387 12.577 22.3938 12.7401 22.3079C12.9031 22.222 13.0428 22.0978 13.1471 21.9458C14.5528 19.9347 15.8325 17.8384 16.9789 15.669H22.2009C22.2256 15.669 22.2493 15.6789 22.2667 15.6963C22.2842 15.7138 22.294 15.7374 22.294 15.7621V32.8752V32.8745ZM28.49 35.8345C28.1056 35.8344 27.73 35.7203 27.4104 35.5067C27.0909 35.2931 26.842 34.9895 26.695 34.6344C26.548 34.2793 26.5096 33.8885 26.5846 33.5116C26.6597 33.1347 26.8448 32.7885 27.1167 32.5167C27.3885 32.245 27.7347 32.06 28.1117 31.985C28.4887 31.9101 28.8794 31.9486 29.2345 32.0957C29.5895 32.2429 29.893 32.4919 30.1065 32.8115C30.32 33.1311 30.434 33.5068 30.434 33.8911C30.4335 34.4065 30.2285 34.9006 29.864 35.265C29.4995 35.6293 29.0053 35.8342 28.49 35.8345ZM34.8734 32.7808C34.8734 32.7931 34.8711 32.8053 34.8665 32.8167C34.8618 32.8281 34.855 32.8385 34.8464 32.8473C34.8377 32.856 34.8274 32.863 34.8161 32.8678C34.8048 32.8726 34.7926 32.8751 34.7803 32.8752H31.5469C31.337 32.2298 30.9281 31.6674 30.379 31.2686C29.8299 30.8698 29.1686 30.655 28.49 30.655C27.8113 30.655 27.15 30.8698 26.6009 31.2686C26.0518 31.6674 25.643 32.2298 25.433 32.8752H23.5872V20.2015C23.5873 20.1892 23.5898 20.177 23.5946 20.1657C23.5994 20.1543 23.6064 20.144 23.6151 20.1354C23.6239 20.1267 23.6343 20.1199 23.6457 20.1153C23.6571 20.1107 23.6693 20.1083 23.6816 20.1084H28.9004C28.9135 20.1085 28.9264 20.1114 28.9383 20.1168C28.9502 20.1223 28.9609 20.1302 28.9695 20.1401L30.4334 21.7758H28.8609C28.4934 21.7763 28.1411 21.9226 27.8812 22.1824C27.6214 22.4423 27.4752 22.7946 27.4746 23.1621V25.3815C27.475 25.7491 27.6211 26.1016 27.881 26.3616C28.1409 26.6216 28.4933 26.7679 28.8609 26.7684H34.8714L34.874 26.7749L34.8734 32.7808Z" fill="#2F87CC"/>
<path d="M15.2906 8.00665C15.2906 7.39767 15.1101 6.80237 14.7717 6.29603C14.4334 5.78969 13.9525 5.39506 13.3898 5.16204C12.8272 4.92903 12.2081 4.86809 11.6108 4.98694C11.0136 5.1058 10.4649 5.3991 10.0344 5.82976C9.60381 6.26042 9.31062 6.80909 9.1919 7.40638C9.07317 8.00368 9.13423 8.62276 9.36737 9.18535C9.6005 9.74794 9.99524 10.2288 10.5016 10.567C11.0081 10.9052 11.6034 11.0857 12.2124 11.0856C13.0286 11.0845 13.8111 10.7598 14.3881 10.1826C14.9652 9.6054 15.2898 8.82286 15.2906 8.00665ZM10.4254 8.00665C10.4254 7.65338 10.5301 7.30803 10.7264 7.01428C10.9227 6.72053 11.2016 6.49157 11.528 6.35635C11.8544 6.22113 12.2135 6.18571 12.56 6.25459C12.9065 6.32346 13.2248 6.49353 13.4746 6.74329C13.7245 6.99305 13.8947 7.31128 13.9637 7.65776C14.0327 8.00423 13.9974 8.36339 13.8623 8.68981C13.7272 9.01623 13.4983 9.29526 13.2046 9.49163C12.911 9.68799 12.5657 9.79287 12.2124 9.79299C11.7387 9.79248 11.2846 9.60413 10.9496 9.26926C10.6146 8.93438 10.4261 8.48032 10.4254 8.00665Z" fill="#2F87CC"/>
</g>
<defs>
<clipPath id="clip0_2564_4923">
<rect width="37" height="37" fill="white" transform="translate(0 0.5)"/>
</clipPath>
</defs>
</svg>
