<svg width="26" height="26" viewBox="0 0 26 26" fill="none" xmlns="http://www.w3.org/2000/svg">
<path fill-rule="evenodd" clip-rule="evenodd" d="M22.4779 21.6665C22.4779 22.4563 22.1637 23.2146 21.6058 23.7736C21.0465 24.3317 20.2888 24.6453 19.4987 24.6457H6.4987C5.70895 24.6457 4.95061 24.3315 4.39161 23.7736C3.83348 23.2143 3.51986 22.4566 3.51953 21.6665V4.33317C3.51953 3.54342 3.8337 2.78509 4.39161 2.22609C4.95085 1.66795 5.70859 1.35434 6.4987 1.354H15.8002C16.3029 1.354 16.7849 1.55334 17.1403 1.90975L21.9221 6.69159C22.2785 7.04692 22.4779 7.529 22.4779 8.03167V21.6665ZM20.8529 21.6665V8.03167C20.8529 7.99608 20.846 7.96083 20.8324 7.92793C20.8188 7.89502 20.7989 7.86512 20.7738 7.83992L15.9919 3.05809C15.9668 3.03295 15.9368 3.01303 15.9039 2.99946C15.871 2.98589 15.8358 2.97894 15.8002 2.979H6.4987C6.13973 2.97958 5.79562 3.12243 5.54179 3.37626C5.28796 3.63009 5.1451 3.9742 5.14453 4.33317V21.6665C5.1451 22.0255 5.28796 22.3696 5.54179 22.6234C5.79562 22.8772 6.13973 23.0201 6.4987 23.0207H19.4987C19.8577 23.0201 20.2018 22.8772 20.4556 22.6234C20.7094 22.3696 20.8523 22.0255 20.8529 21.6665Z" fill="#2F87CC"/>
<path fill-rule="evenodd" clip-rule="evenodd" d="M15.4349 2.70801C15.4349 2.49252 15.5205 2.28586 15.6729 2.13348C15.8252 1.98111 16.0319 1.89551 16.2474 1.89551C16.4629 1.89551 16.6695 1.98111 16.8219 2.13348C16.9743 2.28586 17.0599 2.49252 17.0599 2.70801V6.49967C17.0599 6.64917 17.1812 6.77051 17.3307 6.77051H21.1224C21.3379 6.77051 21.5445 6.85611 21.6969 7.00848C21.8493 7.16086 21.9349 7.36752 21.9349 7.58301C21.9349 7.7985 21.8493 8.00516 21.6969 8.15753C21.5445 8.30991 21.3379 8.39551 21.1224 8.39551H17.3307C16.8279 8.39551 16.3457 8.19577 15.9902 7.84023C15.6346 7.48469 15.4349 7.00248 15.4349 6.49967V2.70801ZM8.66406 12.1872C8.44857 12.1872 8.24191 12.1016 8.08954 11.9492C7.93716 11.7968 7.85156 11.5902 7.85156 11.3747C7.85156 11.1592 7.93716 10.9525 8.08954 10.8002C8.24191 10.6478 8.44857 10.5622 8.66406 10.5622H17.3307C17.5462 10.5622 17.7529 10.6478 17.9053 10.8002C18.0576 10.9525 18.1432 11.1592 18.1432 11.3747C18.1432 11.5902 18.0576 11.7968 17.9053 11.9492C17.7529 12.1016 17.5462 12.1872 17.3307 12.1872H8.66406ZM8.66406 15.9788C8.44857 15.9788 8.24191 15.8932 8.08954 15.7409C7.93716 15.5885 7.85156 15.3818 7.85156 15.1663C7.85156 14.9509 7.93716 14.7442 8.08954 14.5918C8.24191 14.4394 8.44857 14.3538 8.66406 14.3538H17.3307C17.5462 14.3538 17.7529 14.4394 17.9053 14.5918C18.0576 14.7442 18.1432 14.9509 18.1432 15.1663C18.1432 15.3818 18.0576 15.5885 17.9053 15.7409C17.7529 15.8932 17.5462 15.9788 17.3307 15.9788H8.66406ZM8.66406 19.7705C8.44857 19.7705 8.24191 19.6849 8.08954 19.5325C7.93716 19.3802 7.85156 19.1735 7.85156 18.958C7.85156 18.7425 7.93716 18.5359 8.08954 18.3835C8.24191 18.2311 8.44857 18.1455 8.66406 18.1455H13.5391C13.7546 18.1455 13.9612 18.2311 14.1136 18.3835C14.266 18.5359 14.3516 18.7425 14.3516 18.958C14.3516 19.1735 14.266 19.3802 14.1136 19.5325C13.9612 19.6849 13.7546 19.7705 13.5391 19.7705H8.66406Z" fill="#2F87CC"/>
</svg>
