<svg width="24" height="24" viewBox="-3.5 -3.5 24 24" fill="none" xmlns="http://www.w3.org/2000/svg">
<g clip-path="url(#clip0_3019_20198)">
<path d="M7.79297 2.8335H2.83464C2.45891 2.8335 2.09858 2.98275 1.8329 3.24843C1.56722 3.5141 1.41797 3.87444 1.41797 4.25016V14.1668C1.41797 14.5426 1.56722 14.9029 1.8329 15.1686C2.09858 15.4342 2.45891 15.5835 2.83464 15.5835H12.7513C13.127 15.5835 13.4874 15.4342 13.753 15.1686C14.0187 14.9029 14.168 14.5426 14.168 14.1668V9.2085" stroke="#2F87CC" stroke-width="1.5" stroke-linecap="round" stroke-linejoin="round"/>
<path d="M13.1055 1.77067C13.3873 1.48888 13.7695 1.33057 14.168 1.33057C14.5665 1.33057 14.9487 1.48888 15.2305 1.77067C15.5123 2.05246 15.6706 2.43465 15.6706 2.83317C15.6706 3.23168 15.5123 3.61388 15.2305 3.89567L8.5013 10.6248L5.66797 11.3332L6.3763 8.49984L13.1055 1.77067Z" stroke="#2F87CC" stroke-width="1.5" stroke-linecap="round" stroke-linejoin="round"/>
</g>
<defs>
<clipPath id="clip0_3019_20198">
<rect width="17" height="17" fill="white"/>
</clipPath>
</defs>
</svg>
