<svg width="24" height="24" viewBox="-4.5 -4.5 24 24" fill="none" xmlns="http://www.w3.org/2000/svg">
<path d="M13.75 11.25C13.75 11.9375 13.1875 12.5 12.5 12.5H2.5C1.81261 12.4999 1.25 11.9374 1.25 11.25V4.96973L6.92676 8.94434C7.27094 9.18514 7.72903 9.18506 8.07324 8.94434L13.75 4.96973V11.25ZM12.5 2.5C12.8264 2.5 13.1235 2.62824 13.3467 2.83496C13.2882 2.86082 13.2311 2.89263 13.1768 2.93066L7.5 6.9043L1.82324 2.93066L1.73633 2.87598C1.70876 2.8606 1.68078 2.8465 1.65234 2.83398C1.87555 2.62714 2.17358 2.50006 2.5 2.5H12.5Z" fill="#2F87CC"/>
</svg>
