<svg width="220" height="250" viewBox="0 0 220 250" fill="none" xmlns="http://www.w3.org/2000/svg">
<circle cx="110" cy="122" r="104" fill="#F5F7FA"/>
<path d="M94.0792 73.7434V67.185C94.0792 64.0329 94.4704 61.1859 95.2528 58.6439C96.0873 56.1019 97.5476 53.687 99.6339 51.3992C101.72 49.1114 104.615 46.8236 108.318 44.5358C111.865 42.3497 114.472 40.4686 116.141 38.8926C117.81 37.2657 118.906 35.7913 119.427 34.4695C119.949 33.0968 120.21 31.7241 120.21 30.3515C120.21 28.2162 119.219 26.5385 117.237 25.3183C115.255 24.0473 112.673 23.4118 109.491 23.4118C105.528 23.4118 101.225 24.0981 96.5827 25.4708C91.993 26.8435 87.0903 28.8771 81.8746 31.5716L71 10.8289C76.8937 7.52431 83.1785 4.90606 89.8546 2.97414C96.5306 0.991379 103.806 0 111.682 0C123.522 0 132.701 2.56742 139.221 7.70225C145.74 12.7863 149 19.4971 149 27.8349C149 31.8004 148.374 35.4355 147.122 38.7401C145.871 42.0447 143.889 45.1459 141.177 48.0438C138.464 50.9416 134.892 53.7887 130.458 56.5849C127.329 58.5168 124.852 60.1691 123.026 61.5418C121.253 62.9145 119.975 64.2363 119.193 65.5073C118.462 66.7783 118.097 68.2272 118.097 69.8541V73.7434H94.0792ZM90.7151 100.434C90.7151 95.0453 92.3059 91.2577 95.4875 89.0716C98.7212 86.8855 102.633 85.7924 107.223 85.7924C111.604 85.7924 115.385 86.8855 118.567 89.0716C121.8 91.2577 123.417 95.0453 123.417 100.434C123.417 105.569 121.8 109.281 118.567 111.568C115.385 113.856 111.604 115 107.223 115C102.633 115 98.7212 113.856 95.4875 111.568C92.3059 109.281 90.7151 105.569 90.7151 100.434Z" fill="#E8EDF5"/>
<g clip-path="url(#clip0_2950_3067)">
<path d="M79.0126 105V247.406H2.74316V121.146L79.0126 105Z" fill="url(#paint0_linear_2950_3067)"/>
<path d="M217.762 118.526V247.406H103.837V105L217.762 118.526Z" fill="url(#paint1_linear_2950_3067)"/>
<path d="M15.6955 140.823L10.415 141.72V130.815L15.6955 129.808V140.835V140.823ZM25.5888 127.928L20.1141 128.971V140.083L25.5888 139.161V127.928ZM35.8584 125.974L30.1652 127.054V138.384L35.8584 137.426V125.987V125.974ZM46.5286 123.936L40.6169 125.065V136.613L46.5286 135.619V123.949V123.936ZM57.6358 121.838L51.4813 123.002V134.782L57.6358 133.738V121.838ZM69.1922 119.63L62.7828 120.843V132.853L69.1922 131.773V119.63ZM15.6955 144.147L10.415 145.008V155.914L15.6955 155.162V144.135V144.147ZM25.5888 142.545L20.1141 143.431V154.543L25.5888 153.767V142.533V142.545ZM35.8584 140.871L30.1652 141.793V153.124L35.8584 152.323V140.883V140.871ZM46.5286 139.137L40.6169 140.095V151.644L46.5286 150.807V139.137ZM57.6358 137.329L51.4813 138.336V150.115L57.6358 149.242V137.341V137.329ZM69.1922 135.449L62.7828 136.492V148.502L69.1922 147.592V135.449ZM15.6955 158.498L10.415 159.213V170.119L15.6955 169.513V158.485V158.498ZM25.5888 157.163L20.1141 157.903V169.015L25.5888 168.384V157.151V157.163ZM35.8584 155.768L30.1652 156.532V167.863L35.8584 167.208V155.768ZM46.5286 154.325L40.6169 155.125V166.674L46.5286 165.995V154.325ZM57.6358 152.832L51.4813 153.669V165.449L57.6358 164.745V152.845V152.832ZM69.1922 151.268L62.7828 152.129V164.139L69.1922 163.411V151.268ZM15.6955 172.849L10.415 173.419V184.324L15.6955 183.863V172.836V172.849ZM25.5888 171.781L20.1141 172.375V183.487L25.5888 183.014V171.781ZM35.8584 170.677L30.1652 171.296V182.626L35.8584 182.129V170.689V170.677ZM46.5286 169.525L40.6169 170.168V181.716L46.5286 181.207V169.537V169.525ZM57.6358 168.324L51.4813 168.991V180.77L57.6358 180.236V168.336V168.324ZM69.1922 167.074L62.7828 167.766V179.775L69.1922 179.217V167.074ZM15.6955 187.2L10.415 187.624V198.53L15.6955 198.214V187.187V187.2ZM25.5888 186.399L20.1141 186.836V197.948L25.5888 197.62V186.387V186.399ZM35.8584 185.574L30.1652 186.035V197.365L35.8584 197.026V185.586V185.574ZM46.5286 184.713L40.6169 185.186V196.734L46.5286 196.383V184.713ZM57.6358 183.827L51.4813 184.324V196.104L57.6358 195.74V183.839V183.827ZM69.1922 182.893L62.7828 183.415V195.424L69.1922 195.048V182.905V182.893ZM15.6955 201.55L10.415 201.829V212.735L15.6955 212.565V201.538V201.55ZM25.5888 201.017L20.1141 201.308V212.42L25.5888 212.25V201.017ZM35.8584 200.471L30.1652 200.774V212.104L35.8584 211.922V200.483V200.471ZM46.5286 199.913L40.6169 200.228V211.777L46.5286 211.583V199.913ZM57.6358 199.318L51.4813 199.646V211.425L57.6358 211.231V199.33V199.318ZM69.1922 198.7L62.7828 199.039V211.049L69.1922 210.843V198.7ZM15.6955 215.889L10.415 216.023V226.928L15.6955 226.904V215.877V215.889ZM25.5888 215.635L20.1141 215.78V226.892L25.5888 226.868V215.635ZM35.8584 215.38L30.1652 215.525V226.856L35.8584 226.831V215.38ZM46.5286 215.101L40.6169 215.258V226.807L46.5286 226.783V215.113V215.101ZM57.6358 214.822L51.4813 214.979V226.759L57.6358 226.734V214.834V214.822ZM69.1922 214.518L62.7828 214.688V226.698L69.1922 226.674V214.531V214.518Z" fill="#727477"/>
<path d="M41.1634 155.671L46.5289 154.943V154.325L40.6172 155.125V166.674L41.1634 166.613V155.671Z" fill="#565759"/>
<path d="M30.7113 157.078L35.8582 156.387V155.768L30.165 156.545V167.863L30.7113 167.802V157.078Z" fill="#565759"/>
<path d="M41.1634 125.611L46.5289 124.579V123.936L40.6172 125.065V136.613L41.1634 136.516V125.611Z" fill="#565759"/>
<path d="M52.0277 184.858L57.6359 184.409V183.827L51.4814 184.312V196.092L52.0277 196.055V184.858Z" fill="#565759"/>
<path d="M52.0277 200.18L57.6359 199.889V199.318L51.4814 199.646V211.425L52.0277 211.401V200.18Z" fill="#565759"/>
<path d="M30.7113 142.339L35.8582 141.502V140.871L30.165 141.793V153.124L30.7113 153.051V142.339Z" fill="#565759"/>
<path d="M30.7113 127.588L35.8582 126.617V125.974L30.165 127.054V138.384L30.7113 138.287V127.588Z" fill="#565759"/>
<path d="M41.1634 185.732L46.5289 185.295V184.713L40.6172 185.186V196.734L41.1634 196.71V185.732Z" fill="#565759"/>
<path d="M41.1634 170.701L46.5289 170.119V169.525L40.6172 170.155V181.704L41.1634 181.656V170.701Z" fill="#565759"/>
<path d="M41.1634 140.641L46.5289 139.767V139.137L40.6172 140.095V151.644L41.1634 151.571V140.641Z" fill="#565759"/>
<path d="M63.3295 168.312L69.1926 167.681V167.074L62.7832 167.766V179.775L63.3295 179.739V168.312Z" fill="#565759"/>
<path d="M63.3295 152.675L69.1926 151.874V151.268L62.7832 152.129V164.138L63.3295 164.078V152.675Z" fill="#565759"/>
<path d="M52.0277 169.525L57.6359 168.918V168.324L51.4814 168.991V180.758L52.0277 180.709V169.525Z" fill="#565759"/>
<path d="M63.3295 121.389L69.1926 120.273V119.63L62.7832 120.855V132.865L63.3295 132.78V121.389Z" fill="#565759"/>
<path d="M63.3295 183.948L69.1926 183.475V182.893L62.7832 183.403V195.424L63.3295 195.388V183.948Z" fill="#565759"/>
<path d="M63.3295 137.038L69.1926 136.08V135.449L62.7832 136.492V148.502L63.3295 148.429V137.038Z" fill="#565759"/>
<path d="M52.0277 138.87L57.6359 137.96V137.329L51.4814 138.336V150.103L52.0277 150.03V138.87Z" fill="#565759"/>
<path d="M52.0277 154.203L57.6359 153.439V152.832L51.4814 153.657V165.437L52.0277 165.376V154.203Z" fill="#565759"/>
<path d="M52.0277 123.536L57.6359 122.481V121.838L51.4814 123.002V134.782L52.0277 134.684V123.536Z" fill="#565759"/>
<path d="M63.3295 199.585L69.1926 199.27V198.7L62.7832 199.039V211.061L63.3295 211.037V199.585Z" fill="#565759"/>
<path d="M41.1634 200.762L46.5289 200.483V199.913L40.6172 200.228V211.765L41.1634 211.753V200.762Z" fill="#565759"/>
<path d="M10.9613 202.363L15.6955 202.108V201.55L10.415 201.829V212.735L10.9613 212.723V202.363Z" fill="#565759"/>
<path d="M10.9613 216.569L15.6955 216.447V215.889L10.415 216.035V226.941H10.9613V216.569Z" fill="#565759"/>
<path d="M30.7113 171.83L35.8582 171.272V170.677L30.165 171.284V182.614L30.7113 182.565V171.83Z" fill="#565759"/>
<path d="M20.6478 216.326L25.5884 216.193V215.635L20.1016 215.78V226.892H20.6478V216.326Z" fill="#565759"/>
<path d="M10.9613 173.952L15.6955 173.443V172.849L10.415 173.419V184.324L10.9613 184.276V173.952Z" fill="#565759"/>
<path d="M30.7113 216.059L35.8582 215.926V215.38L30.165 215.525V226.844H30.7113V216.059Z" fill="#565759"/>
<path d="M63.3295 215.222L69.1926 215.077V214.519L62.7832 214.688V226.698H63.3295V215.222Z" fill="#565759"/>
<path d="M10.9613 159.759L15.6955 159.116V158.498L10.415 159.213V170.119L10.9613 170.058V159.759Z" fill="#565759"/>
<path d="M52.0277 215.513L57.6359 215.368V214.822L51.4814 214.979V226.747H52.0277V215.513Z" fill="#565759"/>
<path d="M41.1634 215.792L46.5289 215.659V215.101L40.6172 215.259V226.795H41.1634V215.792Z" fill="#565759"/>
<path d="M10.9613 188.158L15.6955 187.782V187.199L10.415 187.624V198.53L10.9613 198.506V188.158Z" fill="#565759"/>
<path d="M20.6478 158.449L25.5884 157.77V157.163L20.1016 157.903V169.015L20.6478 168.954V158.449Z" fill="#565759"/>
<path d="M20.6478 143.977L25.5884 143.176V142.545L20.1016 143.431V154.543L20.6478 154.47V143.977Z" fill="#565759"/>
<path d="M20.6478 129.505L25.5884 128.57V127.928L20.1016 128.971V140.083L20.6478 139.986V129.505Z" fill="#565759"/>
<path d="M30.7113 201.32L35.8582 201.041V200.471L30.165 200.774V212.104L30.7113 212.08V201.32Z" fill="#565759"/>
<path d="M30.7113 186.569L35.8582 186.156V185.574L30.165 186.035V197.353L30.7113 197.329V186.569Z" fill="#565759"/>
<path d="M10.9613 131.348L15.6955 130.451V129.808L10.415 130.803V141.72L10.9613 141.623V131.348Z" fill="#565759"/>
<path d="M20.6478 172.909L25.5884 172.375V171.781L20.1016 172.375V183.487L20.6478 183.439V172.909Z" fill="#565759"/>
<path d="M10.9613 145.554L15.6955 144.777V144.147L10.415 145.008V155.926L10.9613 155.841V145.554Z" fill="#565759"/>
<path d="M20.6478 201.854L25.5884 201.587V201.017L20.1016 201.308V212.42L20.6478 212.408V201.854Z" fill="#565759"/>
<path d="M20.6478 187.382L25.5884 186.981V186.399L20.1016 186.848V197.96L20.6478 197.923V187.382Z" fill="#565759"/>
<path d="M125.724 132.198L115.794 131.251V119.036L125.724 120.091V132.186V132.198ZM143.325 121.971L133.735 120.952V132.95L143.325 133.86V121.971ZM160.32 123.791L151.046 122.808V134.6L160.32 135.473V123.791ZM176.756 125.538L167.797 124.579V136.177L176.756 137.026V125.538ZM192.658 127.236L183.991 126.314V137.717L192.658 138.542V127.236ZM208.05 128.874L199.65 127.976V139.197L208.05 139.998V128.874ZM125.724 135.849L115.794 134.939V147.155L125.724 147.944V135.849ZM143.325 137.45L133.735 136.577V148.574L143.325 149.339V137.45ZM160.32 139.003L151.046 138.154V149.945L160.32 150.685V139.003ZM176.756 140.495L167.797 139.682V151.28L176.756 151.995V140.507V140.495ZM192.658 141.951L183.991 141.162V152.566L192.658 153.257V141.951ZM208.05 143.358L199.65 142.594V153.815L208.05 154.482V143.358ZM125.724 151.595L115.794 150.843V163.059L125.724 163.69V151.595ZM143.325 152.929L133.735 152.202V164.199L143.325 164.818V152.929ZM160.32 154.215L151.046 153.512V165.303L160.32 165.898V154.215ZM176.756 155.465L167.797 154.786V166.383L176.756 166.953V155.465ZM192.658 156.666L183.991 156.011V167.414L192.658 167.972V156.666ZM208.05 157.83L199.65 157.2V168.421L208.05 168.955V157.83ZM125.724 167.341L115.794 166.747V178.963L125.724 179.448V167.353V167.341ZM143.325 168.409L133.735 167.826V179.824L143.325 180.285V168.396V168.409ZM160.32 169.428L151.046 168.87V180.661L160.32 181.11V169.428ZM176.756 170.422L167.797 169.876V181.474L176.756 181.91V170.422ZM192.658 171.393L183.991 170.871V182.274L192.658 182.699V171.393ZM208.05 172.315L199.65 171.805V183.026L208.05 183.439V172.315ZM125.724 183.087L115.794 182.638V194.854L125.724 195.182V183.087ZM143.325 183.888L133.735 183.451V195.449L143.325 195.764V183.876V183.888ZM160.32 184.652L151.046 184.24V196.031L160.32 196.334V184.652ZM176.756 185.392L167.797 184.992V196.589L176.756 196.892V185.404V185.392ZM192.658 186.108L183.991 185.72V197.123L192.658 197.414V186.108ZM208.05 186.799L199.65 186.423V197.644L208.05 197.923V186.799ZM125.724 198.833L115.794 198.542V210.758L125.724 210.94V198.845V198.833ZM143.325 199.355L133.735 199.064V211.061L143.325 211.231V199.343V199.355ZM160.32 199.864L151.046 199.585V211.377L160.32 211.546V199.864ZM176.756 200.349L167.797 200.083V211.68L176.756 211.838V200.349ZM192.658 200.823L183.991 200.568V211.971L192.658 212.129V200.823ZM208.05 201.284L199.65 201.029V212.25L208.05 212.396V201.271V201.284ZM125.724 214.579L115.794 214.434V226.649L125.724 226.674V214.579ZM143.325 214.834L133.735 214.7V226.698L143.325 226.722V214.834ZM160.32 215.076L151.046 214.943V226.734L160.32 226.759V215.076ZM176.756 215.319L167.797 215.186V226.783L176.756 226.807V215.319ZM192.658 215.55L183.991 215.428V226.831L192.658 226.856V215.55ZM208.05 215.768L199.65 215.647V226.868L208.05 226.892V215.768Z" fill="url(#paint2_linear_2950_3067)"/>
<path d="M133.735 121.644L142.694 122.602V133.799L143.325 133.86V121.971L133.735 120.952V121.644Z" fill="#727477"/>
<path d="M133.735 168.493L142.694 169.027V180.261L143.325 180.297V168.409L133.735 167.826V168.493Z" fill="#727477"/>
<path d="M151.058 123.488L159.701 124.41V135.412L160.32 135.473V123.791L151.058 122.796V123.488Z" fill="#727477"/>
<path d="M133.735 137.256L142.694 138.081V149.29L143.325 149.339V137.45L133.735 136.577V137.256Z" fill="#727477"/>
<path d="M151.058 215.586L159.701 215.707V226.771H160.32V215.077L151.058 214.943V215.586Z" fill="#727477"/>
<path d="M151.058 138.845L159.701 139.634V150.637L160.32 150.685V139.003L151.058 138.154V138.845Z" fill="#727477"/>
<path d="M151.058 154.191L159.701 154.846V165.861L160.32 165.91V154.215L151.058 153.512V154.191Z" fill="#727477"/>
<path d="M151.058 184.882L159.701 185.271V196.31L160.32 196.334V184.652L151.058 184.227V184.882Z" fill="#727477"/>
<path d="M151.058 200.228L159.701 200.495V211.546H160.32V199.864L151.058 199.585V200.228Z" fill="#727477"/>
<path d="M151.058 169.537L159.701 170.058V181.086L160.32 181.122V169.428L151.058 168.87V169.537Z" fill="#727477"/>
<path d="M133.735 152.881L142.694 153.56V164.781L143.325 164.818V152.93L133.735 152.202V152.881Z" fill="#727477"/>
<path d="M133.735 184.106L142.694 184.506V195.752L143.325 195.764V183.888L133.735 183.451V184.106Z" fill="#727477"/>
<path d="M115.794 183.293L125.105 183.718V195.157L125.724 195.182V183.087L115.794 182.638V183.293Z" fill="#727477"/>
<path d="M115.794 215.077L125.105 215.21V226.674H125.724V214.579L115.794 214.434V215.077Z" fill="#727477"/>
<path d="M115.794 167.402L125.105 167.972V179.411L125.724 179.436V167.341L115.794 166.747V167.402Z" fill="#727477"/>
<path d="M115.794 199.185L125.105 199.464V210.916L125.724 210.928V198.833L115.794 198.542V199.185Z" fill="#727477"/>
<path d="M115.794 119.739L125.105 120.734V132.137L125.724 132.198V120.103L115.794 119.048V119.739Z" fill="#727477"/>
<path d="M133.735 199.719L142.694 199.986V211.231L143.325 211.243V199.355L133.735 199.076V199.719Z" fill="#727477"/>
<path d="M115.794 151.51L125.105 152.226V163.653L125.724 163.69V151.595L115.794 150.843V151.51Z" fill="#727477"/>
<path d="M115.794 135.631L125.105 136.48V147.895L125.724 147.944V135.849L115.794 134.939V135.631Z" fill="#727477"/>
<path d="M133.735 215.331L142.694 215.465V226.722H143.325V214.834L133.735 214.7V215.331Z" fill="#727477"/>
<path d="M199.662 187.078L207.431 187.43V197.911L208.05 197.923V186.799L199.662 186.423V187.078Z" fill="#727477"/>
<path d="M199.662 201.684L207.431 201.914V212.396L208.05 212.408V201.284L199.662 201.041V201.684Z" fill="#727477"/>
<path d="M199.662 216.278L207.431 216.399V226.892H208.05V215.768L199.662 215.647V216.278Z" fill="#727477"/>
<path d="M183.991 127.006L192.039 127.855V138.481L192.658 138.542V127.236L183.991 126.302V127.006Z" fill="#727477"/>
<path d="M183.991 156.69L192.039 157.297V167.936L192.658 167.972V156.666L183.991 156.011V156.69Z" fill="#727477"/>
<path d="M167.798 215.829L176.137 215.938V226.807H176.756V215.319L167.798 215.186V215.829Z" fill="#727477"/>
<path d="M199.662 127.976V128.667L207.431 129.492V139.937L208.05 139.998V128.874L199.662 127.976Z" fill="#727477"/>
<path d="M199.662 143.273L207.431 143.977V154.434L208.05 154.482V143.358L199.662 142.594V143.273Z" fill="#727477"/>
<path d="M199.662 172.472L207.431 172.946V183.415L208.05 183.439V172.315L199.662 171.817V172.472Z" fill="#727477"/>
<path d="M199.662 157.879L207.431 158.461V168.918L208.05 168.967V157.831L199.662 157.2V157.879Z" fill="#727477"/>
<path d="M183.991 141.842L192.039 142.582V153.208L192.658 153.257V141.951L183.991 141.162V141.842Z" fill="#727477"/>
<path d="M167.798 140.362L176.137 141.126V151.947L176.756 151.995V140.495L167.798 139.682V140.362Z" fill="#727477"/>
<path d="M167.798 155.453L176.137 156.096V166.917L176.756 166.953V155.465L167.798 154.786V155.453Z" fill="#727477"/>
<path d="M167.798 170.544L176.137 171.053V181.886L176.756 181.923V170.422L167.798 169.889V170.544Z" fill="#727477"/>
<path d="M167.798 200.738L176.137 200.98V211.837L176.756 211.85V200.349L167.798 200.083V200.738Z" fill="#727477"/>
<path d="M167.798 185.647L176.137 186.023V196.868L176.756 196.88V185.392L167.798 184.992V185.647Z" fill="#727477"/>
<path d="M183.991 216.059L192.039 216.168V226.856H192.658V215.55L183.991 215.416V216.059Z" fill="#727477"/>
<path d="M183.991 201.211L192.039 201.453V212.117L192.658 212.129V200.823L183.991 200.568V201.211Z" fill="#727477"/>
<path d="M183.991 186.375L192.039 186.738V197.389L192.658 197.414V186.108L183.991 185.719V186.375Z" fill="#727477"/>
<path d="M167.798 125.271L176.137 126.169V136.977L176.756 137.026V125.538L167.798 124.579V125.271Z" fill="#727477"/>
<path d="M183.991 171.526L192.039 172.012V182.663L192.658 182.699V171.393L183.991 170.859V171.526Z" fill="#727477"/>
<path d="M103.837 105H79.0127V247.418H103.837V105Z" fill="url(#paint3_linear_2950_3067)"/>
<path d="M98.2773 226.116H86.2354V247.406H98.2773V226.116Z" fill="url(#paint4_linear_2950_3067)"/>
<path d="M97.4028 226.892H87.1211V247.418H97.4028V226.892Z" fill="url(#paint5_linear_2950_3067)"/>
<path d="M80.336 245.513H0V248.704H80.336V245.513Z" fill="#727477"/>
<path d="M219.012 245.513H104.335V248.704H219.012V245.513Z" fill="url(#paint6_linear_2950_3067)"/>
<path d="M104.322 245.513H80.2021V248.704H104.322V245.513Z" fill="url(#paint7_linear_2950_3067)"/>
<g opacity="0.2">
<path d="M80.336 247.284H0V250.475H80.336V247.284Z" fill="#727477"/>
<path d="M219.012 247.284H104.335V250.475H219.012V247.284Z" fill="url(#paint8_linear_2950_3067)"/>
<path d="M104.322 247.284H80.2021V250.475H104.322V247.284Z" fill="url(#paint9_linear_2950_3067)"/>
</g>
<rect x="-9" y="87" width="300" height="210" fill="#2F87CC" style="mix-blend-mode:soft-light"/>
</g>
<defs>
<linearGradient id="paint0_linear_2950_3067" x1="2.74316" y1="176.197" x2="79.0126" y2="176.197" gradientUnits="userSpaceOnUse">
<stop stop-color="#BCBEC0"/>
<stop offset="1" stop-color="#939598"/>
</linearGradient>
<linearGradient id="paint1_linear_2950_3067" x1="103.837" y1="176.197" x2="217.762" y2="176.197" gradientUnits="userSpaceOnUse">
<stop stop-color="white"/>
<stop offset="1" stop-color="#E6E7E8"/>
</linearGradient>
<linearGradient id="paint2_linear_2950_3067" x1="115.794" y1="172.97" x2="208.05" y2="172.97" gradientUnits="userSpaceOnUse">
<stop stop-color="#D1D3D4"/>
<stop offset="1" stop-color="#BCBEC0"/>
</linearGradient>
<linearGradient id="paint3_linear_2950_3067" x1="91.4188" y1="105" x2="91.4188" y2="247.418" gradientUnits="userSpaceOnUse">
<stop stop-color="#BCBEC0"/>
<stop offset="1" stop-color="white"/>
</linearGradient>
<linearGradient id="paint4_linear_2950_3067" x1="86.2354" y1="236.767" x2="98.2894" y2="236.767" gradientUnits="userSpaceOnUse">
<stop stop-color="#BCBEC0"/>
<stop offset="1" stop-color="white"/>
</linearGradient>
<linearGradient id="paint5_linear_2950_3067" x1="87.1211" y1="237.155" x2="97.4028" y2="237.155" gradientUnits="userSpaceOnUse">
<stop stop-color="#D1D3D4"/>
<stop offset="1" stop-color="#BCBEC0"/>
</linearGradient>
<linearGradient id="paint6_linear_2950_3067" x1="104.335" y1="247.114" x2="219" y2="247.114" gradientUnits="userSpaceOnUse">
<stop stop-color="#D1D3D4"/>
<stop offset="1" stop-color="#BCBEC0"/>
</linearGradient>
<linearGradient id="paint7_linear_2950_3067" x1="80.2021" y1="247.114" x2="104.335" y2="247.114" gradientUnits="userSpaceOnUse">
<stop stop-color="#D1D3D4"/>
<stop offset="1" stop-color="#BCBEC0"/>
</linearGradient>
<linearGradient id="paint8_linear_2950_3067" x1="104.335" y1="248.886" x2="219" y2="248.886" gradientUnits="userSpaceOnUse">
<stop stop-color="#D1D3D4"/>
<stop offset="1" stop-color="#BCBEC0"/>
</linearGradient>
<linearGradient id="paint9_linear_2950_3067" x1="80.2021" y1="248.886" x2="104.335" y2="248.886" gradientUnits="userSpaceOnUse">
<stop stop-color="#D1D3D4"/>
<stop offset="1" stop-color="#BCBEC0"/>
</linearGradient>
<clipPath id="clip0_2950_3067">
<rect width="220" height="145" fill="white" transform="translate(0 105)"/>
</clipPath>
</defs>
</svg>
