<svg width="220" height="268" viewBox="-6 0 220 268" fill="none" xmlns="http://www.w3.org/2000/svg">
<circle cx="104" cy="122" r="104" fill="#F5F7FA"/>
<path d="M88.0792 73.7434V67.185C88.0792 64.0329 88.4704 61.1859 89.2528 58.6439C90.0873 56.1019 91.5476 53.687 93.6339 51.3992C95.7202 49.1114 98.6148 46.8236 102.318 44.5358C105.865 42.3497 108.472 40.4686 110.141 38.8926C111.81 37.2657 112.906 35.7913 113.427 34.4695C113.949 33.0968 114.21 31.7241 114.21 30.3515C114.21 28.2162 113.219 26.5385 111.237 25.3183C109.255 24.0473 106.673 23.4118 103.491 23.4118C99.5276 23.4118 95.2247 24.0981 90.5827 25.4708C85.993 26.8435 81.0903 28.8771 75.8746 31.5716L65 10.8289C70.8937 7.52431 77.1785 4.90606 83.8546 2.97414C90.5306 0.991379 97.8064 0 105.682 0C117.522 0 126.701 2.56742 133.221 7.70225C139.74 12.7863 143 19.4971 143 27.8349C143 31.8004 142.374 35.4355 141.122 38.7401C139.871 42.0447 137.889 45.1459 135.177 48.0438C132.464 50.9416 128.892 53.7887 124.458 56.5849C121.329 58.5168 118.852 60.1691 117.026 61.5418C115.253 62.9145 113.975 64.2363 113.193 65.5073C112.462 66.7783 112.097 68.2272 112.097 69.8541V73.7434H88.0792ZM84.7151 100.434C84.7151 95.0453 86.3059 91.2577 89.4875 89.0716C92.7212 86.8855 96.6329 85.7924 101.223 85.7924C105.604 85.7924 109.385 86.8855 112.567 89.0716C115.8 91.2577 117.417 95.0453 117.417 100.434C117.417 105.569 115.8 109.281 112.567 111.568C109.385 113.856 105.604 115 101.223 115C96.6329 115 92.7212 113.856 89.4875 111.568C86.3059 109.281 84.7151 105.569 84.7151 100.434Z" fill="#E8EDF5"/>
<g clip-path="url(#clip0_2950_3203)">
<path d="M104.734 175.817L63.5605 170.834V110.721L104.734 103V175.817Z" fill="url(#paint0_linear_2950_3203)"/>
<path d="M154.957 172.65L104.734 175.817V103L154.957 109.863V172.65Z" fill="url(#paint1_linear_2950_3203)"/>
<g style="mix-blend-mode:soft-light">
<path d="M123.666 105.587V135.278L140.386 136.597V107.872L123.666 105.587Z" fill="white"/>
</g>
<path d="M173 262.682L96.6191 268V157.255L173 162.574V262.682Z" fill="url(#paint2_linear_2950_3203)"/>
<path d="M96.6191 268L34 260.421V164.325L96.6191 157.255V268Z" fill="url(#paint3_linear_2950_3203)"/>
<g style="mix-blend-mode:soft-light">
<path d="M123.658 159.139V204.074H149.251V160.92L123.658 159.139Z" fill="white"/>
</g>
</g>
<defs>
<linearGradient id="paint0_linear_2950_3203" x1="98" y1="103" x2="64.0664" y2="150.355" gradientUnits="userSpaceOnUse">
<stop stop-color="#E6EEF7"/>
<stop offset="1" stop-color="#B0C7E0"/>
</linearGradient>
<linearGradient id="paint1_linear_2950_3203" x1="155.064" y1="103" x2="118.48" y2="152.355" gradientUnits="userSpaceOnUse">
<stop stop-color="#FEFEFF"/>
<stop offset="0.456731" stop-color="#E1EAF6"/>
<stop offset="0.961538" stop-color="#BED1E6"/>
</linearGradient>
<linearGradient id="paint2_linear_2950_3203" x1="170.759" y1="164.653" x2="104.205" y2="233.639" gradientUnits="userSpaceOnUse">
<stop stop-color="#FEFEFF"/>
<stop offset="0.456731" stop-color="#E1EAF6"/>
<stop offset="0.961538" stop-color="#BED1E6"/>
</linearGradient>
<linearGradient id="paint3_linear_2950_3203" x1="38.4839" y1="256.911" x2="95.9458" y2="167.668" gradientUnits="userSpaceOnUse">
<stop stop-color="#7EA0C3"/>
<stop offset="1" stop-color="#BCD2EA"/>
</linearGradient>
<clipPath id="clip0_2950_3203">
<rect width="139" height="165" fill="white" transform="translate(34 103)"/>
</clipPath>
</defs>
</svg>
