<svg width="32" height="32" viewBox="-1 -1 32 32" fill="none" xmlns="http://www.w3.org/2000/svg">
<path d="M25.9952 5.03337C25.3599 4.38873 24.6056 3.87736 23.7754 3.52847C22.9451 3.17958 22.0553 3 21.1566 3C20.258 3 19.3681 3.17958 18.5379 3.52847C17.7077 3.87736 16.9534 4.38873 16.3181 5.03337L14.9997 6.37059L13.6812 5.03337C12.398 3.73186 10.6575 3.00067 8.84269 3.00067C7.0279 3.00067 5.28743 3.73186 4.00418 5.03337C2.72092 6.33488 2 8.10011 2 9.94072C2 11.7813 2.72092 13.5466 4.00418 14.8481L14.9997 26L25.9952 14.8481C26.6308 14.2037 27.1349 13.4387 27.4789 12.5967C27.8229 11.7547 28 10.8522 28 9.94072C28 9.02928 27.8229 8.12677 27.4789 7.28475C27.1349 6.44273 26.6308 5.6777 25.9952 5.03337Z" stroke="#2F87CC" stroke-width="2.5" stroke-linecap="round" stroke-linejoin="round"/>
</svg>
