<svg width="24" height="21" viewBox="-2 0 24 21" fill="none" xmlns="http://www.w3.org/2000/svg">
<g clip-path="url(#clip0_2435_5665)">
<path d="M16 3.49996H19M1 3.49996H12M8 10.5H19M1 10.5H4M16 17.5H19M1 17.5H12M15.414 2.08596C15.605 2.27045 15.7574 2.49114 15.8622 2.73515C15.967 2.97916 16.0222 3.2416 16.0245 3.50716C16.0268 3.77272 15.9762 4.03608 15.8756 4.28187C15.7751 4.52766 15.6266 4.75096 15.4388 4.93875C15.251 5.12654 15.0277 5.27504 14.7819 5.3756C14.5361 5.47616 14.2728 5.52677 14.0072 5.52446C13.7416 5.52215 13.4792 5.46698 13.2352 5.36216C12.9912 5.25734 12.7705 5.10498 12.586 4.91396C12.2217 4.53676 12.0201 4.03155 12.0247 3.50716C12.0292 2.98276 12.2395 2.48114 12.6104 2.11032C12.9812 1.73951 13.4828 1.52917 14.0072 1.52461C14.5316 1.52005 15.0368 1.72164 15.414 2.08596ZM7.414 9.08596C7.60502 9.27045 7.75738 9.49114 7.8622 9.73515C7.96702 9.97916 8.02219 10.2416 8.0245 10.5072C8.02681 10.7727 7.97621 11.0361 7.87564 11.2819C7.77508 11.5277 7.62658 11.751 7.43879 11.9388C7.251 12.1265 7.0277 12.275 6.78191 12.3756C6.53612 12.4762 6.27276 12.5268 6.0072 12.5245C5.74164 12.5222 5.4792 12.467 5.23519 12.3622C4.99118 12.2573 4.77049 12.105 4.586 11.914C4.22168 11.5368 4.0201 11.0316 4.02465 10.5072C4.02921 9.98276 4.23955 9.48114 4.61036 9.11032C4.98118 8.73951 5.4828 8.52917 6.0072 8.52461C6.53159 8.52005 7.0368 8.72164 7.414 9.08596ZM15.414 16.086C15.605 16.2705 15.7574 16.4911 15.8622 16.7352C15.967 16.9792 16.0222 17.2416 16.0245 17.5072C16.0268 17.7727 15.9762 18.0361 15.8756 18.2819C15.7751 18.5277 15.6266 18.751 15.4388 18.9387C15.251 19.1265 15.0277 19.275 14.7819 19.3756C14.5361 19.4762 14.2728 19.5268 14.0072 19.5245C13.7416 19.5222 13.4792 19.467 13.2352 19.3622C12.9912 19.2573 12.7705 19.105 12.586 18.914C12.2217 18.5368 12.0201 18.0316 12.0247 17.5072C12.0292 16.9828 12.2395 16.4811 12.6104 16.1103C12.9812 15.7395 13.4828 15.5292 14.0072 15.5246C14.5316 15.5201 15.0368 15.7216 15.414 16.086Z" stroke="#2F87CC" stroke-width="1.5" stroke-linecap="round" stroke-linejoin="round"/>
</g>
<defs>
<clipPath id="clip0_2435_5665">
<rect width="20" height="20" fill="white" transform="translate(0 0.5)"/>
</clipPath>
</defs>
</svg>
