<svg width="25" height="25" viewBox="0 0 25 25" fill="none" xmlns="http://www.w3.org/2000/svg">
<path d="M22.4693 6.85576H13.9845V11.1285H23.8936V8.28001C23.8936 7.4997 23.2572 6.85576 22.4693 6.85576ZM2.53752 6.85576C1.74964 6.85576 1.11328 7.49213 1.11328 8.28001V11.1285H11.083V6.85576H2.53752ZM2.53752 12.5527V22.5224C2.53752 23.3103 3.17389 23.9467 3.96177 23.9467H11.083V12.5527H2.53752ZM21.0451 23.9467C21.833 23.9467 22.4693 23.3103 22.4693 22.5224V12.5527H13.9845V23.9467H21.0451ZM12.5072 5.42395C12.5148 5.42395 12.5148 5.43152 12.5148 5.4391H18.2118C20.1815 5.4391 21.0603 4.45425 21.0603 3.2497C21.0603 2.04516 20.1739 1.06031 18.2118 1.06031C16.3709 1.06031 14.9239 1.9088 13.939 2.89364C13.0603 2.34061 11.9466 2.33304 11.0603 2.86334C10.0754 1.88607 8.63601 1.05273 6.81025 1.05273C4.84055 1.05273 3.96177 2.03758 3.96177 3.24213C3.96177 4.44667 4.84055 5.43152 6.81025 5.43152H12.5072V5.42395ZM19.6209 3.30273C19.6209 3.89364 18.8481 4.01486 18.1966 4.01486H14.9618C14.9542 3.99213 14.939 3.97698 14.9315 3.95425C15.6587 3.2497 16.7496 2.59061 18.1966 2.59061C18.8481 2.59061 19.6209 2.71183 19.6209 3.30273ZM5.38601 3.30273C5.38601 2.71183 6.15874 2.59061 6.81025 2.59061C8.22692 2.59061 9.30268 3.22698 10.0224 3.90122C9.99965 3.9391 9.98449 3.97698 9.96177 4.01486H6.81025C6.15874 4.01486 5.38601 3.88607 5.38601 3.30273Z" fill="#2F87CC"/>
</svg>
