<svg width="22" height="22" viewBox="0 0 22 22" fill="none" xmlns="http://www.w3.org/2000/svg">
<path d="M5.66667 2L3 5.6V18.2C3 18.6774 3.1873 19.1352 3.5207 19.4728C3.8541 19.8104 4.30628 20 4.77778 20H17.2222C17.6937 20 18.1459 19.8104 18.4793 19.4728C18.8127 19.1352 19 18.6774 19 18.2V5.6L16.3333 2H5.66667Z" stroke="#2F87CC" stroke-width="1.5" stroke-linecap="round" stroke-linejoin="round"/>
<path d="M3 6H19" stroke="#2F87CC" stroke-width="1.5" stroke-linecap="round" stroke-linejoin="round"/>
<path d="M15 9C15 10.0609 14.5786 11.0783 13.8284 11.8284C13.0783 12.5786 12.0609 13 11 13C9.93913 13 8.92172 12.5786 8.17157 11.8284C7.42143 11.0783 7 10.0609 7 9" stroke="#2F87CC" stroke-width="1.5" stroke-linecap="round" stroke-linejoin="round"/>
</svg>
