<svg width="22" height="22" viewBox="0 0 22 22" fill="none" xmlns="http://www.w3.org/2000/svg">
<path d="M14.5186 11.4111C14.9646 11.4112 15.3666 11.4839 15.7178 11.6201V11.6211C16.0862 11.7644 16.3894 11.9548 16.6289 12.1797C16.812 12.3515 16.9845 12.5562 17.1426 12.791L17.2959 13.0352C17.443 13.2892 17.5681 13.5504 17.6699 13.8135L17.7637 14.0771C17.8506 14.3436 17.9283 14.6322 17.9941 14.9385L18.0557 15.25C18.1335 15.6763 18.1856 16.0737 18.2109 16.4316V16.4326C18.2368 16.7947 18.2498 17.1743 18.25 17.5605C18.2499 18.4298 17.9756 19.0645 17.4834 19.5244C16.9876 19.9875 16.3104 20.25 15.4053 20.25H5.59473C4.68961 20.25 4.01224 19.9874 3.5166 19.5244H3.51562C3.02361 19.0639 2.75004 18.4289 2.75 17.5605V17.5596C2.74988 17.3714 2.75328 17.1832 2.75977 16.9951L2.78906 16.4316C2.81438 16.0729 2.8656 15.6754 2.94336 15.25C3.00141 14.9325 3.07208 14.6314 3.15234 14.3506L3.23535 14.0771C3.35031 13.7248 3.5081 13.3738 3.7041 13.0352C3.85145 12.7805 4.01467 12.5555 4.19043 12.3623L4.37012 12.1797C4.55 12.0108 4.76576 11.8617 5.01758 11.7373L5.28125 11.6211C5.63216 11.4847 6.03346 11.4113 6.47949 11.4111C6.48195 11.4117 6.49555 11.4142 6.52344 11.4258C6.58687 11.4522 6.69081 11.5068 6.87402 11.624V11.625L7.71191 12.1543C8.05133 12.3668 8.47804 12.546 8.95801 12.6982C9.46385 12.8587 9.9828 12.9424 10.5 12.9424C11.017 12.9423 11.5356 12.8587 12.041 12.6982C12.5216 12.5459 12.9476 12.3666 13.2871 12.1543H13.2881C13.5676 11.9792 13.8461 11.8026 14.124 11.625C14.3078 11.5076 14.412 11.4522 14.4756 11.4258C14.5018 11.4149 14.515 11.4119 14.5186 11.4111ZM10.3711 1.75C11.4528 1.75 12.3807 2.10074 13.1621 2.80176L13.3164 2.94629C14.1283 3.74346 14.5292 4.69706 14.5293 5.81641C14.5293 6.86644 14.1769 7.77065 13.4639 8.53613L13.3164 8.6875C12.504 9.48504 11.525 9.88379 10.3711 9.88379C9.21773 9.88371 8.23937 9.48483 7.42676 8.6875C6.61473 7.89054 6.21387 6.93639 6.21387 5.81641C6.21398 4.69686 6.61487 3.74321 7.42676 2.94629C8.23906 2.14896 9.21717 1.75008 10.3711 1.75Z" stroke="#2F87CC" stroke-width="1.5"/>
</svg>
