<svg width="22" height="22" viewBox="0 0 22 22" fill="none" xmlns="http://www.w3.org/2000/svg">
<path d="M18.3335 6.41669H3.66683C2.65431 6.41669 1.8335 7.2375 1.8335 8.25002V17.4167C1.8335 18.4292 2.65431 19.25 3.66683 19.25H18.3335C19.346 19.25 20.1668 18.4292 20.1668 17.4167V8.25002C20.1668 7.2375 19.346 6.41669 18.3335 6.41669Z" stroke="#2F87CC" stroke-width="1.5" stroke-linecap="round" stroke-linejoin="round"/>
<path d="M14.6668 19.25V4.58333C14.6668 4.0971 14.4737 3.63079 14.1299 3.28697C13.786 2.94315 13.3197 2.75 12.8335 2.75H9.16683C8.6806 2.75 8.21428 2.94315 7.87047 3.28697C7.52665 3.63079 7.3335 4.0971 7.3335 4.58333V19.25" stroke="#2F87CC" stroke-width="1.5" stroke-linecap="round" stroke-linejoin="round"/>
</svg>
