<svg width="24" height="17" viewBox="-5 0 24 17" fill="none" xmlns="http://www.w3.org/2000/svg">
<path fill-rule="evenodd" clip-rule="evenodd" d="M7 0C8.85652 0 10.6372 0.73248 11.95 2.03671C13.2627 3.34094 14 5.11009 14 6.95455C14 12.3636 7 17 7 17C7 17 0 12.3636 0 6.95455C2.76642e-08 5.11009 0.737267 3.34094 2.05002 2.03671C3.36278 0.73248 5.14348 0 7 0ZM7 4.63636C5.71134 4.63636 4.66667 5.67425 4.66667 6.95455C4.66667 8.23484 5.71134 9.27273 7 9.27273C8.28866 9.27273 9.33333 8.23484 9.33333 6.95455C9.33333 5.67425 8.28866 4.63636 7 4.63636Z" fill="#2F87CC"/>
</svg>
