<svg width="20" height="20" viewBox="0 0 20 20" fill="none" xmlns="http://www.w3.org/2000/svg">
<path d="M18.335 15C18.335 15.9167 17.5846 16.667 16.668 16.667H3.33496C2.41829 16.667 1.66797 15.9167 1.66797 15V6.21973L9.42773 11.6523C9.77205 11.8934 10.2309 11.8934 10.5752 11.6523L18.335 6.21973V15ZM16.668 3.33301C17.2301 3.33301 17.728 3.6164 18.0303 4.0459C17.9364 4.07582 17.8457 4.1212 17.7607 4.18066L10.001 9.61133L2.24121 4.18066C2.15597 4.12103 2.06489 4.0758 1.9707 4.0459C2.27291 3.61597 2.77254 3.33301 3.33496 3.33301H16.668Z" fill="#2F87CC"/>
</svg>
