<svg width="21" height="20" viewBox="0 0 21 20" fill="none" xmlns="http://www.w3.org/2000/svg">
<path d="M14.6995 0H11.8579C8.97907 0 6.07415 2.12586 6.07415 6.87523C6.07415 9.33531 7.11677 11.2513 9.02802 12.3409L5.52989 18.6726C5.36403 18.9721 5.3597 19.3114 5.51825 19.5804C5.67306 19.8431 5.95614 20 6.27521 20H8.04478C8.44677 20 8.76021 19.8057 8.91052 19.4653L12.1904 13.05H12.4298V19.2004C12.4298 19.6339 12.7955 20 13.2284 20H14.7743C15.2598 20 15.5988 19.661 15.5988 19.1756V0.875117C15.5988 0.359883 15.2291 0 14.6995 0ZM12.4298 10.2002H12.0075C10.3702 10.2002 9.39274 8.86375 9.39274 6.62512C9.39274 3.84156 10.6275 2.8498 11.7831 2.8498H12.4298V10.2002Z" fill="#D7143A"/>
</svg>
