<svg width="21" height="20" viewBox="0 0 21 20" fill="none" xmlns="http://www.w3.org/2000/svg">
<path d="M10.5 0C6.4657 0 3.19531 3.27242 3.19531 7.30863C3.19531 11.7521 6.23992 12.7992 7.83731 15.5235C9.32441 18.0588 9.32562 20 10.5 20C11.7179 20 11.641 18.1916 13.1627 15.5236C14.684 12.8551 17.8047 11.7521 17.8047 7.30863C17.8047 3.27242 14.5343 0 10.5 0ZM10.5 10.1095C8.99078 10.1095 7.76727 8.88531 7.76727 7.37547C7.76727 6.62012 8.07313 5.93684 8.56777 5.44187C9.06238 4.9473 9.74539 4.64105 10.5 4.64105C12.0092 4.64105 13.2323 5.8652 13.2323 7.37547C13.2323 8.88531 12.0092 10.1095 10.5 10.1095Z" fill="#4CAF50"/>
<path d="M10.5002 0C10.2969 0 10.0956 0.00871094 9.89648 0.025C13.6483 0.332188 16.5975 3.47582 16.5975 7.30863C16.5975 11.7521 13.4768 12.8551 11.9555 15.5235C10.7502 17.6367 10.5477 19.2104 9.91051 19.7736C10.0739 19.9208 10.2631 20 10.5002 20C11.718 20 11.6412 18.1916 13.1629 15.5236C14.6842 12.8551 17.8049 11.7521 17.8049 7.30863C17.8049 3.27242 14.5345 0 10.5002 0Z" fill="#43A047"/>
<path d="M8.56766 5.44197L3.76508 10.2472C3.41379 9.44666 3.19531 8.4997 3.19531 7.30869C3.19531 5.30724 3.99945 3.494 5.30172 2.17419L8.56766 5.44197Z" fill="#F44336"/>
<path d="M12.45 9.28909C12.9332 8.79593 13.2312 8.12042 13.2312 7.3753C13.2312 5.86503 12.0077 4.64093 10.4988 4.64093C9.74402 4.64093 9.06094 4.94706 8.56641 5.44186L13.4043 0.601318C15.1336 1.3519 16.5152 2.75245 17.2423 4.49491L12.4502 9.28964L12.45 9.28909Z" fill="#42A5F5"/>
<path d="M13.4059 0.601379L12.998 1.00943C14.6205 1.96677 15.8409 3.53337 16.3444 5.3949L17.2439 4.49497C16.5168 2.75247 15.1352 1.35197 13.4059 0.601379Z" fill="#2196F3"/>
<path d="M12.452 9.28963L7.1775 14.567C6.0307 13.1216 4.55934 12.059 3.76562 10.2471L8.5682 5.44189C8.07367 5.9367 7.7677 6.62018 7.7677 7.37533C7.7677 8.88514 8.99113 10.1092 10.5005 10.1092C11.2648 10.1092 11.9559 9.79521 12.4518 9.28908L12.452 9.28963Z" fill="#FFC107"/>
<path d="M13.4046 0.601406L8.56672 5.44199L5.30078 2.17426C6.62531 0.831797 8.4652 0 10.4991 0C11.5317 0 12.5144 0.214531 13.4046 0.601406Z" fill="#1E88E5"/>
<path d="M10.5002 0C10.297 0 10.0957 0.00867187 9.8966 0.025L9.89648 0.0250391C10.9915 0.114187 12.052 0.450785 12.998 1.00945L13.4058 0.601406C12.5155 0.214531 11.5328 0 10.5002 0Z" fill="#1976D2"/>
</svg>
