<svg width="24" height="24" viewBox="-3 -3 24 24" fill="none" xmlns="http://www.w3.org/2000/svg">
<path d="M12.9924 10.7329C12.9635 10.7059 12.9287 10.6841 12.8902 10.6689C12.8517 10.6536 12.8102 10.6452 12.768 10.6441C12.7258 10.6431 12.6837 10.6493 12.6443 10.6626C12.6048 10.6758 12.5687 10.6958 12.538 10.7213L11.8622 11.2835H10.7444C10.6995 11.0667 10.6027 10.8609 10.4607 10.6797L11.2509 9.98297L12.1797 9.95917C12.2625 9.95504 12.3403 9.92286 12.3969 9.86936C12.4534 9.81586 12.4844 9.74516 12.4832 9.67203C12.482 9.5989 12.4489 9.529 12.3906 9.47691C12.3324 9.42482 12.2536 9.39458 12.1707 9.3925H12.161L11.445 9.41092L11.4659 8.77993C11.4672 8.74272 11.4601 8.70566 11.4451 8.67086C11.43 8.63607 11.4074 8.60422 11.3784 8.57714C11.3494 8.55007 11.3147 8.52829 11.2762 8.51306C11.2376 8.49783 11.1961 8.48945 11.1539 8.48838C10.99 8.47988 10.8283 8.60653 10.8232 8.76322L10.7962 9.58205L10.0059 10.2788C9.80025 10.1537 9.56685 10.0684 9.32109 10.0286V9.04315L9.95869 8.4473C10.0126 8.39197 10.0403 8.32045 10.0359 8.2476C10.0316 8.17476 9.99557 8.10619 9.93537 8.05614C9.87517 8.0061 9.79542 7.97843 9.71268 7.97888C9.62995 7.97933 9.55059 8.00787 9.4911 8.05857L8.99972 8.51785L8.50834 8.05857C8.44885 8.00787 8.3695 7.97933 8.28676 7.97888C8.20402 7.97843 8.12427 8.0061 8.06407 8.05614C8.00387 8.10619 7.96786 8.17476 7.96352 8.2476C7.95918 8.32045 7.98684 8.39197 8.04075 8.4473L8.67835 9.04315V10.0286C8.43251 10.0682 8.19905 10.1534 7.99351 10.2788L7.20326 9.58205L7.17626 8.76322C7.1708 8.60653 7.01333 8.47988 6.84557 8.48838C6.76035 8.4906 6.67962 8.52256 6.62111 8.57723C6.5626 8.63189 6.5311 8.7048 6.53352 8.77993L6.55441 9.41092L5.8384 9.3925H5.82875C5.74352 9.39145 5.6613 9.42029 5.60019 9.47268C5.53908 9.52507 5.50408 9.59672 5.50288 9.67187C5.50169 9.74701 5.5344 9.8195 5.59383 9.87337C5.65325 9.92725 5.73452 9.95811 5.81976 9.95917L6.74852 9.98297L7.53877 10.6797C7.39668 10.8609 7.29995 11.0667 7.255 11.2835H6.13727L5.46143 10.7213C5.43072 10.6958 5.39462 10.6758 5.35516 10.6626C5.31571 10.6493 5.27368 10.6431 5.23149 10.6442C5.18929 10.6452 5.14775 10.6536 5.10923 10.6689C5.07072 10.6841 5.03598 10.7059 5.00701 10.7329C4.97804 10.76 4.95539 10.7919 4.94038 10.8266C4.92536 10.8614 4.91826 10.8985 4.91948 10.9357C4.92071 10.9729 4.93023 11.0095 4.94751 11.0435C4.96479 11.0774 4.98948 11.108 5.02018 11.1336L5.54113 11.5668L5.02018 12C4.95882 12.0518 4.92316 12.1228 4.921 12.1977C4.91883 12.2726 4.95033 12.3451 5.00862 12.3996C5.06691 12.454 5.14727 12.486 5.23216 12.4884C5.31704 12.4908 5.39958 12.4636 5.46175 12.4125L6.13759 11.8504H7.25532C7.30128 12.0714 7.39929 12.276 7.53909 12.4542L6.74884 13.1509L5.82008 13.1747C5.73725 13.1788 5.65944 13.211 5.60289 13.2645C5.54633 13.318 5.51541 13.3887 5.51657 13.4619C5.51773 13.535 5.55089 13.6049 5.60912 13.657C5.66735 13.7091 5.74615 13.7393 5.82907 13.7414H5.83872L6.55473 13.723L6.53384 14.3542C6.5326 14.3914 6.53969 14.4285 6.5547 14.4633C6.56971 14.4981 6.59236 14.5299 6.62134 14.557C6.65032 14.5841 6.68507 14.6059 6.7236 14.6211C6.76213 14.6363 6.80368 14.6447 6.84589 14.6458H6.85553C7.02843 14.6458 7.17112 14.5242 7.17658 14.3707L7.20358 13.5515L7.99351 12.8548C8.19565 12.9781 8.428 13.0645 8.67835 13.105V14.0902L8.04075 14.686C7.98601 14.7412 7.95766 14.813 7.96166 14.8863C7.96566 14.9595 8.0017 15.0286 8.0622 15.0789C8.1227 15.1293 8.20297 15.157 8.28616 15.1562C8.36935 15.1555 8.44898 15.1264 8.50834 15.075L8.99972 14.6157L9.4911 15.075C9.52007 15.1022 9.55482 15.124 9.59337 15.1392C9.63191 15.1545 9.6735 15.1629 9.71573 15.164C9.75797 15.1651 9.80004 15.1588 9.83952 15.1455C9.87901 15.1322 9.91513 15.1122 9.94584 15.0866C10.0747 14.9793 10.0808 14.7999 9.95901 14.686L9.32141 14.0902V13.105C9.56725 13.0654 9.80071 12.9802 10.0063 12.8548L10.7962 13.5515L10.8232 14.3707C10.8286 14.5242 10.9713 14.6458 11.1442 14.6458H11.1539C11.3313 14.6412 11.4707 14.5106 11.4659 14.3542L11.445 13.723L12.161 13.7414H12.1707C12.2129 13.7419 12.2548 13.7351 12.294 13.7213C12.3332 13.7076 12.369 13.6871 12.3993 13.6612C12.4295 13.6353 12.4537 13.6043 12.4704 13.5701C12.4871 13.536 12.496 13.4992 12.4966 13.462C12.4972 13.4248 12.4894 13.3879 12.4738 13.3533C12.4582 13.3187 12.435 13.2872 12.4056 13.2605C12.3762 13.2338 12.3411 13.2125 12.3023 13.1978C12.2636 13.1831 12.2219 13.1752 12.1797 13.1747L11.2509 13.1509L10.4607 12.4542C10.6001 12.276 10.6985 12.0711 10.7444 11.8504H11.8622L12.538 12.4125C12.5687 12.4382 12.6048 12.4582 12.6443 12.4715C12.6838 12.4848 12.7259 12.4911 12.7682 12.49C12.8105 12.4889 12.8521 12.4804 12.8906 12.4651C12.9291 12.4498 12.9639 12.4279 12.9928 12.4006C13.0512 12.346 13.0827 12.273 13.0802 12.1979C13.0777 12.1228 13.0415 12.0516 12.9796 12L12.4586 11.5668L12.9796 11.1336C13.1084 11.0262 13.1142 10.8468 12.9924 10.7329ZM9.00004 12.5653C8.37594 12.5653 7.86785 12.1173 7.86785 11.5671C7.86785 11.0168 8.37594 10.5689 9.00004 10.5689C9.62415 10.5689 10.1322 11.0168 10.1322 11.5671C10.1322 12.1173 9.62415 12.5653 9.00004 12.5653Z" fill="#2F87CC"/>
<path d="M16.9896 14.5497L16.166 6.7235C16.0474 5.56297 14.9592 4.68803 13.6345 4.68803H12.6576V3.22575C12.6576 1.44727 11.0163 0 8.99876 0C6.98119 0 5.33995 1.44698 5.33995 3.22575V4.68803H4.36105C3.04247 4.68803 1.95463 5.5624 1.82929 6.72293L1.0114 14.5489C0.977894 14.8596 1.01844 15.1731 1.13043 15.4692C1.24243 15.7653 1.4234 16.0375 1.66174 16.2683C1.90007 16.4991 2.19051 16.6834 2.5144 16.8094C2.83829 16.9354 3.18849 17.0003 3.54252 17H14.4582C15.1697 17 15.8533 16.7337 16.3337 16.2693C16.5723 16.0384 16.7538 15.7663 16.8667 15.4703C16.9796 15.1743 17.0215 14.8608 16.9896 14.5497ZM8.99876 0.566667C10.6619 0.566667 12.0148 1.7595 12.0148 3.22575V4.96032C12.0148 4.96428 12.0123 4.9674 12.0123 4.97137C12.0123 4.97533 12.0145 4.97845 12.0148 4.98242V6.83768C12.0112 6.97217 11.9481 7.10008 11.839 7.19408C11.7298 7.28808 11.5833 7.3407 11.4307 7.3407C11.2782 7.3407 11.1316 7.28808 11.0225 7.19408C10.9133 7.10008 10.8502 6.97217 10.8466 6.83768V3.22575C10.8466 2.32758 10.0178 1.59658 8.99908 1.59658C7.98033 1.59658 7.1512 2.3273 7.1512 3.22575V6.83768C7.1512 7.12158 6.88928 7.3525 6.56726 7.3525C6.24525 7.3525 5.98333 7.12158 5.98333 6.83768V3.22575C5.98333 1.7595 7.3363 0.566667 8.9994 0.566667H8.99876ZM10.2036 4.68803H7.79362V3.22575C7.79362 2.6401 8.33448 2.16325 8.99876 2.16325C9.66303 2.16325 10.2036 2.63982 10.2036 3.22575V4.68803ZM14.4582 16.4333H3.54284C3.2779 16.4332 3.0159 16.3844 2.77358 16.2899C2.53126 16.1955 2.31396 16.0575 2.13556 15.8848C1.95812 15.7124 1.82342 15.5092 1.74008 15.2883C1.65675 15.0674 1.6266 14.8336 1.65157 14.6019L2.46946 6.77563C2.51183 6.35939 2.72962 5.97226 3.07986 5.69064C3.4301 5.40903 3.88735 5.25338 4.36137 5.25442H5.34027V6.83712C5.34027 7.43353 5.89078 7.9186 6.56694 7.9186C7.24311 7.9186 7.79362 7.43353 7.79362 6.83712V5.25442H10.2036V6.83712C10.2036 7.43353 10.7541 7.9186 11.4303 7.9186C12.1064 7.9186 12.6572 7.43353 12.6572 6.83712V5.25442H13.6342C14.1085 5.25194 14.5664 5.40699 14.9169 5.68872C15.2673 5.97045 15.4846 6.3582 15.5255 6.77478L16.3492 14.6016C16.373 14.8342 16.3418 15.0686 16.2573 15.2899C16.1729 15.5113 16.0372 15.7147 15.8587 15.8873C15.6819 16.06 15.4658 16.1979 15.2245 16.292C14.9832 16.3861 14.7221 16.4342 14.4582 16.4333Z" fill="#2F87CC"/>
</svg>
