<svg width="24" height="24" viewBox="-3.5 -3.5 24 24" fill="none" xmlns="http://www.w3.org/2000/svg">
<path d="M11.6039 0H7.82398C4.8485 0 2.42743 3.31114 2.42743 7.38094C2.42743 8.71022 2.69568 9.99664 3.17065 11.1265C3.44105 11.7697 3.82372 12.15 3.83756 12.6163C3.84274 12.7896 3.72819 13.0436 3.43368 13.2042C2.56034 13.6801 0.514308 13.8938 0.313065 13.9114C0.111822 13.929 0.0255933 13.9914 0.0031149 14.1378C-0.0193635 14.2841 0.0822045 14.4205 0.230722 14.4438L1.08009 14.5771L1.16459 14.9449C1.19527 15.0781 1.31576 15.1663 1.46189 15.1534L2.19292 15.074L2.40744 15.4872C2.45519 15.5787 2.55443 15.6254 2.65643 15.6339L3.41964 15.621C3.41964 15.621 3.74752 15.9493 3.90606 15.9972C4.0659 16.0456 6.60195 15.4571 7.79457 14.7609L11.6039 14.7617C14.5791 14.7617 17 11.4507 17 7.38091C17 3.31114 14.5792 0 11.6039 0ZM7.40151 14.3737C6.51834 14.8766 4.27452 15.4061 4.01743 15.4395C4.01743 15.4395 3.7188 15.1146 3.52426 15.0807C3.35805 15.0518 2.81843 15.0927 2.81843 15.0927L2.59504 14.6633C2.54308 14.5636 2.43271 14.5068 2.32075 14.5181L1.6455 14.5915C1.6455 14.5915 1.5695 14.2635 1.56691 14.2551C2.44892 14.0852 3.50002 13.8342 3.7688 13.6303C4.20446 13.2992 4.38083 12.9998 4.37628 12.6525C4.36785 12.0142 3.98764 11.5666 3.86658 11.3275C3.21507 10.0403 2.97588 8.80482 2.97588 7.38094C2.97588 3.60782 5.15064 0.538324 7.82398 0.538324H9.58056C9.12428 0.79148 6.20806 2.71085 6.20783 7.38094C6.20773 10.303 7.24522 11.7697 7.46785 12.1615C7.85065 12.8351 8.02433 14.0191 7.40151 14.3737ZM8.21455 14.2234C8.31668 13.9747 8.35795 13.6452 8.31031 13.2236C8.69842 13.6341 9.11844 13.9742 9.56714 14.2234H8.21455ZM11.6039 14.2234C8.93101 14.2234 6.75621 11.1538 6.75621 7.38094C6.75621 3.60782 8.93101 0.538324 11.6039 0.538324C14.2765 0.538324 16.4514 3.60782 16.4514 7.38094C16.4514 11.1538 14.2766 14.2234 11.6039 14.2234ZM11.6039 3.49164C10.0144 3.49164 8.72113 5.23641 8.72113 7.38094C8.72113 9.52657 10.0144 11.2722 11.6039 11.2722C13.1928 11.2722 14.4849 9.52657 14.4849 7.38094C14.4849 5.23641 13.1928 3.49164 11.6039 3.49164ZM9.71327 9.33985C9.43552 8.7881 9.26951 8.11247 9.26951 7.38094C9.26951 6.64983 9.43552 5.97469 9.71327 5.4231C9.99078 5.97469 10.1568 6.64983 10.1568 7.38094C10.1568 8.11244 9.99078 8.7881 9.71327 9.33985ZM11.6039 10.7336C11.0002 10.7336 10.4518 10.4007 10.0372 9.8593C10.4518 9.18524 10.7051 8.32377 10.7051 7.38094C10.7051 6.4384 10.4518 5.57742 10.0372 4.90362C10.4518 4.36298 11.0008 4.03019 11.6039 4.03019C12.8902 4.03019 13.9366 5.53325 13.9366 7.38097C13.9366 9.2297 12.8902 10.7336 11.6039 10.7336Z" fill="#2F87CC"/>
</svg>
