<svg width="24" height="24" viewBox="-3.5 -3.5 24 24" fill="none" xmlns="http://www.w3.org/2000/svg">
<path d="M15.8735 6.87045L13.9544 5.31932V2.02273C13.9544 1.75148 13.8466 1.49135 13.6549 1.29955C13.4631 1.10775 13.203 1 12.9318 1H4.06916C3.79795 1 3.53785 1.10775 3.34607 1.29955C3.15429 1.49135 3.04656 1.75148 3.04656 2.02273V5.31932L1.12746 6.87045C1.08435 6.89921 1.04984 6.93914 1.02763 6.98596C1.00542 7.03279 0.996332 7.08477 1.00134 7.13636V14.9773C1.00134 15.2485 1.10908 15.5087 1.30085 15.7004C1.49263 15.8922 1.75274 16 2.02395 16H14.977C15.2482 16 15.5083 15.8922 15.7001 15.7004C15.8919 15.5087 15.9996 15.2485 15.9996 14.9773V7.13636C16.0022 7.08506 15.9921 7.03391 15.9701 6.9875C15.9481 6.94109 15.9149 6.90087 15.8735 6.87045ZM1.68308 7.79773L5.97462 10.8659L1.68308 14.8545V7.79773ZM6.54388 11.2716L8.30276 12.5261C8.36049 12.5672 8.4296 12.5893 8.50047 12.5893C8.57133 12.5893 8.64044 12.5672 8.69817 12.5261L10.4571 11.2716L14.8168 15.3182H2.18416L6.54388 11.2716ZM15.3179 7.79773V14.8545L11.0263 10.8659L15.3179 7.79773ZM15.0963 7.11591L13.9544 7.93409V6.19545L15.0963 7.11591ZM4.06916 1.68182H12.9318C13.0222 1.68182 13.1089 1.71774 13.1728 1.78167C13.2367 1.8456 13.2726 1.93231 13.2726 2.02273V8.42159L8.50047 11.8307L3.72829 8.42159V2.02273C3.72829 1.93231 3.76421 1.8456 3.82813 1.78167C3.89206 1.71774 3.97876 1.68182 4.06916 1.68182ZM3.04656 7.93409L1.90464 7.13636L3.04656 6.19545V7.93409Z" fill="#2F87CC"/>
</svg>
