<svg width="24" height="24" viewBox="-3.5 -3.5 24 24" fill="none" xmlns="http://www.w3.org/2000/svg">
<path d="M17 8.33539C16.9996 8.15343 16.9572 7.97473 16.8771 7.81688C16.7969 7.65903 16.6817 7.52748 16.5429 7.43517L15.2326 3.82876C15.144 3.58328 14.9925 3.37326 14.7975 3.22561C14.6026 3.07796 14.373 2.9994 14.1382 3H2.86175C2.62704 2.99942 2.39753 3.078 2.20261 3.22565C2.0077 3.3733 1.85628 3.58331 1.76774 3.82876L0.457143 7.43517C0.318314 7.52753 0.203162 7.6591 0.12301 7.81693C0.0428579 7.97477 0.000465035 8.15345 0 8.33539C0 8.82036 0.293702 9.22589 0.690015 9.34662L1.69862 13.2864C1.75196 13.4917 1.86259 13.6721 2.01405 13.8007C2.16551 13.9292 2.34969 13.9992 2.53917 14H7.13579C7.34557 14.0011 7.54866 13.9167 7.70768 13.7622C7.8667 13.6077 7.97094 13.3935 8.00123 13.1591L8.19293 11.7226C8.19973 11.6747 8.21665 11.6294 8.24227 11.5905C8.26789 11.5516 8.30145 11.5203 8.34009 11.4992C8.4424 11.4378 8.55576 11.4378 8.6679 11.5044C8.70463 11.5257 8.73635 11.5565 8.76044 11.5944C8.78453 11.6323 8.8003 11.6761 8.80645 11.7222L8.99846 13.1591C9.02869 13.3934 9.13288 13.6076 9.29185 13.762C9.45083 13.9165 9.65387 14.0009 9.86359 13.9996H14.4602C14.6497 13.9989 14.834 13.929 14.9854 13.8005C15.1369 13.6719 15.2475 13.4914 15.3008 13.2861L16.3094 9.34627C16.5068 9.28661 16.6813 9.15523 16.8061 8.9724C16.9308 8.78957 16.9987 8.56547 16.9994 8.3347L17 8.33539ZM16.3856 8.33539C16.3856 8.53278 16.2433 8.6934 16.0688 8.6934H0.93149C0.849818 8.68933 0.772683 8.64984 0.716162 8.58315C0.659641 8.51645 0.628093 8.4277 0.628093 8.33539C0.628093 8.24308 0.659641 8.15433 0.716162 8.08763C0.772683 8.02094 0.849818 7.98145 0.93149 7.97739H16.0688C16.2433 7.97739 16.3856 8.138 16.3856 8.33539ZM2.33671 4.09171C2.37917 3.9738 2.45187 3.87292 2.54548 3.80202C2.63909 3.73111 2.74934 3.69343 2.86206 3.69381H14.1386C14.3699 3.69381 14.5763 3.84992 14.6642 4.09171L15.8237 7.28358H1.17665L2.33671 4.09171ZM14.7112 13.0939C14.6954 13.155 14.6626 13.2088 14.6175 13.2471C14.5724 13.2855 14.5176 13.3063 14.4611 13.3065H9.86452C9.80204 13.3069 9.74156 13.2817 9.6942 13.2357C9.64684 13.1897 9.61579 13.1259 9.60676 13.0561L9.41505 11.6192C9.39392 11.4639 9.34046 11.3164 9.25907 11.1889C9.17768 11.0614 9.07068 10.9576 8.94685 10.8858C8.80971 10.8033 8.65677 10.76 8.50138 10.7596C8.34437 10.7602 8.18987 10.8042 8.05131 10.8876C7.92801 10.9594 7.82153 11.0632 7.74057 11.1904C7.65962 11.3176 7.6065 11.4647 7.58556 11.6195L7.39416 13.0561C7.38506 13.1259 7.35395 13.1897 7.30654 13.2357C7.25913 13.2817 7.19861 13.3069 7.1361 13.3065H2.53948C2.48305 13.3063 2.42821 13.2855 2.38314 13.2471C2.33806 13.2088 2.30518 13.155 2.2894 13.0939L1.3404 9.38686H15.6602L14.7112 13.0939Z" fill="#2F87CC"/>
<path d="M10.5484 4.86531H6.45192C6.37044 4.86531 6.2923 4.90186 6.23468 4.96691C6.17707 5.03197 6.1447 5.12021 6.1447 5.21221C6.1447 5.30422 6.17707 5.39245 6.23468 5.45751C6.2923 5.52257 6.37044 5.55912 6.45192 5.55912H10.5484C10.6299 5.55912 10.708 5.52257 10.7656 5.45751C10.8232 5.39245 10.8556 5.30422 10.8556 5.21221C10.8556 5.12021 10.8232 5.03197 10.7656 4.96691C10.708 4.90186 10.6299 4.86531 10.5484 4.86531Z" fill="#2F87CC"/>
</svg>
