<svg width="24" height="21" viewBox="-3.5 0 24 21" fill="none" xmlns="http://www.w3.org/2000/svg">
<path d="M15.1767 4.92284C14.8711 4.79735 14.5316 4.79527 14.2247 4.91702C13.9177 5.03876 13.6653 5.27557 13.5168 5.58114L13.0818 6.48812L13.4559 2.9764C13.4908 2.6486 13.402 2.31951 13.2083 2.0588C13.0147 1.79809 12.7313 1.62624 12.4183 1.57961C12.1053 1.53299 11.7872 1.61526 11.5313 1.80901C11.2754 2.00276 11.1019 2.29277 11.0474 2.61765C10.7978 4.10791 10.3596 6.74765 10.2312 7.68211C10.2305 7.68723 10.2279 7.69189 10.224 7.69515C10.2202 7.69841 10.2153 7.70003 10.2103 7.69968C10.2054 7.69934 10.2007 7.69706 10.1973 7.6933C10.1939 7.68954 10.1919 7.68458 10.1919 7.67939V1.4C10.1919 1.0287 10.0505 0.672601 9.79878 0.410051C9.54708 0.1475 9.2057 0 8.84974 0C8.49378 0 8.15241 0.1475 7.90071 0.410051C7.64901 0.672601 7.5076 1.0287 7.5076 1.4V7.67939C7.5076 7.6821 7.50709 7.68478 7.5061 7.68728C7.50511 7.68978 7.50365 7.69205 7.50182 7.69396C7.49998 7.69588 7.49781 7.6974 7.49541 7.69843C7.49301 7.69947 7.49044 7.7 7.48785 7.7H7.47564C7.47092 7.70001 7.46635 7.69825 7.46277 7.69504C7.45919 7.69182 7.45684 7.68737 7.45614 7.6825L6.65891 2.41443C6.60314 2.04328 6.40893 1.71019 6.11865 1.48782C5.82836 1.26544 5.46555 1.17183 5.10936 1.22739C4.75316 1.28295 4.43248 1.48318 4.21726 1.78441C4.00204 2.08564 3.90974 2.46342 3.9605 2.83535L4.82349 9.21029V9.50219L3.47108 7.73885C3.26039 7.46417 2.96101 7.27893 2.6289 7.21775C2.2968 7.15658 1.9547 7.22366 1.66656 7.40646C1.37842 7.58926 1.16397 7.87526 1.06328 8.211C0.9626 8.54674 0.982579 8.90923 1.11949 9.23073L2.95935 13.5488C3.33966 14.4432 3.87515 15.2565 4.53884 15.9478L4.82349 16.2449V18.9602C4.59972 19.0428 4.41115 19.2053 4.29108 19.4189C4.17102 19.6325 4.12718 19.8835 4.16733 20.1276C4.20747 20.3716 4.32901 20.593 4.51047 20.7527C4.69194 20.9123 4.92165 20.9999 5.15903 21H11.8697C12.0735 21.0001 12.2726 20.9357 12.4405 20.8152C12.6084 20.6947 12.7373 20.5238 12.8101 20.3252C12.8828 20.1266 12.896 19.9096 12.848 19.703C12.7999 19.4964 12.6927 19.3099 12.5408 19.1682V15.5426C13.1904 14.832 13.6774 13.9772 13.9653 13.0424L15.9387 6.60979C16.0387 6.28019 16.0158 5.92336 15.8745 5.61061C15.7332 5.29787 15.484 5.05225 15.1767 4.92284ZM11.8697 20.3H5.15903C5.07004 20.3 4.98469 20.2631 4.92177 20.1975C4.85884 20.1318 4.82349 20.0428 4.82349 19.95C4.82349 19.8572 4.85884 19.7682 4.92177 19.7025C4.98469 19.6369 5.07004 19.6 5.15903 19.6H11.8697C11.9587 19.6 12.0441 19.6369 12.107 19.7025C12.1699 19.7682 12.2053 19.8572 12.2053 19.95C12.2053 20.0428 12.1699 20.1318 12.107 20.1975C12.0441 20.2631 11.9587 20.3 11.8697 20.3ZM15.2995 6.39625L13.3262 12.829C13.0565 13.7049 12.591 14.5013 11.968 15.1525C11.9368 15.185 11.9121 15.2236 11.8953 15.2661C11.8784 15.3085 11.8697 15.354 11.8697 15.4V18.9H5.49456V16.1C5.49457 16.054 5.48589 16.0085 5.46903 15.9661C5.45217 15.9236 5.42745 15.885 5.39629 15.8525L5.01336 15.4531C4.40798 14.8225 3.91952 14.0807 3.57258 13.265L1.73272 8.94687C1.67447 8.8087 1.65745 8.65543 1.68387 8.50702C1.7103 8.35862 1.77893 8.22194 1.88086 8.11479C1.95211 8.04045 2.03759 7.98262 2.13173 7.94509C2.22587 7.90755 2.32653 7.89116 2.42716 7.89697C2.52778 7.90278 2.6261 7.93068 2.71569 7.97882C2.80527 8.02697 2.88412 8.0943 2.94706 8.17639L4.89702 10.7188C4.94046 10.7754 4.99969 10.8166 5.06654 10.8365C5.13338 10.8565 5.20453 10.8544 5.27014 10.8304C5.33575 10.8063 5.39259 10.7617 5.4328 10.7025C5.473 10.6433 5.49459 10.5725 5.49456 10.5V9.18566C5.49457 9.1693 5.49347 9.15296 5.49129 9.13675L4.62498 2.73744C4.59982 2.54876 4.64706 2.35736 4.75642 2.2048C4.86579 2.05225 5.02845 1.95088 5.20906 1.92271C5.38967 1.89455 5.57364 1.94186 5.72099 2.05438C5.86834 2.1669 5.96718 2.33553 5.99602 2.52363L6.79346 7.79188C6.81856 7.96166 6.90124 8.11642 7.02645 8.22801C7.15167 8.33961 7.31112 8.40063 7.47581 8.4H7.48802C7.67117 8.39978 7.84676 8.32379 7.97627 8.1887C8.10578 8.0536 8.17863 7.87044 8.17884 7.67939V1.4C8.17884 1.21435 8.24954 1.0363 8.37539 0.905025C8.50124 0.77375 8.67193 0.7 8.84991 0.7C9.02789 0.7 9.19858 0.77375 9.32443 0.905025C9.45028 1.0363 9.52098 1.21435 9.52098 1.4V7.67939C9.52097 7.86165 9.58717 8.03713 9.70625 8.1705C9.82533 8.30387 9.98843 8.38522 10.1627 8.39816C10.337 8.4111 10.5095 8.35467 10.6455 8.24024C10.7815 8.12581 10.8708 7.96188 10.8956 7.78146C11.0229 6.85606 11.4597 4.22459 11.7087 2.73814C11.7332 2.59245 11.8111 2.46244 11.9259 2.37559C12.0406 2.28875 12.1833 2.25189 12.3237 2.27282C12.4641 2.29375 12.5911 2.37082 12.678 2.48773C12.7649 2.60464 12.8047 2.75221 12.7891 2.89922L12.2073 8.36132C12.1986 8.44299 12.2177 8.52523 12.2613 8.59367C12.3049 8.6621 12.3702 8.71236 12.4457 8.73563C12.5213 8.75891 12.6023 8.75372 12.6745 8.72097C12.7467 8.68823 12.8056 8.63002 12.8409 8.55654L14.117 5.89422C14.1892 5.7438 14.3131 5.62731 14.464 5.56802C14.6149 5.50874 14.7817 5.51103 14.931 5.57444C15.0803 5.63785 15.2013 5.7577 15.2696 5.91005C15.3379 6.0624 15.3486 6.23603 15.2995 6.39625Z" fill="#2F87CC"/>
<path d="M11.749 13.3481C11.7152 13.3187 11.6761 13.2965 11.634 13.2828C11.5919 13.2691 11.5477 13.2642 11.5038 13.2684C11.4599 13.2726 11.4173 13.2857 11.3782 13.307C11.3392 13.3284 11.3046 13.3576 11.2764 13.3929C11.1766 13.5177 11.0715 13.6378 10.9614 13.7527C10.9302 13.7852 10.9055 13.8238 10.8886 13.8663C10.8718 13.9087 10.8631 13.9543 10.8631 14.0002C10.8631 14.0462 10.8718 14.0917 10.8886 14.1342C10.9055 14.1766 10.9302 14.2152 10.9614 14.2477C10.9925 14.2802 11.0295 14.306 11.0702 14.3236C11.111 14.3412 11.1546 14.3502 11.1986 14.3502C11.2427 14.3502 11.2863 14.3412 11.3271 14.3236C11.3678 14.306 11.4048 14.2802 11.4359 14.2477C11.5604 14.1178 11.6792 13.9821 11.792 13.8411C11.8489 13.7697 11.8764 13.6778 11.8684 13.5853C11.8603 13.4929 11.8174 13.4076 11.749 13.3481ZM12.9686 10.1635C12.883 10.138 12.7913 10.149 12.7135 10.194C12.6357 10.2391 12.5782 10.3146 12.5538 10.4038L12.2738 11.4261C12.1778 11.7762 12.048 12.1153 11.8865 12.4381C11.8654 12.4789 11.8522 12.5237 11.8478 12.5699C11.8434 12.6161 11.8478 12.6627 11.8609 12.707C11.8739 12.7514 11.8952 12.7926 11.9237 12.8283C11.9521 12.8639 11.9871 12.8934 12.0265 12.9148C12.0659 12.9363 12.109 12.9493 12.1534 12.9533C12.1977 12.9572 12.2423 12.9519 12.2846 12.9376C12.327 12.9234 12.3661 12.9005 12.3999 12.8704C12.4337 12.8402 12.4614 12.8033 12.4814 12.7619C12.6639 12.3971 12.8105 12.0139 12.919 11.6183L13.1989 10.5961C13.2234 10.5068 13.2128 10.4112 13.1696 10.33C13.1264 10.2489 13.0541 10.189 12.9686 10.1635Z" fill="#2F87CC"/>
</svg>
