<svg width="24" height="24" viewBox="-3.5 -3.5 24 24" fill="none" xmlns="http://www.w3.org/2000/svg">
<path d="M3.11667 2.83333C3.92445 2.83333 4.53333 2.46783 4.53333 1.98333C4.53333 1.49883 3.92445 1.13333 3.11667 1.13333C2.30888 1.13333 1.7 1.49883 1.7 1.98333C1.7 2.46783 2.30888 2.83333 3.11667 2.83333ZM3.11667 1.7C3.6652 1.7 3.96667 1.91278 3.96667 1.98333C3.96667 2.05388 3.6652 2.26667 3.11667 2.26667C2.56813 2.26667 2.26667 2.05388 2.26667 1.98333C2.26667 1.91278 2.56813 1.7 3.11667 1.7Z" fill="#2F87CC"/>
<path d="M16.15 0H3.11667C1.36907 0 0 0.87125 0 1.98333V15.0167C0 16.1288 1.36907 17 3.11667 17C4.7124 17 5.98882 16.273 6.19933 15.3H16.15C16.3754 15.3 16.5916 15.2104 16.751 15.051C16.9104 14.8916 17 14.6754 17 14.45V0.85C17 0.624566 16.9104 0.408365 16.751 0.248959C16.5916 0.0895533 16.3754 0 16.15 0ZM3.11667 0.566667C4.49905 0.566667 5.66667 1.2155 5.66667 1.98333C5.66667 2.75117 4.49905 3.4 3.11667 3.4C1.73428 3.4 0.566667 2.75117 0.566667 1.98333C0.566667 1.2155 1.73428 0.566667 3.11667 0.566667ZM3.11667 16.4333C1.73428 16.4333 0.566667 15.7845 0.566667 15.0167V3.13508C1.28944 3.70911 2.19445 4.00425 3.11667 3.96667C4.03892 4.00435 4.94417 3.70912 5.66667 3.13508V15.0167C5.66667 15.7845 4.49905 16.4333 3.11667 16.4333ZM16.4333 14.45C16.4333 14.5251 16.4035 14.5972 16.3503 14.6503C16.2972 14.7035 16.2251 14.7333 16.15 14.7333H6.23333V1.98333C6.23333 1.4229 5.88512 0.92395 5.31647 0.566667H16.15C16.2251 0.566667 16.2972 0.596518 16.3503 0.649653C16.4035 0.702788 16.4333 0.774855 16.4333 0.85V14.45Z" fill="#2F87CC"/>
</svg>
