<svg width="24" height="18" viewBox="-3.5 0 24 18" fill="none" xmlns="http://www.w3.org/2000/svg">
<path d="M9.65909 18H7.34091C7.24579 18 7.15402 17.9649 7.08316 17.9015C7.01229 17.838 6.96733 17.7507 6.95686 17.6561L6.75364 15.8275C6.2326 15.6843 5.73148 15.4766 5.26189 15.2093L3.825 16.3583C3.75081 16.4177 3.65735 16.4476 3.56249 16.4424C3.46763 16.4372 3.378 16.3972 3.31075 16.3301L1.66986 14.6908C1.60234 14.6235 1.5621 14.5335 1.55689 14.4383C1.55168 14.3431 1.58188 14.2493 1.64166 14.175L2.79186 12.7366C2.52455 12.267 2.31688 11.7658 2.17368 11.2448L0.343864 11.0431C0.249325 11.0327 0.161968 10.9877 0.0985204 10.9168C0.0350727 10.846 -6.50621e-06 10.7542 9.05129e-10 10.6591V8.34091C-6.50621e-06 8.24579 0.0350727 8.15402 0.0985204 8.08316C0.161968 8.01229 0.249325 7.96733 0.343864 7.95686L2.17252 7.75364C2.31572 7.2326 2.52339 6.73148 2.7907 6.26189L1.64166 4.825C1.58231 4.75081 1.55238 4.65735 1.55758 4.56249C1.56278 4.46763 1.60276 4.378 1.66986 4.31075L3.3092 2.67141C3.37646 2.6043 3.46608 2.56433 3.56094 2.55913C3.65581 2.55392 3.74926 2.58386 3.82345 2.6432L5.26189 3.79341C5.73148 3.52609 6.2326 3.31843 6.75364 3.17523L6.95686 1.34657C6.9667 1.25154 7.0114 1.16353 7.08233 1.09953C7.15325 1.03552 7.24537 1.00007 7.34091 1H9.65909C9.75421 0.999993 9.84598 1.03507 9.91684 1.09852C9.98771 1.16197 10.0327 1.24932 10.0431 1.34386L10.2464 3.17252C10.7674 3.31572 11.2685 3.52339 11.7381 3.7907L13.175 2.64166C13.2492 2.58231 13.3426 2.55238 13.4375 2.55758C13.5324 2.56278 13.622 2.60276 13.6892 2.66986L15.3286 4.3092C15.3957 4.37646 15.4357 4.46608 15.4409 4.56094C15.4461 4.65581 15.4161 4.74926 15.3568 4.82345L14.2066 6.26189C14.4739 6.73148 14.6816 7.2326 14.8248 7.75364L16.6534 7.95686C16.7485 7.9667 16.8365 8.0114 16.9005 8.08233C16.9645 8.15325 16.9999 8.24537 17 8.34091V10.6591C17 10.7542 16.9649 10.846 16.9015 10.9168C16.838 10.9877 16.7507 11.0327 16.6561 11.0431L14.8275 11.2464C14.6843 11.7674 14.4766 12.2685 14.2093 12.7381L15.3583 14.175C15.4177 14.2492 15.4476 14.3426 15.4424 14.4375C15.4372 14.5324 15.3972 14.622 15.3301 14.6892L13.6908 16.3286C13.6235 16.3957 13.5339 16.4357 13.4391 16.4409C13.3442 16.4461 13.2507 16.4161 13.1765 16.3568L11.7381 15.2066C11.2685 15.4739 10.7674 15.6816 10.2464 15.8248L10.0431 17.6534C10.0333 17.7485 9.9886 17.8365 9.91767 17.9005C9.84675 17.9645 9.75463 17.9999 9.65909 18ZM7.68864 17.2273H9.31523L9.50841 15.4759C9.51725 15.3963 9.55058 15.3215 9.60381 15.2617C9.65703 15.2019 9.72752 15.1601 9.80552 15.1421C10.4289 14.9983 11.0238 14.7514 11.5658 14.4115C11.6337 14.369 11.7131 14.3487 11.793 14.3533C11.873 14.3579 11.9495 14.3873 12.012 14.4373L13.3894 15.5392L14.5396 14.389L13.4377 13.0117C13.3877 12.9491 13.3583 12.8726 13.3537 12.7927C13.3491 12.7127 13.3694 12.6333 13.4118 12.5654C13.7512 12.0234 13.9976 11.4284 14.1409 10.8051C14.1589 10.7271 14.2007 10.6566 14.2605 10.6034C14.3203 10.5502 14.3952 10.5169 14.4747 10.508L16.2261 10.3148V8.68864L14.4747 8.49545C14.3952 8.48662 14.3203 8.45328 14.2605 8.40006C14.2007 8.34683 14.1589 8.27635 14.1409 8.19834C13.9972 7.57497 13.7502 6.98002 13.4103 6.43807C13.3678 6.37017 13.3475 6.29076 13.3522 6.21082C13.3568 6.13088 13.3862 6.05435 13.4362 5.99182L14.5381 4.61443L13.3879 3.46423L12.0105 4.56614C11.948 4.61616 11.8714 4.64553 11.7915 4.65017C11.7116 4.6548 11.6321 4.63449 11.5642 4.59202C11.0228 4.25141 10.4282 4.00369 9.80514 3.85909C9.72713 3.84109 9.65664 3.7993 9.60342 3.7395C9.55019 3.6797 9.51686 3.60484 9.50802 3.52527L9.3133 1.77273H7.68864L7.49545 3.52411C7.48662 3.60368 7.45328 3.67854 7.40006 3.73834C7.34683 3.79814 7.27635 3.83993 7.19834 3.85793C6.57497 4.00169 5.98002 4.24863 5.43807 4.58855C5.37017 4.63101 5.29076 4.65133 5.21082 4.64669C5.13087 4.64205 5.05435 4.61269 4.99182 4.56266L3.61443 3.46075L2.46075 4.61095L3.56266 5.98834C3.61269 6.05087 3.64205 6.1274 3.64669 6.20734C3.65133 6.28729 3.63101 6.3667 3.58855 6.43459C3.24903 6.97662 3.00249 7.57157 2.85909 8.19486C2.84109 8.27287 2.7993 8.34336 2.7395 8.39658C2.6797 8.44981 2.60484 8.48314 2.52527 8.49198L0.772727 8.68864V10.3152L2.52411 10.5084C2.60368 10.5172 2.67854 10.5506 2.73834 10.6038C2.79814 10.657 2.83993 10.7275 2.85793 10.8055C3.00169 11.4289 3.24863 12.0238 3.58855 12.5658C3.63101 12.6337 3.65133 12.7131 3.64669 12.793C3.64205 12.873 3.61269 12.9495 3.56266 13.012L2.46075 14.389L3.61095 15.5392L4.98834 14.4373C5.05087 14.3873 5.1274 14.3579 5.20734 14.3533C5.28729 14.3487 5.3667 14.369 5.43459 14.4115C5.97662 14.751 6.57157 14.9975 7.19486 15.1409C7.27287 15.1589 7.34336 15.2007 7.39658 15.2605C7.44981 15.3203 7.48314 15.3952 7.49198 15.4747L7.68864 17.2273Z" fill="#2F87CC"/>
<path d="M8.5 12.2045C7.96509 12.2045 7.44219 12.0459 6.99743 11.7487C6.55267 11.4516 6.20603 11.0292 6.00133 10.535C5.79662 10.0408 5.74307 9.497 5.84742 8.97237C5.95178 8.44774 6.20936 7.96583 6.5876 7.5876C6.96584 7.20936 7.44774 6.95178 7.97237 6.84742C8.497 6.74307 9.04079 6.79663 9.53498 7.00133C10.0292 7.20603 10.4516 7.55267 10.7487 7.99743C11.0459 8.44219 11.2045 8.96509 11.2045 9.5C11.2037 10.217 10.9185 10.9045 10.4115 11.4115C9.90448 11.9185 9.21704 12.2037 8.5 12.2045ZM8.5 7.56818C8.11792 7.56818 7.74442 7.68148 7.42674 7.89375C7.10905 8.10602 6.86145 8.40773 6.71523 8.76072C6.56902 9.11372 6.53076 9.50214 6.6053 9.87688C6.67984 10.2516 6.86383 10.5958 7.134 10.866C7.40417 11.1362 7.74838 11.3202 8.12312 11.3947C8.49786 11.4692 8.88628 11.431 9.23927 11.2848C9.59227 11.1386 9.89398 10.8909 10.1062 10.5733C10.3185 10.2556 10.4318 9.88208 10.4318 9.5C10.4312 8.98784 10.2275 8.49683 9.86532 8.13468C9.50317 7.77252 9.01216 7.5688 8.5 7.56818Z" fill="#2F87CC"/>
</svg>
