<svg width="24" height="24" viewBox="-3.5 -3.5 24 24" fill="none" xmlns="http://www.w3.org/2000/svg">
<path d="M16.6629 4.17276C16.6159 4.17278 16.5693 4.16317 16.5264 4.14457L8.49981 0.684492L0.473468 4.14457C0.391862 4.17979 0.299191 4.18209 0.215841 4.15095C0.132492 4.11982 0.0652901 4.0578 0.029021 3.97855C-0.00724816 3.8993 -0.0096141 3.80929 0.0224436 3.72835C0.0545013 3.6474 0.118357 3.58213 0.199962 3.54691L8.36306 0.0281932C8.40611 0.0096048 8.4527 0 8.49981 0C8.54693 0 8.59352 0.0096048 8.63657 0.0281932L16.7997 3.54691C16.8703 3.57727 16.928 3.63029 16.9631 3.69707C16.9983 3.76386 17.0087 3.84034 16.9927 3.9137C16.9766 3.98707 16.9351 4.05285 16.8751 4.10001C16.815 4.14718 16.7401 4.17287 16.6629 4.17276Z" fill="#2F87CC"/>
<path d="M8.49981 17C8.45276 17 8.40624 16.9904 8.36327 16.9718L0.200173 13.4531C0.140608 13.4274 0.0899967 13.3855 0.0544805 13.3324C0.0189644 13.2794 7.06935e-05 13.2174 9.25497e-05 13.1542V3.84584C0.000108783 3.79139 0.0141259 3.73781 0.0408715 3.68996C0.0676171 3.64211 0.106244 3.60151 0.153247 3.57183C0.200249 3.54216 0.254138 3.52436 0.310022 3.52004C0.365906 3.51572 0.422016 3.52503 0.473258 3.54711L8.49981 7.00698L16.5262 3.54711C16.5774 3.52498 16.6335 3.51564 16.6895 3.51994C16.7454 3.52423 16.7993 3.54203 16.8463 3.57171C16.8934 3.60139 16.932 3.64201 16.9588 3.68988C16.9855 3.73776 16.9995 3.79137 16.9995 3.84584V13.1542C16.9996 13.2174 16.9807 13.2794 16.9451 13.3324C16.9096 13.3855 16.859 13.4274 16.7995 13.4531L8.63636 16.9718C8.59337 16.9904 8.54686 17 8.49981 17ZM0.673338 12.9417L8.49981 16.3155L16.3263 12.9417V4.34869L8.63636 7.66348C8.59331 7.68207 8.54672 7.69168 8.4996 7.69168C8.45249 7.69168 8.4059 7.68207 8.36285 7.66348L0.673338 4.34869V12.9417Z" fill="#2F87CC"/>
<path d="M8.49981 17C8.41054 17 8.32491 16.9656 8.26179 16.9042C8.19866 16.8429 8.16319 16.7598 8.16319 16.6731V7.36476C8.16319 7.27805 8.19866 7.1949 8.26179 7.13359C8.32491 7.07228 8.41054 7.03784 8.49981 7.03784C8.58909 7.03784 8.67471 7.07228 8.73784 7.13359C8.80097 7.1949 8.83644 7.27805 8.83644 7.36476V16.6731C8.83644 16.7598 8.80097 16.8429 8.73784 16.9042C8.67471 16.9656 8.58909 17 8.49981 17ZM12.7497 5.86418C12.7027 5.86412 12.6563 5.85452 12.6133 5.83598L4.44583 2.31441C4.36422 2.27918 4.30036 2.21392 4.26831 2.13297C4.23625 2.05202 4.23862 1.96202 4.27488 1.88277C4.31115 1.80351 4.37836 1.7415 4.4617 1.71036C4.54505 1.67923 4.63773 1.68153 4.71933 1.71675L12.8858 5.23731C12.957 5.26728 13.0154 5.32022 13.051 5.38718C13.0866 5.45413 13.0973 5.53098 13.0813 5.60473C13.0653 5.67847 13.0235 5.74458 12.9631 5.79186C12.9027 5.83914 12.8273 5.86469 12.7497 5.86418Z" fill="#2F87CC"/>
</svg>
