<svg width="24" height="19" viewBox="-3.5 0 24 19" fill="none" xmlns="http://www.w3.org/2000/svg">
<path d="M3.6087 7.2963V17.3704C3.6087 17.5374 3.53998 17.6975 3.41768 17.8156C3.29537 17.9337 3.12949 18 2.95652 18C2.78355 18 2.61767 17.9337 2.49537 17.8156C2.37306 17.6975 2.30435 17.5374 2.30435 17.3704V7.2963M3.6087 7.2963H2.30435M3.6087 7.2963C3.95463 7.2963 4.2864 7.16362 4.53101 6.92747C4.77562 6.69131 4.91304 6.37101 4.91304 6.03704V4.77778M2.30435 7.2963C1.95841 7.2963 1.62665 7.16362 1.38203 6.92747C1.13742 6.69131 1 6.37101 1 6.03704V4.77778M1 4.77778H4.91304M1 4.77778V1.31481M4.91304 4.77778V1.31481M3.6087 4.77778V1.31481M2.30435 4.77778V1.31481M8.5 8.10096C8.5 7.67659 8.31413 7.2793 7.94663 7.04633C7.32022 6.6503 6.86956 5.88498 6.86956 4.77778C6.86956 3.04 7.95315 1 9.21511 1C10.4771 1 11.4348 3.04 11.4348 4.77778C11.4348 5.88498 11.0542 6.6503 10.4278 7.04633C10.0597 7.2793 9.80435 7.67596 9.80435 8.10096V17.3704C9.80435 17.7167 9.51087 18 9.15217 18C8.79348 18 8.5 17.7167 8.5 17.3704V8.10096ZM14.6957 10.1296L14.575 9.9228C12.9129 7.06994 13.4177 3.49302 15.8151 1.1785L16 1V17.3704C16 17.7167 15.7065 18 15.3478 18C14.9891 18 14.6957 17.7167 14.6957 17.3704V10.1296Z" stroke="#2F87CC" stroke-width="0.7" stroke-miterlimit="10" stroke-linecap="round" stroke-linejoin="round"/>
</svg>
