<svg width="24" height="24" viewBox="-3.5 -3.5 24 24" fill="none" xmlns="http://www.w3.org/2000/svg">
<g clip-path="url(#clip0_2246_1464)">
<path d="M16.4688 3.32031H5.17969V2.65625C5.17969 1.26438 4.04813 0.132812 2.65625 0.132812C1.26438 0.132812 0.132812 1.26438 0.132812 2.65625V14.3438C0.133656 15.0127 0.399788 15.6541 0.872842 16.1272C1.3459 16.6002 1.98725 16.8663 2.65625 16.8672H16.4688C16.5744 16.8672 16.6758 16.8252 16.7505 16.7505C16.8252 16.6758 16.8672 16.5744 16.8672 16.4688V3.71875C16.8672 3.61308 16.8252 3.51173 16.7505 3.43701C16.6758 3.36229 16.5744 3.32031 16.4688 3.32031ZM16.0703 4.11719V16.0703H4.48694C4.913 15.6177 5.17969 15.0131 5.17969 14.3438V4.11719H16.0703ZM2.65625 0.929688C3.60825 0.929688 4.38281 1.70425 4.38281 2.65625V12.5131C3.93019 12.087 3.32562 11.8203 2.65625 11.8203C1.98688 11.8203 1.38125 12.0859 0.929688 12.5131V2.65625C0.929688 1.70425 1.70425 0.929688 2.65625 0.929688ZM0.929688 14.3438C0.929688 13.3918 1.70425 12.6172 2.65625 12.6172C3.60825 12.6172 4.38281 13.3918 4.38281 14.3438C4.38281 15.2957 3.60825 16.0703 2.65625 16.0703C1.70425 16.0703 0.929688 15.2957 0.929688 14.3438Z" fill="#2F87CC"/>
<path d="M3.05469 14.349V14.3384C3.05469 14.1185 2.87619 13.9453 2.65625 13.9453C2.43631 13.9453 2.25781 14.1291 2.25781 14.349C2.25781 14.4547 2.29979 14.5561 2.37451 14.6308C2.44923 14.7055 2.55058 14.7475 2.65625 14.7475C2.76192 14.7475 2.86327 14.7055 2.93799 14.6308C3.01271 14.5561 3.05469 14.4547 3.05469 14.349ZM11.9361 8.25029C11.9732 8.28756 12.0172 8.31713 12.0657 8.33731C12.1142 8.35749 12.1662 8.36788 12.2188 8.36788C12.2713 8.36788 12.3233 8.35749 12.3718 8.33731C12.4203 8.31713 12.4643 8.28756 12.5014 8.25029L14.6264 6.12529C14.6928 6.04893 14.7278 5.95019 14.7242 5.84902C14.7207 5.74786 14.6789 5.65182 14.6072 5.58031C14.5356 5.5088 14.4394 5.46715 14.3383 5.46378C14.2371 5.46042 14.1384 5.49558 14.0622 5.56217L11.9372 7.68717C11.8631 7.76215 11.8215 7.86332 11.8215 7.96873C11.8215 8.07415 11.862 8.17531 11.9361 8.25029ZM11.1562 7.30467C11.2087 7.30476 11.2607 7.29449 11.3092 7.27443C11.3577 7.25437 11.4018 7.22493 11.4389 7.18779L12.5014 6.12529C12.5678 6.04893 12.6028 5.95019 12.5992 5.84902C12.5957 5.74786 12.5539 5.65182 12.4822 5.58031C12.4106 5.5088 12.3144 5.46715 12.2133 5.46378C12.1121 5.46042 12.0134 5.49558 11.9372 5.56217L10.8747 6.62467C10.82 6.68077 10.7831 6.75166 10.7683 6.82857C10.7535 6.90548 10.7616 6.98503 10.7916 7.05738C10.8215 7.12974 10.872 7.19173 10.9368 7.23568C11.0017 7.27963 11.0779 7.30361 11.1562 7.30467Z" fill="#2F87CC"/>
</g>
<defs>
<clipPath id="clip0_2246_1464">
<rect width="17" height="17" fill="white"/>
</clipPath>
</defs>
</svg>
