<svg width="24" height="24" viewBox="-3.5 -3.5 24 24" fill="none" xmlns="http://www.w3.org/2000/svg">
<path d="M8.50007 16C6.65669 16 4.79976 15.9227 2.98043 15.773C2.46361 15.731 1.98127 15.5237 1.62247 15.1892C1.26366 14.8548 1.05262 14.4158 1.02831 13.9534C0.860567 10.6258 1.46849 5.83173 2.05298 1.59928C2.07596 1.43408 2.16575 1.28205 2.30547 1.17171C2.4452 1.06137 2.62527 1.00031 2.81187 1H4.83998C4.94359 1.00004 5.0461 1.01884 5.14133 1.05526C5.23655 1.09168 5.32249 1.14496 5.39396 1.21188C5.46542 1.27879 5.52091 1.35795 5.55707 1.44456C5.59323 1.53117 5.60931 1.62343 5.60433 1.71575L5.44265 4.68492C5.44022 4.72972 5.44801 4.77451 5.46556 4.81655C5.48311 4.85859 5.51005 4.89701 5.54475 4.92948C5.57945 4.96195 5.62119 4.9878 5.66742 5.00545C5.71365 5.02309 5.76342 5.03218 5.81371 5.03215H11.1856C11.2359 5.03216 11.2856 5.02305 11.3319 5.00539C11.3781 4.98773 11.4198 4.96188 11.4544 4.92941C11.4891 4.89695 11.516 4.85853 11.5336 4.81651C11.5511 4.77448 11.5589 4.72971 11.5565 4.68492L11.3948 1.71575C11.3898 1.62335 11.4059 1.53102 11.4421 1.44435C11.4784 1.35768 11.534 1.27848 11.6055 1.21155C11.6771 1.14462 11.7632 1.09136 11.8585 1.05499C11.9538 1.01863 12.0565 0.999918 12.1602 1H14.1883C14.3749 1.00031 14.5549 1.06137 14.6947 1.17171C14.8344 1.28205 14.9242 1.43408 14.9472 1.59928C15.5316 5.83173 16.1396 10.6258 15.9716 13.9534C15.9473 14.4158 15.7363 14.8548 15.3775 15.1892C15.0187 15.5237 14.5363 15.731 14.0195 15.773C12.2002 15.9227 10.3433 16 8.50007 16ZM2.81187 1.57692C2.78295 1.57695 2.75503 1.5864 2.73337 1.6035C2.71171 1.6206 2.6978 1.64416 2.69425 1.66977C2.11361 5.87879 1.5073 10.6444 1.67464 13.9267C1.70819 14.59 2.2953 15.1364 3.04005 15.1977C4.83877 15.3459 6.67791 15.4215 8.50027 15.4224C10.3226 15.4233 12.1604 15.3459 13.9601 15.1977C14.7048 15.1364 15.292 14.59 15.3255 13.9267C15.4928 10.6444 14.8865 5.87879 14.3059 1.66977C14.3023 1.64416 14.2884 1.6206 14.2668 1.6035C14.2451 1.5864 14.2172 1.57695 14.1883 1.57692H12.1602C12.1441 1.57691 12.1282 1.5798 12.1134 1.58543C12.0987 1.59107 12.0854 1.59932 12.0743 1.60969C12.0632 1.62006 12.0546 1.63234 12.049 1.64576C12.0434 1.65919 12.0409 1.67349 12.0417 1.6878L12.2034 4.65697C12.2101 4.77979 12.1888 4.90255 12.1407 5.01779C12.0926 5.13303 12.0188 5.23837 11.9237 5.3274C11.8287 5.41643 11.7143 5.4873 11.5876 5.53572C11.4609 5.58414 11.3245 5.6091 11.1866 5.60907H5.81472C5.67686 5.60912 5.54043 5.58419 5.4137 5.53578C5.28697 5.48737 5.17258 5.4165 5.07748 5.32746C4.98238 5.23843 4.90854 5.13309 4.86046 5.01783C4.81237 4.90258 4.79103 4.77981 4.79774 4.65697L4.95841 1.6878C4.95921 1.67349 4.95673 1.65919 4.95114 1.64576C4.94554 1.63234 4.93694 1.62006 4.92587 1.60969C4.91479 1.59932 4.90146 1.59107 4.8867 1.58543C4.87193 1.5798 4.85604 1.57691 4.83998 1.57692H2.81187Z" fill="#2F87CC"/>
<path d="M5.19649 3.55721C5.11073 3.55721 5.02848 3.52682 4.96784 3.47272C4.90719 3.41863 4.87313 3.34525 4.87313 3.26875C4.87313 3.2117 4.89209 3.15593 4.92762 3.10849C4.96315 3.06105 5.01366 3.02408 5.07274 3.00225C5.13183 2.98041 5.19685 2.9747 5.25958 2.98583C5.3223 2.99696 5.37992 3.02444 5.42514 3.06478C5.47037 3.10512 5.50116 3.15652 5.51364 3.21247C5.52612 3.26843 5.51972 3.32643 5.49524 3.37914C5.47077 3.43185 5.42932 3.4769 5.37614 3.5086C5.32297 3.54029 5.26045 3.55721 5.19649 3.55721ZM11.8037 3.55739C11.7397 3.55739 11.6772 3.54047 11.624 3.50878C11.5708 3.47708 11.5294 3.43203 11.5049 3.37932C11.4804 3.32661 11.474 3.26861 11.4865 3.21265C11.499 3.1567 11.5298 3.1053 11.575 3.06496C11.6202 3.02462 11.6778 2.99714 11.7406 2.98601C11.8033 2.97488 11.8683 2.98059 11.9274 3.00243C11.9865 3.02426 12.037 3.06123 12.0725 3.10867C12.1081 3.15611 12.127 3.21188 12.127 3.26893C12.127 3.34544 12.0929 3.41881 12.0323 3.4729C11.9717 3.527 11.8894 3.55739 11.8037 3.55739ZM8.50007 14.2849C6.65669 14.2849 4.79976 14.2076 2.98043 14.0578C2.46365 14.0158 1.98133 13.8084 1.62253 13.474C1.26373 13.1396 1.05267 12.7007 1.02831 12.2383C1.02164 12.1065 1.01619 11.9756 1.01214 11.8498V11.8416C1.01123 11.7651 1.04443 11.6914 1.10443 11.6368C1.16442 11.5821 1.24631 11.5509 1.33207 11.5501C1.41784 11.5493 1.50045 11.5789 1.56173 11.6324C1.62302 11.686 1.65796 11.759 1.65887 11.8355C1.66271 11.9576 1.66797 12.0843 1.67464 12.2121C1.70819 12.8754 2.2953 13.4219 3.04005 13.4834C4.83877 13.6314 6.67791 13.7071 8.50027 13.708C10.3226 13.7089 12.1604 13.6314 13.9601 13.4834C14.7048 13.4219 15.292 12.8754 15.3255 12.2121C15.3322 12.084 15.3374 11.957 15.3413 11.8346C15.3423 11.7581 15.3773 11.6851 15.4387 11.6316C15.5001 11.5782 15.5827 11.5487 15.6685 11.5496C15.7542 11.5505 15.8361 11.5817 15.896 11.6365C15.9559 11.6912 15.989 11.765 15.988 11.8415V11.8498C15.984 11.976 15.9785 12.1065 15.9718 12.2383C15.9475 12.7007 15.7364 13.1397 15.3775 13.4741C15.0187 13.8085 14.5363 14.0158 14.0195 14.0578C12.2002 14.2076 10.3433 14.284 8.50007 14.2849ZM9.67449 5.60907H7.32565C7.23989 5.60907 7.15764 5.57868 7.09699 5.52459C7.03635 5.47049 7.00228 5.39712 7.00228 5.32061V4.26322C7.0026 3.99927 7.12029 3.74622 7.32951 3.55958C7.53873 3.37293 7.82241 3.26795 8.1183 3.26767H8.88184C9.17773 3.26795 9.46141 3.37293 9.67063 3.55958C9.87985 3.74622 9.99754 3.99927 9.99786 4.26322V5.32133C9.99764 5.39771 9.96348 5.4709 9.90286 5.52484C9.84224 5.57878 9.76011 5.60907 9.67449 5.60907ZM7.64901 5.03215H9.35113V4.26322C9.35097 4.15224 9.30147 4.04584 9.2135 3.96736C9.12553 3.88889 9.00626 3.84473 8.88184 3.84459H8.1183C7.99388 3.84473 7.87461 3.88889 7.78664 3.96736C7.69867 4.04584 7.64917 4.15224 7.64901 4.26322V5.03215Z" fill="#2F87CC"/>
</svg>
