<svg width="24" height="24" viewBox="-3.5 -3.5 24 24" fill="none" xmlns="http://www.w3.org/2000/svg">
<path d="M8.64736 4.75386C4.30226 4.75386 3.76604 0.459691 3.76021 0.415903C3.74272 0.261184 3.84764 0.121061 3.99918 0.0947884C5.45629 -0.156264 6.63072 0.0918692 7.4875 0.833351C8.96793 2.11197 8.93878 4.37145 8.93587 4.46778C8.9351 4.54392 8.90437 4.61668 8.85034 4.67025C8.79632 4.72382 8.72338 4.75387 8.64736 4.75386ZM4.38677 0.629006C4.56453 1.48726 5.34263 4.00362 8.34428 4.16126C8.30057 3.54823 8.09074 2.12073 7.10574 1.27415C6.44129 0.704905 5.52623 0.485964 4.38677 0.629006Z" fill="#2F87CC"/>
<path d="M8.64736 4.75386C8.48999 4.75386 8.35885 4.62834 8.35594 4.46778C8.35302 4.37145 8.32388 2.11197 9.80431 0.833351C10.6611 0.0918692 11.8355 -0.156264 13.2926 0.0947884C13.3653 0.107003 13.4306 0.146307 13.4754 0.204796C13.5203 0.263285 13.5414 0.336623 13.5345 0.410064C13.5287 0.456772 13.0712 4.75386 8.64736 4.75386ZM12.2523 0.588137C11.41 0.588137 10.7165 0.818755 10.1832 1.27707C9.19815 2.12657 8.99124 3.55114 8.94753 4.16418C12.0191 4.00654 12.7506 1.48434 12.9109 0.631925C12.6836 0.602733 12.4621 0.588137 12.2523 0.588137Z" fill="#2F87CC"/>
<path d="M8.64736 6.79148C8.48708 6.79148 8.35594 6.66011 8.35594 6.49956V4.46194C8.35594 4.30138 8.48708 4.17002 8.64736 4.17002C8.80764 4.17002 8.93878 4.30138 8.93878 4.46194V6.49956C8.93878 6.66303 8.80764 6.79148 8.64736 6.79148Z" fill="#2F87CC"/>
<path d="M8.50748 10.3675C8.46085 10.3675 8.39382 10.3558 8.35302 10.3354L2.67612 7.3724C2.57703 7.31986 2.51584 7.21477 2.51875 7.10384C2.52166 6.98999 2.59161 6.89073 2.6936 6.84694L6.76477 5.09541C6.91048 5.03119 7.08242 5.10125 7.14654 5.24721C7.21065 5.39609 7.14071 5.56833 6.995 5.62963L3.48919 7.13887L8.49582 9.75157L13.5025 7.13887L10.0054 5.63547C9.97031 5.62041 9.93854 5.59855 9.91192 5.57115C9.8853 5.54375 9.86434 5.51135 9.85026 5.47581C9.83618 5.44028 9.82924 5.4023 9.82986 5.36407C9.83048 5.32584 9.83863 5.28811 9.85385 5.25305C9.91796 5.10417 10.0899 5.03703 10.2356 5.10125L14.298 6.84694C14.3483 6.86899 14.3914 6.90484 14.4222 6.95035C14.453 6.99587 14.4703 7.04919 14.4721 7.10415C14.474 7.15911 14.4602 7.21347 14.4325 7.26094C14.4048 7.30841 14.3642 7.34706 14.3155 7.3724L8.64153 10.3354C8.60073 10.3558 8.55411 10.3675 8.50748 10.3675Z" fill="#2F87CC"/>
<path d="M6.17027 11.7833C6.12073 11.7833 6.06827 11.7687 6.02456 11.7425L0.36514 8.435C0.271885 8.37953 0.216514 8.27736 0.222343 8.16935C0.228171 8.06134 0.292284 7.96501 0.391368 7.9183L2.17487 7.08924L0.152401 5.95366C0.0504036 5.89528 -0.00788083 5.78727 0.000861841 5.67342C0.00960451 5.55957 0.0853743 5.46323 0.190286 5.42237L4.42465 3.86058C4.49693 3.83414 4.57672 3.83741 4.6466 3.86968C4.71649 3.90195 4.77079 3.96059 4.79767 4.03282C4.81102 4.06865 4.81716 4.10677 4.81573 4.14499C4.8143 4.18321 4.80534 4.22077 4.78936 4.2555C4.77338 4.29023 4.75069 4.32146 4.72261 4.34737C4.69452 4.37328 4.6616 4.39337 4.62573 4.40648L0.982955 5.74932L2.95006 6.8557C3.04622 6.90825 3.10159 7.01334 3.09868 7.12135C3.09577 7.23228 3.02874 7.32862 2.92966 7.37532L1.14032 8.21022L6.16736 11.1528L8.34428 9.83331C8.35302 9.82747 8.36468 9.82163 8.37342 9.81871C8.51914 9.74865 8.6969 9.80703 8.76684 9.953C8.83679 10.099 8.78141 10.2712 8.6357 10.3413L8.62988 10.3442L6.32181 11.7454C6.27518 11.7688 6.22273 11.7833 6.17027 11.7833Z" fill="#2F87CC"/>
<path d="M8.49582 17C8.33554 17 8.2044 16.8686 8.2044 16.7081V10.0814C8.2044 9.98219 8.25686 9.88585 8.34137 9.83039C8.42588 9.77784 8.53371 9.76908 8.62405 9.81287C8.63279 9.81579 8.64445 9.82455 8.65319 9.82747L10.8359 11.1499L15.863 8.21022L14.0707 7.37824C13.9716 7.33154 13.9075 7.2352 13.9017 7.12427C13.8988 7.01334 13.9542 6.91117 14.0503 6.85862L16.0174 5.75224L12.3776 4.4094C12.3053 4.38268 12.2466 4.32831 12.2143 4.25824C12.1821 4.18816 12.179 4.10813 12.2056 4.03574C12.2323 3.96335 12.2866 3.90453 12.3565 3.87223C12.4265 3.83993 12.5064 3.83679 12.5786 3.8635L16.8101 5.42528C16.8623 5.4447 16.9078 5.47866 16.9413 5.52316C16.9748 5.56767 16.9948 5.62084 16.9991 5.67641C17.0034 5.73198 16.9917 5.78761 16.9655 5.83674C16.9392 5.88587 16.8995 5.92645 16.8509 5.95366L14.8284 7.08924L16.6119 7.9183C16.711 7.96501 16.7751 8.06134 16.781 8.16935C16.7868 8.27736 16.7314 8.37954 16.6352 8.435L10.9787 11.7454C10.8855 11.7979 10.7718 11.7979 10.6815 11.7425L8.78724 10.5952V16.711C8.78648 16.7879 8.75543 16.8614 8.70086 16.9155C8.6463 16.9696 8.57261 17 8.49582 17Z" fill="#2F87CC"/>
<path d="M8.49582 17C8.46085 17 8.42297 16.9942 8.388 16.9796L2.70235 14.7201C2.64812 14.6984 2.60163 14.661 2.5689 14.6126C2.53616 14.5642 2.51869 14.5071 2.51875 14.4486V9.52679C2.51875 9.36623 2.64989 9.23487 2.81017 9.23487C2.97046 9.23487 3.1016 9.36623 3.1016 9.52679V14.2501L8.48999 16.3899L13.893 13.9261V9.53263C13.893 9.37207 14.0241 9.2407 14.1844 9.2407C14.3447 9.2407 14.4758 9.37207 14.4758 9.53263V14.1158C14.4758 14.2297 14.4088 14.3347 14.3039 14.3815L8.61822 16.9737C8.57983 16.9913 8.53805 17.0003 8.49582 17Z" fill="#2F87CC"/>
</svg>
