<svg width="53" height="58" viewBox="0 0 53 58" fill="none" xmlns="http://www.w3.org/2000/svg">
<path d="M49.1564 14.542C49.0192 13.0354 48.3173 11.6345 47.1895 10.6164C46.0616 9.59818 44.5899 9.03668 43.065 9.04282H36.5065C35.7958 3.82561 32.3237 0.985352 26.4962 0.985352C20.6687 0.985352 17.1966 3.82561 16.4859 9.04282H9.90712C8.38221 9.03668 6.91044 9.59818 5.7826 10.6164C4.65476 11.6345 3.95289 13.0354 3.81566 14.542L0.485663 50.8006C0.409314 51.6387 0.510246 52.4834 0.781996 53.2806C1.05375 54.0777 1.49032 54.8098 2.06376 55.4299C2.6372 56.05 3.33487 56.5444 4.11207 56.8815C4.88927 57.2187 5.72888 57.391 6.57712 57.3876H46.4153C47.2635 57.391 48.1031 57.2187 48.8803 56.8815C49.6575 56.5444 50.3552 56.05 50.9286 55.4299C51.5021 54.8098 51.9387 54.0777 52.2104 53.2806C52.4822 52.4834 52.5831 51.6387 52.5067 50.8006L49.1564 14.542ZM26.4962 5.01409C30.0089 5.01409 31.8364 6.26299 32.3846 9.04282H20.6078C21.156 6.26299 22.9835 5.01409 26.4962 5.01409ZM47.9178 52.6941C47.728 52.9028 47.4962 53.0698 47.2375 53.1843C46.9787 53.2987 46.6986 53.3582 46.4153 53.3589H6.57712C6.29378 53.3582 6.01372 53.2987 5.75494 53.1843C5.49616 53.0698 5.2644 52.9028 5.07456 52.6941C4.88467 52.489 4.73972 52.2471 4.64885 51.9836C4.55798 51.7201 4.52318 51.4408 4.54664 51.1632L7.87663 14.9046C7.92238 14.4024 8.15634 13.9355 8.53228 13.5961C8.90823 13.2567 9.39882 13.0695 9.90712 13.0716H43.0853C43.5936 13.0695 44.0842 13.2567 44.4601 13.5961C44.8361 13.9355 45.07 14.4024 45.1158 14.9046L48.4458 51.1632C48.4692 51.4408 48.4344 51.7201 48.3435 51.9836C48.2527 52.2471 48.1077 52.489 47.9178 52.6941Z" fill="#2F87CC"/>
<path d="M36.2222 24.7347L23.4505 37.4252L18.8007 32.7922C18.6113 32.6044 18.3866 32.4554 18.1392 32.3538C17.8919 32.2521 17.6267 32.1998 17.359 32.1998C17.0913 32.1998 16.8262 32.2521 16.5788 32.3538C16.3314 32.4554 16.1067 32.6044 15.9174 32.7922C15.728 32.98 15.5779 33.203 15.4754 33.4484C15.3729 33.6938 15.3202 33.9568 15.3202 34.2224C15.3202 34.488 15.3729 34.751 15.4754 34.9964C15.5779 35.2418 15.728 35.4648 15.9174 35.6526L22.0088 41.6957C22.1976 41.8845 22.4222 42.0344 22.6696 42.1366C22.917 42.2389 23.1824 42.2916 23.4505 42.2916C23.7185 42.2916 23.9839 42.2389 24.2313 42.1366C24.4788 42.0344 24.7034 41.8845 24.8921 41.6957L39.1055 27.5951C39.2948 27.4073 39.445 27.1843 39.5475 26.939C39.6499 26.6936 39.7027 26.4305 39.7027 26.1649C39.7027 25.8993 39.6499 25.6363 39.5475 25.3909C39.445 25.1455 39.2948 24.9226 39.1055 24.7347C38.9162 24.5469 38.6914 24.3979 38.4441 24.2963C38.1967 24.1946 37.9316 24.1423 37.6639 24.1423C37.3961 24.1423 37.131 24.1946 36.8837 24.2963C36.6363 24.3979 36.4115 24.5469 36.2222 24.7347Z" fill="#2F87CC"/>
</svg>
