<svg width="32" height="28" viewBox="-2.5 0 32 28" fill="none" xmlns="http://www.w3.org/2000/svg">
<g clip-path="url(#clip0_2634_3715)">
<path d="M7.95222 17.8711C7.95222 17.4227 7.64108 17.1553 7.09211 17.1553C6.86794 17.1553 6.71613 17.1774 6.63672 17.1986V18.6372C6.73074 18.6584 6.84633 18.6654 7.00565 18.6654C7.5908 18.6654 7.95222 18.3698 7.95222 17.8711ZM11.3506 17.1703C11.1048 17.1703 10.9459 17.1916 10.8519 17.2136V20.3998C10.9459 20.4218 11.0978 20.4218 11.235 20.4218C12.2323 20.4289 12.8828 19.8799 12.8828 18.7167C12.8898 17.7051 12.2971 17.1703 11.3506 17.1703Z" fill="#2F87CC"/>
<path d="M17.6644 0.5H6.82012C5.23587 0.5 3.94646 1.7903 3.94646 3.37366V13.9999H3.66579C3.02638 13.9999 2.50781 14.518 2.50781 15.158V22.1806C2.50781 22.8206 3.02632 23.3386 3.66579 23.3386H3.94646V24.6263C3.94646 26.2114 5.23587 27.4999 6.82012 27.4999H21.6167C23.1999 27.4999 24.4895 26.2113 24.4895 24.6263V7.30118L17.6644 0.5ZM5.54566 16.4253C5.88502 16.368 6.36204 16.3247 7.0341 16.3247C7.71327 16.3247 8.19733 16.4544 8.52258 16.7148C8.83327 16.9602 9.04294 17.3652 9.04294 17.8419C9.04294 18.3185 8.88407 18.7236 8.59499 18.9981C8.21901 19.352 7.66298 19.5109 7.01253 19.5109C6.86777 19.5109 6.73802 19.5037 6.63655 19.4897V21.231H5.54566V16.4253ZM21.6167 25.7401H6.82012C6.20669 25.7401 5.70717 25.2406 5.70717 24.6263V23.3386H19.5006C20.1401 23.3386 20.6586 22.8206 20.6586 22.1806V15.158C20.6586 14.518 20.1401 13.9999 19.5006 13.9999H5.70717V3.37366C5.70717 2.76113 6.20675 2.2616 6.82012 2.2616L17.006 2.25096V6.01603C17.006 7.11577 17.8983 8.00892 18.9989 8.00892L22.6872 7.99833L22.7287 24.6262C22.7287 25.2406 22.2301 25.7401 21.6167 25.7401ZM9.74636 21.209V16.4253C10.151 16.3609 10.6783 16.3247 11.2348 16.3247C12.1597 16.3247 12.7595 16.4907 13.2295 16.8445C13.7352 17.2205 14.0529 17.8198 14.0529 18.6803C14.0529 19.6123 13.7135 20.2557 13.2435 20.6528C12.7307 21.0791 11.9501 21.2813 10.9965 21.2813C10.4254 21.2813 10.0208 21.2451 9.74636 21.209ZM17.6327 18.3768V19.2725H15.8838V21.231H14.7784V16.3609H17.7554V17.2638H15.8838V18.3768H17.6327Z" fill="#2F87CC"/>
</g>
<defs>
<clipPath id="clip0_2634_3715">
<rect width="27" height="27" fill="white" transform="translate(0 0.5)"/>
</clipPath>
</defs>
</svg>
