<svg width="26" height="26" viewBox="0 0 26 26" fill="none" xmlns="http://www.w3.org/2000/svg">
<path d="M23.3991 18.8194V22.3421C23.4004 22.6691 23.337 22.9928 23.213 23.2924C23.089 23.5921 22.9072 23.861 22.6792 24.0821C22.4511 24.3032 22.1819 24.4715 21.8887 24.5763C21.5956 24.681 21.285 24.72 20.9767 24.6905C17.5575 24.2979 14.273 23.0632 11.3872 21.0857C8.70244 19.2829 6.42619 16.8775 4.72015 14.0404C2.84223 10.9771 1.67356 7.48944 1.30882 3.85995C1.28106 3.53524 1.31757 3.20798 1.41605 2.899C1.51453 2.59002 1.67281 2.3061 1.88082 2.06531C2.08883 1.82451 2.34201 1.63212 2.62423 1.50039C2.90646 1.36866 3.21155 1.30047 3.52008 1.30016H6.85362C7.39289 1.29455 7.91568 1.49635 8.32456 1.86793C8.73344 2.23952 9.00051 2.75554 9.07599 3.31981C9.21669 4.44714 9.47762 5.55402 9.85381 6.61935C10.0033 7.03963 10.0357 7.49639 9.94705 7.93551C9.85843 8.37462 9.65254 8.77769 9.35378 9.09695L7.94258 10.5882C9.52441 13.5279 11.8278 15.9619 14.6097 17.6335L16.0209 16.1422C16.323 15.8265 16.7044 15.609 17.12 15.5153C17.5355 15.4217 17.9677 15.4559 18.3655 15.6138C19.3736 16.0114 20.4211 16.2871 21.4879 16.4358C22.0277 16.5163 22.5206 16.8036 22.873 17.2431C23.2254 17.6825 23.4126 18.2436 23.3991 18.8194Z" stroke="#2F87CC" stroke-width="2" stroke-linecap="round" stroke-linejoin="round"/>
</svg>
