<svg width="24" height="21" viewBox="-2 0 24 21" fill="none" xmlns="http://www.w3.org/2000/svg">
<path d="M18.3351 14.6V17.1C18.3361 17.3321 18.2886 17.5618 18.1956 17.7745C18.1026 17.9871 17.9662 18.178 17.7952 18.3349C17.6242 18.4918 17.4223 18.6113 17.2024 18.6856C16.9826 18.76 16.7496 18.7876 16.5185 18.7667C13.9542 18.4881 11.491 17.6118 9.32682 16.2084C7.31334 14.9289 5.60626 13.2219 4.32682 11.2084C2.91846 9.03438 2.04202 6.5592 1.76848 3.98337C1.74766 3.75293 1.77505 3.52067 1.8489 3.30139C1.92275 3.08211 2.04146 2.88061 2.19745 2.70972C2.35345 2.53883 2.54332 2.4023 2.75498 2.30881C2.96663 2.21532 3.19543 2.16692 3.42682 2.16671H5.92682C6.33124 2.16273 6.72331 2.30594 7.02995 2.56965C7.33659 2.83336 7.53688 3.19958 7.59348 3.60004C7.699 4.4001 7.89469 5.18565 8.17682 5.94171C8.28894 6.23998 8.3132 6.56414 8.24674 6.87577C8.18027 7.18741 8.02587 7.47347 7.80182 7.70004L6.74348 8.75837C7.92978 10.8447 9.65719 12.5721 11.7435 13.7584L12.8018 12.7C13.0284 12.476 13.3144 12.3216 13.6261 12.2551C13.9377 12.1887 14.2619 12.2129 14.5601 12.325C15.3162 12.6072 16.1018 12.8029 16.9018 12.9084C17.3066 12.9655 17.6763 13.1694 17.9406 13.4813C18.2049 13.7932 18.3453 14.1914 18.3351 14.6Z" fill="#2F87CC"/>
</svg>
