<svg width="32" height="28" viewBox="-2.5 0 32 28" fill="none" xmlns="http://www.w3.org/2000/svg">
<path d="M21.375 3.875H5.625C4.38236 3.875 3.375 4.88236 3.375 6.125V21.875C3.375 23.1176 4.38236 24.125 5.625 24.125H21.375C22.6176 24.125 23.625 23.1176 23.625 21.875V6.125C23.625 4.88236 22.6176 3.875 21.375 3.875Z" stroke="#2F87CC" stroke-width="2" stroke-linecap="round" stroke-linejoin="round"/>
<path d="M9.5625 11.75C10.4945 11.75 11.25 10.9945 11.25 10.0625C11.25 9.13052 10.4945 8.375 9.5625 8.375C8.63052 8.375 7.875 9.13052 7.875 10.0625C7.875 10.9945 8.63052 11.75 9.5625 11.75Z" stroke="#2F87CC" stroke-width="2" stroke-linecap="round" stroke-linejoin="round"/>
<path d="M23.625 17.375L18 11.75L5.625 24.125" stroke="#2F87CC" stroke-width="2" stroke-linecap="round" stroke-linejoin="round"/>
</svg>
