<svg width="20" height="20" viewBox="0 0 20 20" fill="none" xmlns="http://www.w3.org/2000/svg">
<path fill-rule="evenodd" clip-rule="evenodd" d="M10 1.5C11.8565 1.5 13.6372 2.23248 14.95 3.53671C16.2627 4.84094 17 6.61009 17 8.45455C17 13.8636 10 18.5 10 18.5C10 18.5 3 13.8636 3 8.45455C3 6.61009 3.73727 4.84094 5.05002 3.53671C6.36278 2.23248 8.14348 1.5 10 1.5ZM10 6.13636C8.71134 6.13636 7.66667 7.17425 7.66667 8.45455C7.66667 9.73484 8.71134 10.7727 10 10.7727C11.2887 10.7727 12.3333 9.73484 12.3333 8.45455C12.3333 7.17425 11.2887 6.13636 10 6.13636Z" fill="#2F87CC"/>
</svg>
