<svg width="54" height="54" viewBox="0 0 54 54" fill="none" xmlns="http://www.w3.org/2000/svg">
<path d="M27 36.2812C26.5524 36.2812 26.1232 36.1035 25.8068 35.787C25.4903 35.4705 25.3125 35.0413 25.3125 34.5938V28.6875H19.4062C18.9587 28.6875 18.5295 28.5097 18.213 28.1932C17.8965 27.8768 17.7188 27.4476 17.7188 27C17.7188 26.5524 17.8965 26.1232 18.213 25.8068C18.5295 25.4903 18.9587 25.3125 19.4062 25.3125H25.3125V19.4062C25.3125 18.9587 25.4903 18.5295 25.8068 18.213C26.1232 17.8965 26.5524 17.7188 27 17.7188C27.4476 17.7188 27.8768 17.8965 28.1932 18.213C28.5097 18.5295 28.6875 18.9587 28.6875 19.4062V25.3125H34.5938C35.0413 25.3125 35.4705 25.4903 35.787 25.8068C36.1035 26.1232 36.2812 26.5524 36.2812 27C36.2812 27.4476 36.1035 27.8768 35.787 28.1932C35.4705 28.5097 35.0413 28.6875 34.5938 28.6875H28.6875V34.5938C28.6875 35.0413 28.5097 35.4705 28.1932 35.787C27.8768 36.1035 27.4476 36.2812 27 36.2812Z" fill="#2F87CC"/>
<path fill-rule="evenodd" clip-rule="evenodd" d="M15.1875 1.6875C7.73128 1.6875 1.6875 7.73128 1.6875 15.1875V38.8125C1.6875 46.2687 7.73128 52.3125 15.1875 52.3125H38.8125C46.2687 52.3125 52.3125 46.2687 52.3125 38.8125V17.3872C52.3124 16.4616 52.1219 15.5459 51.753 14.6971C51.384 13.8483 50.8444 13.0844 50.1677 12.4529L40.5793 3.50325C39.3294 2.33645 37.6832 1.6875 35.9733 1.6875H15.1875ZM5.0625 15.1875C5.0625 9.59597 9.59597 5.0625 15.1875 5.0625H35.4375V10.125C35.4375 11.9152 36.1487 13.6321 37.4145 14.898C38.6804 16.1638 40.3973 16.875 42.1875 16.875H48.8987C48.924 17.0437 48.9375 17.215 48.9375 17.3872V38.8125C48.9375 44.404 44.404 48.9375 38.8125 48.9375H15.1875C9.59597 48.9375 5.0625 44.404 5.0625 38.8125V15.1875ZM38.8125 10.125V6.47156L46.3438 13.5H42.1875C41.2924 13.5 40.434 13.1444 39.801 12.5115C39.1681 11.8786 38.8125 11.0201 38.8125 10.125Z" fill="#2F87CC"/>
</svg>
