<svg width="28" height="28" viewBox="0 0 28 28" fill="none" xmlns="http://www.w3.org/2000/svg">
<g clip-path="url(#clip0_2246_907)">
<mask id="mask0_2246_907" style="mask-type:luminance" maskUnits="userSpaceOnUse" x="0" y="0" width="28" height="28">
<path d="M21.0117 0.444336H6.94229C3.26161 0.444336 0.277832 3.42812 0.277832 7.1088V21.1782C0.277832 24.8589 3.26161 27.8427 6.94229 27.8427H21.0117C24.6924 27.8427 27.6762 24.8589 27.6762 21.1782V7.1088C27.6762 3.42812 24.6924 0.444336 21.0117 0.444336Z" fill="white"/>
</mask>
<g mask="url(#mask0_2246_907)">
<path d="M27.744 0.444336H0.277832V27.9105H27.744V0.444336Z" fill="#100943"/>
<path d="M27.6752 14.1435C35.2411 14.1435 41.3744 8.01012 41.3744 0.444277C41.3744 -7.12157 35.2411 -13.2549 27.6752 -13.2549C20.1094 -13.2549 13.9761 -7.12157 13.9761 0.444277C13.9761 8.01012 20.1094 14.1435 27.6752 14.1435Z" fill="#ED143B"/>
<path d="M17.2016 13.5181H9.10713V10.315H17.2016C17.6744 10.315 18.0032 10.3974 18.1681 10.5413C18.3331 10.6852 18.4354 10.9521 18.4354 11.342V12.4921C18.4354 12.9031 18.3331 13.17 18.1681 13.3139C18.0032 13.4578 17.6744 13.5193 17.2016 13.5193V13.5181ZM17.7569 7.29518H5.67432V20.9932H9.10713V16.5366H15.4334L18.4354 20.9932H22.2794L18.9697 16.5157C20.1898 16.3349 20.7379 15.9609 21.1897 15.3447C21.6416 14.7284 21.8682 13.7432 21.8682 12.4282V11.4012C21.8682 10.6213 21.7856 10.005 21.6416 9.53266C21.4976 9.06031 21.2513 8.64947 20.9016 8.28045C20.5322 7.93111 20.121 7.68511 19.6272 7.52027C19.1335 7.37637 18.5166 7.29395 17.7569 7.29395V7.29518Z" fill="white"/>
</g>
</g>
<defs>
<clipPath id="clip0_2246_907">
<rect width="28" height="28" fill="white"/>
</clipPath>
</defs>
</svg>
