<svg width="20" height="20" viewBox="0 0 20 20" fill="none" xmlns="http://www.w3.org/2000/svg">
<path d="M10 2C14.4183 2 18 5.58172 18 10C18 14.4183 14.4183 18 10 18C5.58172 18 2 14.4183 2 10C2 5.58172 5.58172 2 10 2ZM10 4.2002C9.44772 4.2002 9 4.64791 9 5.2002V10C9.00008 10.3787 9.21406 10.7252 9.55273 10.8945L12.7529 12.4941C13.2468 12.741 13.8476 12.5415 14.0947 12.0479C14.3416 11.554 14.1411 10.9532 13.6475 10.7061L11 9.38184V5.2002C11 4.64791 10.5523 4.2002 10 4.2002Z" fill="#2F87CC"/>
</svg>
