<svg width="63" height="63" viewBox="0 0 63 63" fill="none" xmlns="http://www.w3.org/2000/svg">
<circle cx="31.5" cy="31.5" r="31.5" fill="#59DBFF" fill-opacity="0.33"/>
<path d="M31.5 56C45.031 56 56 45.031 56 31.5C56 17.969 45.031 7 31.5 7C17.969 7 7 17.969 7 31.5C7 45.031 17.969 56 31.5 56Z" fill="#45BFFA"/>
<path d="M18.2679 30.6726L41.9707 21.5887C43.0708 21.1937 44.0316 21.8555 43.6751 23.5089L43.6772 23.5069L39.6414 42.4056C39.3423 43.7455 38.5413 44.0713 37.4207 43.44L31.2747 38.9378L28.3104 41.7764C27.9826 42.1022 27.706 42.3771 27.0709 42.3771L27.5073 36.1603L38.8977 25.9321C39.3935 25.4984 38.7871 25.254 38.1336 25.6857L24.0574 34.4946L17.9893 32.6131C16.672 32.1977 16.6434 31.3038 18.2679 30.6726Z" fill="white"/>
</svg>
