<svg width="63" height="63" viewBox="0 0 63 63" fill="none" xmlns="http://www.w3.org/2000/svg">
<circle cx="31.5" cy="31.5" r="31.5" fill="#59FFA4" fill-opacity="0.33"/>
<path d="M31.5 56C45.031 56 56 45.031 56 31.5C56 17.969 45.031 7 31.5 7C17.969 7 7 17.969 7 31.5C7 45.031 17.969 56 31.5 56Z" fill="#25D366"/>
<path d="M42.915 21.4505C40.4855 18.9202 37.2575 17.3678 33.8138 17.0736C30.3702 16.7793 26.9379 17.7626 24.1366 19.846C21.3353 21.9293 19.3496 24.9754 18.538 28.4342C17.7264 31.8931 18.1424 35.5368 19.7109 38.7075L18.1742 46.3905C18.1577 46.4672 18.1571 46.5466 18.1723 46.6236C18.1875 46.7006 18.2183 46.7735 18.2625 46.8375C18.3259 46.9344 18.4166 47.0091 18.5223 47.0515C18.628 47.0939 18.7438 47.1021 18.8542 47.0749L26.1535 45.2906C29.224 46.8635 32.7369 47.2633 36.0668 46.419C39.3968 45.5746 42.3278 43.5408 44.338 40.6796C46.3483 37.8183 47.3075 34.3154 47.0448 30.7941C46.7821 27.2729 45.3146 23.9619 42.9035 21.4505H42.915ZM40.633 40.1911C38.9527 41.9184 36.789 43.0599 34.446 43.4552C32.1031 43.8504 29.6987 43.4796 27.5711 42.3947L26.5492 41.8725L22.0659 42.9644V42.905L23.0109 38.2486L22.5115 37.2358C21.4236 35.0388 21.0395 32.5434 21.4143 30.1076C21.789 27.6718 22.9034 25.4209 24.5976 23.6779C26.7248 21.4896 29.6086 20.2604 32.6153 20.2604C35.6221 20.2604 38.5058 21.4896 40.633 23.6779L40.683 23.7491C42.7825 25.9443 43.9546 28.9051 43.9438 31.9863C43.933 35.0674 42.7402 38.0194 40.6253 40.199L40.633 40.1911Z" fill="white"/>
<path d="M40.2327 36.8839C39.6655 37.7763 38.765 38.8671 37.6424 39.1407C35.6591 39.6167 32.6405 39.1407 28.8602 35.6465L28.8126 35.6028C25.5242 32.5329 24.6516 29.9747 24.8459 27.948C24.961 26.7938 25.9209 25.7546 26.7301 25.0724C26.8588 24.9639 27.011 24.8871 27.1747 24.8479C27.3384 24.8088 27.5089 24.8085 27.6727 24.847C27.8365 24.8856 27.9891 24.9619 28.1181 25.0699C28.2472 25.1779 28.3492 25.3146 28.4159 25.469L29.6337 28.2216C29.7132 28.3988 29.743 28.5943 29.72 28.7871C29.6969 28.9799 29.6219 29.1629 29.5028 29.3163L28.884 30.1096C28.7554 30.2742 28.6788 30.4735 28.6639 30.6819C28.6491 30.8903 28.6967 31.0984 28.8007 31.2796C29.3885 32.1459 30.0918 32.9278 30.8912 33.6038C31.7512 34.4314 32.7265 35.1301 33.7868 35.6782C33.9803 35.7562 34.1927 35.7748 34.3969 35.7317C34.601 35.6886 34.7877 35.5858 34.9332 35.4362L35.6432 34.7144C35.7783 34.5691 35.951 34.4641 36.1421 34.4109C36.3333 34.3577 36.5354 34.3584 36.7261 34.413L39.6218 35.2419C39.7859 35.2886 39.9367 35.3732 40.062 35.489C40.1873 35.6048 40.2836 35.7484 40.343 35.9083C40.4025 36.0681 40.4235 36.2398 40.4043 36.4093C40.3852 36.5788 40.3264 36.7414 40.2327 36.8839Z" fill="white"/>
</svg>
