<svg width="48" height="48" viewBox="0 0 48 48" fill="none" xmlns="http://www.w3.org/2000/svg">
<g clip-path="url(#clip0_2634_3794)">
<path d="M46.8444 22.9422C46.8485 22.9422 46.8517 22.9422 46.8558 22.9422C47.147 22.9422 47.4245 22.8202 47.6218 22.6062C47.8221 22.3892 47.9212 22.0981 47.8952 21.8038C46.8475 10.2807 37.7244 1.15442 26.2002 0.104681C25.908 0.0817246 25.6138 0.176681 25.3967 0.378072C25.1797 0.57842 25.0586 0.861203 25.0618 1.15651C25.2433 16.4706 27.2635 22.7283 46.8444 22.9422ZM46.8444 25.0584C27.2635 25.2723 25.2444 31.5301 25.0628 46.8442C25.0597 47.1395 25.1807 47.4222 25.3978 47.6226C25.5918 47.801 25.8454 47.9002 26.1063 47.9002C26.1376 47.9002 26.1699 47.8991 26.2012 47.896C37.7254 46.8462 46.8485 37.721 47.8952 26.1969C47.9212 25.9026 47.8232 25.6115 47.6218 25.3944C47.4204 25.1774 47.1397 25.0699 46.8444 25.0584ZM21.7268 0.109899C10.2392 1.1899 1.14524 10.3141 0.102803 21.8059C0.0767163 22.1002 0.174803 22.3913 0.376195 22.6083C0.573412 22.8222 0.852021 22.9433 1.14211 22.9433C1.14628 22.9433 1.15046 22.9433 1.15463 22.9433C20.6708 22.7189 22.6858 16.4643 22.8694 1.16068C22.8725 0.865377 22.7505 0.581551 22.5334 0.381203C22.3143 0.180855 22.0211 0.0827682 21.7268 0.109899ZM1.15359 25.0574C0.829064 25.0209 0.574456 25.1753 0.375151 25.3923C0.174803 25.6094 0.0756729 25.9005 0.10176 26.1948C1.14419 37.6866 10.2392 46.8108 21.7268 47.8908C21.7591 47.8939 21.7925 47.8949 21.8249 47.8949C22.0858 47.8949 22.3383 47.7969 22.5324 47.6184C22.7494 47.4181 22.8715 47.1342 22.8684 46.8389C22.6847 31.5363 20.6708 25.2817 1.15359 25.0574Z" fill="black"/>
</g>
<defs>
<clipPath id="clip0_2634_3794">
<rect width="48" height="48" fill="white" transform="translate(0 0.000244141)"/>
</clipPath>
</defs>
</svg>
