<svg width="44" height="44" viewBox="0 0 44 44" fill="none" xmlns="http://www.w3.org/2000/svg">
<g clip-path="url(#clip0_2564_7382)">
<path d="M22 44C34.1503 44 44 34.1503 44 22C44 9.84974 34.1503 0 22 0C9.84974 0 0 9.84974 0 22C0 34.1503 9.84974 44 22 44Z" fill="#447AC2"/>
<path d="M33.9491 30.9595C33.3207 31.0506 30.2475 30.9595 30.0879 30.9595C29.2935 30.97 28.5271 30.6572 27.9548 30.0891C27.3068 29.4464 26.7275 28.738 26.0942 28.0649C25.9069 27.8606 25.7042 27.6719 25.4879 27.5007C24.9823 27.0984 24.4815 27.1895 24.2434 27.8043C24.0574 28.4687 23.9276 29.1485 23.8556 29.8361C23.8139 30.4585 23.4309 30.8482 22.7535 30.8912C22.3337 30.914 21.914 30.9216 21.4991 30.9114C19.9873 30.9015 18.4993 30.5226 17.1569 29.8057C15.7044 28.9714 14.4389 27.8308 13.443 26.4582C11.8058 24.3025 10.4975 21.9342 9.32907 19.4925C9.2677 19.371 8.06984 16.7447 8.04039 16.6207C7.93238 16.2057 8.04039 15.8085 8.37176 15.6718C8.58286 15.5883 12.5299 15.6718 12.5962 15.6718C12.8896 15.6692 13.1763 15.7629 13.4146 15.9395C13.6529 16.116 13.8305 16.3661 13.9217 16.6536C14.6513 18.5794 15.6503 20.3848 16.8869 22.0126C17.06 22.2303 17.2625 22.4212 17.4883 22.5794C17.8098 22.8046 18.1142 22.7261 18.2468 22.3441C18.4038 21.814 18.4962 21.2657 18.5217 20.7121C18.5438 19.6139 18.5217 18.8903 18.4628 17.7947C18.4235 17.0913 18.1829 16.4739 17.1765 16.2766C16.8673 16.2209 16.8403 15.9578 17.0391 15.6946C17.4539 15.1481 18.0209 15.0621 18.6567 15.0292C19.6042 14.9735 20.5517 15.0115 21.4991 15.0292H21.7053C22.1177 15.0276 22.5291 15.0709 22.9327 15.1582C23.1712 15.2079 23.3878 15.3358 23.5502 15.5227C23.7125 15.7097 23.8119 15.9457 23.8335 16.1956C23.882 16.4727 23.9025 16.7542 23.8949 17.0356C23.8703 18.235 23.8139 19.4318 23.8016 20.6311C23.7903 21.106 23.8323 21.5806 23.9268 22.0455C24.0618 22.6831 24.4864 22.8425 24.9086 22.382C25.4553 21.7867 25.9567 21.1489 26.4084 20.4742C27.2071 19.2446 27.866 17.9245 28.3721 16.5397C28.647 15.8287 28.8631 15.6718 29.5994 15.6718H33.787C34.036 15.6673 34.2843 15.7015 34.5234 15.7731C34.6081 15.796 34.6872 15.8367 34.7559 15.8926C34.8246 15.9485 34.8813 16.0185 34.9226 16.098C34.9638 16.1776 34.9887 16.2651 34.9956 16.355C35.0025 16.445 34.9914 16.5354 34.9628 16.6207C34.7566 17.567 34.2608 18.3741 33.7355 19.1509C32.8837 20.3958 31.9853 21.6078 31.114 22.8324C31.0037 22.9948 30.9029 23.1638 30.812 23.3385C30.4831 23.9482 30.5077 24.2898 30.9839 24.7984C31.7448 25.603 32.5573 26.3596 33.2912 27.1895C33.8301 27.7928 34.3164 28.4439 34.7444 29.1352C35.2819 29.993 34.9505 30.8128 33.9491 30.9595Z" fill="white"/>
</g>
<defs>
<clipPath id="clip0_2564_7382">
<rect width="44" height="44" fill="white"/>
</clipPath>
</defs>
</svg>
