<svg width="36" height="36" viewBox="0 0 36 36" fill="none" xmlns="http://www.w3.org/2000/svg">
<g clip-path="url(#clip0_4001_337)">
<path fill-rule="evenodd" clip-rule="evenodd" d="M18 0C8.0589 0 0 8.0589 0 18C0 27.9411 8.0589 36 18 36C27.9411 36 36 27.9411 36 18C36 8.0589 27.9411 0 18 0ZM14.0425 8.45798C15.0665 8.4114 15.3937 8.4 18.0009 8.4H17.9979C20.6059 8.4 20.9319 8.4114 21.9559 8.45798C22.978 8.50478 23.6759 8.66663 24.288 8.904C24.9199 9.14902 25.454 9.477 25.9879 10.011C26.522 10.5446 26.85 11.0802 27.096 11.7116C27.332 12.3221 27.494 13.0196 27.542 14.0417C27.588 15.0657 27.6 15.3928 27.6 18.0001C27.6 20.6073 27.588 20.9337 27.542 21.9578C27.494 22.9793 27.332 23.6771 27.096 24.2878C26.85 24.919 26.522 25.4546 25.9879 25.9882C25.4545 26.5222 24.9198 26.851 24.2886 27.0962C23.6777 27.3336 22.9793 27.4954 21.9574 27.5422C20.9333 27.5888 20.6071 27.6002 17.9997 27.6002C15.3927 27.6002 15.0657 27.5888 14.0417 27.5422C13.0198 27.4954 12.3221 27.3336 11.7113 27.0962C11.0802 26.851 10.5446 26.5222 10.0112 25.9882C9.47738 25.4546 9.1494 24.919 8.904 24.2875C8.66677 23.6771 8.505 22.9795 8.45798 21.9575C8.41162 20.9335 8.4 20.6073 8.4 18.0001C8.4 15.3928 8.412 15.0655 8.45782 14.0414C8.5038 13.0199 8.6658 12.3221 8.90378 11.7114C9.14978 11.0802 9.47783 10.5446 10.0118 10.011C10.5455 9.47722 11.081 9.14917 11.7125 8.904C12.3229 8.66663 13.0205 8.50478 14.0425 8.45798Z" fill="#2F87CC"/>
<path fill-rule="evenodd" clip-rule="evenodd" d="M17.1247 10.0024C17.2946 10.0022 17.4775 10.0023 17.6748 10.0024L18.0002 10.0024C20.6057 10.0024 20.9145 10.0118 21.9435 10.0586C22.8949 10.1021 23.4113 10.2611 23.7553 10.3947C24.2107 10.5716 24.5354 10.7831 24.8768 11.1247C25.2183 11.4663 25.4297 11.7916 25.6071 12.247C25.7406 12.5907 25.8998 13.1071 25.9431 14.0587C25.9899 15.0876 26 15.3966 26 18.0013C26 20.606 25.9899 20.9151 25.9431 21.944C25.8996 22.8955 25.7406 23.412 25.6071 23.7556C25.4302 24.2111 25.2183 24.5354 24.8768 24.8768C24.5352 25.2184 24.2109 25.4299 23.7553 25.6068C23.4118 25.741 22.8949 25.8996 21.9435 25.943C20.9147 25.9899 20.6057 26 18.0002 26C15.3944 26 15.0855 25.9899 14.0568 25.943C13.1053 25.8991 12.5889 25.7401 12.2447 25.6066C11.7893 25.4297 11.464 25.2181 11.1225 24.8766C10.7809 24.535 10.5695 24.2104 10.3922 23.7548C10.2586 23.4112 10.0994 22.8947 10.0561 21.9431C10.0094 20.9143 10 20.6052 10 17.9989C10 15.3926 10.0094 15.0852 10.0561 14.0563C10.0996 13.1047 10.2586 12.5883 10.3922 12.2442C10.569 11.7887 10.7809 11.4634 11.1225 11.1218C11.464 10.7803 11.7893 10.5687 12.2447 10.3915C12.5887 10.2573 13.1053 10.0987 14.0568 10.0549C14.957 10.0143 15.3059 10.0021 17.1247 10V10.0024ZM23.2093 11.623C22.5628 11.623 22.0382 12.147 22.0382 12.7938C22.0382 13.4404 22.5628 13.965 23.2093 13.965C23.8558 13.965 24.3803 13.4404 24.3803 12.7938C24.3803 12.1472 23.8558 11.6226 23.2093 11.6226V11.623ZM12.9887 18.0036C12.9887 15.2357 15.2324 12.9915 17.9999 12.9915C20.7676 12.9915 23.0108 15.2356 23.0108 18.0036C23.0108 20.7716 20.7677 23.0147 18.0002 23.0147C15.2325 23.0147 12.9887 20.7716 12.9887 18.0036Z" fill="#2F87CC"/>
<path d="M18 15C19.6568 15 21 16.3431 21 18C21 19.6568 19.6568 21 18 21C16.3431 21 15 19.6568 15 18C15 16.3431 16.3431 15 18 15Z" fill="#2F87CC"/>
</g>
<defs>
<clipPath id="clip0_4001_337">
<rect width="36" height="36" fill="white"/>
</clipPath>
</defs>
</svg>
