<svg width="44" height="44" viewBox="0 0 44 44" fill="none" xmlns="http://www.w3.org/2000/svg">
<g clip-path="url(#clip0_2564_7388)">
<path d="M22 44C34.1503 44 44 34.1503 44 22C44 9.84974 34.1503 0 22 0C9.84974 0 0 9.84974 0 22C0 34.1503 9.84974 44 22 44Z" fill="#F96600"/>
<path d="M20.6948 27.2626C18.6269 27.0508 16.7626 26.5488 15.1674 25.3257C14.9686 25.1734 14.7649 25.0259 14.5831 24.8498C13.8849 24.1907 13.8146 23.4364 14.3674 22.6607C14.8401 21.9944 15.6329 21.8159 16.4596 22.199C16.6183 22.2779 16.7707 22.3686 16.9153 22.4703C18.3936 23.4564 20.1361 23.9912 21.9234 24.0073C23.7107 24.0234 25.4629 23.5201 26.9593 22.5607C27.2452 22.3333 27.5751 22.1649 27.929 22.0658C28.2581 21.9703 28.6104 21.9862 28.9292 22.1109C29.248 22.2356 29.5147 22.462 29.6867 22.7535C30.123 23.453 30.1182 24.1336 29.58 24.6761C28.755 25.495 27.7581 26.1276 26.6587 26.5297C25.5883 26.9072 24.4743 27.1526 23.3422 27.2602C23.5119 27.4435 23.5846 27.5315 23.701 27.6362C25.2356 29.1519 26.7775 30.6605 28.3072 32.1786C28.5509 32.3961 28.7162 32.6853 28.7783 33.0028C28.8404 33.3202 28.7959 33.6489 28.6515 33.9395C28.5044 34.2579 28.2651 34.5269 27.9633 34.7126C27.6615 34.8984 27.3106 34.9928 26.9545 34.9841C26.5378 34.9438 26.1523 34.7499 25.8756 34.4415C24.7168 33.297 23.5362 32.1739 22.4016 31.0079C22.0719 30.67 21.9167 30.7343 21.6209 31.027C20.4548 32.2167 19.2693 33.366 18.079 34.5177C17.858 34.7581 17.5619 34.9197 17.2371 34.977C16.9124 35.0342 16.5775 34.984 16.285 34.8342C15.9681 34.6889 15.7007 34.4569 15.5149 34.1661C15.3291 33.8752 15.2329 33.5379 15.2377 33.1947C15.2727 32.7705 15.4744 32.3763 15.8001 32.0954C17.3226 30.6058 18.8402 29.1154 20.353 27.6243C20.4548 27.522 20.5518 27.4149 20.6948 27.2626Z" fill="white"/>
<path d="M21.4621 21.9999C20.1746 21.9918 18.9183 21.5721 17.8526 20.7941C16.7869 20.016 15.9597 18.9146 15.4761 17.6296C14.9924 16.3445 14.874 14.9338 15.1359 13.5762C15.3978 12.2186 16.0282 10.9753 16.9471 10.0041C17.866 9.03286 19.0321 8.3774 20.2974 8.12086C21.5627 7.86431 22.8702 8.01824 24.0542 8.5631C25.2382 9.10796 26.2452 10.0192 26.9476 11.1813C27.65 12.3434 28.0161 13.7039 27.9995 15.0904C27.9761 16.9378 27.276 18.7004 26.0516 19.9945C24.8272 21.2886 23.1776 22.0094 21.4621 21.9999ZM24.6911 14.9924C24.6892 14.3146 24.5007 13.6527 24.1493 13.0904C23.7979 12.5282 23.2995 12.0908 22.7172 11.8338C22.1349 11.5767 21.4949 11.5115 20.8782 11.6464C20.2614 11.7813 19.6957 12.1103 19.2527 12.5916C18.8096 13.073 18.5092 13.6851 18.3894 14.3504C18.2695 15.0158 18.3357 15.7044 18.5795 16.3292C18.8234 16.9541 19.2339 17.4869 19.759 17.8603C20.2842 18.2338 20.9005 18.431 21.5298 18.427C21.9471 18.426 22.36 18.3363 22.745 18.1629C23.1299 17.9896 23.4793 17.7361 23.7731 17.417C24.0668 17.0978 24.2991 16.7194 24.4566 16.3033C24.6142 15.8872 24.6939 15.4417 24.6911 14.9924Z" fill="white"/>
</g>
<defs>
<clipPath id="clip0_2564_7388">
<rect width="44" height="44" fill="white"/>
</clipPath>
</defs>
</svg>
