<svg width="44" height="44" viewBox="0 0 44 44" fill="none" xmlns="http://www.w3.org/2000/svg">
<g clip-path="url(#clip0_2564_7396)">
<path d="M22 0C9.85015 0 0 9.85015 0 22C0 34.1498 9.85015 44 22 44C34.1498 44 44 34.1498 44 22C44 9.85015 34.1498 0 22 0Z" fill="black"/>
<path d="M23.8784 20.0092L33.1852 9H30.9798L22.8987 18.5592L16.4443 9H9L18.7602 23.4551L9 35H11.2055L19.7394 24.9052L26.5557 35H34L23.8778 20.0092H23.8784ZM12.0002 10.6896H15.3878L30.9808 33.3872H27.5932L12.0002 10.6896Z" fill="white"/>
</g>
<defs>
<clipPath id="clip0_2564_7396">
<rect width="44" height="44" fill="white"/>
</clipPath>
</defs>
</svg>
