<svg width="44" height="44" viewBox="0 0 44 44" fill="none" xmlns="http://www.w3.org/2000/svg">
<path d="M22 44C34.1503 44 44 34.1503 44 22C44 9.84974 34.1503 0 22 0C9.84974 0 0 9.84974 0 22C0 34.1503 9.84974 44 22 44Z" fill="#25D366"/>
<path d="M32.2534 12.9762C30.0718 10.7041 27.1732 9.3101 24.0809 9.04589C20.9887 8.78167 17.9066 9.66465 15.3912 11.5354C12.8757 13.4062 11.0926 16.1414 10.3638 19.2473C9.63506 22.3532 10.0086 25.6251 11.417 28.4723L10.0371 35.3713C10.0224 35.4402 10.0218 35.5115 10.0355 35.5807C10.0491 35.6498 10.0767 35.7152 10.1165 35.7727C10.1734 35.8597 10.2548 35.9268 10.3497 35.9649C10.4447 36.003 10.5486 36.0103 10.6477 35.9859L17.2022 34.3837C19.9594 35.796 23.1139 36.1551 26.104 35.3968C29.0942 34.6386 31.7261 32.8124 33.5312 30.2431C35.3364 27.6739 36.1977 24.5283 35.9618 21.3664C35.7259 18.2045 34.4081 15.2314 32.2431 12.9762H32.2534ZM30.2043 29.8045C28.6954 31.3555 26.7525 32.3806 24.6486 32.7355C22.5447 33.0904 20.3857 32.7574 18.4752 31.7832L17.5576 31.3143L13.5317 32.2948V32.2415L14.3804 28.0602L13.9319 27.1507C12.955 25.1779 12.6101 22.9371 12.9466 20.7499C13.2831 18.5627 14.2838 16.5415 15.8051 14.9763C17.7152 13.0113 20.3047 11.9075 23.0047 11.9075C25.7046 11.9075 28.2941 13.0113 30.2043 14.9763L30.2491 15.0402C32.1344 17.0115 33.1869 19.6701 33.1772 22.4369C33.1675 25.2037 32.0965 27.8544 30.1974 29.8116L30.2043 29.8045Z" fill="white"/>
<path d="M29.8397 26.8344C29.3303 27.6357 28.5218 28.6152 27.5138 28.8609C25.7328 29.2883 23.0222 28.8609 19.6277 25.7232L19.5849 25.684C16.6321 22.9274 15.8485 20.6302 16.023 18.8102C16.1263 17.7738 16.9883 16.8407 17.7149 16.2281C17.8304 16.1307 17.9672 16.0617 18.1141 16.0266C18.2611 15.9914 18.4143 15.9911 18.5614 16.0258C18.7084 16.0604 18.8454 16.1289 18.9613 16.2259C19.0772 16.3229 19.1688 16.4456 19.2287 16.5843L20.3222 19.056C20.3936 19.2151 20.4204 19.3906 20.3997 19.5638C20.379 19.7369 20.3116 19.9012 20.2047 20.039L19.649 20.7513C19.5335 20.8991 19.4647 21.0781 19.4514 21.2652C19.4381 21.4524 19.4809 21.6392 19.5742 21.8019C20.102 22.5798 20.7336 23.282 21.4514 23.889C22.2236 24.6321 23.0995 25.2595 24.0516 25.7517C24.2253 25.8217 24.416 25.8384 24.5993 25.7998C24.7827 25.7611 24.9503 25.6687 25.081 25.5344L25.7185 24.8862C25.8399 24.7558 25.9949 24.6615 26.1665 24.6137C26.3382 24.5659 26.5197 24.5666 26.6909 24.6156L29.2912 25.3599C29.4385 25.4018 29.5739 25.4779 29.6864 25.5818C29.7989 25.6858 29.8854 25.8147 29.9388 25.9583C29.9922 26.1019 30.011 26.256 29.9938 26.4082C29.9766 26.5604 29.9238 26.7064 29.8397 26.8344Z" fill="white"/>
</svg>
