<svg width="36" height="36" viewBox="0 0 36 36" fill="none" xmlns="http://www.w3.org/2000/svg">
<g clip-path="url(#clip0_4001_326)">
<path d="M16 21L21 18.0073L16 15V21Z" fill="#2F87CC"/>
<path d="M18 0C14.4399 0 10.9598 1.05568 7.99974 3.03355C5.03966 5.01141 2.73255 7.82263 1.37018 11.1117C0.00779907 14.4008 -0.348661 18.02 0.345873 21.5116C1.04041 25.0033 2.75474 28.2106 5.27209 30.7279C7.78943 33.2453 10.9967 34.9596 14.4884 35.6541C17.98 36.3487 21.5992 35.9922 24.8883 34.6298C28.1774 33.2675 30.9886 30.9603 32.9665 28.0003C34.9443 25.0402 36 21.5601 36 18C36 13.2261 34.1036 8.64773 30.7279 5.27208C27.3523 1.89642 22.7739 0 18 0ZM27.4737 21.1855C27.474 21.6563 27.3815 22.1225 27.2016 22.5576C27.0217 22.9926 26.7578 23.3879 26.425 23.7209C26.0922 24.0539 25.697 24.3181 25.2621 24.4983C24.8272 24.6785 24.3611 24.7713 23.8903 24.7713H12.1097C11.639 24.7713 11.1728 24.6785 10.7379 24.4983C10.303 24.3181 9.90783 24.0539 9.57505 23.7209C9.24226 23.3879 8.97836 22.9926 8.79842 22.5576C8.61847 22.1225 8.52601 21.6563 8.52632 21.1855V14.8145C8.52601 14.3437 8.61847 13.8775 8.79842 13.4424C8.97836 13.0074 9.24226 12.6121 9.57505 12.2791C9.90783 11.9461 10.303 11.6819 10.7379 11.5017C11.1728 11.3215 11.639 11.2287 12.1097 11.2287H23.8903C24.3611 11.2287 24.8272 11.3215 25.2621 11.5017C25.697 11.6819 26.0922 11.9461 26.425 12.2791C26.7578 12.6121 27.0217 13.0074 27.2016 13.4424C27.3815 13.8775 27.474 14.3437 27.4737 14.8145V21.1855Z" fill="#2F87CC"/>
</g>
<defs>
<clipPath id="clip0_4001_326">
<rect width="36" height="36" fill="white"/>
</clipPath>
</defs>
</svg>
