<svg width="44" height="44" viewBox="0 0 44 44" fill="none" xmlns="http://www.w3.org/2000/svg">
<g clip-path="url(#clip0_2564_7400)">
<path d="M22 44C34.1503 44 44 34.1503 44 22C44 9.84974 34.1503 0 22 0C9.84974 0 0 9.84974 0 22C0 34.1503 9.84974 44 22 44Z" fill="#665CAC"/>
<path d="M24.8333 10H20.1667C18.0007 10 15.9235 10.8482 14.392 12.3579C12.8604 13.8677 12 15.9153 12 18.0505V21.5006C11.9994 23.0247 12.4376 24.5176 13.2637 25.8058C14.0898 27.094 15.2698 28.1245 16.6667 28.7777V32.6218C16.6681 32.6968 16.6916 32.7697 16.7345 32.8317C16.7773 32.8937 16.8376 32.942 16.9079 32.9707C16.9782 32.9994 17.0555 33.0072 17.1302 32.9933C17.205 32.9793 17.274 32.9441 17.3288 32.892L20.7179 29.5511H24.8333C26.9993 29.5511 29.0765 28.7029 30.608 27.1932C32.1396 25.6834 33 23.6358 33 21.5006V18.0505C33 15.9153 32.1396 13.8677 30.608 12.3579C29.0765 10.8482 26.9993 10 24.8333 10ZM27.89 25.0889L26.7233 26.2389C25.4808 27.4379 22.2375 26.0693 19.3792 23.1912C16.5208 20.3132 15.2667 17.0844 16.4625 15.8855L17.6292 14.7354C17.8578 14.5331 18.1551 14.4226 18.4624 14.4258C18.7696 14.429 19.0645 14.5456 19.2887 14.7526L20.9921 16.4777C21.1274 16.6154 21.2249 16.7846 21.2756 16.9696C21.3262 17.1546 21.3283 17.3493 21.2817 17.5353C21.235 17.7213 21.1411 17.8926 21.0088 18.033C20.8765 18.1734 20.7102 18.2784 20.5254 18.338C20.2516 18.4208 20.0206 18.6044 19.8805 18.8507C19.7403 19.097 19.7018 19.387 19.7729 19.6605C20.0646 20.9371 21.7096 22.5357 22.9346 22.8491C23.2108 22.914 23.5014 22.8773 23.7522 22.7461C24.0029 22.6148 24.1965 22.3979 24.2967 22.1361C24.3614 21.9534 24.4727 21.7903 24.6199 21.6623C24.7671 21.5344 24.9452 21.4459 25.1371 21.4055C25.329 21.365 25.5283 21.374 25.7157 21.4314C25.9031 21.4889 26.0723 21.5929 26.2071 21.7335L27.9075 23.4586C28.1117 23.6834 28.2232 23.9754 28.2199 24.2771C28.2167 24.5788 28.099 24.8684 27.89 25.0889ZM23.5617 15.4628C23.4457 15.4623 23.3297 15.469 23.2146 15.4829C23.1121 15.494 23.0093 15.4645 22.9289 15.4008C22.8485 15.3372 22.7971 15.2447 22.7858 15.1437C22.7746 15.0426 22.8046 14.9413 22.8691 14.8621C22.9337 14.7828 23.0275 14.7321 23.13 14.721C23.2733 14.7048 23.4174 14.6971 23.5617 14.698C24.5938 14.6973 25.5841 15.1005 26.3148 15.8192C27.0455 16.5379 27.4568 17.5131 27.4583 18.5306C27.4593 18.6728 27.4515 18.8149 27.435 18.9561C27.4294 19.0062 27.414 19.0546 27.3894 19.0987C27.3648 19.1429 27.3317 19.1818 27.2919 19.2133C27.2521 19.2448 27.2064 19.2683 27.1574 19.2824C27.1083 19.2964 27.057 19.3009 27.0062 19.2954C26.9555 19.2899 26.9063 19.2746 26.8616 19.2504C26.8168 19.2262 26.7773 19.1936 26.7454 19.1543C26.7134 19.1151 26.6896 19.07 26.6753 19.0217C26.661 18.9734 26.6565 18.9228 26.6621 18.8728C26.6748 18.7591 26.6816 18.6449 26.6825 18.5306C26.681 17.7159 26.3514 16.9352 25.7662 16.36C25.181 15.7847 24.3881 15.462 23.5617 15.4628ZM25.895 18.5306C25.8866 18.6267 25.8419 18.7161 25.7698 18.7813C25.6977 18.8465 25.6034 18.8826 25.5056 18.8826C25.4078 18.8826 25.3135 18.8465 25.2415 18.7813C25.1694 18.7161 25.1247 18.6267 25.1163 18.5306C25.1163 18.1242 24.9525 17.7344 24.6609 17.447C24.3694 17.1596 23.974 16.9981 23.5617 16.9981C23.5077 17.0028 23.4534 16.9963 23.4021 16.9791C23.3508 16.9619 23.3037 16.9343 23.2638 16.8983C23.2238 16.8622 23.192 16.8183 23.1702 16.7694C23.1484 16.7205 23.1371 16.6677 23.1371 16.6143C23.1371 16.5609 23.1484 16.5081 23.1702 16.4592C23.192 16.4103 23.2238 16.3665 23.2638 16.3304C23.3037 16.2943 23.3508 16.2668 23.4021 16.2496C23.4534 16.2324 23.5077 16.2259 23.5617 16.2305C24.1805 16.2305 24.774 16.4728 25.2116 16.9042C25.6492 17.3355 25.895 17.9206 25.895 18.5306ZM28.8612 19.7756C28.8526 19.8278 28.8332 19.8778 28.8041 19.9223C28.775 19.9668 28.7369 20.0049 28.6922 20.0343C28.6475 20.0637 28.5971 20.0836 28.5442 20.0929C28.4914 20.1023 28.4371 20.1007 28.3848 20.0884C28.3326 20.0762 28.2835 20.0534 28.2405 20.0216C28.1976 19.9897 28.1618 19.9495 28.1353 19.9034C28.1089 19.8573 28.0923 19.8063 28.0868 19.7537C28.0812 19.701 28.0867 19.6478 28.1029 19.5973C28.1871 19.2498 28.2292 18.8936 28.2283 18.5364C28.2283 17.3163 27.7367 16.1462 26.8615 15.2835C25.9863 14.4208 24.7993 13.9361 23.5617 13.9361H23.2C23.1491 13.9399 23.0979 13.9337 23.0493 13.918C23.0008 13.9023 22.9559 13.8773 22.9172 13.8444C22.8389 13.7781 22.7907 13.6839 22.7829 13.5825C22.7752 13.481 22.8086 13.3807 22.8759 13.3036C22.9432 13.2265 23.0388 13.1789 23.1417 13.1713C23.2817 13.1598 23.4217 13.1541 23.5617 13.1541C25.0067 13.1563 26.3917 13.7238 27.4127 14.7319C28.4337 15.7399 29.0071 17.1061 29.0071 18.5306C29.0072 18.9497 28.9583 19.3675 28.8612 19.7756Z" fill="white"/>
</g>
<defs>
<clipPath id="clip0_2564_7400">
<rect width="44" height="44" fill="white"/>
</clipPath>
</defs>
</svg>
