<svg width="48" height="48" viewBox="0 0 48 48" fill="none" xmlns="http://www.w3.org/2000/svg">
<path d="M24 0C37.255 0 48 10.7453 48 24C47.9999 37.2546 37.2549 48 24 48C10.7452 47.9999 0.000131953 37.2545 0 24C0 10.7454 10.7451 0.000130918 24 0ZM30.124 13.502H12V34.0488H17.1494V27.3633H26.6387L31.1416 34.0488H36.9082L31.9434 27.332C33.7734 27.0607 34.5957 26.5004 35.2734 25.5762C35.9513 24.6518 36.291 23.1736 36.291 21.2012V19.6602C36.291 18.4905 36.1672 17.5658 35.9512 16.8574C35.7351 16.1491 35.3652 15.5329 34.8408 14.9795C34.2868 14.4556 33.6703 14.0861 32.9297 13.8389C32.1891 13.623 31.2636 13.5 30.124 13.5V13.502ZM29.291 18.0312C30.0003 18.0312 30.4937 18.1552 30.7412 18.3711C30.9885 18.587 31.1416 18.9876 31.1416 19.5723V21.2969C31.1416 21.913 30.9885 22.3134 30.7412 22.5293C30.4937 22.7452 30.0003 22.8379 29.291 22.8379V22.8359H17.1494V18.0312H29.291Z" fill="black"/>
</svg>
