<svg width="36" height="36" viewBox="0 0 36 36" fill="none" xmlns="http://www.w3.org/2000/svg">
<g clip-path="url(#clip0_4001_332)">
<path d="M18 0C27.9411 0 36 8.05888 36 18C36 27.9411 27.9411 36 18 36C8.05888 36 0 27.9411 0 18C0 8.05888 8.05888 0 18 0ZM17.541 12.0029C16.2536 11.9903 15.164 12.0069 14.5469 12.2939C14.1363 12.4848 13.8198 12.9101 14.0127 12.9346C14.2514 12.965 14.7909 13.0733 15.0771 13.4434C15.443 13.916 15.4348 14.9708 15.4346 14.9932C15.4346 14.9932 15.6462 17.9492 14.9375 18.3164C14.4511 18.5678 13.7838 18.053 12.3516 15.7031C11.6243 14.5101 11.0734 13.1928 11.0635 13.1689C11.0635 13.1689 10.9562 12.9201 10.7656 12.7871C10.5343 12.626 10.2109 12.5742 10.2109 12.5742L6.78223 12.5957C6.78223 12.5957 6.2671 12.6097 6.07812 12.8223C5.91052 13.0114 6.06543 13.4023 6.06543 13.4023C6.09518 13.4683 8.76715 19.3825 11.79 22.3711C14.5707 25.1197 17.7271 24.9462 17.7422 24.9453H19.1768C19.1768 24.9453 19.6098 24.9002 19.8311 24.6738C20.0347 24.4659 20.0283 24.0752 20.0283 24.0752C20.0279 24.042 20.0086 22.2454 20.8936 21.9785C21.7742 21.7134 22.9058 23.7452 24.1045 24.5264C25.0022 25.1118 25.6863 24.9906 25.6992 24.9883L28.9043 24.9453C28.9043 24.9453 30.5811 24.8474 29.7861 23.5957C29.7208 23.493 29.3229 22.6693 27.4033 20.9775C25.3937 19.2065 25.6624 19.493 28.083 16.4297C29.5573 14.5639 30.147 13.4244 29.9629 12.9365C29.7879 12.475 28.7154 12.5933 28.7031 12.5947L25.0947 12.6162C25.0947 12.6162 24.8264 12.5817 24.6279 12.6943C24.4343 12.8049 24.3096 13.0625 24.3096 13.0625C24.2998 13.087 23.7317 14.5162 22.9766 15.7334C21.3699 18.3238 20.7275 18.4615 20.4648 18.3008C19.8539 17.9258 20.0068 16.7939 20.0068 15.9902C20.0069 13.4799 20.4073 12.4332 19.2256 12.1621C18.8333 12.0721 18.5442 12.0125 17.541 12.0029Z" fill="#2F87CC"/>
</g>
<defs>
<clipPath id="clip0_4001_332">
<rect width="36" height="36" fill="white"/>
</clipPath>
</defs>
</svg>
