<svg width="44" height="44" viewBox="0 0 44 44" fill="none" xmlns="http://www.w3.org/2000/svg">
<path d="M22 44C34.1503 44 44 34.1503 44 22C44 9.84974 34.1503 0 22 0C9.84974 0 0 9.84974 0 22C0 34.1503 9.84974 44 22 44Z" fill="#45BFFA"/>
<path d="M10.1175 21.2567L31.4016 13.0998C32.3895 12.7451 33.2522 13.3394 32.9321 14.8241L32.934 14.8223L29.31 31.7925C29.0414 32.9957 28.3221 33.2882 27.3159 32.7214L21.7971 28.6786L19.1352 31.2275C18.8409 31.5201 18.5925 31.7669 18.0222 31.7669L18.4141 26.1845L28.6422 17C29.0874 16.6105 28.5429 16.3911 27.956 16.7788L15.3162 24.6888L9.86732 22.9993C8.68446 22.6263 8.65871 21.8236 10.1175 21.2567Z" fill="white"/>
</svg>
