<svg width="129" height="135" viewBox="0 0 129 135" fill="none" xmlns="http://www.w3.org/2000/svg">
<path d="M58.5888 3.63033C61.2776 -0.81069 67.7266 -0.810697 70.4154 3.63032L76.9921 14.4928C78.7671 17.4246 82.4261 18.6122 85.5872 17.2826L97.2995 12.3562C102.088 10.3422 107.305 14.1288 106.867 19.3004L105.796 31.95C105.507 35.364 107.769 38.4733 111.109 39.2537L123.483 42.1452C128.542 43.3273 130.535 49.4542 127.137 53.3811L118.828 62.986C116.585 65.5783 116.585 69.4215 118.828 72.0138L127.137 81.6188C130.535 85.5456 128.542 91.6725 123.483 92.8546L111.109 95.7461C107.769 96.5266 105.507 99.6358 105.796 103.05L106.867 115.699C107.305 120.871 102.088 124.658 97.2995 122.644L85.5872 117.717C82.4261 116.388 78.7671 117.575 76.9921 120.507L70.4154 131.369C67.7266 135.811 61.2776 135.811 58.5888 131.369L52.0121 120.507C50.2371 117.575 46.5781 116.388 43.417 117.717L31.7047 122.644C26.9163 124.658 21.699 120.871 22.1368 115.699L23.2077 103.05C23.4967 99.6358 21.2354 96.5266 17.8957 95.7461L5.52155 92.8546C0.462537 91.6725 -1.53031 85.5456 1.86693 81.6188L10.1764 72.0138C12.4191 69.4215 12.4191 65.5783 10.1764 62.986L1.86693 53.3811C-1.5303 49.4542 0.462532 43.3273 5.52155 42.1452L17.8957 39.2537C21.2354 38.4733 23.4968 35.364 23.2077 31.95L22.1368 19.3004C21.699 14.1288 26.9163 10.3422 31.7047 12.3562L43.417 17.2826C46.5781 18.6122 50.2371 17.4246 52.0121 14.4928L58.5888 3.63033Z" fill="#EEF8FF"/>
</svg>
