<svg width="96" height="96" viewBox="0 0 96 96" fill="none" xmlns="http://www.w3.org/2000/svg">
<path d="M90.2927 56.3512C92.9673 54.0911 96 51.53 96 47.9983C96 44.4666 92.9662 41.9068 90.2941 39.6468C88.5989 38.2147 86.8471 36.7395 86.4475 35.5056C86.0139 34.1694 86.574 31.8626 87.1112 29.6341C87.9569 26.139 88.8316 22.5262 86.8332 19.7745C84.8107 17.0024 80.9174 16.7078 77.4791 16.4489C75.2039 16.277 72.864 16.1 71.7555 15.2934C70.6748 14.5059 69.7925 12.3506 68.9417 10.2651C67.6271 7.04942 66.1381 3.40509 62.8363 2.33328C59.6535 1.29922 56.516 3.22835 53.4899 5.0964C51.5078 6.31507 49.4576 7.57772 48 7.57772C46.5424 7.57772 44.4922 6.31372 42.5091 5.0964C39.4753 3.22808 36.3457 1.30411 33.1639 2.33328C29.8608 3.40509 28.3731 7.04834 27.0597 10.264C26.2064 12.3498 25.3266 14.5061 24.2447 15.2937C23.1363 16.1003 20.7902 16.2773 18.5211 16.4491C15.0829 16.7019 11.1896 17.0027 9.16704 19.7761C7.16868 22.5216 8.04339 26.1344 8.88905 29.6357C9.42766 31.8643 9.98637 34.171 9.55255 35.5072C9.1532 36.736 7.40379 38.2174 5.70731 39.6484C3.03107 41.9079 0 44.4688 0 47.9994C0 51.53 3.03378 54.0922 5.70731 56.3522C7.40107 57.7832 9.1532 59.2595 9.55255 60.492C9.9861 61.8293 9.42604 64.135 8.88905 66.3636C8.04339 69.8586 7.16868 73.4715 9.16704 76.2232C11.1896 78.9966 15.0829 79.2912 18.5211 79.5502C20.7964 79.722 23.1374 79.9004 24.2461 80.7056C25.3269 81.4931 26.2078 83.6484 27.06 85.7353C28.3745 88.951 29.8625 92.5939 33.1653 93.6671C33.7592 93.8601 34.38 93.9578 35.0046 93.9565C37.5529 93.9565 40.0609 92.4093 42.5104 90.9051C44.4938 89.684 46.5441 88.4213 48.0014 88.4213C49.4587 88.4213 51.5091 89.6853 53.4923 90.9051C56.5261 92.7696 59.6584 94.6973 62.8361 93.6671C66.1392 92.5939 67.6282 88.951 68.9414 85.7353C69.7933 83.6495 70.6745 81.4931 71.7563 80.7056C72.8637 79.9004 75.2098 79.7234 77.4775 79.5515C80.9169 79.2988 84.8153 78.998 86.8316 76.2245C88.83 73.4777 87.9553 69.8662 87.111 66.365C86.5713 64.1353 86.0136 61.8296 86.4472 60.4934C86.8468 59.2633 88.5989 57.7819 90.2927 56.3512ZM82.2458 59.1257C81.4254 61.6537 82.1334 64.5762 82.8172 67.4053C83.3974 69.807 84.056 72.5221 83.2608 73.6143C82.4467 74.7317 79.633 74.944 77.1504 75.131C74.2659 75.3496 71.2826 75.5735 69.1591 77.1193C67.0595 78.6464 65.9369 81.3957 64.8513 84.0527C63.9019 86.3773 62.8287 89.0115 61.4749 89.4516C60.2424 89.846 57.89 88.405 55.817 87.1282C53.299 85.5849 50.7102 83.9859 48 83.9859C45.2898 83.9859 42.6909 85.5811 40.1895 87.1258C38.1165 88.4026 35.7652 89.8422 34.5303 89.4491C33.1802 89.0093 32.1046 86.3749 31.1539 84.0502C30.0693 81.3957 28.9457 78.644 26.8471 77.1169C24.7236 75.5711 21.739 75.3471 18.8532 75.1272C16.3718 74.9388 13.558 74.7279 12.7441 73.6105C11.9503 72.5169 12.6089 69.7994 13.189 67.4001C13.8729 64.571 14.5795 61.6475 13.7605 59.1219C12.9718 56.6938 10.7267 54.8002 8.56273 52.9685C6.62355 51.3253 4.4243 49.4721 4.4243 47.9945C4.4243 46.5168 6.62247 44.6599 8.56165 43.0218C10.7294 41.1901 12.9718 39.2966 13.7607 36.8671C14.5812 34.3391 13.8731 31.4177 13.1893 28.59C12.6091 26.1882 11.9505 23.4718 12.7443 22.3796C13.5585 21.2622 16.3721 21.0499 18.8534 20.8628C21.7393 20.644 24.7236 20.4203 26.8474 18.8732C28.9457 17.3461 30.0696 14.5982 31.1542 11.9412C32.1046 9.61653 33.1767 6.98101 34.5316 6.5423C34.6843 6.49529 34.8434 6.47231 35.0032 6.47416C36.3077 6.47416 38.3568 7.73817 40.1857 8.86562C42.6923 10.409 45.2849 12.0042 47.9951 12.0042C50.7053 12.0042 53.299 10.4177 55.8094 8.86806C57.8824 7.59021 60.2247 6.14784 61.4697 6.54474C62.8184 6.98346 63.8954 9.61898 64.8461 11.9434C65.932 14.5979 67.0543 17.3485 69.1529 18.8753C71.2764 20.4225 74.261 20.6451 77.1468 20.865C79.6282 21.0534 82.442 21.2657 83.2559 22.3818C84.0497 23.4753 83.3925 26.1928 82.811 28.5932C82.1271 31.4209 81.4205 34.3448 82.2395 36.8703C83.0282 39.2998 85.2733 41.1934 87.4386 43.0251C89.3778 44.6683 91.576 46.5201 91.576 47.9977C91.576 49.4754 89.3778 51.3323 87.4375 52.9718C85.2692 54.8037 83.0282 56.6973 82.2458 59.1257Z" fill="#2F87CC"/>
<path d="M58.1376 34.0913L43.9954 48.2334L37.8621 42.1002C35.0222 39.2616 30.419 39.2627 27.5804 42.1026C24.7418 44.9426 24.7429 49.5458 27.5828 52.3844L38.8557 63.6573C41.6946 66.4953 46.2962 66.4953 49.135 63.6573L68.4169 44.3689C71.2763 41.5518 71.3108 36.9497 68.4934 34.0902C65.676 31.2307 61.0741 31.1962 58.2147 34.0136L58.1376 34.0913ZM65.2883 41.2409L46.0065 60.5228C45.4653 61.0411 44.7448 61.3305 43.9954 61.3305C43.246 61.3305 42.5255 61.0411 41.9843 60.5228L30.7103 49.2488C29.6002 48.1381 29.6007 46.3377 30.7116 45.2279C31.8222 44.1178 33.6227 44.1183 34.7325 45.2292L42.4281 52.926C42.843 53.3404 43.4053 53.5732 43.9917 53.5732C44.5781 53.5732 45.1405 53.3404 45.5553 52.926L61.2626 37.2163C62.3536 36.0864 64.1541 36.0546 65.2843 37.1457C66.4144 38.2367 66.4459 40.0372 65.3548 41.1674C65.332 41.191 65.3087 41.2143 65.2848 41.2374L65.2883 41.2409Z" fill="#2F87CC"/>
</svg>
