<svg width="24" height="24" viewBox="-4.5 -4.5 24 24" fill="none" xmlns="http://www.w3.org/2000/svg">
<path d="M7.5 1.25C10.9518 1.25 13.75 4.04822 13.75 7.5C13.75 10.9518 10.9518 13.75 7.5 13.75C4.04833 13.7499 1.25 10.9517 1.25 7.5C1.25 4.0483 4.04833 1.25013 7.5 1.25ZM7.5 2.75C6.94772 2.75 6.5 3.19772 6.5 3.75V7.5C6.5 7.87877 6.71395 8.22514 7.05273 8.39453L9.55273 9.64453L9.64648 9.68555C10.1204 9.86529 10.663 9.66039 10.8945 9.19727C11.1261 8.73416 10.9643 8.17756 10.5361 7.90625L10.4473 7.85547L8.5 6.88184V3.75C8.5 3.19772 8.05228 2.75 7.5 2.75Z" fill="#2F87CC"/>
</svg>
