<svg width="65" height="65" viewBox="0 0 65 65" fill="none" xmlns="http://www.w3.org/2000/svg">
<path d="M32.311 31.9327C34.2939 31.9327 36.0111 31.1969 37.4141 29.7452C38.8171 28.2938 39.5283 26.5178 39.5283 24.4662C39.5283 22.4151 38.8171 20.639 37.4139 19.187C36.0106 17.7358 34.2937 17 32.311 17C30.3277 17 28.611 17.7358 27.208 19.1872C25.805 20.6387 25.0935 22.4149 25.0935 24.4662C25.0935 26.5178 25.805 28.294 27.2082 29.7455C28.6115 31.1967 30.3284 31.9327 32.311 31.9327ZM44.9394 40.8373C44.8989 40.2333 44.8171 39.5743 44.6966 38.8786C44.575 38.1775 44.4184 37.5148 44.2309 36.9091C44.0373 36.2831 43.774 35.6649 43.4484 35.0724C43.1105 34.4575 42.7136 33.922 42.2683 33.4814C41.8026 33.0205 41.2324 32.6499 40.5731 32.3795C39.9161 32.1106 39.1879 31.9744 38.409 31.9744C38.1031 31.9744 37.8073 32.1042 37.236 32.489C36.8299 32.7626 36.4226 33.0343 36.0141 33.304C35.6215 33.5628 35.0898 33.8052 34.4329 34.0247C33.7921 34.2392 33.1415 34.348 32.4993 34.348C31.8572 34.348 31.2067 34.2392 30.5652 34.0247C29.9091 33.8054 29.3774 33.563 28.9853 33.3042C28.5305 33.0036 28.1191 32.7293 27.7622 32.4887C27.1916 32.104 26.8955 31.9741 26.5896 31.9741C25.8105 31.9741 25.0826 32.1106 24.4258 32.3798C23.7669 32.6496 23.1965 33.0202 22.7303 33.4816C22.2853 33.9225 21.8882 34.4576 21.5507 35.0724C21.2254 35.6648 20.962 36.2828 20.7682 36.9094C20.5809 37.5151 20.4243 38.1775 20.3027 38.8786C20.1822 39.5734 20.1004 40.2326 20.0599 40.838C20.0196 41.4473 19.9996 42.0579 20 42.6686C20 44.2868 20.4972 45.5968 21.4778 46.5629C22.4462 47.5164 23.7276 48 25.2858 48H39.7142C41.2725 48 42.5533 47.5166 43.522 46.563C44.5028 45.5975 45 44.2873 45 42.6683C44.9998 42.0437 44.9795 41.4276 44.9394 40.8373Z" fill="#D8DDE3"/>
</svg>
