<svg width="32" height="32" viewBox="-1 -1 32 32" fill="none" xmlns="http://www.w3.org/2000/svg">
<path d="M14.3105 1.25C15.9611 1.25 17.3602 1.83 18.5293 3C19.6985 4.17077 20.2783 5.57199 20.2783 7.22559C20.2783 8.87974 19.6981 10.2801 18.5293 11.4502V11.4512C17.3606 12.6213 15.9612 13.2012 14.3105 13.2012C12.6606 13.2011 11.2618 12.621 10.0928 11.4512C8.92374 10.281 8.34381 8.87968 8.34375 7.22559C8.34375 5.57183 8.92385 4.17033 10.0928 3C11.2614 1.83008 12.6597 1.2501 14.3105 1.25ZM3.25 24.8398C3.24963 24.2779 3.26836 23.7159 3.30664 23.1553C3.34355 22.6212 3.41939 22.0287 3.5332 21.3936C3.64626 20.7628 3.79029 20.1754 3.95898 19.6475C4.12563 19.1264 4.35346 18.6075 4.6377 18.1064C4.92159 17.606 5.24594 17.1859 5.59473 16.8516C5.9331 16.5275 6.36332 16.2534 6.88672 16.0459C7.37575 15.8519 7.9365 15.7441 8.56348 15.7412C8.56924 15.7434 8.57729 15.7465 8.58789 15.751C8.62811 15.7681 8.68422 15.7956 8.76367 15.8408L9.0791 16.0361C9.43971 16.2714 9.85451 16.5387 10.3115 16.8311L10.3125 16.832C10.8265 17.1603 11.4672 17.4343 12.1807 17.665C12.9399 17.9107 13.7199 18.0381 14.499 18.0381C15.2783 18.0381 16.0593 17.911 16.8184 17.665L16.8174 17.6641C17.5318 17.433 18.1725 17.16 18.6865 16.832L18.6875 16.8311C19.0991 16.5681 19.5098 16.3029 19.9189 16.0361C20.1867 15.8616 20.3297 15.7852 20.4102 15.751C20.4206 15.7466 20.4288 15.7434 20.4346 15.7412C21.0618 15.7441 21.6238 15.8521 22.1133 16.0459V16.0449C22.6372 16.253 23.0656 16.529 23.4033 16.8525H23.4043C23.7525 17.1859 24.0766 17.6051 24.3613 18.1064C24.5748 18.4824 24.7566 18.8685 24.9043 19.2578L25.04 19.6475C25.1666 20.0432 25.2799 20.4727 25.376 20.9287L25.4658 21.3936C25.5796 22.0296 25.6555 22.6218 25.6924 23.1543V23.1553C25.7303 23.6959 25.7498 24.2636 25.75 24.8408C25.7499 26.1235 25.3537 27.0433 24.6602 27.7041C23.962 28.3693 23.0078 28.75 21.7139 28.75H7.28613C5.99225 28.75 5.03778 28.3691 4.33984 27.7041C3.64613 27.0423 3.25005 26.1225 3.25 24.8408V24.8398Z" stroke="#2F87CC" stroke-width="2.5"/>
</svg>
