<svg width="32" height="32" viewBox="-2 -2 32 32" fill="none" xmlns="http://www.w3.org/2000/svg">
<path d="M27.6786 26.1326L19.7792 18.2331C23.3783 13.8542 23.1334 7.35374 19.0436 3.26403C14.6929 -1.08671 7.61378 -1.08671 3.26305 3.26403C-1.08768 7.61476 -1.08768 14.6939 3.26305 19.0446C7.35167 23.1332 13.8513 23.3808 18.2321 19.7802L26.1316 27.6796C26.5588 28.1068 27.2514 28.1068 27.6786 27.6796C28.1058 27.2524 28.1058 26.5598 27.6786 26.1326ZM17.4966 17.4975C13.9989 20.9952 8.30779 20.9952 4.8101 17.4975C1.31241 13.9998 1.31241 8.30872 4.8101 4.81103C8.30769 1.3135 13.9988 1.31323 17.4966 4.81103C20.9943 8.30872 20.9943 13.9998 17.4966 17.4975Z" fill="#2F87CC"/>
<path d="M15.4758 10.4208H12.1353V7.08027C12.1353 6.60675 11.7514 6.2229 11.2779 6.2229C10.8044 6.2229 10.4205 6.60675 10.4205 7.08027V10.4208H7.08003C6.60651 10.4208 6.22266 10.8046 6.22266 11.2781C6.22266 11.7517 6.60651 12.1355 7.08003 12.1355H10.4205V15.476C10.4205 15.9495 10.8044 16.3334 11.2779 16.3334C11.7514 16.3334 12.1353 15.9495 12.1353 15.476V12.1355H15.4758C15.9493 12.1355 16.3331 11.7517 16.3331 11.2781C16.3331 10.8046 15.9493 10.4208 15.4758 10.4208Z" fill="#2F87CC"/>
</svg>
