<svg width="224" height="30" viewBox="0 0 224 30" fill="none" xmlns="http://www.w3.org/2000/svg">
<path fill-rule="evenodd" clip-rule="evenodd" d="M98.5975 27.8624C98.8442 27.898 99.3743 28.004 99.9033 28.004C100.504 28.004 100.962 27.9337 101.315 27.792L108.375 2.8002L108.234 2.72987C108.057 2.69419 107.599 2.58919 107.139 2.58919C106.61 2.58919 106.221 2.65953 105.939 2.80122L100.821 20.8746C100.362 22.3924 100.08 23.7686 99.938 24.9337H99.832L99.7616 24.4036C99.7259 23.6982 99.4089 22.1447 99.0909 20.8389L94.0787 2.8002L93.9726 2.72987C93.7963 2.69419 93.3019 2.58919 92.7372 2.58919C92.1368 2.58919 91.678 2.65953 91.4314 2.80122L86.3835 20.8746C85.9951 22.3221 85.7484 23.6636 85.6067 24.9337H85.5007L84.5833 20.8389L79.3233 2.80122L79.2173 2.73089C79.041 2.69521 78.5466 2.59021 77.9818 2.59021C77.3814 2.59021 76.9584 2.66055 76.676 2.80224L83.9125 27.7941C84.3009 27.9358 84.7596 28.0061 85.36 28.0061C85.9604 28.0061 86.4895 27.9358 86.9135 27.7941L91.8554 9.93067C92.3141 8.05912 92.5608 6.64729 92.6322 5.65953H92.7382L92.7739 6.11824C92.8095 6.68297 93.0919 8.27114 93.5149 9.93067L98.4212 27.792L98.5975 27.8624ZM125.4 19.108C125.54 18.5433 125.682 17.2018 125.682 15.896C125.682 11.6249 123.281 9.08358 119.046 9.08358C114.351 9.08358 111.457 12.1549 111.457 18.6147C111.457 25.1101 113.998 28.3578 119.082 28.3578C120.211 28.3578 121.27 28.2161 122.259 27.9337C123.248 27.6513 123.883 27.4393 124.165 27.263C124.448 27.0866 124.66 26.9103 124.8 26.8043C124.765 25.9928 124.448 25.3924 123.883 24.9337L123.389 25.2518C122.788 25.6401 121.164 26.0989 119.576 26.0989C116.046 26.0989 114.352 24.2283 114.104 19.5331H125.294L125.4 19.108ZM123.175 15.6136C123.175 16.4607 123.14 17.1315 123.069 17.6259H114.103C114.279 13.3191 115.939 11.1661 119.045 11.1661C121.905 11.1661 123.175 12.9663 123.175 15.6136ZM134.2 1.67074C134.058 1.56473 133.6 1.53007 133.07 1.53007C132.47 1.53007 132.047 1.60041 131.799 1.70642V27.8277L131.941 27.8634C132.082 27.9694 132.54 28.0051 133.07 28.0051C133.671 28.0051 134.094 27.9347 134.342 27.8287V25.6045C135.436 27.4403 137.236 28.3578 139.778 28.3578C144.155 28.3578 146.556 25.6045 146.556 18.7207C146.556 11.8369 144.155 9.08358 139.778 9.08358C137.237 9.08358 135.436 10.001 134.342 11.8369V1.7054L134.2 1.67074ZM138.93 11.2365C142.46 11.2365 143.907 13.2487 143.907 18.7197C143.907 24.1906 142.46 26.2028 138.93 26.2028C137.518 26.2028 136.388 25.6728 135.576 24.6493C134.765 23.5902 134.341 22.3547 134.341 20.9429V16.3894C134.376 13.5668 136.106 11.2365 138.93 11.2365ZM161.618 18.0846C163.912 18.0846 165.748 17.3792 167.124 15.9663C168.502 14.5188 169.207 12.6483 169.207 10.3537C169.207 8.02344 168.501 6.1529 167.124 4.74108C165.748 3.29358 163.912 2.58817 161.618 2.58817H152.405V27.7563L152.581 27.792C152.828 27.898 153.5 28.004 154.241 28.004C155.017 28.004 155.617 27.9337 156.005 27.7574V18.0856L161.618 18.0846ZM156.005 5.58817H161.159C163.948 5.58817 165.466 7.35371 165.466 10.3537C165.466 13.3537 163.948 15.0836 161.159 15.0836H156.005V5.58817ZM173.858 10.3894C173.858 11.0601 173.929 11.5545 174.07 11.8726C174.212 12.1896 174.494 12.5433 174.883 12.9317L175.518 12.685C176.365 12.4026 178.165 12.0499 179.613 12.0499C182.26 12.0499 183.248 13.3211 183.248 15.8267V17.1325C182.012 16.9908 180.671 16.9205 179.224 16.9205C174.706 16.9205 172.447 18.7564 172.447 22.4628C172.447 26.3109 174.529 28.3578 177.918 28.3578C180.671 28.3578 182.507 27.4047 183.46 25.4984L183.99 27.7574L184.166 27.793C184.343 27.8991 184.873 28.0051 185.402 28.0051C186.072 28.0051 186.531 27.9347 186.779 27.7584V15.9317C186.779 11.2365 184.979 9.08358 180.037 9.08358C177.671 9.08358 175.623 9.50764 173.858 10.3894ZM183.248 20.7676C183.248 23.4852 181.8 25.6391 179.153 25.6391C177.106 25.6391 176.082 24.58 176.082 22.4618C176.082 20.3792 177.282 19.3201 179.682 19.3201C180.423 19.3201 181.624 19.3904 183.247 19.5321V20.7676H183.248ZM200.218 11.9776C201.454 11.9776 202.513 12.1539 203.324 12.5066C203.995 11.8715 204.348 11.0245 204.348 9.96533L203.924 9.71865C203.359 9.43628 201.629 9.08358 199.617 9.08358C194.499 9.08358 191.851 12.4016 191.851 18.7207C191.851 25.0397 194.499 28.3578 199.617 28.3578C201.982 28.3578 203.676 28.0051 204.699 27.2986C204.664 26.1692 204.311 25.3221 203.676 24.7574L203.288 24.8991C202.723 25.0754 201.487 25.3578 200.358 25.3578C196.969 25.3578 195.486 23.3455 195.486 18.7217C195.488 14.0611 196.864 11.9776 200.218 11.9776ZM212.846 16.9908V1.7054L211.116 1.52905C210.375 1.52905 209.775 1.59939 209.316 1.7054V27.7563L209.492 27.792C209.775 27.898 210.445 28.004 211.116 28.004C211.787 28.004 212.387 27.9337 212.846 27.7574V19.6381H214.823L220.117 27.7574L220.329 27.8277C220.612 27.9337 221.317 28.0397 222.023 28.0397C222.835 28.0397 223.471 27.9337 224 27.7574L217.752 18.0856L223.189 9.64933L222.977 9.57899C222.694 9.54331 222.023 9.4373 221.459 9.4373C220.718 9.4373 220.117 9.50764 219.659 9.68399L214.857 16.9908H212.846Z" fill="#333333"/>
<path fill-rule="evenodd" clip-rule="evenodd" d="M8.74515 0.981718L8.74413 0.97968C8.72068 0.894053 8.66666 0.839007 8.60346 0.807407L8.59836 0.804348H8.59734L8.59326 0.80231H8.59224C8.55555 0.783961 8.51273 0.773767 8.46482 0.770709H8.45871H8.45769H8.45361H8.45055H8.44749H8.44342H8.4424H8.43628H7.69826H2.25994H1.51478H1.04689H0.66055C0.220183 0.76969 0 1.17642 0 1.42412C0 1.66775 0.671763 3.2967 7.65443 21.8196C7.96227 22.6412 8.16921 22.1101 8.34148 21.6473L8.37716 21.5515C8.46176 21.4404 8.53516 21.2447 8.60448 21.0602L8.85014 20.4007C8.89907 20.2997 8.94494 20.1784 8.98776 20.0622L12.2457 11.3273C12.369 10.9736 12.3517 10.8584 12.2538 10.6423L8.74515 0.981718ZM18.0224 0.976621V0.975602C18.0459 0.892014 18.0978 0.837988 18.159 0.806387L18.1631 0.804348L18.1641 0.803329L18.1682 0.80129C18.2039 0.783961 18.2467 0.773767 18.2936 0.770709H18.2987H18.3038H18.3068H18.3099H18.3139H18.3201H22.5892H29.5576H29.6289C29.845 0.783961 30.0652 0.841046 30.1468 1.06327L31.7278 5.418C31.8236 5.63003 31.8399 5.74114 31.7196 6.08671L28.6564 14.3079C28.1773 15.5933 27.7268 14.3568 27.2986 13.2213L26.5239 11.1672C24.8583 15.5923 22.6259 21.5189 19.8257 28.948V28.9491C19.8114 29.0112 19.7798 29.0561 19.739 29.0887L19.737 29.0908C19.683 29.1417 19.6126 29.1682 19.526 29.156H8.29051C7.87257 29.156 7.6636 28.7697 7.6636 28.5352C7.6636 28.2987 11.1182 19.2926 18.0224 0.976621ZM35.4138 0.94604C28.5097 19.262 25.055 28.2671 25.055 28.5016C25.055 28.736 25.264 29.1224 25.6819 29.1224H36.9184C37.0061 29.1356 37.0754 29.1091 37.1304 29.0581L37.1325 29.0561C37.1732 29.0245 37.2059 28.9796 37.2191 28.9175V28.9154C44.1243 10.5994 47.5789 1.41393 47.5789 1.35888C47.5789 0.945021 47.37 0.73809 46.952 0.73809H35.7145H35.7094H35.7043H35.7013H35.842H35.6941H35.688C35.6411 0.741148 35.6004 0.750322 35.5637 0.768671L35.5586 0.770709L35.5576 0.771729L35.5535 0.773767C35.4923 0.805368 35.4383 0.858375 35.4159 0.941963L35.4138 0.94604ZM53.2018 13.5811C55.3924 13.5668 57.004 10.258 55.3802 9.07651C55.11 8.87977 54.795 8.76866 54.4423 8.76866L48.1549 8.76662C46.8348 8.72585 46.6697 8.14481 47.2803 6.94603L49.2691 1.7228C49.6656 0.520964 49.8705 0.786 50.4658 0.729935L57.8756 0.732993C59.3139 0.734012 60.6024 1.01332 61.7451 1.55868C62.8776 2.09894 63.8154 2.85328 64.5585 3.8074C65.3068 4.76765 65.8103 5.8706 66.0805 7.12952C66.3496 8.38334 66.3373 9.73604 66.0213 11.1733C65.7033 12.6198 65.1141 13.9685 64.2935 15.2202C63.4678 16.4812 62.476 17.5862 61.3098 18.5434C60.1426 19.5016 58.8644 20.2528 57.4923 20.7921C56.1182 21.3324 54.7074 21.6178 53.2599 21.6208C50.476 21.627 49.6788 21.6208 46.8878 21.6208L42.2966 21.6188C41.6809 21.6433 41.9775 21.0775 42.0937 20.7687L44.6962 13.8879C44.8491 13.6728 44.9204 13.5903 45.2895 13.5882L52.5433 13.5842L53.2018 13.5811Z" fill="#2F87CC"/>
</svg>
