<svg width="106" height="43" viewBox="0 0 106 43" fill="none" xmlns="http://www.w3.org/2000/svg">
<g clip-path="url(#clip0_4001_194)">
<path fill-rule="evenodd" clip-rule="evenodd" d="M5.08399 10.7652L2.14479 17.4524H0L3.22932 10.3004C1.71014 9.51989 0.699458 8.1046 0.699458 5.49119C0.699458 1.83075 2.98773 0 5.71065 0H8.48211V17.4524H6.62744V10.7652H5.08399ZM6.62744 1.58525H5.63892C4.14611 1.58525 2.69866 2.58718 2.69866 5.49119C2.69866 8.29764 4.02478 9.20095 5.63892 9.20095H6.62744V1.58525Z" fill="white"/>
<path fill-rule="evenodd" clip-rule="evenodd" d="M17.4304 5.15022V17.4514H15.5737V11.9361H12.7779V17.4514H10.8979V5.15022H12.779V10.3728H15.5747V5.15022H17.4304ZM27.0931 19.8696H25.4072V17.4514H20.2008V19.8696H18.5129V15.8913H19.2608C20.3707 13.28 20.491 9.47162 20.491 6.20146V5.15022H26.1299V15.8903H27.0941L27.0931 19.8696ZM24.2742 6.68721H22.1758V6.90648C22.1758 9.49471 22.0576 13.2789 21.0448 15.8903H24.2742V6.68721ZM32.2762 17.6224C29.7685 17.6224 28.2272 15.5975 28.2272 11.8133C28.2272 7.8591 29.3107 4.97921 31.8901 4.97921C33.9136 4.97921 35.2397 6.5162 35.2397 10.6897V11.7399H30.1779C30.1779 14.5222 30.9491 15.9878 32.4419 15.9878C33.5032 15.9878 34.3472 15.5 34.8293 15.1569L35.2629 16.6226C34.4917 17.2342 33.48 17.6224 32.2762 17.6224ZM30.2021 10.1777H33.3112C33.3112 8.07942 32.9736 6.54243 31.8912 6.54243C30.7328 6.54243 30.3224 7.98185 30.2021 10.1777ZM39.0482 11.3255V17.4514H37.1672V5.15022H39.0482V10.8366L41.9642 5.15022H43.8695L40.8554 10.9341L44.3021 17.4503H42.2522L39.0482 11.3255ZM44.5415 11.3013C44.5415 7.44469 46.0122 4.98026 48.8554 4.98026C49.9399 4.98026 50.5676 5.27402 51.0962 5.61499L50.8314 7.42056C50.325 6.98097 49.6034 6.56551 48.8322 6.56551C47.4818 6.56551 46.5196 8.1046 46.5196 11.2038C46.5196 14.2788 47.2413 16.0371 48.7594 16.0371C49.6762 16.0371 50.3756 15.671 50.8092 15.2807L51.2418 16.697C50.593 17.2562 49.8207 17.6234 48.7119 17.6234C46.1082 17.6224 44.5415 15.5 44.5415 11.3013ZM71.5904 15.7937C71.0123 16.9646 70.1461 17.6969 68.9403 17.6969C67.2998 17.6969 66.1688 16.3781 66.1688 14.1329C66.1688 11.4975 67.5888 10.1294 70.2158 10.1294H71.5419V8.5914C71.5419 6.71239 70.8424 5.9077 69.5184 5.9077C68.4824 5.9077 67.5414 6.39555 66.9622 7.2506L66.6488 6.15215C67.132 5.51742 68.1437 4.90682 69.5184 4.90682C71.5176 4.90682 72.6507 6.03045 72.6507 8.4697V15.1842C72.6507 16.0371 72.7709 16.9887 72.9155 17.4524H71.8784C71.7835 17.1356 71.6621 16.6708 71.5904 15.7937ZM71.5419 14.3533V10.9604H70.2421C68.2408 10.9604 67.2766 11.8878 67.2766 14.0354C67.2766 15.7675 68.0235 16.7684 69.1819 16.7684C70.3149 16.7684 71.1083 15.6699 71.5419 14.3533ZM76.3917 16.5963V21.2587H75.2607V5.15127H76.2492L76.3442 7.17611C76.8748 6.00422 77.7663 4.90682 79.1167 4.90682C81.1402 4.90682 82.3196 7.37125 82.3196 10.9352C82.3196 15.4517 80.8268 17.6717 78.5618 17.6717C77.645 17.6717 76.8506 17.208 76.3917 16.5963ZM81.1887 11.0327C81.1887 7.81084 80.3204 5.90665 78.9236 5.90665C77.8391 5.90665 76.9223 7.07854 76.3906 8.39731V15.2807C76.8738 16.2826 77.549 16.7684 78.6335 16.7684C80.1759 16.7684 81.1887 14.9135 81.1887 11.0327ZM85.627 17.4524H84.4961V5.15127H85.627V10.9352L89.7003 5.15127H90.8102L86.8086 10.8628L91.0993 17.4524H89.8459L85.627 11.0821V17.4524ZM95.3909 16.697C97.0072 16.697 97.8512 15.3783 97.8512 15.3783L98.2131 16.3068C98.2131 16.3068 97.2973 17.6969 95.3699 17.6969C92.7894 17.6969 91.6099 15.33 91.6099 11.3024C91.6099 7.27473 93.1027 4.90787 95.1536 4.90787C97.2488 4.90787 98.5992 7.12785 98.2131 11.4975H92.7176C92.7651 14.8652 93.6323 16.697 95.3909 16.697ZM92.7408 10.5942H97.1517C97.3448 7.32299 96.3795 5.85734 95.1525 5.85734C93.8739 5.85734 92.8368 7.51813 92.7408 10.5942ZM103.204 17.4514H102.072V6.10179H99.2512V5.15127H106V6.10179H103.204V17.4514ZM64.0652 17.4524H62.91V5.22366C62.91 4.39379 62.9564 3.51462 63.0038 2.63649H62.91C62.6905 3.61114 62.5238 4.3193 62.3287 5.05265L59.7503 14.7666H58.8092L56.2551 5.12609C56.0146 4.22278 55.8215 3.44013 55.6759 2.63649H55.6042C55.6527 3.46635 55.6759 4.34448 55.6759 5.22366V17.4535H54.6167V0H56.0135L58.9305 11.1544C59.0519 11.6182 59.2196 12.5225 59.2903 13.1814H59.362C59.4591 12.5225 59.6511 11.594 59.7714 11.1544L62.7148 0H64.0652V17.4524Z" fill="white"/>
<path fill-rule="evenodd" clip-rule="evenodd" d="M26.2099 27.3477L28.1585 33.334L34.4852 33.3267L29.3622 37.0186L31.3245 42.9998L26.211 39.2953L21.0974 42.9998L23.0597 37.0186L17.9346 33.3267L24.2613 33.334L26.2099 27.3477ZM43.9094 27.3477L45.857 33.334L52.1837 33.3267L47.0607 37.0186L49.023 42.9998L43.9094 39.2953L38.7949 42.9998L40.7571 37.0186L35.6341 33.3267L41.9609 33.334L43.9094 27.3477ZM61.609 27.3477L63.5576 33.334L69.8843 33.3267L64.7613 37.0186L66.7236 42.9998L61.61 39.2953L56.4965 42.9998L58.4588 37.0186L53.3358 33.3267L59.6625 33.334L61.609 27.3477ZM79.3075 27.3477L81.255 33.334L87.5818 33.3267L82.4587 37.0186L84.421 42.9998L79.3064 39.2953L74.1918 42.9998L76.1541 37.0186L71.0311 33.3267L77.3579 33.334L79.3075 27.3477ZM97.007 27.3477L98.9545 33.334L105.281 33.3267L100.158 37.0186L102.121 42.9998L97.006 39.2953L91.8914 42.9998L93.8537 37.0186L88.7306 33.3267L95.0574 33.334L97.007 27.3477Z" fill="#979BA9"/>
</g>
<defs>
<clipPath id="clip0_4001_194">
<rect width="106" height="43" fill="white"/>
</clipPath>
</defs>
</svg>
