<svg width="110" height="110" viewBox="0 0 110 110" fill="none" xmlns="http://www.w3.org/2000/svg">
<path d="M52.7083 56.1183C66.6305 56.1183 77.9167 44.8322 77.9167 30.91C77.9167 16.9878 66.6305 5.70166 52.7083 5.70166C38.7862 5.70166 27.5 16.9878 27.5 30.91C27.5 44.8322 38.7862 56.1183 52.7083 56.1183Z" fill="#D8DDE3"/>
<path fill-rule="evenodd" clip-rule="evenodd" d="M59.2394 99.715C54.2983 94.4223 51.5539 87.4491 51.5624 80.2083C51.5624 72.4946 54.6194 65.4867 59.5878 60.335C57.3419 60.1608 55.0457 60.0692 52.7082 60.0692C37.4824 60.0692 24.0028 63.8779 15.6336 69.5842C9.24902 73.9383 5.72902 79.4704 5.72902 85.2775V91.9233C5.7272 92.947 5.92751 93.9611 6.31843 94.9072C6.70936 95.8534 7.28322 96.713 8.0071 97.4369C8.73099 98.1608 9.59065 98.7346 10.5368 99.1256C11.4829 99.5165 12.497 99.7168 13.5207 99.715H59.2394Z" fill="#D8DDE3"/>
<path fill-rule="evenodd" clip-rule="evenodd" d="M80.208 56.1458C66.9255 56.1458 56.1455 66.9258 56.1455 80.2083C56.1455 93.4908 66.9255 104.271 80.208 104.271C93.4905 104.271 104.271 93.4908 104.271 80.2083C104.271 66.9258 93.4905 56.1458 80.208 56.1458ZM76.7705 80.2083V91.6666C76.7705 92.5783 77.1327 93.4527 77.7773 94.0973C78.422 94.742 79.2963 95.1041 80.208 95.1041C81.1197 95.1041 81.994 94.742 82.6387 94.0973C83.2833 93.4527 83.6455 92.5783 83.6455 91.6666V80.2083C83.6455 79.2966 83.2833 78.4223 82.6387 77.7776C81.994 77.133 81.1197 76.7708 80.208 76.7708C79.2963 76.7708 78.422 77.133 77.7773 77.7776C77.1327 78.4223 76.7705 79.2966 76.7705 80.2083ZM80.208 65.3125C81.4236 65.3125 82.5894 65.7954 83.4489 66.6549C84.3085 67.5145 84.7913 68.6802 84.7913 69.8958C84.7913 71.1114 84.3085 72.2772 83.4489 73.1367C82.5894 73.9963 81.4236 74.4791 80.208 74.4791C78.9924 74.4791 77.8266 73.9963 76.9671 73.1367C76.1076 72.2772 75.6247 71.1114 75.6247 69.8958C75.6247 68.6802 76.1076 67.5145 76.9671 66.6549C77.8266 65.7954 78.9924 65.3125 80.208 65.3125Z" fill="#D8DDE3"/>
</svg>
