<svg width="110" height="110" viewBox="0 0 110 110" fill="none" xmlns="http://www.w3.org/2000/svg">
<path d="M25.0351 14.9848L5.91227 25.5851C5.58854 25.7629 5.27796 25.9657 4.98311 26.1918L53.882 52.8234L74.3585 42.2454L25.0351 14.9848ZM107.99 32.1059L83.527 44.7433V58.9806C83.527 60.7712 82.137 62.223 80.4226 62.223C78.7082 62.223 77.3182 60.7712 77.3182 58.9806V47.9509L56.9492 58.4733V110C57.013 109.969 57.0776 109.941 57.1407 109.908L103.967 85.1266C106.455 83.8274 108 81.2171 108 78.3112V32.3924C108 32.2962 107.994 32.2013 107.99 32.1059ZM103.967 25.5769L57.16 0.80612L57.1405 0.795958C55.0563 -0.28779 52.5798 -0.263572 50.5151 0.860827L31.6624 11.311L81.2195 38.7008L105.14 26.3438C104.773 26.0503 104.38 25.7936 103.967 25.5769ZM2.0147 31.8886C2.00564 32.0376 2.00074 32.1868 2 32.336L2 78.3674C2 81.2134 3.49891 83.7987 5.91206 85.1183L50.4952 109.832L50.5153 109.843C50.5894 109.883 50.6652 109.919 50.7403 109.956V58.4257L2.0147 31.8886Z" fill="#D8DDE3"/>
</svg>
