<svg width="110" height="110" viewBox="0 0 110 110" fill="none" xmlns="http://www.w3.org/2000/svg">
<path d="M41.2497 45.8333C53.9062 45.8333 64.1663 35.5732 64.1663 22.9167C64.1663 10.2601 53.9062 0 41.2497 0C28.5931 0 18.333 10.2601 18.333 22.9167C18.333 35.5732 28.5931 45.8333 41.2497 45.8333Z" fill="#D8DDE3"/>
<path d="M52.8642 95.3333C51.721 93.3456 51.1988 91.0612 51.3646 88.7742C51.5304 86.4872 52.3767 84.3021 53.7946 82.5C52.3761 80.6982 51.5295 78.513 51.3637 76.2258C51.1978 73.9387 51.7204 71.6542 52.8642 69.6667L56.5721 63.25C57.7223 61.2658 59.44 59.6712 61.5041 58.6714C63.5681 57.6716 65.8842 57.3124 68.1542 57.64C68.3054 57.2642 68.4979 56.9112 68.6858 56.5537C66.1553 55.5387 63.4556 55.0116 60.7292 55H21.7708C15.9991 55.0073 10.4658 57.3033 6.38457 61.3846C2.30332 65.4658 0.00727685 70.9991 0 76.7708L0 92.8125C0 94.71 1.54 96.25 3.4375 96.25H53.3913L52.8642 95.3333Z" fill="#D8DDE3"/>
<path d="M99.4717 84.6497C99.5634 83.9393 99.6871 83.2335 99.6871 82.5002C99.6871 81.7622 99.5588 81.061 99.4717 80.3506L103.601 77.2248C104.047 76.8874 104.354 76.3989 104.464 75.8511C104.575 75.3033 104.482 74.7339 104.202 74.2502L100.494 67.8335C100.215 67.3499 99.7689 66.9848 99.2397 66.8067C98.7106 66.6287 98.1346 66.6499 97.62 66.8664L92.8671 68.8693C91.7169 67.9673 90.4553 67.2171 89.1134 66.6372L88.4809 61.591C88.4116 61.0368 88.1424 60.5271 87.7238 60.1574C87.3052 59.7877 86.766 59.5837 86.2075 59.5835H78.7963C78.2378 59.5837 77.6986 59.7877 77.28 60.1574C76.8614 60.5271 76.5922 61.0368 76.523 61.591L75.8905 66.6372C74.549 67.2178 73.2874 67.9679 72.1367 68.8693L67.3838 66.8664C66.8692 66.6499 66.2932 66.6287 65.7641 66.8067C65.235 66.9848 64.789 67.3499 64.51 67.8335L60.8021 74.2502C60.5223 74.7339 60.4289 75.3033 60.5395 75.8511C60.65 76.3989 60.957 76.8874 61.4025 77.2248L65.5321 80.3506C65.4405 81.061 65.3167 81.7668 65.3167 82.5002C65.3167 83.2381 65.445 83.9393 65.5321 84.6497L61.4025 87.7756C60.957 88.1129 60.65 88.6014 60.5395 89.1493C60.4289 89.6971 60.5223 90.2664 60.8021 90.7502L64.51 97.1714C64.789 97.655 65.235 98.0201 65.7641 98.1982C66.2932 98.3762 66.8692 98.355 67.3838 98.1385L72.1367 96.131C73.2963 97.0156 74.5292 97.7948 75.8905 98.3631L76.523 103.409C76.665 104.555 77.6367 105.417 78.7917 105.417H86.203C86.7614 105.417 87.3006 105.213 87.7192 104.843C88.1378 104.473 88.407 103.963 88.4763 103.409L89.1088 98.3631C90.47 97.7948 91.7075 97.011 92.8625 96.131L97.6155 98.1339C98.1301 98.3504 98.706 98.3717 99.2351 98.1936C99.7643 98.0155 100.21 97.6504 100.489 97.1668L104.197 90.7456C104.477 90.2618 104.57 89.6925 104.46 89.1447C104.349 88.5969 104.042 88.1083 103.597 87.771L99.4717 84.6497ZM82.4996 91.6668C81.2789 91.6944 80.065 91.4779 78.9291 91.0299C77.7932 90.5819 76.7583 89.9115 75.8851 89.058C75.0119 88.2045 74.318 87.1852 73.8441 86.0598C73.3703 84.9345 73.126 83.7258 73.1257 82.5048C73.1254 81.2838 73.3691 80.075 73.8423 78.9494C74.3156 77.8238 75.009 76.8041 75.8818 75.9502C76.7546 75.0963 77.7892 74.4254 78.9248 73.9768C80.0605 73.5283 81.2743 73.3111 82.495 73.3381C84.8901 73.391 87.1693 74.3795 88.8447 76.0919C90.52 77.8043 91.4585 80.1046 91.4591 82.5002C91.4597 84.8959 90.5224 87.1966 88.8479 88.9098C87.1733 90.623 84.8947 91.6127 82.4996 91.6668Z" fill="#D8DDE3"/>
</svg>
