<svg width="311" height="400" viewBox="0 -44.5 311 400" fill="none" xmlns="http://www.w3.org/2000/svg">
<g clip-path="url(#clip0_2985_117)">
<path d="M242.583 16.5513H147.095C141.047 16.5534 135.247 18.9569 130.971 23.2334L6.67925 147.502C-2.22642 156.408 -2.22642 170.844 6.67925 179.761L102.167 275.249C111.073 284.155 125.509 284.155 134.415 275.249L258.706 150.98C262.982 146.693 265.388 140.889 265.388 134.834V39.3571C265.388 26.7569 255.183 16.5513 242.583 16.5513ZM202.672 96.3717C193.231 96.3717 185.568 88.7089 185.568 79.2673C185.568 69.8257 193.231 62.163 202.672 62.163C212.114 62.163 219.777 69.8257 219.777 79.2673C219.777 88.7089 212.114 96.3717 202.672 96.3717Z" fill="#F5F7FA"/>
<path d="M288.194 39.3571L288.183 145.507C288.184 148.112 287.671 150.692 286.673 153.099C285.675 155.506 284.212 157.692 282.367 159.532L156.069 285.831L158.007 287.769C166.913 296.675 181.349 296.675 190.255 287.769L304.307 173.74C306.428 171.625 308.111 169.112 309.26 166.345C310.408 163.579 311 160.612 311 157.617V62.1629C311 49.5627 300.795 39.3571 288.194 39.3571Z" fill="#F5F7FA"/>
</g>
<defs>
<clipPath id="clip0_2985_117">
<rect width="311" height="311" fill="white"/>
</clipPath>
</defs>
</svg>
