<svg width="1155" height="499" viewBox="0 0 1155 499" fill="none" xmlns="http://www.w3.org/2000/svg">
<path fill-rule="evenodd" clip-rule="evenodd" d="M152.414 4.41943L152.396 4.38364C151.988 2.88068 151.046 1.91449 149.945 1.35982L149.856 1.30615H149.838L149.767 1.27036H149.749C149.11 0.948299 148.363 0.769374 147.528 0.715697H147.422H147.404H147.333H147.28H147.226H147.155H147.137H147.031H134.168H39.3871H26.4002H18.2456H11.5123C3.83744 0.697805 0 7.83688 0 12.1847C0 16.461 11.7078 45.0531 133.404 370.176C138.77 384.598 142.376 375.276 145.379 367.153L146 365.471C147.475 363.52 148.754 360.085 149.962 356.846L154.244 345.27C155.097 343.499 155.896 341.37 156.642 339.33L213.422 186.01C215.572 179.801 215.27 177.779 213.564 173.986L152.414 4.41943ZM314.102 4.32997V4.31207C314.51 2.8449 315.416 1.8966 316.482 1.34193L316.553 1.30615L316.571 1.28825L316.642 1.25247C317.264 0.948298 318.01 0.769374 318.828 0.715697H318.916H319.005H319.058H319.112H319.183H319.289H393.693H515.141H516.385C520.151 0.948298 523.989 1.95027 525.41 5.85082L552.965 82.2873C554.635 86.0089 554.919 87.9592 552.823 94.0247L499.436 238.327C491.086 260.889 483.234 239.186 475.772 219.254L462.27 183.201C433.24 260.872 394.333 364.898 345.53 495.298V495.316C345.281 496.407 344.73 497.195 344.02 497.767L343.984 497.803C343.042 498.698 341.817 499.163 340.307 498.948H144.49C137.206 498.948 133.564 492.167 133.564 488.052C133.564 483.901 193.773 325.821 314.102 4.32997ZM617.206 3.79319C496.878 325.284 436.669 483.346 436.669 487.461C436.669 491.576 440.311 498.358 447.595 498.358H643.429C644.957 498.59 646.165 498.125 647.124 497.23L647.16 497.195C647.87 496.64 648.439 495.853 648.67 494.761V494.725C769.016 173.234 829.225 12.0058 829.225 11.0396C829.225 3.7753 825.583 0.143139 818.299 0.143139H622.447H622.359H622.27H622.216H624.668H622.092H621.985C621.168 0.196817 620.458 0.357848 619.818 0.679912L619.729 0.715697L619.711 0.733589L619.64 0.769374C618.574 1.32404 617.633 2.25445 617.242 3.72162L617.206 3.79319ZM927.222 225.57C965.401 225.319 993.489 167.24 965.188 146.503C960.48 143.05 954.99 141.1 948.843 141.1L839.263 141.064C816.256 140.348 813.378 130.149 824.02 109.108L858.681 17.4272C865.592 -3.66795 869.163 0.984083 879.538 0L1008.68 0.0536773C1033.75 0.0715697 1056.2 4.97409 1076.12 14.5465C1095.86 24.0295 1112.2 37.2699 1125.15 54.0172C1138.19 70.8719 1146.97 90.2315 1151.68 112.329C1156.37 134.336 1156.15 158.08 1150.65 183.308C1145.1 208.697 1134.83 232.369 1120.53 254.341C1106.14 276.474 1088.86 295.869 1068.53 312.67C1048.19 329.489 1025.91 342.676 1002 352.141C978.05 361.624 953.462 366.634 928.235 366.687C879.716 366.795 865.823 366.687 817.18 366.687L737.162 366.652C726.431 367.081 731.601 357.151 733.627 351.729L778.983 230.955C781.648 227.18 782.892 225.731 789.323 225.695L915.745 225.623L927.222 225.57Z" fill="#F5F7FA"/>
</svg>
