<svg width="269" height="400" viewBox="0 -65.5 269 400" fill="none" xmlns="http://www.w3.org/2000/svg">
<g clip-path="url(#clip0_2985_308)">
<path d="M180.678 21.621L58.6084 84.1187L10.0875 60.245L130.005 1.03133C131.364 0.356869 132.86 0.00590515 134.377 0.00590515C135.893 0.00590515 137.389 0.356869 138.748 1.03133L180.678 21.621ZM258.778 60.245L134.567 121.779L88.0527 98.8577L81.3277 95.4391L203.532 32.9527L210.257 36.36L258.778 60.245ZM124.614 139.51L124.48 269L5.5145 206.917C3.85357 206.035 2.46337 204.718 1.49219 203.107C0.521011 201.496 0.00527687 199.652 0 197.771L0 77.9765L50.4151 102.814V146.482C50.4151 152.075 54.9881 156.715 60.5026 156.715C66.0171 156.715 70.5901 152.075 70.5901 146.482V112.913L77.3151 116.186L124.614 139.51ZM268.866 78.111L144.789 139.376L144.655 268.866L269 203.936L268.866 78.111Z" fill="#F5F7FA"/>
</g>
<defs>
<clipPath id="clip0_2985_308">
<rect width="269" height="269" fill="white"/>
</clipPath>
</defs>
</svg>
