<svg width="380" height="400" viewBox="0 -107 380 400" fill="none" xmlns="http://www.w3.org/2000/svg">
<g clip-path="url(#clip0_2985_215)">
<path fill-rule="evenodd" clip-rule="evenodd" d="M49.0984 0C56.7796 0.00211387 64.3084 1.60587 70.842 4.63173C77.3755 7.65758 82.6559 11.9861 86.0919 17.1327L127.458 79.1327C130.325 83.4398 131.818 88.187 131.818 93C131.818 97.813 130.325 102.56 127.458 106.867L86.0781 168.867C82.6442 174.011 77.3681 178.337 70.8399 181.363C64.3117 184.388 56.7887 185.994 49.1122 186H41.8294C34.7781 185.995 27.8454 184.641 21.6887 182.066C15.532 179.491 10.3555 175.78 6.64992 171.286C2.94438 166.792 0.832733 161.663 0.51525 156.386C0.197768 151.109 1.68497 145.858 4.83582 141.133L33.8568 97.619C34.8146 96.185 35.3132 94.6035 35.3132 93C35.3132 91.3965 34.8146 89.815 33.8568 88.381L4.82202 44.8673C1.67118 40.1416 0.183975 34.8912 0.501458 29.6141C0.818941 24.337 2.93058 19.2081 6.63612 14.7138C10.3417 10.2196 15.5183 6.50901 21.6749 3.93396C27.8316 1.35891 34.7644 0.00478628 41.8156 0H49.0984ZM297.267 0C304.95 0.00019559 312.482 1.60305 319.018 4.62901C325.555 7.65497 330.837 11.9845 334.274 17.1327L375.64 79.1327C378.507 83.4398 380 88.187 380 93C380 97.813 378.507 102.56 375.64 106.867L334.26 168.867C330.825 174.012 325.547 178.34 319.016 181.366C312.485 184.391 304.959 185.996 297.281 186H289.998C282.947 185.995 276.014 184.641 269.857 182.066C263.7 179.491 258.524 175.78 254.818 171.286C251.113 166.792 249.001 161.663 248.684 156.386C248.366 151.109 249.853 145.858 253.004 141.133L282.039 97.619C282.997 96.185 283.495 94.6035 283.495 93C283.495 91.3965 282.997 89.815 282.039 88.381L253.004 44.8673C249.854 40.1424 248.367 34.8929 248.684 29.6166C249 24.3404 251.111 19.2122 254.815 14.7182C258.519 10.2243 263.693 6.5135 269.848 3.93772C276.003 1.36195 282.934 0.00654449 289.984 0H297.267ZM173.183 0C180.864 0.00211387 188.393 1.60587 194.926 4.63173C201.46 7.65758 206.74 11.9861 210.176 17.1327L251.556 79.1327C254.423 83.4398 255.916 88.187 255.916 93C255.916 97.813 254.423 102.56 251.556 106.867L210.176 168.867C206.74 174.014 201.46 178.342 194.926 181.368C188.393 184.394 180.864 185.998 173.183 186H165.9C158.849 185.995 151.916 184.641 145.759 182.066C139.602 179.491 134.426 175.78 130.72 171.286C127.015 166.792 124.903 161.663 124.586 156.386C124.268 151.109 125.755 145.858 128.906 141.133L157.941 97.619C158.899 96.185 159.397 94.6035 159.397 93C159.397 91.3965 158.899 89.815 157.941 88.381L128.906 44.8673C125.755 40.1416 124.268 34.8912 124.586 29.6141C124.903 24.337 127.015 19.2081 130.72 14.7138C134.426 10.2196 139.602 6.50901 145.759 3.93396C151.916 1.35891 158.849 0.00478628 165.9 0H173.183Z" fill="#F5F7FA"/>
</g>
<defs>
<clipPath id="clip0_2985_215">
<rect width="380" height="186" fill="white"/>
</clipPath>
</defs>
</svg>
