<svg width="424" height="401" viewBox="0 0 424 401" fill="none" xmlns="http://www.w3.org/2000/svg">
<path fill-rule="evenodd" clip-rule="evenodd" d="M360.709 360.542C358.534 360.542 356.352 360.025 354.354 358.981L282.703 321.543L211.054 358.981C206.451 361.386 200.874 360.984 196.669 357.947C192.462 354.91 190.355 349.763 191.234 344.668L204.918 265.37L146.953 209.211C143.23 205.604 141.889 200.209 143.496 195.294C145.102 190.378 149.378 186.797 154.523 186.053L234.63 174.484L270.455 102.335C272.757 97.7012 277.505 94.7675 282.703 94.7675C287.903 94.7675 292.652 97.7012 294.954 102.336L330.777 174.484L410.883 186.054C416.029 186.797 420.304 190.379 421.912 195.294C423.518 200.209 422.179 205.605 418.455 209.212L360.49 265.371L374.172 344.67C375.053 349.763 372.945 354.91 368.74 357.947C366.358 359.666 363.542 360.542 360.709 360.542Z" fill="#F5F7FA"/>
<path fill-rule="evenodd" clip-rule="evenodd" d="M242.738 328.511C240.319 328.511 237.89 327.936 235.665 326.775L155.922 285.105L76.1782 326.775C71.0555 329.45 64.8484 329.005 60.1677 325.624C55.486 322.242 53.141 316.512 54.1194 310.846L69.349 222.588L4.83521 160.084C0.691497 156.07 -0.800212 150.065 0.98826 144.595C2.77611 139.124 7.53464 135.138 13.2613 134.31L102.417 121.434L142.289 41.1349C144.85 35.9774 150.135 32.7123 155.923 32.7123C161.71 32.7123 166.994 35.9774 169.555 41.1355L209.427 121.434L298.583 134.311C304.31 135.138 309.069 139.125 310.857 144.595C312.643 150.065 311.154 156.07 307.009 160.085L242.495 222.588L257.725 310.846C258.702 316.515 256.358 322.244 251.677 325.624C249.028 327.537 245.892 328.511 242.738 328.511ZM155.916 252.921C158.346 252.921 160.776 253.499 162.991 254.657L222.543 285.775L211.169 219.865C210.323 214.963 211.958 209.962 215.541 206.49L263.721 159.812L197.139 150.197C192.187 149.482 187.907 146.391 185.692 141.931L155.916 81.964L126.14 141.931C123.925 146.391 119.644 149.482 114.693 150.197L48.1111 159.812L96.2902 206.49C99.874 209.962 101.509 214.963 100.663 219.865L89.289 285.775L148.841 254.657C151.056 253.499 153.486 252.921 155.916 252.921Z" fill="#F5F7FA"/>
</svg>
