<svg width="60" height="60" viewBox="0 0 60 60" fill="none" xmlns="http://www.w3.org/2000/svg">
<path d="M54.5896 44.8887C54.5894 47.6179 52.356 49.8506 49.6267 49.8506H9.92554C7.19621 49.8506 4.96289 47.6179 4.96265 44.8887V19.958L27.4998 35.7344C28.8665 36.6908 30.6857 36.6908 32.0525 35.7344L54.5896 19.958V44.8887ZM49.6267 10.1494C50.9233 10.1494 52.1075 10.6539 52.9939 11.4756C52.7593 11.5788 52.5313 11.7068 52.3132 11.8594L29.7761 27.6357L7.23901 11.8594C7.02075 11.7066 6.7923 11.5789 6.55737 11.4756C7.44385 10.6537 8.62872 10.1494 9.92554 10.1494H49.6267Z" fill="#2F87CC"/>
</svg>
