<svg width="60" height="60" viewBox="0 0 60 60" fill="none" xmlns="http://www.w3.org/2000/svg">
<path d="M54.7761 42.3002V49.8002C54.7789 50.4965 54.6363 51.1857 54.3574 51.8236C54.0785 52.4616 53.6694 53.0342 53.1563 53.5049C52.6433 53.9756 52.0376 54.334 51.378 54.557C50.7184 54.7801 50.0196 54.8629 49.3261 54.8002C41.6332 53.9643 34.2436 51.3356 27.7511 47.1252C21.7107 43.2869 16.5895 38.1657 12.7511 32.1252C8.52607 25.6033 5.89673 18.1777 5.07612 10.4502C5.01365 9.75891 5.09581 9.06214 5.31737 8.4043C5.53894 7.74646 5.89505 7.14197 6.36304 6.6293C6.83103 6.11663 7.40064 5.70702 8.0356 5.42655C8.67057 5.14608 9.35698 5.0009 10.0511 5.00024H17.5511C18.7644 4.9883 19.9406 5.41794 20.8605 6.20907C21.7805 7.00021 22.3813 8.09886 22.5511 9.30024C22.8677 11.7004 23.4547 14.0571 24.3011 16.3252C24.6375 17.2201 24.7103 18.1925 24.5109 19.1274C24.3115 20.0624 23.8483 20.9205 23.1761 21.6002L20.0011 24.7752C23.56 31.0341 28.7423 36.2164 35.0011 39.7752L38.1761 36.6002C38.8558 35.9281 39.714 35.4649 40.6489 35.2655C41.5838 35.0661 42.5563 35.1389 43.4511 35.4752C45.7193 36.3216 48.076 36.9087 50.4761 37.2252C51.6905 37.3966 52.7996 38.0083 53.5925 38.944C54.3853 39.8797 54.8065 41.0742 54.7761 42.3002Z" fill="#2F87CC"/>
</svg>
