<svg width="60" height="60" viewBox="0 0 60 60" fill="none" xmlns="http://www.w3.org/2000/svg">
<path fill-rule="evenodd" clip-rule="evenodd" d="M3.07186 31.4597C3.19983 33.4285 3.4151 34.9854 3.95768 36.9938C4.10487 37.5385 4.58205 37.904 5.14643 37.904H12.7112C12.8839 37.9047 13.0547 37.8689 13.2126 37.7991C13.3704 37.7292 13.5118 37.6269 13.6274 37.4986C13.743 37.3704 13.8302 37.2193 13.8834 37.055C13.9366 36.8908 13.9545 36.7172 13.936 36.5455C13.4894 32.2425 13.4414 27.7673 13.7972 23.4266C13.8118 23.2569 13.7909 23.0859 13.7358 22.9247C13.6807 22.7635 13.5926 22.6155 13.4772 22.4902C13.3617 22.3649 13.2214 22.265 13.0652 22.197C12.9091 22.1289 12.7404 22.0941 12.57 22.0948H5.14655C4.58229 22.0948 4.10498 22.4603 3.9578 23.0051C3.58655 24.3763 3.3266 25.7752 3.18049 27.1882C3.0483 28.4713 3.03354 29.3044 3.04045 30.5713L3.07186 31.4597ZM14.6067 17.1396C15.1044 14.3503 15.7723 11.6803 16.5954 9.18717C16.9634 8.07249 15.693 7.12104 14.7269 7.78772C11.5042 10.0112 8.78569 12.9175 6.78459 16.2958C6.29698 17.1189 6.88737 18.1547 7.84408 18.1547H13.3946C13.9965 18.1547 14.501 17.7323 14.6067 17.1396ZM41.3045 16.684C40.3917 12.0781 38.9801 7.88112 37.1397 4.40838C36.9687 4.08577 36.6965 3.87424 36.3415 3.78823C32.1843 2.78112 27.8142 2.78194 23.6599 3.78823C23.305 3.87424 23.0329 4.08565 22.8618 4.40838C21.0215 7.88124 19.6098 12.0781 18.6971 16.684C18.6609 16.8626 18.665 17.047 18.7091 17.2239C18.7531 17.4007 18.8359 17.5655 18.9516 17.7063C19.0672 17.8471 19.2128 17.9604 19.3777 18.038C19.5426 18.1156 19.7227 18.1554 19.9049 18.1547H40.0967C40.8768 18.1547 41.4562 17.4492 41.3045 16.684ZM46.6069 18.1547H52.1576C53.1143 18.1547 53.7046 17.119 53.2171 16.2959C51.2159 12.917 48.4972 10.0099 45.2742 7.7869C44.3081 7.12045 43.0378 8.0719 43.4058 9.18647C44.2289 11.6799 44.8969 14.3501 45.3947 17.1398C45.5005 17.7323 46.005 18.1547 46.6069 18.1547ZM47.2905 37.9041H54.8553C55.4195 37.9041 55.8968 37.5387 56.044 36.9939C56.4154 35.6227 56.6753 34.2237 56.8212 32.8107C56.9645 31.409 56.961 30.7671 56.961 29.3735C56.961 28.8151 56.8706 27.6692 56.8211 27.1882C56.675 25.7752 56.415 24.3763 56.0438 23.0051C55.8967 22.4603 55.4193 22.0948 54.855 22.0948H47.4317C47.2613 22.0941 47.0926 22.1289 46.9364 22.197C46.7802 22.265 46.64 22.3649 46.5245 22.4902C46.409 22.6155 46.321 22.7635 46.2659 22.9247C46.2108 23.0859 46.1899 23.2569 46.2045 23.4266C46.5603 27.7674 46.5123 32.2424 46.0657 36.5455C46.0472 36.7172 46.0651 36.8908 46.1183 37.055C46.1715 37.2193 46.2587 37.3705 46.3743 37.4987C46.4899 37.6269 46.6312 37.7293 46.7891 37.7992C46.947 37.869 47.1178 37.9048 47.2905 37.9041ZM45.1087 42.8278C44.5197 45.6973 43.7162 48.5683 42.6939 51.2456C42.271 52.3531 43.5106 53.3612 44.5085 52.7216C48.0743 50.4351 51.0561 47.3468 53.2163 43.7031C53.704 42.88 53.1137 41.844 52.1569 41.844H46.3149C45.724 41.8442 45.2275 42.2492 45.1087 42.8278ZM17.3074 51.2451C16.2851 48.5674 15.4819 45.6974 14.8929 42.828C14.7741 42.2492 14.2776 41.8442 13.6868 41.8442H7.84479C6.88795 41.8442 6.29768 42.8801 6.78541 43.7032C8.94565 47.3465 11.9274 50.4345 15.4928 52.721C16.4908 53.3606 17.7304 52.3525 17.3074 51.2451ZM39.753 41.8442H20.2487C20.0635 41.8434 19.8804 41.8847 19.7134 41.9647C19.5463 42.0448 19.3995 42.1617 19.2841 42.3065C19.1686 42.4514 19.0874 42.6205 19.0466 42.8013C19.0058 42.982 19.0064 43.1696 19.0484 43.35C20.1559 48.1916 21.8234 52.5119 23.9468 55.898C24.1337 56.1961 24.4055 56.3833 24.7507 56.4517C28.2167 57.1382 31.782 57.1388 35.2508 56.4517C35.5961 56.3833 35.8677 56.1961 36.0547 55.898C38.1782 52.5119 39.8458 48.1924 40.9533 43.35C40.9953 43.1696 40.9959 42.982 40.9551 42.8013C40.9143 42.6205 40.8331 42.4514 40.7176 42.3065C40.6021 42.1617 40.4554 42.0448 40.2883 41.9647C40.1212 41.8847 39.9382 41.8434 39.753 41.8442ZM17.5023 29.2098C17.5023 31.7935 17.6544 34.3423 17.9396 36.8139C17.9732 37.1144 18.1167 37.3919 18.3425 37.5931C18.5682 37.7943 18.8604 37.9051 19.1628 37.9041H40.8389C41.4675 37.9041 41.9901 37.4383 42.0621 36.8139C42.5816 32.2987 42.6382 27.7422 42.2312 23.2155C42.2043 22.909 42.0633 22.6239 41.8362 22.4164C41.6091 22.2089 41.3125 22.0942 41.0049 22.0949H18.9967C18.6891 22.0942 18.3924 22.2089 18.1653 22.4164C17.9383 22.6239 17.7973 22.909 17.7703 23.2155C17.5912 25.2086 17.5018 27.2087 17.5023 29.2098Z" fill="#2F87CC"/>
</svg>
