<svg width="60" height="38" viewBox="0 0 60 38" fill="none" xmlns="http://www.w3.org/2000/svg">
<g clip-path="url(#clip0_2634_5182)">
<path d="M60 0H0V38H60V0Z" fill="white"/>
<path d="M41.8477 18.2778V26.4858H46.463V21.6218H51.6938C53.8938 21.6066 55.763 20.2158 56.4707 18.2778H41.8477Z" fill="#37A72E"/>
<path d="M41.2344 11.5142C41.5036 14.8658 44.719 17.5182 48.6421 17.5182C48.6575 17.5182 56.6651 17.5182 56.6651 17.5182C56.7267 17.2142 56.7575 16.895 56.7575 16.5682C56.7575 13.7866 54.4882 11.537 51.6805 11.5142H41.2344Z" fill="url(#paint0_linear_2634_5182)"/>
<path d="M34.4085 17.4346C34.4624 17.3434 34.547 17.2902 34.6547 17.2902C34.8085 17.2902 34.9239 17.4118 34.9316 17.5562V26.4102H39.547V11.5142H34.9316C34.347 11.537 33.6855 11.955 33.4393 12.4794L29.7701 20.2618C29.7624 20.2922 29.747 20.3226 29.7316 20.353C29.6778 20.429 29.5855 20.4822 29.4778 20.4822C29.3085 20.4822 29.1701 20.3454 29.1701 20.1782V11.5142H24.5547V26.4102H29.1701C29.747 26.3798 30.3931 25.9618 30.6393 25.445L34.4085 17.4574C34.4008 17.4498 34.4085 17.4422 34.4085 17.4346Z" fill="#37A72E"/>
<path d="M17.173 17.6927L14.473 26.4099H11.1499L8.45757 17.6851C8.4345 17.5483 8.31142 17.4419 8.15757 17.4419C7.98834 17.4419 7.85757 17.5787 7.85757 17.7383V26.4023H3.24219V11.5063H7.20373H8.38065C9.2268 11.5063 10.1191 12.1599 10.3653 12.9579L12.6114 20.2159C12.7268 20.5807 12.9037 20.5731 13.0191 20.2159L15.2653 12.9579C15.5114 12.1523 16.4037 11.5063 17.2499 11.5063H18.4268H22.3883V26.4023H17.773V17.7383C17.773 17.7383 17.773 17.7383 17.773 17.7307C17.773 17.5635 17.6345 17.4343 17.473 17.4343C17.3191 17.4419 17.196 17.5483 17.173 17.6927Z" fill="#37A72E"/>
</g>
<rect x="0.5" y="0.5" width="59" height="37" rx="3.5" stroke="#D8DDE3"/>
<defs>
<linearGradient id="paint0_linear_2634_5182" x1="41.2363" y1="14.5162" x2="56.7565" y2="14.5162" gradientUnits="userSpaceOnUse">
<stop stop-color="#00A0E5"/>
<stop offset="1" stop-color="#0077C3"/>
</linearGradient>
<clipPath id="clip0_2634_5182">
<rect width="60" height="38" rx="4" fill="white"/>
</clipPath>
</defs>
</svg>
