<svg width="58" height="38" viewBox="0 0 58 38" fill="none" xmlns="http://www.w3.org/2000/svg">
<g clip-path="url(#clip0_2634_5163)">
<path d="M54.4353 -0.0566406H3.56106C1.59434 -0.0566406 0 1.57834 0 3.59518V34.3151C0 36.332 1.59434 37.9669 3.56106 37.9669H54.4353C56.402 37.9669 57.9964 36.332 57.9964 34.3151V3.59518C57.9964 1.57834 56.402 -0.0566406 54.4353 -0.0566406Z" fill="url(#paint0_linear_2634_5163)"/>
<path fill-rule="evenodd" clip-rule="evenodd" d="M15.4694 18.5927L15.7277 17.5474C16.7199 17.2407 18.7451 17.1013 19.1256 18.2025C19.3431 18.8436 18.7179 21.5058 18.5956 22.2864L17.6305 22.3003C17.4131 22.0215 17.5898 22.5373 17.4403 21.8543C16.516 22.7045 14.5452 22.5651 14.6947 20.8507C14.8442 19.1503 16.285 19.3733 17.848 19.1224C17.8208 18.0352 16.4888 18.3279 15.4559 18.5788L15.4694 18.5927ZM22.7411 18.4255C21.8576 18.4255 21.7217 18.2303 20.947 18.5788C21.0421 19.5684 21.545 19.1781 22.2382 19.652C23.5566 20.5441 22.143 23.3039 19.0033 22.1191L19.18 21.1156C20.0635 21.2968 20.512 21.478 21.1916 21.0877C21.3547 19.6799 18.9218 20.5998 19.6014 18.3418C19.9683 17.1153 21.5858 17.2825 22.9178 17.408L22.7275 18.4255H22.7411ZM9.20361 16.2929L11.2832 16.3626L11.5006 19.7078L12.6287 17.0317C13.0093 16.0699 12.7511 16.279 15.1432 16.3069L14.0695 22.2864L12.9006 22.2724L13.5394 17.9795L11.8132 22.3003L10.4133 22.2585C10.3725 21.4222 10.3045 18.4812 10.0871 17.9237L9.3803 22.2724L8.15703 22.2585L9.20361 16.2929ZM29.0341 28.9907L29.605 28.2938C28.4632 28.1404 28.2594 28.475 27.7429 27.5272L30.3661 27.4993C30.5292 27.2205 30.801 26.9557 30.937 26.6351C27.9468 26.426 27.1041 27.2066 26.6283 25.8685H31.4263L31.9563 25.0183L26.0303 24.9904L25.7585 24.2795L32.1466 24.2517C32.5136 24.0426 32.5136 23.8056 32.6088 23.3736L26.5604 23.3596C25.473 23.3736 25.4051 23.6244 25.2012 22.607H32.8126L33.0573 21.7428L30.8282 21.7149L30.7195 22.3003L29.4419 22.2446L30.2438 17.3801L31.4534 17.5474C31.4534 17.5752 31.4806 17.6728 31.4806 17.7146C31.4806 17.7425 31.4942 17.7843 31.4942 17.7983L31.5622 18.0491C31.902 17.631 32.1194 17.3244 32.9078 17.3522L32.5 18.4812C32.269 18.7879 31.5894 18.4394 31.3039 19.2757L32.6359 19.3315C32.7854 18.4534 32.9486 18.1885 33.1932 17.4777L33.2068 17.0595L24.875 17.0735L24.8478 17.3801C25.2963 17.3801 25.2828 17.2965 25.541 17.5195L25.4187 18.3418C24.576 18.5509 24.6032 18.0352 24.5216 19.1642C24.6439 19.3733 24.4944 19.2618 24.7527 19.3315L25.2828 19.3454C26.139 16.4881 28.6943 17.1153 29.2788 18.0073C29.5914 18.4812 29.904 20.0423 29.1292 20.1678L26.5332 20.1956C26.6555 21.6034 28.2322 21.3107 29.2516 20.9622C29.2108 21.5476 29.2516 22.0215 28.7215 22.2167C28.3001 22.37 27.4167 22.3282 26.9545 22.2167C25.8128 21.9519 25.3235 21.3665 25.242 20.0981L24.7527 20.0841C24.3041 19.8751 24.6575 20.0841 24.4265 19.5127C24.2362 20.6835 23.7197 21.4361 25.1332 21.2689C25.0517 21.9658 25.1468 22.2027 24.3993 22.2864C22.2246 22.5512 22.9314 21.0598 23.2848 19.0666C23.842 15.8887 23.4071 16.279 24.9837 16.3069L33.0845 16.3208L32.9214 15.4566L25.0925 15.4288L25.242 14.7318L32.6495 14.69C32.4592 13.5053 32.4185 13.798 29.7273 13.798H25.6225C25.908 12.7805 25.7585 13.0592 28.4225 13.0592H32.0243L31.6437 12.1811L26.4245 12.1672L26.7779 11.4424L31.1408 11.4145C30.5836 10.2437 30.6108 10.5782 27.5254 10.5225C27.9196 9.51893 28.6128 9.76982 29.8224 9.76982C29.4826 9.21229 29.238 9.2541 29.0341 8.7802C28.5312 8.51537 28.0827 8.04147 27.5798 7.67908C23.7333 4.89143 18.514 4.59872 14.3277 6.68946C10.5628 8.55719 6.86581 12.8781 6.90658 18.8576C6.96095 27.4017 14.2734 33.6321 22.5508 32.1825C26.4381 31.4996 27.4167 29.8827 29.0205 28.9767L29.0341 28.9907Z" fill="#E41D2C"/>
<path fill-rule="evenodd" clip-rule="evenodd" d="M37.9038 17.5055C42.1173 16.6274 41.4241 18.7599 41.0843 20.4883C40.9756 21.004 40.9756 22.0215 40.5814 22.3002C40.4862 22.3002 39.929 22.3142 39.8746 22.2863C39.494 22.133 39.6707 22.5929 39.6164 21.8821C38.4747 22.5511 36.6669 22.7044 36.8844 20.8367C37.0611 19.3453 38.529 19.1084 40.0241 19.1781C39.9698 18.0769 38.9911 18.2581 37.632 18.6066L37.9174 17.5055H37.9038ZM42.0629 17.38L43.191 17.394C43.2046 17.4218 43.2182 17.4636 43.2182 17.4915L43.3949 18.0072C43.5988 17.6867 43.9794 17.4079 44.5774 17.394L44.4143 18.3836L43.857 18.6066C42.7425 18.9829 42.8105 20.4186 42.5114 22.3002H41.2474L42.0629 17.38ZM48.0569 16.3207H49.2122L48.22 22.3142C46.9288 22.3281 47.2414 22.3978 46.8336 21.896C45.9909 23.1783 43.4629 21.9936 44.2376 19.3453C44.8085 17.3661 46.7385 16.8364 47.6899 18.0072L48.0705 16.3068L48.0569 16.3207ZM29.0419 8.79405C29.2458 9.26795 29.504 9.22614 29.8302 9.78367C28.6206 9.78367 27.9274 9.51884 27.5332 10.5363C30.6186 10.5921 30.5914 10.2576 31.1487 11.4284L26.7857 11.4563L26.4323 12.181L31.6515 12.195L32.0321 13.0731H28.4303C25.7799 13.0731 25.9158 12.8083 25.6304 13.8118H29.7351C32.4263 13.8118 32.4671 13.5191 32.6573 14.7039L25.2498 14.7457L25.1003 15.4426L32.9292 15.4705L33.0923 16.3346L24.9915 16.3207L24.8828 17.1013L33.2146 17.0873L33.201 17.5055C33.8262 16.8922 33.7175 16.5716 34.8864 16.2231C35.8514 15.9444 36.4631 16.1535 37.4145 16.3625L37.2106 17.6448C35.5796 17.1431 34.5194 17.2685 34.1389 18.9969C33.7175 20.8506 35.1447 21.5476 36.6533 20.8088C36.5174 22.1608 36.3 22.4954 34.7505 22.2863C33.6767 22.1469 33.3505 21.6173 32.8748 20.9622H30.9312L30.8224 21.7288L33.0515 21.7566L32.8069 22.6208H25.1954C25.3993 23.6383 25.4673 23.3874 26.5546 23.3735L32.603 23.3874C32.4942 23.8056 32.5078 24.0564 32.1409 24.2655L25.7527 24.2934L26.0245 25.0042L31.9506 25.0321L31.4205 25.8824H26.6226C27.0983 27.2065 27.941 26.4399 30.9312 26.649C30.7953 26.9695 30.5234 27.2344 30.3603 27.5131L27.7371 27.541C28.24 28.4749 28.4575 28.1543 29.5992 28.3076L29.0283 29.0045C30.972 30.468 32.4807 31.6946 35.6204 32.2521C38.4747 32.7539 41.4513 32.1964 43.7483 31.0395C53.6975 26.0078 53.4257 11.512 43.6667 6.71725C40.16 5.00284 35.5116 4.84952 31.8826 6.80088C30.1293 7.73474 29.7079 8.40378 29.0555 8.80799L29.0419 8.79405Z" fill="#F8B02B"/>
<path fill-rule="evenodd" clip-rule="evenodd" d="M8.15625 22.2725L9.37952 22.2865L10.0863 17.9377C10.3038 18.4953 10.3717 21.4362 10.4125 22.2725L11.8125 22.3143L13.5386 17.9935L12.8998 22.2865L14.0687 22.3004L15.1425 16.3209C12.7503 16.293 13.0085 16.0839 12.628 17.0457L11.4998 19.7218L11.2824 16.3766L9.20282 16.3069L8.15625 22.2725ZM46.0231 21.1714C45.0037 20.0982 45.8736 18.3141 46.825 18.551C47.7629 18.788 47.5862 21.1435 46.0231 21.1714ZM47.6813 18.0074C46.7299 16.8366 44.8134 17.3663 44.229 19.3455C43.4543 21.9798 45.9823 23.1785 46.825 21.8962C47.2328 22.398 46.9202 22.3143 48.2114 22.3143L49.2036 16.3209H48.0483L47.6677 18.0214L47.6813 18.0074ZM38.3437 21.1853C38.1534 20.2515 38.9961 19.8891 39.7981 20.0563C39.8388 21.0041 39.1864 21.5199 38.3437 21.1853ZM37.9088 17.5196L37.6234 18.6207C38.9825 18.2862 39.9748 18.105 40.0155 19.1922C38.5204 19.1225 37.0525 19.3594 36.8758 20.8508C36.6448 22.7185 38.4661 22.5652 39.6078 21.8962C39.6621 22.607 39.4854 22.1471 39.866 22.3004C39.9204 22.3283 40.4776 22.3143 40.5728 22.3143C40.9805 22.0495 40.9805 21.0181 41.0757 20.5024C41.4291 18.7601 42.1087 16.6415 37.8952 17.5196H37.9088ZM17.6298 20.0145C17.6569 20.4884 17.5754 20.8508 17.2764 21.0878C17.0725 21.2411 16.4609 21.4223 16.2162 21.1853C15.4551 20.4745 16.8822 20.0006 17.6162 20.0145H17.6298ZM15.4687 18.5928C16.5016 18.3419 17.8336 18.0492 17.8608 19.1364C16.2978 19.3873 14.857 19.1643 14.7075 20.8648C14.5444 22.5792 16.5152 22.7185 17.4531 21.8683C17.6026 22.5513 17.4259 22.0356 17.6434 22.3143L18.6084 22.3004C18.7307 21.5059 19.3559 18.8576 19.1385 18.2165C18.7579 17.1014 16.7463 17.2408 15.7405 17.5614L15.4823 18.6068L15.4687 18.5928ZM26.7363 19.2897C26.913 18.5789 27.212 18.2862 28.0139 18.3977C28.2994 18.8158 28.2994 18.6904 28.3537 19.2897H26.7363ZM25.2956 19.3594L25.2412 20.1121C25.3227 21.3805 25.8256 21.9519 26.9538 22.2307C27.4159 22.3422 28.2994 22.384 28.7207 22.2307C29.2508 22.0495 29.21 21.5617 29.2508 20.9763C28.2314 21.3247 26.6547 21.6174 26.5324 20.2097L29.1285 20.1818C29.9032 20.0563 29.5906 18.5092 29.278 18.0214C28.6935 17.1293 26.1383 16.5021 25.282 19.3594H25.2956ZM33.206 17.5056C32.9614 18.2165 32.7983 18.4813 32.6487 19.3594V20.126L32.8798 20.9763C33.3555 21.6314 33.6817 22.161 34.7555 22.3004C36.305 22.5095 36.5224 22.175 36.6583 20.8229C35.1361 21.5617 33.7225 20.8648 34.1439 19.011C34.538 17.2687 35.5982 17.1572 37.2156 17.659L37.4195 16.3766C36.4681 16.1815 35.8564 15.9724 34.8914 16.2373C33.7225 16.5718 33.8312 16.9063 33.206 17.5196V17.5056ZM22.917 17.4081C21.585 17.2966 19.9676 17.1154 19.6006 18.3419C18.921 20.5999 21.3403 19.68 21.1908 21.0878C20.4976 21.478 20.0627 21.2968 19.1792 21.1156L19.0025 22.1192C22.1423 23.304 23.5422 20.5581 22.2374 19.6521C21.5442 19.1782 21.0413 19.5824 20.9462 18.5789C21.7209 18.2165 21.8432 18.4256 22.7403 18.4256L22.9306 17.4081H22.917Z" fill="#FEFEFE"/>
<path fill-rule="evenodd" clip-rule="evenodd" d="M24.4373 19.5265L24.5325 19.192C24.614 18.063 24.5868 18.5787 25.4295 18.3696L25.5518 17.5472C25.2936 17.3242 25.3072 17.4079 24.8587 17.4079L24.8858 17.1012L24.9946 16.3207C23.4179 16.2928 23.8529 15.9025 23.2956 19.0805C22.9422 21.0736 22.2354 22.565 24.4101 22.3002C25.1441 22.2166 25.0625 21.9796 25.1441 21.2827C23.7441 21.45 24.2606 20.6973 24.4373 19.5265ZM30.8255 21.7427L30.9342 20.9761L31.0701 20.1398L31.3148 19.3035C31.6138 18.4672 32.2934 18.8156 32.5109 18.509L32.9186 17.38C32.1167 17.3521 31.8992 17.6588 31.573 18.0769L31.5051 17.826C31.5051 17.8121 31.4915 17.7703 31.4915 17.7424C31.4915 17.7145 31.4643 17.603 31.4643 17.5751L30.2546 17.4079L29.4527 22.2723L30.7303 22.3281L30.8391 21.7427H30.8255ZM41.2504 22.3002H42.5145C42.8135 20.4185 42.7455 18.9829 43.8601 18.6066L44.4173 18.3835L44.5804 17.3939C43.9824 17.4079 43.6018 17.6866 43.3979 18.0072L43.2212 17.4915C43.2076 17.4636 43.2076 17.4218 43.1941 17.3939L42.0659 17.38L41.2504 22.3002Z" fill="#FEFEFE"/>
<path fill-rule="evenodd" clip-rule="evenodd" d="M46.0228 21.1711C47.5995 21.1432 47.7762 18.7877 46.8247 18.5507C45.8597 18.3138 45.0034 20.0979 46.0228 21.1711Z" fill="#F8B02B"/>
<path fill-rule="evenodd" clip-rule="evenodd" d="M17.6327 20.0145C16.8988 20.0005 15.4716 20.4744 16.2328 21.1853C16.4774 21.4083 17.0891 21.2271 17.2929 21.0877C17.592 20.8647 17.6599 20.4884 17.6463 20.0145H17.6327ZM30.9391 20.9623L32.8828 20.9762L32.6517 20.126H31.0751L30.9391 20.9623Z" fill="#E41D2C"/>
<path fill-rule="evenodd" clip-rule="evenodd" d="M38.3419 21.1852C39.1982 21.5057 39.8371 21.004 39.7963 20.0562C38.9808 19.9028 38.1517 20.2652 38.3419 21.1852ZM31.0703 20.1258H32.647V19.3592L31.315 19.2896L31.0703 20.1258Z" fill="#F8B02B"/>
<path fill-rule="evenodd" clip-rule="evenodd" d="M26.7344 19.2896H28.3518C28.311 18.7042 28.2974 18.8157 28.012 18.3975C27.2101 18.286 26.9111 18.5787 26.7344 19.2896Z" fill="#E41D2C"/>
<path fill-rule="evenodd" clip-rule="evenodd" d="M24.4375 19.5267C24.6686 20.0981 24.3152 19.8891 24.7637 20.0981L25.253 20.1121L25.3074 19.3594L24.7773 19.3455C24.5055 19.2897 24.655 19.3873 24.5462 19.1782L24.4511 19.5127L24.4375 19.5267Z" fill="#F8B02B"/>
</g>
<defs>
<linearGradient id="paint0_linear_2634_5163" x1="28.9977" y1="-0.0513441" x2="28.9977" y2="37.9752" gradientUnits="userSpaceOnUse">
<stop stop-color="#1D4C80"/>
<stop offset="1" stop-color="#173A63"/>
</linearGradient>
<clipPath id="clip0_2634_5163">
<rect width="58" height="38" fill="white"/>
</clipPath>
</defs>
</svg>
