<svg width="55" height="38" viewBox="0 0 55 38" fill="none" xmlns="http://www.w3.org/2000/svg">
<g clip-path="url(#clip0_2634_5176)">
<path d="M55 34.7237C55 36.5205 53.5444 37.9771 51.7489 37.9771H3.25112C1.45557 37.9772 0 36.5205 0 34.7237V3.27622C0 1.47943 1.45557 0.0229492 3.25112 0.0229492H51.7489C53.5445 0.0229492 55 1.47954 55 3.27622V34.7237Z" fill="white"/>
<path d="M12.2082 19.2188L10.9168 13.0198C10.696 12.1649 10.0536 11.9106 9.25097 11.877H3.33009L3.27734 12.1602C7.88886 13.2788 10.9402 15.9775 12.2082 19.2188Z" fill="#F79F1A"/>
<path d="M25.9267 12.0017H22.1011L19.7118 26.0319H23.5311L25.9267 12.0017ZM14.539 26.0178L20.5557 12.0112H16.5069L12.764 21.5808L12.3645 20.1359C11.6308 18.3977 9.53391 15.8959 7.07223 14.321L10.4936 26.0226L14.539 26.0178ZM36.8383 21.4454C36.8525 19.8526 35.8304 18.6376 33.6278 17.6341C32.2892 16.9859 31.4733 16.5537 31.4831 15.896C31.4831 15.3149 32.174 14.6907 33.6711 14.6907C34.9237 14.6715 35.8256 14.9451 36.5311 15.2285L36.8767 15.387L37.3952 12.3476C36.6369 12.0641 35.4515 11.7616 33.9689 11.7616C30.1923 11.7616 27.5339 13.6632 27.5099 16.3905C27.4858 18.4074 29.4104 19.531 30.8594 20.2031C32.3469 20.8882 32.846 21.3267 32.8364 21.9413C32.8268 22.8811 31.651 23.3096 30.5522 23.3096C29.0214 23.3096 28.2104 23.0984 26.9526 22.5741L26.4638 22.3494L25.9269 25.4934C26.8188 25.8835 28.4694 26.2244 30.1828 26.2386C34.1989 26.2386 36.8095 24.3612 36.8383 21.4454ZM41.3825 23.929C41.8191 23.929 45.7204 23.9338 46.2772 23.9338C46.3924 24.4224 46.7427 26.0368 46.7427 26.0368H50.2888L47.1936 12.0162H44.2426C43.3259 12.0162 42.6448 12.2659 42.2415 13.178L36.5648 26.0368H40.5815C40.5812 26.0368 41.2337 24.3085 41.3825 23.929ZM44.0024 17.1346C43.9835 17.173 44.3193 16.3232 44.5112 15.795L44.7702 17.0048C44.7702 17.0048 45.4998 20.3566 45.6532 21.0576H42.4813C42.7981 20.251 44.0024 17.1346 44.0024 17.1346ZM51.7489 0.0229492H3.25112C1.45557 0.0229492 0 1.47943 0 3.27622V6.65267H55V3.27622C55 1.47943 53.5445 0.0229492 51.7489 0.0229492Z" fill="#059BBF"/>
<path d="M51.7489 37.9774H3.25112C1.45557 37.9774 0 36.5208 0 34.7241V31.3477H55V34.7241C55 36.5208 53.5445 37.9774 51.7489 37.9774Z" fill="#F79F1A"/>
</g>
<defs>
<clipPath id="clip0_2634_5176">
<rect width="55" height="38" fill="white"/>
</clipPath>
</defs>
</svg>
